<svg width="153" height="18" viewBox="0 0 153 18" fill="none" xmlns="http://www.w3.org/2000/svg">
<path d="M2.88 1.27191H0V17.2719H3.2V6.07191H3.264C3.264 6.07191 3.584 7.09591 4.16 7.86391L6.4 10.8719H9.6L11.84 7.86391C12.416 7.09591 12.736 6.07191 12.736 6.07191H12.8V17.2719H16V1.27191H13.12L8.128 7.99191H7.904L2.88 1.27191Z" fill="#111D30"/>
<path d="M24.3645 17.2719L25.6765 14.0719H34.1245L35.4365 17.2719H38.8925L32.3325 1.27191H27.5325L20.9725 17.2719H24.3645ZM26.8605 11.1919L29.7405 4.15191H30.0605L32.9405 11.1919H26.8605Z" fill="#111D30"/>
<path d="M43.8563 17.2719H47.0563V10.7119H52.4963L56.5603 17.2719H60.1763L56.5603 11.4479C56.4323 11.2239 56.2083 10.9359 55.9843 10.6799C58.5123 10.4239 60.1763 8.63191 60.1763 6.07191C60.1763 3.19191 58.2563 1.27191 55.3763 1.27191H43.8563V17.2719ZM47.0563 7.83191V4.15191H55.3763C56.3363 4.15191 56.9762 4.79191 56.9762 5.75191V6.2319C56.9762 7.19191 56.3363 7.83191 55.3763 7.83191H47.0563Z" fill="#111D30"/>
<path d="M69.125 17.2719V1.27191H65.925V17.2719H69.125Z" fill="#111D30"/>
<path d="M87.813 10.8719C87.205 13.0799 85.381 14.5519 83.045 14.5519C80.165 14.5519 78.085 12.3119 78.085 9.27191C78.085 6.2319 80.165 3.99191 83.045 3.99191C84.549 3.99191 85.829 4.59991 86.725 5.59191L88.997 3.28791C87.525 1.81591 85.445 0.951904 83.045 0.951904C78.245 0.951904 74.725 4.47191 74.725 9.27191C74.725 14.0719 78.245 17.5919 83.045 17.5919C87.845 17.5919 91.365 14.0719 91.365 9.27191C91.365 8.82391 91.333 8.40791 91.269 7.99191H83.045V10.8719H87.813Z" fill="#111D30"/>
<path d="M104.489 0.951904C99.6887 0.951904 96.1687 4.47191 96.1687 9.27191C96.1687 14.0719 99.6887 17.5919 104.489 17.5919C109.289 17.5919 112.809 14.0719 112.809 9.27191C112.809 4.47191 109.289 0.951904 104.489 0.951904ZM104.489 14.5519C101.609 14.5519 99.5287 12.3119 99.5287 9.27191C99.5287 6.2319 101.609 3.99191 104.489 3.99191C107.369 3.99191 109.449 6.2319 109.449 9.27191C109.449 12.3119 107.369 14.5519 104.489 14.5519Z" fill="#111D30"/>
<path d="M118.412 17.2719H131.212V14.3919H121.612V1.27191H118.412V17.2719Z" fill="#111D30"/>
<path d="M144.481 1.27191H136.481V17.2719H144.481C149.281 17.2719 152.801 13.8799 152.801 9.27191C152.801 4.63191 149.281 1.27191 144.481 1.27191ZM139.681 4.15191H144.481C147.361 4.15191 149.441 6.32791 149.441 9.27191C149.441 12.2479 147.361 14.3919 144.481 14.3919H139.681V4.15191Z" fill="#111D30"/>
</svg>
