<svg width="201" height="24" viewBox="0 0 201 24" fill="none" xmlns="http://www.w3.org/2000/svg">
<path d="M14.4 7.08801C14.688 5.87201 14.528 4.24001 14.528 2.99201H15.264C15.264 4.24001 15.104 5.87201 15.392 7.08801L19.424 23.44H24.288L29.824 1.04001H25.76L22.368 15.472C22.112 16.592 22.304 18.16 22.336 19.312L21.6 19.344C21.568 18.16 21.696 16.624 21.408 15.472L17.28 1.04001H12.48L8.416 15.472C8.128 16.624 8.256 18.16 8.224 19.344L7.52 19.312C7.552 18.16 7.744 16.592 7.456 15.472L4.064 1.04001H0L5.568 23.44H10.4L14.4 7.08801Z" fill="#111D30"/>
<path d="M30.8438 15.408C30.8438 20.56 34.4598 23.952 39.9638 23.952C45.4998 23.952 49.1158 20.368 49.1158 15.408C49.1158 10.48 45.4998 6.96001 39.9638 6.96001C34.4598 6.96001 30.8438 10.256 30.8438 15.408ZM35.0037 15.408C35.0037 12.784 36.4118 10.736 39.9638 10.736C43.5158 10.736 44.9558 12.784 44.9558 15.408C44.9558 18.032 43.5158 20.176 39.9638 20.176C36.4438 20.176 35.0037 18.032 35.0037 15.408Z" fill="#111D30"/>
<path d="M56.4408 8.27201C55.4167 9.07201 54.9688 10.8 54.4888 12.016L53.8168 11.728C54.2968 10.512 54.9368 8.97601 54.9368 7.69601V7.44001H51.0328V23.44H54.9368V15.28C54.9368 12.208 57.1128 10.832 59.6728 10.832C62.0088 10.832 63.1288 12.208 63.1288 15.28V23.44H67.0648V12.464C67.0648 8.81601 64.5368 6.96001 61.2728 6.96001C59.1927 6.96001 57.7848 7.21601 56.4408 8.27201Z" fill="#111D30"/>
<path d="M83.009 8.68801C83.009 9.64801 83.553 10.768 83.873 11.696L83.201 11.92C82.881 11.024 82.689 9.71201 82.017 9.04001C80.865 7.79201 79.201 6.96001 77.057 6.96001C72.449 6.96001 69.185 10.896 69.089 15.504C68.993 20.24 72.289 23.952 77.089 23.952C79.233 23.952 80.865 23.216 82.049 21.968C82.721 21.296 82.881 19.984 83.169 19.056L83.873 19.28C83.553 20.208 83.009 21.328 83.009 22.288V23.44L86.945 23.408V0.208008L83.009 0.240007V8.68801ZM77.601 20.272C74.593 20.272 72.993 18.256 72.993 15.568C72.993 12.848 74.593 10.608 77.601 10.608C80.609 10.608 82.305 12.848 82.305 15.568C82.305 18.256 80.609 20.272 77.601 20.272Z" fill="#111D30"/>
<path d="M98.933 23.952C103.957 23.952 106.325 20.528 106.805 18.864H102.325C102.005 19.664 100.693 20.592 98.549 20.592C95.253 20.592 93.653 18.384 93.653 16.624L107.125 16.656C107.157 16.368 107.157 15.6 107.157 15.28C107.189 10.864 103.733 6.96001 98.165 6.96001C92.757 6.96001 88.949 10.576 88.949 15.344C88.949 20.112 92.437 23.952 98.933 23.952ZM93.653 14C93.653 11.984 95.541 10.064 98.261 10.064C100.949 10.064 102.581 11.792 102.581 14H93.653Z" fill="#111D30"/>
<path d="M114.677 8.56001C113.685 9.29601 113.173 10.896 112.693 12.016L112.021 11.728C112.501 10.608 113.173 9.13601 113.173 7.92001V7.44001H109.269V23.44H113.173V16.464C113.173 12.016 117.301 10.608 121.269 10.608V6.96001C118.133 6.96001 116.373 7.24801 114.677 8.56001Z" fill="#111D30"/>
<path d="M138.449 8.36801C137.329 9.23201 136.977 10.96 136.753 12.336L136.049 12.24C136.241 10.864 136.689 8.84801 135.601 7.95201C134.737 7.21601 133.489 6.96001 132.049 6.96001C130.417 6.96001 129.425 7.21601 128.593 8.04801C127.601 9.00801 127.377 10.992 126.961 12.336L126.289 12.112C126.673 10.768 127.313 9.04001 127.313 7.63201V7.44001H123.377V23.44H127.313V14.832C127.313 11.6 128.497 10.128 130.833 10.128C133.009 10.128 134.033 11.568 134.033 14.832V23.44H137.969V14.832C137.969 11.6 138.929 10.128 141.233 10.128C143.345 10.128 144.337 11.568 144.337 14.832V23.44H148.273V12.464C148.273 8.81601 145.681 6.96001 142.353 6.96001C140.753 6.96001 139.441 7.63201 138.449 8.36801Z" fill="#111D30"/>
<path d="M160.357 23.952C165.381 23.952 167.749 20.528 168.229 18.864H163.749C163.429 19.664 162.117 20.592 159.973 20.592C156.677 20.592 155.077 18.384 155.077 16.624L168.549 16.656C168.581 16.368 168.581 15.6 168.581 15.28C168.613 10.864 165.157 6.96001 159.589 6.96001C154.181 6.96001 150.373 10.576 150.373 15.344C150.373 20.112 153.861 23.952 160.357 23.952ZM155.077 14C155.077 11.984 156.965 10.064 159.685 10.064C162.373 10.064 164.005 11.792 164.005 14H155.077Z" fill="#111D30"/>
<path d="M176.101 8.27201C175.077 9.07201 174.629 10.8 174.149 12.016L173.477 11.728C173.957 10.512 174.597 8.97601 174.597 7.69601V7.44001H170.693V23.44H174.597V15.28C174.597 12.208 176.773 10.832 179.333 10.832C181.669 10.832 182.789 12.208 182.789 15.28V23.44H186.725V12.464C186.725 8.81601 184.197 6.96001 180.933 6.96001C178.853 6.96001 177.445 7.21601 176.101 8.27201Z" fill="#111D30"/>
<path d="M192.269 18.064C192.269 20.624 193.293 23.44 196.301 23.44H200.173V19.792H198.285C196.781 19.792 196.173 19.408 196.173 18.064V10.864H200.333V7.44001H196.173V1.39201H192.269V7.44001H189.069V10.864H192.269V18.064Z" fill="#111D30"/>
</svg>
