<svg width="85" height="30" viewBox="0 0 85 30" fill="none" xmlns="http://www.w3.org/2000/svg">
<path d="M0 29.808V29.2L0.416 29.072C0.842667 28.9653 1.14133 28.784 1.312 28.528C1.48267 28.2933 1.568 27.952 1.568 27.504C1.568 26.6293 1.568 25.7973 1.568 25.008C1.58933 24.24 1.6 23.4933 1.6 22.768V13.968C1.6 13.3066 1.6 12.7413 1.6 12.272C1.6 11.7813 1.58933 11.2373 1.568 10.64C1.568 10.192 1.49333 9.85062 1.344 9.61596C1.19467 9.35996 0.906667 9.18929 0.48 9.10396L0 9.00796V8.43196L5.152 6.57596L5.536 6.89596L5.824 8.07996C7.296 7.07729 8.96 6.57596 10.816 6.57596C12.6293 6.57596 14.08 7.25862 15.168 8.62396C16.2773 9.98929 16.832 12.0053 16.832 14.672C16.832 17.2533 16.224 19.2693 15.008 20.72C13.8133 22.1493 12.1813 22.864 10.112 22.864C9.28 22.864 8.49067 22.7893 7.744 22.64C7.01867 22.4906 6.368 22.2666 5.792 21.968V22.928C5.792 23.568 5.792 24.2613 5.792 25.008C5.81333 25.7546 5.824 26.5653 5.824 27.44C5.824 28.2933 6.19733 28.8266 6.944 29.04L7.552 29.2V29.808H0ZM8.608 21.584C9.73867 21.584 10.624 21.0826 11.264 20.08C11.9253 19.056 12.256 17.296 12.256 14.8C12.256 12.3253 11.9467 10.5973 11.328 9.61596C10.7093 8.61329 9.83467 8.11196 8.704 8.11196C8.29867 8.11196 7.86133 8.17596 7.392 8.30396C6.92267 8.43196 6.42133 8.64529 5.888 8.94396V21.04C6.74133 21.4026 7.648 21.584 8.608 21.584Z" fill="#111D30"/>
<path d="M18.3125 22.416V21.808L18.7925 21.648C19.2192 21.5413 19.5072 21.36 19.6565 21.104C19.8272 20.848 19.9125 20.5066 19.9125 20.08V10.704C19.8912 10.2346 19.8058 9.88262 19.6565 9.64796C19.5072 9.39196 19.2192 9.22129 18.7925 9.13596L18.3125 9.00796V8.43196L23.5285 6.57596L23.9125 6.92796L24.2005 9.74396V9.96796C24.5205 9.37062 24.9258 8.81596 25.4165 8.30396C25.9072 7.79196 26.4405 7.37596 27.0165 7.05596C27.5925 6.73596 28.1685 6.57596 28.7445 6.57596C29.5552 6.57596 30.1632 6.78929 30.5685 7.21596C30.9738 7.64262 31.1765 8.18662 31.1765 8.84796C31.1765 9.57329 30.9738 10.128 30.5685 10.512C30.1632 10.8746 29.6725 11.056 29.0965 11.056C28.2432 11.056 27.5072 10.672 26.8885 9.90396L26.8245 9.83996C26.6112 9.58396 26.3658 9.44529 26.0885 9.42396C25.8325 9.38129 25.5765 9.50929 25.3205 9.80796C25.1072 10.0213 24.9045 10.2773 24.7125 10.576C24.5418 10.8533 24.3818 11.184 24.2325 11.568V19.952C24.2325 20.3573 24.3178 20.6986 24.4885 20.976C24.6592 21.232 24.9472 21.4133 25.3525 21.52L26.3125 21.808V22.416H18.3125Z" fill="#111D30"/>
<path d="M35.9308 4.81596C35.2268 4.81596 34.6294 4.59196 34.1387 4.14396C33.6481 3.69596 33.4027 3.13062 33.4027 2.44796C33.4027 1.74396 33.6481 1.17862 34.1387 0.751955C34.6294 0.303956 35.2268 0.0799561 35.9308 0.0799561C36.6348 0.0799561 37.2321 0.303956 37.7228 0.751955C38.2134 1.17862 38.4588 1.74396 38.4588 2.44796C38.4588 3.13062 38.2134 3.69596 37.7228 4.14396C37.2321 4.59196 36.6348 4.81596 35.9308 4.81596ZM32.2508 22.416V21.808L32.7308 21.68C33.1574 21.552 33.4454 21.36 33.5947 21.104C33.7441 20.848 33.8294 20.5066 33.8507 20.08V14.192C33.8507 13.5306 33.8507 12.9226 33.8507 12.368C33.8507 11.792 33.8401 11.2053 33.8187 10.608C33.8187 10.1813 33.7334 9.85062 33.5628 9.61596C33.4134 9.35996 33.1254 9.18929 32.6987 9.10396L32.2508 9.00796V8.43196L37.8507 6.57596L38.2347 6.92796L38.1388 11.472V20.112C38.1388 20.5386 38.2134 20.88 38.3628 21.136C38.5334 21.392 38.8214 21.584 39.2267 21.712L39.5788 21.808V22.416H32.2508Z" fill="#111D30"/>
<path d="M41 22.416V21.776L41.704 21.584C42.0453 21.4773 42.2693 21.328 42.376 21.136C42.4827 20.9226 42.5467 20.6453 42.568 20.304V13.968C42.568 13.264 42.568 12.6666 42.568 12.176C42.568 11.6853 42.5573 11.1093 42.536 10.448C42.536 10.0853 42.4827 9.80796 42.376 9.61596C42.2693 9.40262 42.0347 9.25329 41.672 9.16796L41 9.00796V8.43196L46.184 6.57596L46.568 6.92796L46.792 9.07196C47.5387 8.38929 48.3707 7.80262 49.288 7.31196C50.2053 6.82129 51.144 6.57596 52.104 6.57596C53.1707 6.57596 54.0027 6.78929 54.6 7.21596C55.1973 7.64262 55.656 8.29329 55.976 9.16796C56.7867 8.35729 57.6827 7.72796 58.664 7.27996C59.6453 6.81062 60.616 6.57596 61.576 6.57596C63.0267 6.57596 64.1147 6.93862 64.84 7.66396C65.5653 8.38929 65.928 9.53062 65.928 11.088V20.336C65.928 21.0186 66.2267 21.4453 66.824 21.616L67.432 21.776V22.416H60.232V21.776L60.808 21.616C61.384 21.424 61.672 20.9866 61.672 20.304V10.928C61.672 10.0106 61.5013 9.39196 61.16 9.07196C60.84 8.73062 60.3067 8.55996 59.56 8.55996C58.984 8.55996 58.44 8.67729 57.928 8.91196C57.416 9.14662 56.8507 9.50929 56.232 9.99996C56.36 10.64 56.424 11.376 56.424 12.208V20.336C56.4453 20.6986 56.5093 20.9866 56.616 21.2C56.744 21.392 56.9787 21.5306 57.32 21.616L57.864 21.776V22.416H50.632V21.776L51.304 21.584C51.6453 21.4773 51.8693 21.328 51.976 21.136C52.104 20.9226 52.168 20.6453 52.168 20.304V10.96C52.168 10.0853 52.008 9.46662 51.688 9.10396C51.368 8.74129 50.824 8.55996 50.056 8.55996C49.0747 8.55996 48.0187 9.02929 46.888 9.96796V20.336C46.888 21.04 47.1867 21.4666 47.784 21.616L48.328 21.776V22.416H41Z" fill="#111D30"/>
<path d="M73.2337 22.864C72.0177 22.864 70.9831 22.5226 70.1298 21.84C69.2978 21.136 68.8818 20.1333 68.8818 18.832C68.8818 17.808 69.3724 16.8693 70.3538 16.016C71.3564 15.1413 72.9244 14.5013 75.0577 14.096C75.4204 14.0106 75.8364 13.936 76.3057 13.872C76.7964 13.7866 77.2764 13.7013 77.7458 13.616V11.344C77.7458 9.89329 77.5644 8.89062 77.2018 8.33596C76.8391 7.78129 76.2631 7.50396 75.4737 7.50396H75.3777C74.8871 7.50396 74.4924 7.66396 74.1937 7.98396C73.9164 8.28262 73.7351 8.78396 73.6497 9.48796L73.5537 9.90396C73.4897 10.7573 73.2658 11.3866 72.8818 11.792C72.4977 12.176 72.0177 12.368 71.4417 12.368C70.9084 12.368 70.4604 12.208 70.0977 11.888C69.7564 11.5466 69.5857 11.1093 69.5857 10.576C69.5857 9.70129 69.8844 8.96529 70.4818 8.36796C71.0791 7.77062 71.8684 7.32262 72.8497 7.02396C73.8524 6.72529 74.9297 6.57596 76.0817 6.57596C77.9804 6.57596 79.4311 7.03462 80.4338 7.95196C81.4364 8.86929 81.9378 10.3626 81.9378 12.432V19.568C81.9378 20.4853 82.3751 20.944 83.2497 20.944H83.9857L84.3057 21.296C83.9217 21.7866 83.4951 22.16 83.0257 22.416C82.5564 22.6933 81.9164 22.832 81.1058 22.832C80.1884 22.832 79.4524 22.6186 78.8978 22.192C78.3644 21.744 78.0124 21.1573 77.8418 20.432C77.1591 21.1573 76.4871 21.744 75.8258 22.192C75.1644 22.64 74.3004 22.864 73.2337 22.864ZM75.0898 20.816C75.5164 20.816 75.9217 20.72 76.3057 20.528C76.6898 20.336 77.1698 20.016 77.7458 19.568V14.448C77.1911 14.5333 76.6257 14.64 76.0498 14.768C75.1324 14.9813 74.3857 15.376 73.8098 15.952C73.2551 16.528 72.9778 17.3066 72.9778 18.288C72.9778 19.1413 73.1697 19.7813 73.5537 20.208C73.9591 20.6133 74.4711 20.816 75.0898 20.816Z" fill="#111D30"/>
</svg>
