<svg width="154" height="49" viewBox="0 0 154 49" fill="none" xmlns="http://www.w3.org/2000/svg">
<path d="M23.4758 32.4176C23.4265 32.6141 23.3935 32.7455 23.3422 32.9499L23.0319 32.7187C22.3093 33.1209 21.5844 33.5496 20.8368 33.9344C19.8352 34.4503 18.8087 34.8918 17.8472 35.5202C17.0315 36.0536 15.999 36.3599 15.3149 37.0554C14.6683 37.7125 13.6292 37.6364 13.134 38.4447C12.1469 38.5767 11.6605 39.5064 10.8303 39.9006C10.5866 40.0162 10.4219 40.2275 10.0924 40.2466C9.76284 40.2656 9.76464 40.3453 9.39265 41.0454C9.29068 41.0597 9.15747 41.0825 9.02325 41.0951C8.9275 41.1039 8.76284 41.0665 8.74401 41.1045C8.3053 42.0344 7.07934 41.8016 6.5561 42.5947C6.50662 42.6698 6.47477 42.8137 6.42089 42.8209C4.88983 43.0234 3.97016 44.3573 2.61479 44.8688C2.10677 45.0603 1.90185 45.5899 1.42448 45.7968C1.21975 45.8856 1.03165 46.0128 0.8113 46.1362C0.772272 46.3921 0.703428 46.6426 0.606171 46.8826C0.428851 47.1427 0.225768 47.3843 0 47.6037C0.78005 47.9491 1.51042 47.6761 2.17228 48.0298L0.527645 48.1067L0.425682 48.485C2.27124 49.0763 2.29668 49.1386 4.46175 48.252C5.9936 47.6248 7.64384 47.2143 8.95615 46.1146C10.2144 45.8307 11.2132 45.0104 12.3372 44.4519C13.8696 43.6907 15.3233 42.773 16.8398 41.9773C18.748 40.9757 20.6789 40.0176 22.612 39.0647C24.4217 38.1724 26.2871 37.417 28.1691 36.682C29.4111 36.1971 30.6391 35.6274 31.8835 35.1217C33.1279 34.6161 34.3901 34.1518 35.6479 33.6794C36.5706 33.3323 37.4758 32.8737 38.4324 32.6965C39.4442 32.509 40.2014 31.795 41.1924 31.6135C41.8172 31.4993 42.3777 31.0845 43.0582 31.2051C43.1523 31.2217 43.2799 31.2473 43.3444 31.2015C44.4139 30.4416 45.7262 30.396 46.9148 29.9903C48.1499 29.5697 49.4142 29.2291 50.6744 28.8868C51.3709 28.6973 52.0868 28.5999 52.7625 28.3088C53.5598 27.9657 54.4552 28.0146 55.2866 27.7359C56.3203 27.4075 57.3733 27.1432 58.4396 26.9444C59.4679 26.7361 60.491 26.505 61.5087 26.2511C63.4889 25.7563 65.5314 25.5316 67.4691 24.8501C67.9819 24.6698 68.5344 24.7834 69.0955 24.5656C69.8515 24.2722 70.8553 24.5356 71.5418 24.167C72.2996 23.7601 73.179 24.2944 73.804 23.6444C75.3064 23.6872 76.7169 23.0622 78.2159 23.0482C78.6612 23.0442 79.1041 22.8647 79.5496 22.7728C80.0418 22.6712 80.5336 22.5668 81.029 22.4841C81.4789 22.4086 82.0002 22.6662 82.3619 22.1898C83.1232 22.2914 83.8379 21.9739 84.5697 21.9294C85.5082 21.8713 86.3936 21.3938 87.3553 21.6089C87.8864 21.0169 88.7552 21.6163 89.3145 21.0542C89.4124 20.956 89.6851 21.0332 89.877 21.027C90.4325 21.0083 90.9669 21.047 91.516 20.7647C91.9858 20.5244 92.5895 20.8791 93.1542 20.4863C93.4789 20.2603 94.0895 20.4462 94.5511 20.4462L95.0909 19.9064C95.8846 20.446 96.5411 20.0867 97.1813 19.5871C97.5907 20.0782 98.2472 20.0009 98.62 19.7956C99.1008 19.5312 99.5354 19.5909 99.9886 19.5828C101.312 19.559 102.596 19.1261 103.942 19.2517C104.288 19.284 104.669 18.9342 105.024 18.7649C105.214 18.8547 105.412 18.9287 105.615 18.9863C106.209 19.1113 106.776 18.8046 107.417 18.9442C107.949 19.0598 108.61 18.8459 109.137 18.6083C109.427 18.4775 109.526 18.676 109.664 18.6636C110.448 18.5927 111.271 18.9831 112.028 18.4306C112.218 18.2922 112.595 18.4106 112.886 18.4106C114.969 18.4106 117.054 18.417 119.138 18.4056C119.608 18.403 120.109 18.4286 120.538 18.2768C120.979 18.1209 121.243 18.6299 121.666 18.4232C121.939 18.2894 122.271 18.2766 122.627 18.1982C122.993 18.2988 123.367 18.3664 123.745 18.4002C125.296 18.4258 126.853 18.4967 128.396 18.3887C130.317 18.2543 132.191 18.667 134.091 18.7553C135.46 18.8188 136.807 19.3811 138.271 19.7479L139.387 19.3387L139.668 19.5869L140.505 18.5792L138.181 17.9869L138.678 17.2854H140.176L140.744 16.7177L139.692 15.9334L140.33 15.6858C140.507 14.8805 139.979 14.3971 139.498 13.8989C139.589 13.7968 139.68 13.6956 139.702 13.6702L138.611 12.5925C138.225 12.6846 137.747 13.1876 137.175 12.7457C137.266 12.6427 137.357 12.5402 137.53 12.3451L135.791 12.6267L135.737 12.4049L136.627 12.191L135.589 11.6517C135.507 11.8212 135.437 11.9673 135.3 12.2487L134.275 12.3088C134.398 12.0199 134.487 11.8094 134.65 11.4244C134.295 11.4244 134.068 11.4084 133.843 11.427C132.221 11.562 130.651 11.0103 129.019 11.1113C127.377 11.2126 125.722 11.0884 124.078 11.1696C123.728 11.187 123.514 10.6427 123.103 11.0414C122.976 11.1644 122.471 10.8951 122.342 11.0183C121.874 11.464 121.71 10.7868 121.333 10.8144C120.679 10.8623 120.111 11.1886 119.419 11.1622C117.338 11.082 115.252 11.1077 113.169 11.1469C112.384 11.1618 111.603 11.3661 110.817 11.4136C110.01 11.4622 109.198 11.4244 108.392 11.4825C109.579 11.8136 112.378 11.7759 113.643 11.6003C113.426 11.6656 113.21 11.7307 112.993 11.7956L113.185 12.0061C112.315 12.0061 111.442 12.0542 110.576 11.9947C109.335 11.9096 108.16 12.5115 106.915 12.297C106.479 12.6836 105.849 12.4059 105.459 12.6275C104.838 12.9809 104.317 12.321 103.68 12.698C103.199 12.9827 102.486 12.8751 101.747 12.9562L101.35 13.2792C101.38 13.3433 101.41 13.4073 101.44 13.4713L105.72 13.0199L106.049 13.3064L105.62 13.7355C105.478 13.6303 105.337 13.5249 105.032 13.2972L104.795 14.2535L104.495 13.9989L104.062 13.7846L103.965 14.2551L102.142 14.6996C102.017 14.4344 101.923 14.2353 101.817 14.0091L100.334 14.549L99.8231 14.2445L98.9972 15.2908L98.6691 14.9627L97.8848 15.3459L98.3213 15.7687L98.6697 15.4647L99.511 15.8499L99.7113 15.2721L100.97 15.6992C101.536 15.2467 102.272 15.6221 103.007 15.4588L103.574 14.9224C103.978 15.4506 104.569 15.0752 105.125 15.2645C105.133 15.3941 105.144 15.5596 105.162 15.8539C104.955 15.6936 104.86 15.6187 104.686 15.4835L104.226 16.1696L103.626 15.5322L102.696 16.0101C102.272 15.5925 101.856 15.8298 101.381 16.0616C100.981 16.2565 100.51 16.305 100.041 16.426L99.5871 17.2253C99.4133 16.8046 99.3347 16.6139 99.2169 16.3282C98.7929 16.3901 98.3401 16.4558 97.8876 16.5227C97.4313 16.5905 96.8902 16.5302 96.5395 16.7597C96.0685 17.068 95.7754 16.3539 95.2957 16.7319C94.9739 16.9853 94.4191 16.9426 93.9735 17.0324C93.7698 16.7339 93.6172 16.5103 93.3311 16.0909L94.6961 16.2143L94.9659 15.9653L94.7237 15.6532L94.9523 15.3747C94.902 15.3226 94.8421 15.2116 94.7904 15.2145C94.3664 15.2447 93.9445 15.3232 93.5206 15.3346C93.0651 15.3459 92.499 15.1215 92.1773 15.319C91.6883 15.6195 91.2372 15.3853 90.7488 15.5304L90.1021 16.1457L89.3337 15.5937C90.8035 14.8879 92.3251 14.8234 94.0064 14.4793C93.3715 14.2939 92.7028 14.2551 92.0507 14.3657C91.7135 14.4096 91.4062 14.6698 91.0028 14.6391C90.6823 14.6147 90.2277 14.8685 90.0515 14.7267C89.6017 14.3661 89.4789 14.9256 89.1843 14.9186C88.7973 14.8929 88.409 14.8954 88.0224 14.926C87.5729 14.9815 87.1358 15.1341 86.6867 15.2C86.2798 15.2505 85.8775 15.3323 85.4833 15.4448C84.8325 15.6435 84.0765 15.4981 83.3599 15.2721L85.0242 15.1319C83.6768 14.5436 82.6083 15.3374 81.5074 15.2076C81.293 15.5003 81.1198 15.8366 80.8521 16.0598C80.7173 16.1722 80.4114 16.0798 79.8768 16.0798L80.7197 15.6668C80.6522 15.6067 80.5857 15.5009 80.529 15.5065C79.933 15.5602 79.3415 15.3919 78.7393 15.7579C78.2954 16.0276 77.6883 15.7277 77.0999 16.0039C76.42 16.3232 75.5544 16.2243 74.7854 16.3831C74.0294 16.5398 73.2658 16.6504 72.5144 16.8549C71.4154 17.1542 70.2638 17.2585 69.1624 17.5508C68.061 17.8431 66.8799 17.7279 65.8407 18.3046C65.3168 18.5953 64.695 18.4264 64.0979 18.6506C62.8341 19.1245 61.4669 19.3186 60.149 19.6548C59.4452 19.8351 58.781 20.1371 58.0302 20.1644C57.6404 20.1564 57.2567 20.262 56.9259 20.4683C56.5951 20.6746 56.3315 20.9727 56.1672 21.3262C56.0646 21.1155 55.9769 20.9354 55.8819 20.7407L55.572 21.0161L55.3749 20.8395C54.8382 21.0133 54.3675 21.2972 53.9052 21.284C53.2733 21.2659 52.8975 21.6946 52.0796 21.8577C50.7958 21.5921 49.5115 22.7948 47.9218 22.802C47.8829 23.0604 47.8428 23.3274 47.7647 23.8485C47.5362 23.4494 47.3993 23.2109 47.3621 23.146C46.1957 23.3389 45.0791 23.761 44.0768 24.3879V24.7904C43.9035 24.6793 43.7169 24.5905 43.5213 24.5262C43.2662 24.5016 43.0095 24.4981 42.7539 24.516L42.2779 25.0642H40.9973C40.9226 25.2748 40.8629 25.4432 40.7877 25.6546L40.2845 25.3341L39.4524 26.0843C39.4179 26.4048 39.3941 26.6277 39.351 27.0282L38.6311 25.9492C37.7617 26.2924 36.9712 26.8014 35.9991 26.9755C35.1415 27.1291 34.4366 27.8028 33.5427 28.0572C33.0495 28.1975 32.6511 28.7183 32.0243 28.5885C31.7238 29.0737 31.1902 29.1175 30.7222 29.307C30.1373 29.5442 29.3682 29.397 28.9594 29.9298C28.5469 30.4671 27.7068 30.1608 27.4313 30.8389C26.8304 30.9066 26.3472 31.3271 25.8051 31.4561C25.2217 31.5869 24.6814 31.8647 24.2356 32.2632C24.0852 32.3934 23.7929 32.3597 23.4758 32.4176ZM85.6572 20.3238C85.2546 20.2597 84.8892 20.0794 84.6594 20.1874C83.8924 20.548 83.0629 20.5602 82.2654 20.7179C81.288 20.9112 80.2369 20.8581 79.3026 21.0875C78.019 21.401 76.7063 21.6327 75.4238 21.8286C74.1017 22.031 72.8144 22.444 71.4619 22.5071C70.8563 22.5354 70.2664 22.8723 69.6646 23.0534C69.5999 23.0734 69.5043 22.9875 69.3994 22.9408C69.4076 22.8176 69.4164 22.6864 69.4276 22.519C70.2221 22.4068 71.0634 22.4474 71.7529 22.1438C72.3719 21.8711 73.053 22.1341 73.5138 21.8523C74.0676 21.5133 74.7007 21.8523 75.1151 21.5091C75.6027 21.1067 76.1668 21.547 76.6031 21.2213C77.1255 20.8311 77.7672 21.2245 78.254 20.9979C78.9381 20.6798 79.7642 20.9979 80.284 20.6612C80.9875 20.2056 81.8411 20.8194 82.4102 20.1522C83.1807 20.324 83.8784 19.9444 84.6152 19.8607C85.4471 19.7659 86.3259 19.8006 87.0961 19.5294C87.753 19.2978 88.4711 19.4921 88.996 19.2229C89.4829 18.9733 89.9741 19.1774 90.3417 18.9615C90.8385 18.6696 91.3341 18.7593 91.8339 18.6848C92.2504 18.6227 92.6693 18.5414 93.0841 18.4424C93.8471 18.2607 94.6082 17.9751 95.4239 18.1113C95.6122 18.1425 95.9169 18.1952 95.9868 18.1021C96.4231 17.5211 97.0931 18.0398 97.5831 17.7123C98.1406 17.3399 98.7917 17.6043 99.397 17.5374C99.5885 17.5161 99.8558 17.6155 99.9653 17.5195C100.376 17.159 100.918 17.3994 101.294 17.2102C101.813 16.9498 102.213 17.3244 102.669 17.2477C103.353 17.1331 104.041 17.0424 104.728 16.9544C105.316 16.8793 105.905 16.8226 106.565 16.7497L106.742 16.8998L107.617 16.4488C108.224 16.7493 108.753 16.7741 109.279 16.4725C109.859 16.1399 110.352 16.5173 110.857 16.6728C111.438 16.8531 111.867 15.9959 112.566 16.5644C112.916 16.8497 113.635 16.683 114.249 16.7247C113.403 17.2131 112.413 17.3884 111.452 17.2197C110.503 17.0726 109.625 17.7637 108.685 17.3581C108.135 17.7643 107.637 17.4677 107.121 17.2129L106.356 17.8939L105.444 17.5334C105.019 17.8302 104.576 18.0384 104.128 17.5516L103.573 18.1065C102.482 18.1608 101.344 17.9847 100.246 18.3925C99.77 18.5578 99.2738 18.6564 98.7712 18.6854C97.8385 18.7553 96.9153 18.7748 95.976 18.9238C94.9743 19.084 93.9683 19.4823 92.9056 19.2972C92.7337 19.2671 92.5172 19.4935 92.3101 19.6073C92.1815 19.4979 92.0697 19.3242 91.9715 19.3318C91.192 19.3914 90.4144 19.4739 89.6388 19.5794C89.5206 19.5953 89.4214 19.7539 89.3127 19.8473C89.2147 19.7579 89.1105 19.6632 88.9521 19.5199L87.8103 20.1039C87.7776 20.0712 87.748 20.0143 87.7085 20.0061C87.0775 19.8781 86.495 20.3312 85.8503 20.1664C85.7732 20.1478 85.6404 20.3383 85.6572 20.3238Z" fill="#111D30"/>
<path d="M153.074 22.0041C153.016 21.8741 152.838 21.6616 152.888 21.5532C153.411 20.4114 153.092 19.2807 152.866 18.1541C152.681 17.2263 152.537 16.2539 151.985 15.4724C150.961 14.0245 150.329 12.2409 148.6 11.3723C148.55 10.4508 147.221 10.5892 147.179 9.66033C146.217 9.19338 145.633 8.28072 144.815 7.64651C144.3 7.24847 143.8 6.83641 143.315 6.40191C143.129 6.23505 142.818 6.207 142.478 6.08501L142.016 5.14149L140.68 4.29273C140.667 4.04634 140.649 3.72041 140.629 3.37306L140.126 3.18937C139.848 2.62847 140.44 2.77931 140.618 2.59021C140.27 1.83199 139.65 1.35122 138.919 0.924536L137.463 2.03692V3.98404C137.263 4.19418 137.066 4.4015 136.858 4.61985C136.978 5.53993 136.69 6.48404 137.135 7.41233C137.348 7.85844 137.411 8.38689 137.817 8.72183C138.078 8.93617 137.977 9.44639 138.511 9.47303C138.628 9.47904 138.711 10.0267 138.823 10.3198C139.046 10.9027 139.554 11.2723 139.95 11.709C140.87 12.7722 141.867 13.7657 142.934 14.6812C144.007 15.5588 144.964 16.5948 146.216 17.2585C146.582 17.4524 146.854 17.8194 147.18 18.0942C147.496 18.3599 147.826 18.6087 148.238 18.9356L146.615 19.6351L146.423 19.1143C145.157 19.2317 144.048 19.9719 142.737 20.2219V20.8711L139.866 21.7649C139.476 21.8931 139.115 21.311 138.612 21.7581L139.203 22.0336C138.506 21.9058 137.909 23.0914 137.168 22.059C136.25 23.1341 134.578 22.6255 133.805 23.9009L133.489 23.6155C132.761 23.8915 132.027 24.2711 131.248 24.4368C130.438 24.6099 130.182 25.4606 129.204 25.6732C128.672 25.6018 128.13 25.645 127.615 25.7998C127.1 25.9545 126.625 26.2174 126.22 26.5708C126.083 26.9867 125.957 27.3701 125.822 27.7794L126.068 28.1936L125.531 28.7297L126.693 29.3132L126.126 29.8809L126.946 30.3617C127.534 29.6488 128.454 30.1714 129.262 29.8074C130.399 29.2962 131.721 29.2107 132.943 28.8685C134.37 28.4679 135.773 27.9841 137.19 27.5464C138.697 27.0798 140.2 26.6083 141.739 26.2397C143.001 25.9374 144.182 25.3276 145.471 25.081C145.905 24.5482 146.692 25.0484 147.126 24.5163C148.221 24.6285 149.12 23.8471 150.193 23.8398C150.407 23.8382 150.616 23.6876 150.835 23.6479C151.814 23.4707 152.734 23.2166 153.074 22.0041Z" fill="#111D30"/>
</svg>
