<svg width="379" height="222" viewBox="0 0 379 222" fill="none" xmlns="http://www.w3.org/2000/svg">
<g clip-path="url(#clip0_595_8140)">
<path d="M120.302 118.504C120.302 118.504 88.904 112.118 61.5949 125.516C40.1575 136.033 35.994 157.542 35.994 157.542C45.5802 150.978 52.2632 149.037 59.6254 149.491C68.6525 150.046 71.34 159.83 57.1069 162.843C44.2476 165.565 31.3516 165.77 19.7704 184.776C34.0368 175.939 57.826 184.065 73.0316 181.883C97.7132 178.343 115.205 167.754 128.054 145.059C140.749 122.637 133.397 118.925 120.302 118.504Z" fill="#111D30"/>
<path d="M94.2512 117.191C94.2512 117.191 53.886 124.756 42.2182 153.496C39.7686 155.58 35.9952 157.539 35.9952 157.539C35.9952 157.539 40.012 121.175 94.2512 117.191Z" fill="white"/>
<path d="M66.681 154.611C66.681 154.611 71.1446 163.124 63.2745 165.765C55.4044 168.406 32.3332 169.076 20.173 184.019C27.2128 173.474 35.8198 166.948 50.5663 163.972C62.9655 161.471 67.2723 161.841 66.681 154.611Z" fill="white"/>
<path d="M19.7703 185.884C19.4846 185.884 19.2012 185.774 18.9878 185.562C18.6222 185.2 18.5532 184.634 18.8222 184.195C29.3042 166.991 41.0387 164.775 52.3865 162.634C53.8825 162.352 55.3796 162.07 56.8767 161.753C63.8443 160.278 66.1283 157.215 65.9683 155.04C65.7949 152.684 63.0985 150.815 59.5564 150.597C52.0008 150.132 45.5612 152.335 36.6219 158.456C36.2484 158.711 35.7616 158.715 35.3837 158.469C35.007 158.221 34.8169 157.771 34.9025 157.328C34.9447 157.108 39.4216 135.154 61.1046 124.516C87.6824 111.477 118.459 117.019 120.425 117.393C126.115 117.583 132.237 118.374 134.67 122.706C137.154 127.131 135.36 134.407 129.02 145.605C116.504 167.712 99.2847 179.24 73.1881 182.984C67.4076 183.813 60.5733 183.199 53.3401 182.549C41.3744 181.475 29.0019 180.364 20.3549 185.72C20.1759 185.831 19.9725 185.884 19.7703 185.884ZM57.6869 148.316C58.3505 148.316 59.0184 148.338 59.6942 148.379C64.4345 148.671 67.9255 151.342 68.1867 154.876C68.4234 158.093 65.6982 162.159 57.338 163.929C55.8253 164.249 54.3115 164.535 52.8 164.82C42.2769 166.806 32.2939 168.691 22.9634 181.928C31.7638 178.38 42.8115 179.373 53.5402 180.335C60.6411 180.973 67.3487 181.574 72.8747 180.782C98.2244 177.146 114.944 165.959 127.087 144.509C132.925 134.2 134.771 127.424 132.732 123.794C131.217 121.094 127.489 119.844 120.265 119.611C120.203 119.609 120.141 119.602 120.08 119.589C119.771 119.525 88.7205 113.443 62.0838 126.51C45.9302 134.436 39.7795 148.936 37.8445 154.985C45.1788 150.337 51.1984 148.316 57.6869 148.316Z" fill="#111D30"/>
<path d="M125.191 133.262C107.574 158.582 88.7119 154.483 72.8062 145.749C88.992 143.014 93.0321 121.343 119.731 128.584L125.191 133.262Z" fill="#B2F1EF"/>
<path d="M118.797 131.367C118.797 131.367 106.755 127.964 98.3292 137.028C95.1927 140.453 90.7992 145.622 90.7992 145.622C90.7992 145.622 97.1222 144.897 101.263 144.717C109.133 144.376 114.359 141.1 119.942 135.383C125.525 129.668 118.797 131.367 118.797 131.367Z" fill="#111D30"/>
<path d="M156.444 70.1921L126.425 60.417L70.4954 85.0242L117.219 101.676L156.444 70.1921Z" fill="white"/>
<path d="M73.9209 83.8594L127.011 67.2234L148.584 74.9557L156.444 70.1921L126.425 60.417L73.9209 83.8594Z" fill="#B2F1EF"/>
<path d="M269.957 16.6781L237.643 1.11133L199.965 17.6884L250.425 43.7094L269.957 16.6781Z" fill="white"/>
<path d="M202.387 16.8948L237.354 7.17088L257.001 16.7504L263.872 13.1482L237.643 1.11133L202.387 16.8948Z" fill="#B2F1EF"/>
<path d="M306.718 100.228L296.361 134.569L258.684 151.146L273.592 96.365L306.718 100.228Z" fill="white"/>
<path d="M258.684 152.258C258.422 152.258 258.163 152.166 257.959 151.989C257.634 151.709 257.499 151.269 257.611 150.854L272.52 96.0725C272.664 95.5413 273.192 95.1978 273.721 95.2612L306.847 99.1245C307.173 99.1623 307.467 99.3435 307.647 99.618C307.827 99.8925 307.877 100.234 307.781 100.549L297.426 134.891C297.333 135.201 297.107 135.456 296.809 135.586L259.132 152.164C258.988 152.227 258.836 152.258 258.684 152.258ZM274.415 97.5785L260.367 149.192L295.447 133.758L305.271 101.177L274.415 97.5785Z" fill="#111D30"/>
<path d="M189.926 146.293L176.851 175.028L120.921 199.635L140.212 153.939L189.926 146.293Z" fill="white"/>
<path d="M120.92 200.748C120.634 200.748 120.352 200.637 120.14 200.428C119.816 200.109 119.718 199.623 119.896 199.204L139.189 153.507C139.339 153.152 139.662 152.899 140.043 152.84L189.757 145.195C190.16 145.13 190.566 145.297 190.812 145.623C191.057 145.948 191.107 146.383 190.937 146.754L177.861 175.489C177.748 175.738 177.548 175.936 177.296 176.046L121.367 200.654C121.224 200.718 121.071 200.748 120.92 200.748ZM140.996 154.944L123.032 197.494L176.015 174.182L188.063 147.706L140.996 154.944Z" fill="#111D30"/>
<path d="M117.219 102.791C117.093 102.791 116.966 102.769 116.845 102.727L70.1215 86.0763C69.6925 85.923 69.4013 85.524 69.3847 85.0694C69.368 84.6148 69.6314 84.1958 70.0482 84.0124L125.978 59.4041C126.229 59.2929 126.51 59.2807 126.769 59.3641L156.787 69.1392C157.176 69.2659 157.463 69.5948 157.536 69.9961C157.61 70.3973 157.457 70.8063 157.139 71.063L117.916 102.547C117.714 102.708 117.469 102.791 117.219 102.791ZM73.5014 84.9204L117.008 100.424L154.144 70.6162L126.485 61.6092L73.5014 84.9204Z" fill="#111D30"/>
<path d="M250.425 44.8201C250.253 44.8201 250.078 44.7801 249.917 44.6968L199.457 18.6758C199.076 18.4791 198.842 18.0823 198.855 17.6533C198.869 17.2254 199.126 16.8431 199.52 16.6708L237.196 0.0936887C237.494 -0.0374609 237.833 -0.0296808 238.125 0.109249L270.439 15.676C270.736 15.8194 270.954 16.0862 271.035 16.4051C271.115 16.723 271.052 17.062 270.858 17.3287L251.327 44.36C251.111 44.6568 250.771 44.8201 250.425 44.8201ZM202.545 17.7667L250.084 42.2827L268.279 17.1031L237.622 2.33324L202.545 17.7667Z" fill="#111D30"/>
<path d="M304.496 106.35C336.311 92.3529 363.041 56.7391 376.846 19.2526L376.958 19.2025C376.932 19.1914 376.904 19.1814 376.877 19.1703C376.887 19.1425 376.898 19.1159 376.908 19.0881L376.796 19.1381C339.833 3.98694 295.518 -0.367667 263.703 13.6298C235.967 25.8345 168.536 63.66 107.659 98.2913C112.142 122.797 122.266 144.538 136.652 164.191C203.315 142.709 276.761 118.554 304.496 106.35Z" fill="white"/>
<path d="M375.691 18.0905C375.691 18.0905 330.258 -2.53662 277.068 8.89673C262.185 11.672 225.017 32.5281 225.017 32.5281L123.661 89.168L125.344 98.264C125.344 98.264 244.216 30.5742 280.491 22.1829C312.15 14.8596 331.171 9.66696 375.691 18.0905Z" fill="#B2F1EF"/>
<path d="M149.595 151.13C149.595 151.13 278.299 109.271 309.395 89.5182C351.28 62.9138 376.795 19.1377 376.795 19.1377C376.795 19.1377 353.506 76.6757 318.615 98.1664C318.615 98.1664 291.501 112.266 268.339 119.954C245.176 127.641 154.771 157.442 154.771 157.442L149.595 151.13Z" fill="#111D30"/>
<path d="M362.33 49.2544C362.054 49.2544 361.778 49.1521 361.564 48.9476C344.77 32.9474 345.412 10.9365 345.448 10.0073C345.471 9.39268 345.947 8.94921 346.601 8.93921C347.213 8.96255 347.691 9.47826 347.669 10.0918C347.661 10.3085 347.047 32.0482 363.096 47.3394C363.541 47.7628 363.558 48.4664 363.134 48.9098C362.916 49.1388 362.623 49.2544 362.33 49.2544Z" fill="#111D30"/>
<path d="M156.057 158.759C155.793 158.759 155.529 158.666 155.318 158.477C130.751 136.612 122.644 89.823 122.564 89.354C122.461 88.7482 122.869 88.1747 123.475 88.0736C124.086 87.978 124.654 88.3804 124.755 88.985C124.833 89.4473 132.814 135.476 156.795 156.817C157.253 157.225 157.294 157.927 156.886 158.386C156.668 158.633 156.364 158.759 156.057 158.759Z" fill="#111D30"/>
<path d="M117.588 107.292C115.184 107.292 113.205 105.36 113.158 102.946C113.135 101.763 113.574 100.642 114.395 99.7887C115.215 98.9362 116.319 98.455 117.503 98.4316C118.668 98.4439 119.806 98.8484 120.66 99.6687C121.512 100.489 121.994 101.591 122.017 102.775C122.04 103.958 121.6 105.079 120.78 105.933C119.96 106.785 118.857 107.266 117.673 107.291C117.645 107.291 117.616 107.292 117.588 107.292ZM117.59 100.653C117.575 100.653 117.561 100.655 117.546 100.655C116.955 100.666 116.406 100.906 115.996 101.33C115.587 101.755 115.369 102.313 115.379 102.903C115.403 104.104 116.389 105.068 117.587 105.068C117.601 105.068 117.615 105.067 117.629 105.067C118.217 105.056 118.767 104.815 119.177 104.391C119.585 103.965 119.804 103.408 119.793 102.818C119.793 102.818 119.793 102.818 119.793 102.817C119.782 102.228 119.542 101.679 119.117 101.269C118.704 100.871 118.162 100.653 117.59 100.653Z" fill="#111D30"/>
<path d="M256.524 111.486C278.432 111.486 296.19 93.7266 296.19 71.8196C296.19 49.9127 278.432 32.1536 256.524 32.1536C234.618 32.1536 216.858 49.9127 216.858 71.8196C216.858 93.7266 234.618 111.486 256.524 111.486Z" fill="white"/>
<path d="M256.583 112.594C240.896 112.594 225.913 103.495 219.201 88.2397C214.814 78.2701 214.572 67.1902 218.521 57.0383C222.469 46.8864 230.133 38.8807 240.104 34.495C260.684 25.4379 284.793 34.8162 293.848 55.3978C298.235 65.3674 298.476 76.4473 294.529 86.5992C290.58 96.751 282.916 104.757 272.946 109.142C267.621 111.486 262.058 112.594 256.583 112.594ZM256.47 33.2647C251.291 33.2647 246.033 34.3127 240.997 36.5289C231.572 40.6757 224.325 48.2468 220.592 57.8441C216.86 67.4425 217.088 77.92 221.235 87.3461C229.797 106.805 252.592 115.667 272.052 107.109C291.51 98.5471 300.375 75.7504 291.814 56.2914C285.468 41.8683 271.301 33.2647 256.47 33.2647ZM272.499 108.126H272.51H272.499Z" fill="#111D30"/>
<path d="M256.524 94.6113C269.11 94.6113 279.313 84.4083 279.313 71.8224C279.313 59.2363 269.11 49.0334 256.524 49.0334C243.938 49.0334 233.735 59.2363 233.735 71.8224C233.735 84.4083 243.938 94.6113 256.524 94.6113Z" fill="#111D30"/>
<path d="M246.854 45.5335C248.686 45.5335 250.172 44.0476 250.172 42.2147C250.172 40.3819 248.686 38.896 246.854 38.896C245.021 38.896 243.535 40.3819 243.535 42.2147C243.535 44.0476 245.021 45.5335 246.854 45.5335Z" fill="#B2F1EF"/>
<path d="M246.853 46.6459C245.701 46.6459 244.614 46.2069 243.781 45.4078C242.929 44.5875 242.448 43.4839 242.424 42.3002C242.401 41.1187 242.841 39.9962 243.661 39.1437C244.482 38.2901 245.585 37.8089 246.769 37.7855C246.797 37.7855 246.828 37.7844 246.856 37.7844C249.257 37.7844 251.235 39.715 251.282 42.129V42.1301C251.328 44.5709 249.38 46.597 246.938 46.6448C246.911 46.6448 246.881 46.6459 246.853 46.6459ZM246.857 40.0073C246.841 40.0073 246.828 40.0084 246.812 40.0084C246.222 40.0195 245.673 40.2596 245.263 40.6842C244.855 41.1087 244.636 41.6678 244.647 42.2568C244.658 42.8459 244.898 43.3961 245.323 43.8051C245.746 44.2141 246.263 44.4064 246.896 44.4219C248.112 44.3986 249.083 43.3894 249.06 42.1735C249.049 41.5844 248.807 41.0343 248.384 40.6241C247.97 40.2263 247.428 40.0073 246.857 40.0073Z" fill="#111D30"/>
<path d="M269.904 102.651C271.736 102.651 273.222 101.165 273.222 99.3322C273.222 97.4993 271.736 96.0134 269.904 96.0134C268.071 96.0134 266.585 97.4993 266.585 99.3322C266.585 101.165 268.071 102.651 269.904 102.651Z" fill="#B2F1EF"/>
<path d="M269.904 103.762C267.501 103.762 265.522 101.831 265.474 99.4165C265.452 98.2328 265.891 97.1125 266.711 96.2589C267.532 95.4064 268.635 94.9252 269.82 94.9019C270.996 94.9052 272.124 95.3186 272.977 96.1389C273.829 96.9591 274.31 98.0617 274.334 99.2454C274.357 100.428 273.918 101.549 273.098 102.403C272.278 103.255 271.174 103.738 269.99 103.761C269.961 103.761 269.931 103.762 269.904 103.762ZM269.907 97.1236C269.891 97.1236 269.878 97.1247 269.862 97.1247C269.272 97.1358 268.723 97.3759 268.313 97.8005C267.904 98.225 267.686 98.783 267.696 99.3732C267.72 100.589 268.764 101.587 269.946 101.537C270.534 101.526 271.084 101.285 271.494 100.861C271.902 100.436 272.121 99.8778 272.11 99.2887C272.11 99.2887 272.11 99.2887 272.11 99.2876C272.099 98.6985 271.859 98.1495 271.434 97.7393C271.021 97.3415 270.479 97.1236 269.907 97.1236Z" fill="#111D30"/>
<path d="M245.711 103.797C247.544 103.797 249.03 102.311 249.03 100.478C249.03 98.6454 247.544 97.1597 245.711 97.1597C243.878 97.1597 242.392 98.6454 242.392 100.478C242.392 102.311 243.878 103.797 245.711 103.797Z" fill="#B2F1EF"/>
<path d="M245.711 104.909C243.307 104.909 241.329 102.977 241.281 100.563C241.258 99.3802 241.697 98.2588 242.518 97.4052C243.338 96.5527 244.442 96.0715 245.625 96.0481C246.787 96.0437 247.928 96.4638 248.782 97.284C249.635 98.1043 250.117 99.2079 250.14 100.392C250.163 101.574 249.723 102.696 248.903 103.549C248.083 104.402 246.98 104.883 245.796 104.907C245.768 104.907 245.739 104.909 245.711 104.909ZM245.712 98.2699C245.696 98.2699 245.683 98.271 245.668 98.271C244.451 98.2943 243.48 99.3024 243.504 100.519C243.527 101.735 244.517 102.709 245.753 102.683C246.341 102.672 246.891 102.431 247.301 102.008C247.709 101.582 247.928 101.024 247.917 100.435C247.917 100.435 247.917 100.435 247.917 100.434C247.906 99.8448 247.666 99.2958 247.241 98.8856C246.827 98.4888 246.285 98.2699 245.712 98.2699Z" fill="#111D30"/>
<path d="M227.273 86.4961C229.106 86.4961 230.592 85.0103 230.592 83.1774C230.592 81.3444 229.106 79.8586 227.273 79.8586C225.441 79.8586 223.955 81.3444 223.955 83.1774C223.955 85.0103 225.441 86.4961 227.273 86.4961Z" fill="#B2F1EF"/>
<path d="M227.27 87.6086C226.12 87.6086 225.033 87.1695 224.201 86.3704C223.348 85.5502 222.866 84.4465 222.843 83.2628C222.797 80.8221 224.746 78.796 227.187 78.7482C227.214 78.7482 227.244 78.7471 227.272 78.7471C229.677 78.7471 231.656 80.6787 231.701 83.0928C231.747 85.5346 229.798 87.5608 227.357 87.6074C227.328 87.6074 227.299 87.6086 227.27 87.6086ZM227.273 80.9699C227.259 80.9699 227.244 80.9711 227.23 80.9711C226.014 80.9944 225.044 82.0047 225.067 83.2206C225.078 83.8097 225.318 84.3587 225.743 84.7688C226.167 85.1778 226.724 85.4035 227.315 85.3846C228.533 85.3612 229.503 84.352 229.479 83.135C229.456 81.9324 228.471 80.9699 227.273 80.9699Z" fill="#111D30"/>
<path d="M228.387 62.0313C230.22 62.0313 231.706 60.5455 231.706 58.7125C231.706 56.8797 230.22 55.3938 228.387 55.3938C226.554 55.3938 225.068 56.8797 225.068 58.7125C225.068 60.5455 226.554 62.0313 228.387 62.0313Z" fill="#B2F1EF"/>
<path d="M228.384 63.144C227.233 63.144 226.146 62.706 225.315 61.9069C224.462 61.0867 223.98 59.983 223.957 58.7994C223.911 56.3575 225.859 54.3314 228.301 54.2836C228.329 54.2836 228.359 54.2825 228.388 54.2825C229.539 54.2825 230.626 54.7215 231.459 55.5206C232.311 56.3409 232.793 57.4445 232.816 58.6293C232.839 59.8108 232.399 60.9322 231.58 61.7858C230.76 62.6383 229.656 63.1195 228.471 63.1428C228.441 63.1428 228.412 63.144 228.384 63.144ZM228.388 56.5053C228.374 56.5053 228.36 56.5065 228.345 56.5065C227.129 56.5298 226.157 57.5401 226.181 58.756C226.192 59.344 226.433 59.8941 226.856 60.3042C227.282 60.7121 227.858 60.9044 228.429 60.92C229.019 60.9089 229.568 60.6688 229.978 60.2442C230.386 59.8196 230.605 59.2617 230.594 58.6726C230.594 58.6726 230.594 58.6726 230.594 58.6715C230.583 58.0825 230.343 57.5334 229.918 57.1233C229.503 56.7232 228.96 56.5053 228.388 56.5053Z" fill="#111D30"/>
<path d="M284.988 63.2078C286.821 63.2078 288.307 61.722 288.307 59.8891C288.307 58.0562 286.821 56.5703 284.988 56.5703C283.155 56.5703 281.669 58.0562 281.669 59.8891C281.669 61.722 283.155 63.2078 284.988 63.2078Z" fill="#B2F1EF"/>
<path d="M284.984 64.3205C283.833 64.3205 282.746 63.8815 281.915 63.0823C281.062 62.2621 280.581 61.1584 280.558 59.9748C280.534 58.7933 280.975 57.6719 281.795 56.8183C282.615 55.9658 283.718 55.4845 284.901 55.4601C284.929 55.4601 284.959 55.459 284.986 55.459C287.39 55.459 289.368 57.3907 289.416 59.8047V59.8058C289.438 60.9884 288.999 62.1087 288.179 62.9623C287.359 63.8148 286.255 64.296 285.07 64.3194C285.042 64.3205 285.014 64.3205 284.984 64.3205ZM284.987 57.683C284.972 57.683 284.959 57.6841 284.945 57.6841C284.357 57.6952 283.807 57.9364 283.396 58.3598C282.988 58.7855 282.77 59.3435 282.781 59.9325C282.792 60.5227 283.032 61.0717 283.456 61.4819C283.881 61.8909 284.469 62.1243 285.028 62.0976C285.618 62.0865 286.167 61.8464 286.577 61.4218C286.986 60.9973 287.204 60.4393 287.194 59.8503C287.172 58.6466 286.185 57.683 284.987 57.683Z" fill="#111D30"/>
<path d="M270.427 47.4178C272.26 47.4178 273.746 45.9319 273.746 44.099C273.746 42.2662 272.26 40.7803 270.427 40.7803C268.594 40.7803 267.108 42.2662 267.108 44.099C267.108 45.9319 268.594 47.4178 270.427 47.4178Z" fill="#B2F1EF"/>
<path d="M270.427 48.5296C268.022 48.5296 266.044 46.5979 265.998 44.1838C265.952 41.742 267.901 39.7159 270.343 39.6692C272.74 39.6336 274.811 41.572 274.857 44.0138C274.903 46.4556 272.954 48.4818 270.513 48.5285C270.484 48.5285 270.455 48.5296 270.427 48.5296ZM270.427 41.8921C270.413 41.8921 270.398 41.8932 270.384 41.8932C269.168 41.9165 268.198 42.9257 268.221 44.1427C268.244 45.3586 269.232 46.2845 270.47 46.3056C271.686 46.2822 272.657 45.2731 272.633 44.056C272.611 42.8546 271.625 41.8921 270.427 41.8921Z" fill="#111D30"/>
<path d="M285.646 85.6016C287.479 85.6016 288.965 84.1157 288.965 82.2829C288.965 80.45 287.479 78.9641 285.646 78.9641C283.812 78.9641 282.327 80.45 282.327 82.2829C282.327 84.1157 283.812 85.6016 285.646 85.6016Z" fill="#B2F1EF"/>
<path d="M285.64 86.7143C284.49 86.7143 283.403 86.2753 282.572 85.4761C281.719 84.6559 281.238 83.5522 281.215 82.3686C281.167 79.9278 283.115 77.9017 285.558 77.8539C285.586 77.8539 285.616 77.8528 285.643 77.8528C288.047 77.8528 290.025 79.7845 290.073 82.1974V82.1985C290.095 83.3811 289.656 84.5025 288.836 85.355C288.016 86.2086 286.912 86.6898 285.727 86.7132C285.699 86.7132 285.671 86.7143 285.64 86.7143ZM285.645 80.0757C285.629 80.0757 285.616 80.0768 285.602 80.0768C284.385 80.1001 283.414 81.1093 283.439 82.3252C283.45 82.9154 283.69 83.4644 284.114 83.8745C284.539 84.2836 285.1 84.4803 285.686 84.4903C286.903 84.4669 287.874 83.4578 287.851 82.2419C287.829 81.0382 286.842 80.0757 285.645 80.0757Z" fill="#111D30"/>
<path d="M123.046 124.389C120.642 124.389 118.664 122.457 118.616 120.044C118.57 117.601 120.519 115.575 122.961 115.528C124.13 115.532 125.265 115.945 126.117 116.765C126.971 117.586 127.452 118.689 127.475 119.873C127.523 122.314 125.573 124.34 123.132 124.388C123.103 124.388 123.074 124.389 123.046 124.389ZM123.047 117.751C123.032 117.751 123.018 117.752 123.003 117.752C121.786 117.776 120.815 118.785 120.839 120.002C120.862 121.219 121.915 122.152 123.088 122.165C124.305 122.141 125.276 121.132 125.251 119.916C125.251 119.916 125.251 119.916 125.251 119.915C125.24 119.326 125 118.777 124.575 118.367C124.162 117.969 123.621 117.751 123.047 117.751Z" fill="#111D30"/>
<path d="M130.334 142.654C129.183 142.654 128.096 142.216 127.265 141.417C126.412 140.597 125.93 139.493 125.907 138.308C125.861 135.868 127.81 133.841 130.25 133.794C131.397 133.807 132.554 134.21 133.408 135.031C134.262 135.851 134.743 136.955 134.766 138.139C134.788 139.321 134.349 140.442 133.529 141.296C132.709 142.148 131.605 142.63 130.422 142.653C130.393 142.653 130.363 142.654 130.334 142.654ZM130.337 136.015C130.323 136.015 130.308 136.017 130.294 136.017C129.078 136.04 128.108 137.05 128.131 138.266C128.142 138.855 128.382 139.404 128.807 139.814C129.231 140.223 129.784 140.449 130.379 140.43C131.596 140.407 132.567 139.399 132.543 138.182C132.521 136.979 131.535 136.015 130.337 136.015Z" fill="#111D30"/>
<path d="M139.67 157.264C137.265 157.264 135.286 155.332 135.241 152.918C135.195 150.476 137.144 148.45 139.585 148.403C140.735 148.393 141.888 148.82 142.742 149.641C143.595 150.461 144.077 151.564 144.1 152.748C144.146 155.189 142.197 157.215 139.757 157.263C139.728 157.263 139.699 157.264 139.67 157.264ZM139.672 150.625C139.657 150.625 139.643 150.626 139.628 150.626C138.411 150.65 137.44 151.659 137.464 152.876C137.487 154.092 138.482 155.029 139.713 155.039C140.929 155.015 141.899 154.005 141.876 152.789C141.865 152.2 141.625 151.651 141.2 151.241C140.787 150.843 140.246 150.625 139.672 150.625Z" fill="#111D30"/>
<path d="M237.964 85.6037C237.964 85.6037 252.083 95.7611 265.945 86.6307C277.326 79.1329 277.276 66.2781 275.076 59.0537C279.183 72.1087 280.063 77.9759 271.263 88.0978C262.463 98.2196 242.366 93.8183 237.964 85.6037Z" fill="#B2F1EF"/>
<path d="M136.652 165.303C136.304 165.303 135.969 165.139 135.755 164.848C120.459 143.952 110.911 122.247 106.564 98.4906C106.478 98.026 106.696 97.5581 107.107 97.3247C164.942 64.424 234.957 25.0624 263.253 12.6132C293.087 -0.512826 336.601 1.54888 376.891 17.977C377.18 17.9781 377.463 18.0815 377.679 18.2882C377.889 18.4916 378.006 18.765 378.018 19.0462C378.024 19.0918 378.028 19.1385 378.029 19.1851C378.029 19.4619 377.942 19.7286 377.777 19.9331C362.671 60.7507 334.782 94.2383 304.942 107.368C276.652 119.814 200.327 144.839 136.992 165.25C136.881 165.285 136.767 165.303 136.652 165.303ZM108.896 98.8652C113.199 121.736 122.426 142.696 137.077 162.887C200.209 142.537 275.964 117.689 304.048 105.334C333.203 92.5044 360.502 59.7826 375.458 19.7942C335.875 3.80399 293.308 1.82119 264.149 14.6471C236.058 27.0074 166.55 66.0711 108.896 98.8652ZM304.496 106.351H304.507H304.496Z" fill="#111D30"/>
<path d="M273.678 56.2589C273.678 56.2589 261.431 43.1418 243.733 52.5345C232.986 58.6252 231.43 73.4018 235.665 80.9973C234.15 70.8966 238.537 61.1015 246.691 56.1545C253.627 51.9477 266.055 51.9744 273.678 56.2589Z" fill="white"/>
<path d="M256.56 95.7212C247.365 95.7212 238.581 90.3874 234.648 81.4459C232.077 75.603 231.936 69.1078 234.25 63.1583C236.564 57.2088 241.056 52.5152 246.9 49.9444C258.962 44.6384 273.093 50.1345 278.401 62.1958C283.708 74.2582 278.213 88.389 266.15 93.6972C263.028 95.071 259.768 95.7212 256.56 95.7212ZM256.493 50.1456C253.582 50.1456 250.627 50.7346 247.795 51.9794C242.494 54.3124 238.42 58.568 236.322 63.9641C234.223 69.3601 234.352 75.2518 236.683 80.5523C241.495 91.4921 254.311 96.4747 265.256 91.6644C276.195 86.8497 281.18 74.0326 276.367 63.0916C272.799 54.9826 264.832 50.1456 256.493 50.1456ZM265.702 92.6814H265.714H265.702Z" fill="#111D30"/>
<path d="M184.624 156.417C184.624 156.417 177.145 155.881 173.439 163.195C169.732 170.508 162.497 170.873 160.008 170.921C157.52 170.969 152.125 172.883 148.614 178.609C145.103 184.334 134.879 182.268 131.49 194.327C141.814 189.829 176.85 175.028 176.85 175.028L184.624 156.417Z" fill="#111D30"/>
<path d="M300.207 117.759C300.207 117.759 294.294 116.288 292.185 124.25C290.074 132.211 288.952 132.685 285.333 132.755C281.713 132.825 271.645 138.903 270.867 145.48C281.43 141.656 296.362 134.569 296.362 134.569L300.207 117.759Z" fill="#111D30"/>
<path d="M27.8115 146.953C27.8115 146.953 21.0228 151.479 14.0086 152.61C4.82587 154.091 1.11145 164.149 1.11145 164.149C1.11145 164.149 8.80482 160.529 15.5924 159.623C22.381 158.719 26.9068 152.157 27.8115 146.953Z" fill="#111D30"/>
<path d="M1.11166 165.262C0.839359 165.262 0.570392 165.161 0.36033 164.968C0.0268986 164.664 -0.0875794 164.188 0.0680218 163.765C0.230292 163.329 4.11921 153.079 13.8321 151.513C20.5163 150.434 27.1293 146.072 27.1938 146.028C27.5639 145.78 28.0452 145.78 28.4175 146.022C28.7898 146.265 28.9821 146.705 28.9054 147.143C27.884 153.013 22.9226 159.767 15.7382 160.726C9.20514 161.597 1.65849 165.121 1.58402 165.156C1.43397 165.227 1.27282 165.262 1.11166 165.262ZM25.9712 149.344C23.3104 150.813 18.8291 152.957 14.1855 153.707C8.60608 154.607 5.15173 159.03 3.44679 161.938C6.34541 160.774 11.0446 159.109 15.4459 158.522C20.7597 157.814 24.3985 153.337 25.9712 149.344Z" fill="#111D30"/>
<path d="M49.5334 189.04C49.5334 189.04 37.5643 197.019 25.1974 199.014C9.00599 201.626 2.4574 219.361 2.4574 219.361C2.4574 219.361 16.0213 212.978 27.9904 211.382C39.9583 209.785 47.9374 198.216 49.5334 189.04Z" fill="#111D30"/>
<path d="M2.45749 220.472C2.18518 220.472 1.91622 220.372 1.70615 220.18C1.37272 219.874 1.25825 219.399 1.41385 218.975C1.69059 218.226 8.37922 200.601 25.0197 197.917C37.0098 195.983 48.8 188.194 48.9167 188.116C49.2868 187.868 49.768 187.866 50.1404 188.109C50.5127 188.353 50.705 188.793 50.6283 189.232C48.8789 199.283 40.402 210.848 28.1361 212.483C16.4827 214.037 3.06433 220.303 2.92985 220.368C2.7798 220.437 2.61864 220.472 2.45749 220.472ZM47.8464 191.393C43.7407 193.818 34.7403 198.599 25.3742 200.111C13.703 201.992 7.16776 212.272 4.68036 217.161C9.26393 215.214 18.9134 211.471 27.8438 210.279C37.6856 208.967 45.3245 200.072 47.8464 191.393Z" fill="#111D30"/>
</g>
<defs>
<clipPath id="clip0_595_8140">
<rect width="379" height="221.176" fill="white"/>
</clipPath>
</defs>
</svg>
