<svg width="109" height="135" viewBox="0 0 109 135" fill="none" xmlns="http://www.w3.org/2000/svg">
<path d="M101.5 14.75V1.75L70.5 9.25L101.5 14.75Z" fill="#C9DDF4" stroke="black" stroke-width="2"/>
<path d="M3 16.75V1.75L29.5 9.25L3 16.75Z" fill="#C9DDF4" stroke="black" stroke-width="2"/>
<path d="M1 16.25L22.5 9.25L2 1.25H102.5L82 9.25L107.5 16.25V133.25H1V16.25Z" fill="#C9DDF4"/>
<path d="M1 16.25L22.5 9.25L2 1.25H102.5L82 9.25L107.5 16.25M1 16.25H107.5M1 16.25V133.25H107.5V16.25" stroke="black" stroke-width="2"/>
<path d="M1.5 130.75L22 116.25M22 116.25L82.5 118.75M22 116.25L7 112.75M22 116.25V8.75M82.5 118.75L107.5 130.75M82.5 118.75L97 112.75M82.5 118.75V8.75" stroke="url(#paint0_linear_29_24)"/>
<path d="M68.5 2.25H7.5L25.5 9.25L7.5 15.25H58.5L68.5 2.25Z" fill="url(#paint1_linear_29_24)"/>
<path d="M107.5 28.75C52.5 45.25 18.8333 68.0834 2 82.7501V131.75H107.5V28.75Z" fill="url(#paint2_linear_29_24)"/>
<defs>
<linearGradient id="paint0_linear_29_24" x1="54.5" y1="8.75" x2="54.5" y2="130.75" gradientUnits="userSpaceOnUse">
<stop stop-opacity="0.34"/>
<stop offset="1" stop-opacity="0.09"/>
</linearGradient>
<linearGradient id="paint1_linear_29_24" x1="18.5" y1="2.75001" x2="55" y2="12.75" gradientUnits="userSpaceOnUse">
<stop stop-color="#98B1CD"/>
<stop offset="1" stop-color="#5C80A7" stop-opacity="0"/>
</linearGradient>
<linearGradient id="paint2_linear_29_24" x1="54.75" y1="51.6276" x2="54.75" y2="131.75" gradientUnits="userSpaceOnUse">
<stop stop-color="#4A6887" stop-opacity="0.11"/>
<stop offset="1" stop-color="#D9D9D9" stop-opacity="0"/>
</linearGradient>
</defs>
</svg>
