<svg width="604" height="538" viewBox="0 0 604 538" fill="none" xmlns="http://www.w3.org/2000/svg">
<g clip-path="url(#clip0_348_15629)">
<path d="M546.284 306.169C518.209 404.371 370.029 464.937 251.497 446.621C151.533 431.102 33.5064 360.029 78.6413 221.559C110.292 124.491 210.919 72.5999 330.781 79.3295C451.077 85.589 574.4 208.065 546.284 306.169Z" fill="#FFE2D1"/>
</g>
<g clip-path="url(#clip1_348_15629)">
<path d="M485.686 379.834L145.988 379.834C145.325 379.837 144.668 379.709 144.054 379.457C143.441 379.205 142.883 378.834 142.413 378.364C141.943 377.895 141.57 377.337 141.316 376.723C141.061 376.109 140.93 375.45 140.93 374.785L140.93 108.117C140.93 107.452 141.06 106.793 141.315 106.178C141.569 105.563 141.942 105.005 142.412 104.536C142.882 104.066 143.44 103.695 144.054 103.442C144.667 103.19 145.325 103.062 145.988 103.065L485.686 103.065C486.35 103.062 487.007 103.19 487.621 103.442C488.234 103.695 488.792 104.066 489.263 104.536C489.733 105.005 490.105 105.563 490.36 106.178C490.614 106.793 490.745 107.452 490.744 108.117L490.744 374.846C490.731 376.18 490.191 377.454 489.243 378.389C488.295 379.324 487.016 379.843 485.686 379.834Z" fill="white"/>
<path d="M490.563 120.37L490.563 108.508C490.564 107.845 490.435 107.188 490.183 106.574C489.931 105.961 489.56 105.404 489.092 104.935C488.625 104.466 488.07 104.094 487.459 103.841C486.847 103.588 486.192 103.458 485.531 103.46L146.083 103.46C145.422 103.458 144.767 103.588 144.156 103.841C143.545 104.094 142.989 104.466 142.522 104.935C142.054 105.404 141.684 105.961 141.431 106.575C141.179 107.188 141.05 107.845 141.051 108.508L141.051 120.37L490.563 120.37Z" fill="#FFE2D1"/>
<path d="M483.239 111.886L486.234 108.881C486.405 108.71 486.501 108.478 486.501 108.236C486.501 107.994 486.405 107.762 486.234 107.591C486.064 107.419 485.832 107.323 485.591 107.323C485.35 107.323 485.118 107.419 484.948 107.591L481.954 110.595L478.959 107.591C478.789 107.419 478.557 107.323 478.316 107.323C478.075 107.323 477.843 107.419 477.673 107.591C477.502 107.762 477.407 107.994 477.407 108.236C477.407 108.478 477.502 108.71 477.673 108.881L480.668 111.886L477.673 114.89C477.502 115.061 477.407 115.293 477.407 115.535C477.407 115.777 477.502 116.01 477.673 116.181C477.843 116.352 478.075 116.448 478.316 116.448C478.557 116.448 478.789 116.352 478.959 116.181L481.954 113.176L484.948 116.181C485.118 116.352 485.35 116.448 485.591 116.448C485.832 116.448 486.064 116.352 486.234 116.181C486.405 116.01 486.501 115.777 486.501 115.535C486.501 115.293 486.405 115.061 486.234 114.89L483.239 111.886Z" fill="#111D30"/>
<path d="M485.938 101.849L145.736 101.849C144.15 101.841 142.626 102.464 141.498 103.582C140.369 104.701 139.729 106.222 139.717 107.814L139.718 374.477C139.729 376.068 140.369 377.59 141.498 378.708C142.626 379.826 144.15 380.45 145.736 380.442L485.938 380.442C487.516 380.458 489.035 379.846 490.163 378.74C491.291 377.634 491.936 376.124 491.957 374.542L491.957 107.814C491.945 106.222 491.305 104.701 490.177 103.582C489.048 102.464 487.524 101.841 485.938 101.849ZM145.736 103.674L485.938 103.674C487.042 103.665 488.104 104.096 488.891 104.872C489.679 105.648 490.127 106.706 490.138 107.814L490.138 120.097L141.536 120.097L141.536 107.814C141.547 106.706 141.996 105.648 142.783 104.872C143.571 104.096 144.633 103.665 145.736 103.674ZM490.138 121.922L490.138 155.378L141.536 155.378L141.536 121.922L490.138 121.922ZM485.938 378.617L145.736 378.617C144.633 378.626 143.571 378.195 142.783 377.419C141.996 376.643 141.547 375.585 141.536 374.477L141.536 157.202L490.138 157.202L490.138 374.542C490.118 375.64 489.665 376.686 488.877 377.45C488.09 378.214 487.033 378.634 485.938 378.617Z" fill="#111D30"/>
<path d="M469.828 116.447L466.191 116.447C465.467 116.447 464.774 116.158 464.262 115.645C463.751 115.132 463.463 114.436 463.463 113.71L463.463 110.061C463.463 109.335 463.751 108.639 464.262 108.126C464.774 107.613 465.467 107.324 466.191 107.323L469.828 107.323C470.552 107.324 471.245 107.613 471.757 108.126C472.268 108.639 472.556 109.335 472.557 110.061L472.557 113.71C472.556 114.436 472.268 115.132 471.757 115.645C471.245 116.158 470.552 116.447 469.828 116.447ZM466.191 109.148C465.949 109.148 465.718 109.244 465.548 109.415C465.377 109.586 465.281 109.819 465.281 110.061L465.281 113.71C465.281 113.952 465.377 114.184 465.548 114.355C465.718 114.527 465.949 114.623 466.191 114.623L469.828 114.623C470.07 114.623 470.301 114.527 470.472 114.355C470.642 114.184 470.738 113.952 470.738 113.71L470.738 110.061C470.738 109.819 470.642 109.586 470.472 109.415C470.301 109.244 470.07 109.148 469.828 109.148L466.191 109.148Z" fill="#111D30"/>
<path d="M457.703 116.447L450.428 116.447C450.187 116.447 449.956 116.351 449.785 116.18C449.614 116.009 449.518 115.777 449.518 115.535C449.518 115.293 449.614 115.061 449.785 114.89C449.956 114.719 450.187 114.623 450.428 114.623L457.703 114.623C457.944 114.623 458.175 114.719 458.346 114.89C458.517 115.061 458.612 115.293 458.612 115.535C458.612 115.777 458.517 116.009 458.346 116.18C458.175 116.351 457.944 116.447 457.703 116.447Z" fill="#111D30"/>
<path d="M450.428 148.078L228.535 148.078C227.651 148.077 226.804 147.724 226.179 147.097C225.554 146.47 225.202 145.62 225.201 144.733L225.201 132.567C225.202 131.68 225.554 130.83 226.179 130.203C226.804 129.575 227.651 129.223 228.535 129.221L450.428 129.221C451.312 129.223 452.159 129.575 452.784 130.203C453.409 130.83 453.761 131.68 453.762 132.567L453.762 144.733C453.761 145.62 453.409 146.47 452.784 147.097C452.159 147.724 451.312 148.077 450.428 148.078ZM228.535 131.046C228.133 131.046 227.748 131.207 227.463 131.492C227.179 131.777 227.02 132.164 227.02 132.567L227.02 144.733C227.02 145.136 227.179 145.523 227.463 145.808C227.748 146.093 228.133 146.253 228.535 146.253L450.428 146.253C450.83 146.253 451.215 146.093 451.5 145.808C451.784 145.523 451.943 145.136 451.943 144.733L451.943 132.567C451.943 132.164 451.784 131.777 451.5 131.492C451.215 131.206 450.83 131.046 450.428 131.046L228.535 131.046Z" fill="#111D30"/>
<path d="M174.578 146.862C174.392 146.862 174.21 146.805 174.058 146.699C173.905 146.592 173.788 146.442 173.724 146.267C173.659 146.092 173.65 145.901 173.696 145.721C173.743 145.54 173.844 145.378 173.985 145.257L181.668 138.65L173.985 132.044C173.802 131.886 173.689 131.662 173.671 131.42C173.652 131.179 173.73 130.94 173.887 130.756C174.044 130.573 174.268 130.459 174.508 130.441C174.749 130.422 174.987 130.5 175.17 130.658L183.658 137.957C183.757 138.043 183.837 138.149 183.892 138.269C183.947 138.388 183.975 138.519 183.975 138.65C183.975 138.782 183.947 138.912 183.892 139.031C183.837 139.151 183.757 139.257 183.658 139.343L175.17 146.642C175.005 146.784 174.795 146.862 174.578 146.862Z" fill="#111D30"/>
<path d="M160.027 146.862C159.81 146.862 159.6 146.784 159.436 146.642L150.948 139.343C150.848 139.257 150.768 139.151 150.713 139.032C150.659 138.912 150.63 138.782 150.63 138.65C150.63 138.519 150.659 138.388 150.713 138.269C150.768 138.149 150.848 138.043 150.948 137.957L159.436 130.658C159.526 130.58 159.631 130.521 159.745 130.483C159.858 130.446 159.978 130.431 160.097 130.441C160.217 130.45 160.333 130.482 160.439 130.537C160.546 130.591 160.641 130.665 160.718 130.756C160.796 130.847 160.855 130.953 160.893 131.067C160.93 131.181 160.944 131.301 160.935 131.42C160.926 131.54 160.893 131.657 160.839 131.763C160.785 131.87 160.711 131.966 160.62 132.044L152.937 138.65L160.62 145.257C160.761 145.378 160.861 145.54 160.908 145.72C160.955 145.901 160.945 146.091 160.881 146.266C160.816 146.441 160.7 146.592 160.547 146.699C160.395 146.805 160.213 146.862 160.027 146.862Z" fill="#111D30"/>
<path d="M211.257 137.738C211.015 137.738 210.784 137.834 210.613 138.005C210.443 138.176 210.347 138.408 210.347 138.65C210.356 139.955 209.95 141.229 209.187 142.286C208.424 143.343 207.344 144.128 206.105 144.527C204.866 144.925 203.533 144.916 202.3 144.5C201.067 144.085 199.998 143.285 199.249 142.218C198.501 141.15 198.112 139.871 198.139 138.566C198.166 137.261 198.608 135.998 199.4 134.963C200.192 133.928 201.293 133.174 202.543 132.81C203.792 132.447 205.125 132.493 206.346 132.943L204.6 133.526C204.372 133.603 204.183 133.768 204.075 133.984C203.967 134.201 203.949 134.451 204.026 134.681C204.102 134.91 204.266 135.1 204.482 135.208C204.698 135.316 204.948 135.334 205.176 135.258L208.814 134.041C208.938 134 209.051 133.932 209.146 133.843C209.241 133.754 209.317 133.645 209.366 133.524C209.417 133.404 209.44 133.274 209.435 133.143C209.431 133.012 209.398 132.884 209.34 132.767L207.521 129.118C207.413 128.901 207.224 128.736 206.995 128.66C206.766 128.583 206.516 128.601 206.3 128.709C206.085 128.818 205.921 129.007 205.845 129.237C205.768 129.467 205.786 129.717 205.894 129.934L206.453 131.057C204.865 130.602 203.175 130.659 201.621 131.22C200.067 131.781 198.728 132.819 197.794 134.185C196.86 135.552 196.378 137.178 196.415 138.835C196.452 140.491 197.008 142.094 198.003 143.417C198.998 144.739 200.382 145.715 201.96 146.205C203.538 146.695 205.229 146.675 206.795 146.148C208.361 145.621 209.722 144.614 210.686 143.268C211.65 141.922 212.167 140.307 212.166 138.65C212.166 138.408 212.07 138.176 211.9 138.005C211.729 137.834 211.498 137.738 211.257 137.738Z" fill="#111D30"/>
<path d="M481.687 145.608L476.565 140.468C477.647 139.055 478.153 137.281 477.98 135.506C477.806 133.732 476.966 132.091 475.631 130.915C474.295 129.739 472.564 129.117 470.788 129.175C469.012 129.233 467.325 129.967 466.068 131.228C464.812 132.488 464.081 134.181 464.023 135.963C463.965 137.745 464.585 139.482 465.757 140.822C466.929 142.162 468.565 143.004 470.333 143.178C472.102 143.352 473.87 142.845 475.279 141.759L480.401 146.899C480.571 147.07 480.803 147.166 481.044 147.166C481.286 147.166 481.517 147.07 481.687 146.899C481.858 146.727 481.954 146.495 481.954 146.253C481.954 146.011 481.858 145.779 481.687 145.608ZM465.888 136.217C465.888 135.194 466.19 134.194 466.756 133.344C467.322 132.494 468.127 131.831 469.069 131.44C470.01 131.048 471.046 130.946 472.046 131.145C473.046 131.345 473.964 131.837 474.685 132.561C475.405 133.284 475.896 134.205 476.095 135.208C476.294 136.211 476.192 137.25 475.802 138.195C475.412 139.14 474.751 139.947 473.904 140.516C473.056 141.084 472.06 141.387 471.041 141.387C469.674 141.385 468.365 140.84 467.398 139.871C466.433 138.901 465.889 137.587 465.888 136.217Z" fill="#111D30"/>
</g>
<g clip-path="url(#clip2_348_15629)">
<path d="M485.686 342.8L145.988 342.8C145.325 342.804 144.668 342.675 144.054 342.423C143.441 342.171 142.883 341.8 142.413 341.33C141.943 340.861 141.57 340.304 141.316 339.689C141.061 339.075 140.93 338.417 140.93 337.751L140.93 71.0833C140.93 70.4179 141.06 69.7589 141.315 69.1443C141.569 68.5297 141.942 67.9716 142.412 67.5021C142.882 67.0326 143.44 66.661 144.054 66.4086C144.667 66.1563 145.325 66.0281 145.988 66.0316L485.686 66.0316C486.35 66.0281 487.007 66.1562 487.621 66.4086C488.234 66.661 488.792 67.0326 489.263 67.5021C489.733 67.9716 490.105 68.5297 490.36 69.1443C490.614 69.7589 490.745 70.4179 490.744 71.0833L490.744 337.812C490.731 339.146 490.191 340.42 489.243 341.355C488.295 342.29 487.016 342.81 485.686 342.8Z" fill="white"/>
<path d="M485.938 64.815L145.736 64.815C144.15 64.8069 142.626 65.4304 141.498 66.5486C140.369 67.6669 139.729 69.1886 139.717 70.7798L139.718 337.443C139.729 339.035 140.369 340.557 141.498 341.675C142.626 342.793 144.15 343.416 145.736 343.408L485.938 343.408C487.516 343.425 489.035 342.812 490.163 341.706C491.291 340.6 491.936 339.091 491.957 337.508L491.957 70.7798C491.945 69.1886 491.305 67.6669 490.177 66.5486C489.048 65.4304 487.524 64.8069 485.938 64.815ZM145.736 66.6399L485.938 66.6399C487.042 66.6313 488.104 67.0623 488.891 67.8384C489.679 68.6146 490.127 69.6724 490.138 70.7798L490.138 83.0635L141.536 83.0635L141.536 70.7798C141.547 69.6724 141.996 68.6146 142.783 67.8385C143.571 67.0623 144.633 66.6313 145.736 66.6399ZM490.138 84.8883L490.138 118.344L141.536 118.344L141.536 84.8883L490.138 84.8883ZM485.938 341.583L145.736 341.583C144.633 341.592 143.571 341.161 142.783 340.385C141.996 339.609 141.547 338.551 141.536 337.443L141.536 120.169L490.138 120.169L490.138 337.508C490.118 338.606 489.665 339.653 488.877 340.417C488.09 341.181 487.033 341.6 485.938 341.583Z" fill="#111D30"/>
</g>
<g clip-path="url(#clip3_348_15629)">
<path d="M64.9616 212.456C100.24 212.456 128.853 233.23 128.853 258.866C128.853 274.715 117.909 288.718 101.218 297.09C105.681 306.753 114.852 318.848 125.124 321.895C108.983 319.217 91.0379 313.832 80.8886 303.829C75.6306 304.814 70.3114 305.276 64.9616 305.276C29.6836 305.276 1.06998 284.502 1.06998 258.866C1.06998 233.23 29.6836 212.456 64.9616 212.456Z" fill="white"/>
<path d="M125.124 322.664C125.46 322.664 125.796 322.418 125.857 322.08C125.949 321.679 125.704 321.279 125.338 321.156C118.429 319.094 108.646 310.969 102.227 297.428C119.407 288.595 129.617 274.223 129.617 258.866C129.617 246.217 122.861 234.338 110.572 225.413C98.4053 216.58 82.1726 211.687 64.9616 211.687C47.7506 211.687 31.5178 216.58 19.3509 225.413C7.09227 234.338 0.336274 246.186 0.336275 258.866C0.336275 271.546 7.09227 283.394 19.3815 292.319C31.579 301.183 47.7811 306.045 64.9921 306.045C65.0227 306.045 65.0533 306.045 65.0839 306.045C70.3113 306.045 75.5388 305.584 80.6746 304.66C91.6493 315.247 110.847 320.295 125.032 322.664C125.062 322.664 125.093 322.664 125.124 322.664ZM64.9616 213.226C99.781 213.226 128.089 233.691 128.089 258.866C128.089 273.823 117.909 287.857 100.881 296.382C100.515 296.566 100.362 297.028 100.515 297.397C104.397 305.799 111.275 315.124 119.193 319.987C106.048 317.279 90.6099 312.324 81.4083 303.245C81.2249 303.06 80.9803 302.999 80.7358 303.029C75.5694 303.983 70.2808 304.476 65.0227 304.476L64.931 304.476C30.1116 304.476 1.80364 284.01 1.80364 258.835C1.83421 233.691 30.1422 213.226 64.9616 213.226Z" fill="#111D30"/>
</g>
<g clip-path="url(#clip4_348_15629)">
<path d="M42.5746 261.255C42.5746 258.184 40.1095 255.694 37.0686 255.694C34.0278 255.694 31.5627 258.184 31.5627 261.255C31.5627 264.326 34.0278 266.816 37.0686 266.816C40.1095 266.816 42.5746 264.326 42.5746 261.255Z" fill="#FFE2D1"/>
<path d="M70.1042 261.255C70.1042 258.184 67.6391 255.694 64.5983 255.694C61.5574 255.694 59.0923 258.184 59.0923 261.255C59.0923 264.326 61.5574 266.816 64.5983 266.816C67.6391 266.816 70.1042 264.326 70.1042 261.255Z" fill="#FFE2D1"/>
<path d="M97.6339 261.255C97.6339 258.184 95.1688 255.694 92.128 255.694C89.0871 255.694 86.622 258.184 86.622 261.255C86.622 264.326 89.0871 266.816 92.128 266.816C95.1688 266.816 97.6339 264.326 97.6339 261.255Z" fill="#FFE2D1"/>
</g>
<g clip-path="url(#clip5_348_15629)">
<path d="M503.314 288.003C467.575 299.205 445.153 329.24 453.256 355.093C458.266 371.076 473.779 381.722 493.335 384.864C491.868 396.026 486.399 411.135 476.956 417.469C492.462 409.644 508.94 398.514 516.06 385.205C521.699 384.529 527.233 383.305 532.653 381.606C568.393 370.404 590.815 340.369 582.712 314.517C574.608 288.664 539.054 276.801 503.314 288.003Z" fill="white"/>
<path d="M477.2 418.245C476.859 418.352 476.441 418.211 476.272 417.889C476.052 417.514 476.173 417.033 476.506 416.793C482.854 412.519 490.196 401.22 492.42 385.525C472.223 382.074 457.336 370.822 452.481 355.335C448.483 342.58 451.573 328.455 461.202 315.552C470.736 302.781 485.635 292.692 503.071 287.227C520.507 281.762 538.499 281.542 553.617 286.586C568.857 291.693 579.447 301.497 583.455 314.284C587.463 327.07 584.363 341.164 574.734 354.067C565.179 366.878 550.302 376.927 532.865 382.392C532.834 382.402 532.803 382.411 532.772 382.421C527.476 384.081 522.035 385.275 516.54 385.975C508.768 400.136 490.914 411.322 477.293 418.216C477.262 418.226 477.231 418.236 477.2 418.245ZM503.557 288.779C468.282 299.835 446.073 329.463 454.03 354.85C458.758 369.933 473.507 380.853 493.452 384.043C493.882 384.113 494.182 384.53 494.144 384.951C492.867 394.656 488.846 406.244 482.362 413.662C494.823 406.757 508.897 396.858 515.349 384.78C515.476 384.536 515.705 384.396 515.962 384.35C521.498 383.671 527.011 382.488 532.338 380.819L532.431 380.79C567.706 369.733 589.916 340.106 581.959 314.718C573.98 289.372 538.833 277.722 503.557 288.779Z" fill="#111D30"/>
</g>
<g clip-path="url(#clip6_348_15629)">
<path d="M529.467 362.181C533.6 360.886 535.916 356.535 534.64 352.463C533.363 348.392 528.979 346.141 524.846 347.437C520.713 348.732 518.398 353.083 519.674 357.154C520.95 361.226 525.335 363.476 529.467 362.181Z" fill="#111D30"/>
<path d="M548.185 346.025L534.022 320.189L534.011 320.192C531.839 315.494 527.643 312.192 522.789 310.989C521.208 310.597 519.994 309.351 519.512 307.812L518.965 306.067C518.172 303.539 515.451 302.142 512.885 302.946L509.273 304.079C506.708 304.883 505.271 307.583 506.063 310.111L506.562 311.705C507.069 313.32 506.78 315.126 505.659 316.419C502.41 320.168 500.885 325.236 501.777 330.295L501.759 330.301L504.877 359.599C505.09 361.603 507.105 362.9 509.056 362.288L546.289 350.618C548.239 350.007 549.154 347.792 548.185 346.025Z" fill="#FFE2D1"/>
<path d="M546.528 351.381L509.295 363.051C508.132 363.415 506.883 363.249 505.867 362.596C504.851 361.943 504.196 360.883 504.07 359.688L500.952 330.392C500.948 330.351 500.947 330.311 500.949 330.272C500.092 325.126 501.579 319.899 505.043 315.902C505.941 314.866 506.226 313.35 505.786 311.946L505.287 310.354C504.364 307.41 506.044 304.253 509.033 303.316L512.645 302.184C515.633 301.248 518.814 302.881 519.737 305.825L520.284 307.57C520.698 308.889 521.735 309.903 522.99 310.213C528.185 311.499 532.441 314.965 534.688 319.732C534.704 319.756 534.72 319.779 534.733 319.804L548.896 345.64C549.473 346.693 549.54 347.937 549.078 349.054C548.62 350.169 547.689 351.017 546.528 351.381ZM502.582 330.373L505.682 359.509C505.758 360.226 506.15 360.862 506.761 361.254C507.37 361.646 508.119 361.746 508.817 361.527L546.05 349.857C546.747 349.639 547.307 349.13 547.583 348.46C547.859 347.79 547.819 347.044 547.473 346.412L533.371 320.689C533.332 320.641 533.301 320.589 533.274 320.531C531.245 316.141 527.349 312.946 522.586 311.767C520.791 311.323 519.316 309.9 518.738 308.056L518.19 306.309C517.532 304.207 515.258 303.04 513.124 303.709L509.512 304.841C507.379 305.51 506.178 307.766 506.837 309.868L507.337 311.462C507.939 313.386 507.533 315.485 506.272 316.937C503.089 320.61 501.742 325.426 502.575 330.151C502.587 330.226 502.59 330.3 502.582 330.373Z" fill="#111D30"/>
</g>
<g clip-path="url(#clip7_348_15629)">
<path d="M299.593 323.489C300.874 329.152 301.42 334.956 301.218 340.759C300.819 349.747 300.602 353.029 299.593 354.164C298.584 355.298 286.009 359.071 286.5 359.378C287.021 359.686 296.312 370.513 309.803 370.329C323.295 370.115 339.454 360.422 340.157 340.881L330.652 344.47L325.746 329.133C327.376 328.148 328.752 326.793 329.764 325.179C330.776 323.565 331.395 321.736 331.572 319.839C332.278 313.182 336.233 313.949 336.355 312.817C336.602 310.7 333.289 307.172 331.388 304.289L325.255 292.234L318.419 290.176L304.713 294.378L299.593 299.992L296.833 305.207L297.845 315.422L299.593 323.489Z" fill="#FFE2D1"/>
<path d="M389.895 312.937L421.324 286.067C421.324 286.067 444.014 266.832 457.72 260.912C471.426 254.991 482.342 249.624 498.134 251.618C513.925 253.611 513.005 257.599 513.005 257.599L521.132 274.01L513.005 290.575C513.005 290.575 510.245 287.661 510.399 284.747C510.552 281.832 514.385 276.004 514.385 276.004L508.407 267.722C508.407 267.722 507.334 271.863 507.792 273.396C508.249 274.93 511.226 282.967 509.846 284.747C508.467 286.526 506.32 284.347 504.634 282.231C502.947 280.145 497.184 268.673 495.895 268.795C494.607 268.888 486.788 270.084 475.289 275.694C463.79 281.304 457.873 287.718 457.873 287.718L437.268 315.786L422.244 337.811C422.244 337.811 407.283 354.744 398.478 359.958C393.633 352.636 390.441 344.346 389.126 335.663C387.196 321.74 389.895 312.937 389.895 312.937Z" fill="#FFE2D1"/>
<path d="M513.005 256.955L531.955 262.107C531.955 262.107 532.201 265.021 529.441 265.726L536.186 270.023C536.186 270.023 534.898 272.538 532.139 272.17C530.099 271.839 528.117 271.219 526.251 270.329C526.805 270.483 533.455 277.691 533.455 277.691C533.455 277.691 532.29 279.379 528.488 277.999C524.686 276.62 518.218 270.636 518.218 270.636L513.005 256.955Z" fill="#FFE2D1"/>
<path d="M286.5 359.377C286.5 359.377 273.223 364.04 257.431 371.402C241.639 378.764 229.985 384.899 229.985 384.899C229.985 384.899 230.752 402.997 235.812 415.882C240.872 428.766 256.818 442.875 256.818 442.875L273.989 436.587L291.007 491.801C291.007 491.801 313.084 493.95 339.15 487.353C365.216 480.757 385.91 470.022 390.664 464.502L389.284 405.913L415.805 376.617C415.805 376.617 400.321 370.175 394.035 351.617C387.75 333.059 387.596 324.316 389.896 312.967C389.896 312.967 374.565 324.316 370.118 326.924C360.627 332.572 350.59 337.248 340.16 340.88C340.16 340.88 340.253 362.66 319.064 369.101C298.826 375.206 286.5 359.377 286.5 359.377Z" fill="white"/>
<path d="M397.131 376.71C400.657 376.71 404.335 374.747 407.587 371.004L406.207 369.777C402.497 374.011 398.296 375.698 394.708 374.44C391.151 373.182 388.76 369.164 388.514 363.949C388.054 354.348 384.191 353.182 374.87 350.422C373.459 349.991 371.834 349.532 370.086 348.949C367.756 348.213 366.345 346.924 365.732 345.053C363.616 338.458 372.079 326.986 372.172 326.863L370.699 325.759C370.33 326.252 361.562 338.121 363.985 345.606C364.785 348.06 366.652 349.777 369.535 350.698C371.282 351.252 372.907 351.74 374.348 352.17C383.517 354.9 386.276 355.728 386.675 364.041C386.982 370.022 389.802 374.685 394.095 376.188C395.067 376.545 396.095 376.722 397.131 376.71Z" fill="#FFE2D1"/>
<path d="M184.054 415.575C191.873 406.894 204.291 397.814 220.972 388.519C246.698 374.194 274.476 363.305 289.411 357.446C294.01 355.636 297.354 354.317 298.487 353.734C301.338 352.262 301.001 338.918 299.836 329.931L299.836 329.869C299.683 327.293 297.905 322.875 296.31 318.98C295.482 316.955 294.715 315.053 294.164 313.366C293.979 312.783 293.765 312.231 293.548 311.648C291.953 307.231 290.298 302.691 293.24 293.304C296.122 284.102 302.071 283.366 303.911 283.366C312.005 274.102 318.23 271.556 324.669 274.9C326.877 276.034 328.349 278.151 328.962 281.004C329.179 282.022 329.282 283.061 329.27 284.102C329.901 284.292 330.493 284.593 331.018 284.992C332.183 285.881 333.563 287.721 333.747 291.402C333.993 296.74 331.631 299.133 330.435 299.992C330.743 300.575 331.018 301.157 331.235 301.648C331.45 302.108 331.634 302.568 331.818 303.028C332.249 304.365 332.936 305.605 333.841 306.679C334.404 307.215 334.998 307.717 335.62 308.182C336.908 309.163 338.257 310.176 337.858 312.108C337.489 313.949 335.498 314.777 334.179 315.329C333.903 315.452 333.535 315.605 333.412 315.667C332.707 316.495 332.554 317.722 332.37 319.256C332.124 321.311 331.848 323.888 329.917 326.462C329.035 327.627 327.992 328.659 326.82 329.53L330.653 341.587C330.9 342.203 331.084 342.783 331.269 343.397C335.378 342.016 352.641 336.035 366.807 327.813C378.153 321.249 396.182 306.249 412.096 292.997C418.842 287.384 425.22 282.077 430.187 278.181C445.639 266.096 467.716 252.967 482.22 250.912C495.803 249.01 509.387 252.906 512.331 255.023L515.581 256.894C515.654 256.889 515.727 256.899 515.795 256.925L532.445 261.342C532.653 261.394 532.834 261.518 532.959 261.692C533.083 261.866 533.141 262.079 533.122 262.292C533.038 263.548 532.492 264.728 531.589 265.605C531.443 265.727 531.29 265.84 531.129 265.943L536.953 269.317C537.162 269.441 537.314 269.642 537.378 269.877C537.441 270.112 537.409 270.362 537.29 270.575C536.848 271.36 536.213 272.019 535.446 272.491C534.679 272.963 533.805 273.233 532.905 273.274C532.574 273.276 532.244 273.235 531.924 273.151C531.202 272.971 530.494 272.735 529.808 272.445L534.5 277.138C534.588 277.227 534.658 277.333 534.705 277.449C534.753 277.566 534.777 277.69 534.776 277.816C534.779 277.937 534.756 278.057 534.709 278.168C534.661 278.279 534.59 278.379 534.5 278.459C533.533 279.284 532.305 279.74 531.035 279.748C530.14 279.744 529.259 279.533 528.459 279.132C526.711 278.304 524.105 276.218 522.143 274.562L522.143 274.623C522.143 274.9 522.143 275.207 517.697 283.335C513.128 291.74 513.097 291.74 512.392 291.74C511.318 291.74 510.123 289.255 509.663 286.832C509.351 286.955 509.011 286.987 508.682 286.924C506.321 286.525 503.285 281.617 499.269 274.746C498.011 272.568 496.57 270.145 496.11 269.715C495.405 269.562 492.062 270.147 485.777 272.415C479.655 274.608 473.71 277.264 467.993 280.361C467.173 280.821 466.384 281.333 465.631 281.895L457.782 289.409C448 300.36 436.624 317.723 428.99 329.41C428.161 330.667 427.364 331.894 426.628 333.029C423.147 338.185 419.139 342.966 414.67 347.293C416.124 351.355 417.322 355.504 418.257 359.716C420.281 369.01 419.79 374.961 416.786 377.446L406.667 388.489C406.634 388.582 406.582 388.665 406.514 388.736L406.483 388.766L390.109 406.557C390.232 410.822 391.52 449.81 391.949 464.779C392.47 482.447 391.518 506.497 389.342 530.761C386.675 560.576 382.262 590.239 376.587 616.528C364.138 674.197 338.81 745.638 338.536 746.405L330.196 769.902C333.875 766.006 339.916 760.423 343.933 760.638C344.519 760.662 345.09 760.827 345.598 761.121C346.105 761.416 346.534 761.828 346.846 762.326C347.172 762.783 347.377 763.315 347.442 763.873C347.506 764.431 347.428 764.996 347.215 765.516C346.632 766.927 345.069 768.246 343.045 769.411C343.198 769.411 343.353 769.381 343.505 769.381C347.491 769.105 348.503 770.669 348.625 772.05C348.675 772.476 348.621 772.909 348.466 773.31C348.311 773.711 348.06 774.068 347.736 774.35C346.418 775.577 343.505 775.976 340.439 775.976C338.481 775.967 336.525 775.844 334.582 775.607C337.372 776.711 340.745 778.061 344.087 779.503C348.748 781.496 352.461 783.275 355.126 784.748C357.947 786.312 360.584 788 360.522 789.656C360.461 791.527 357.518 792.202 345.866 792.202C339.641 792.202 330.933 792.017 318.852 791.709C313.486 791.586 307.415 791.401 300.976 791.278C300.551 791.302 300.127 791.217 299.746 791.029C299.364 790.84 299.038 790.556 298.799 790.204C297.633 788.333 299.353 784.683 301.896 779.131C302.754 777.29 303.735 775.204 304.655 773.026C305.986 769.784 307.123 766.465 308.059 763.087L308.059 763.057C308.063 762.872 308.115 762.693 308.212 762.536C308.705 760.848 309.101 759.192 309.5 757.689L309.5 757.504C309.526 757.316 309.567 757.131 309.623 756.949C309.931 755.569 310.635 752.226 311.003 750.508L305.023 751.309L304.9 751.309C304.772 751.31 304.645 751.283 304.528 751.23C304.412 751.177 304.309 751.099 304.226 751.001C304.124 750.892 304.051 750.759 304.013 750.614C303.975 750.469 303.975 750.317 304.011 750.172C311.248 715.663 313.455 658.362 314.13 629.006L314.345 614.804C308.151 629.62 301.957 643.485 296.529 654.16C294.873 657.411 293.157 660.663 291.378 663.914C291.35 664.012 291.309 664.104 291.255 664.19C291.163 664.344 291.04 664.528 290.947 664.683C267.888 707.045 236.674 749.53 236.334 749.992C236.248 750.107 236.138 750.201 236.01 750.265C235.882 750.329 235.741 750.362 235.598 750.362C235.515 750.369 235.431 750.358 235.352 750.331L230.599 748.951L216.526 766.926C221.278 765.668 231.549 763.368 235.291 766.128C235.765 766.471 236.148 766.924 236.41 767.448C236.671 767.971 236.803 768.55 236.793 769.135C236.814 769.693 236.692 770.248 236.44 770.747C236.188 771.246 235.814 771.673 235.352 771.987C234.31 772.726 232.685 773.031 230.845 773.031C230.476 773.031 230.109 773.031 229.741 773C229.864 773.062 230.017 773.153 230.139 773.215C233.635 775.178 233.605 777.049 232.991 778.245C232.801 778.629 232.52 778.961 232.173 779.212C231.825 779.464 231.423 779.626 230.998 779.687C230.805 779.713 230.61 779.723 230.416 779.717C226.706 779.717 220.328 774.503 217.384 771.926L222.873 780.822C223.946 781.098 227.257 781.988 230.538 783.153C236.426 785.239 239.155 787.018 239.308 788.89C239.326 789.12 239.294 789.352 239.215 789.569C239.136 789.786 239.011 789.983 238.848 790.147C238.355 790.668 237.039 792.018 224.559 792.018L223.363 792.018C216.801 791.988 210.485 791.587 210.423 791.587C210.236 791.572 210.057 791.509 209.902 791.402C209.841 791.34 203.586 786.341 197.361 781.279C184.575 770.85 184.421 770.359 184.299 769.899C184.023 768.948 184.915 768.028 188.285 764.654C191.045 761.893 194.816 758.151 197.239 754.531C199.416 751.096 205.058 740.942 205.366 740.39C205.982 739.04 226.983 693.304 240.904 657.599L253.537 620.941C261.387 595.236 271.536 558.702 279.11 530.819C279.233 530.298 279.386 529.776 279.541 529.223C279.541 529.193 279.541 529.193 279.572 529.193C285.183 508.549 289.291 493.027 289.875 490.849L286.348 479.315C285.244 478.641 284.263 477.997 283.496 477.475L272.059 474.653C270.925 474.5 251.852 472.076 229.776 468.733C226.31 468.211 217.296 466.371 216.468 466.156C204.172 463.272 190.588 458.671 182.095 452.291C181.88 452.168 181.725 452.106 181.664 452.076C181.495 451.984 181.356 451.846 181.265 451.678C176.942 448.242 174.123 444.315 173.754 439.898C173.017 432.109 176.513 423.917 184.054 415.575ZM346.415 773.03C346.527 772.935 346.614 772.813 346.667 772.675C346.72 772.538 346.737 772.39 346.72 772.244C346.701 772.098 346.647 771.959 346.561 771.839C346.476 771.719 346.362 771.623 346.231 771.557C345.621 771.297 344.96 771.182 344.299 771.22C341.386 771.22 336.725 772.6 333.689 773.705C338.658 774.288 344.789 774.502 346.415 773.03ZM335.96 770.545C343.257 767.907 345.005 765.852 345.403 764.84C345.508 764.595 345.547 764.327 345.515 764.063C345.483 763.799 345.38 763.548 345.218 763.337C345.066 763.08 344.852 762.866 344.594 762.716C344.336 762.566 344.044 762.484 343.746 762.478L343.593 762.478C341.631 762.478 338.35 764.533 334.333 768.306C332.83 769.717 331.451 771.19 330.378 772.324C331.942 771.895 333.904 771.281 335.959 770.545L335.96 770.545ZM230.54 777.907C230.684 777.888 230.823 777.833 230.941 777.747C231.059 777.661 231.154 777.547 231.217 777.414C231.295 777.283 231.333 777.133 231.328 776.981C231.322 776.829 231.274 776.681 231.187 776.556C229.99 774.439 223.521 772.445 219.504 771.464C223.365 774.717 228.394 778.273 230.54 777.907ZM223.119 770.116C230.662 771.895 233.268 771.128 234.158 770.515C234.378 770.368 234.557 770.167 234.676 769.93C234.795 769.693 234.85 769.429 234.835 769.165C234.851 768.865 234.789 768.566 234.654 768.297C234.52 768.028 234.318 767.799 234.068 767.631C233.209 766.987 231.676 766.68 229.561 766.68C227.358 766.715 225.163 766.942 222.999 767.358C220.944 767.727 219.013 768.186 217.51 768.555C219.041 769.042 221.035 769.625 223.12 770.116L223.119 770.116ZM330.838 345.421C330.807 345.421 330.776 345.452 330.746 345.452L330.409 345.452C330.392 345.454 330.375 345.453 330.359 345.447C330.343 345.442 330.329 345.433 330.317 345.421L330.255 345.421C330.224 345.421 330.224 345.391 330.193 345.391C330.163 345.391 330.163 345.36 330.132 345.36C330.101 345.36 330.102 345.33 330.07 345.33C330.039 345.33 330.04 345.299 330.009 345.299C329.978 345.299 329.979 345.268 329.947 345.268L329.886 345.206C329.868 345.19 329.858 345.168 329.855 345.145L329.793 345.083C329.793 345.052 329.762 345.052 329.762 345.022C329.762 344.991 329.732 344.991 329.732 344.96C329.732 344.929 329.701 344.929 329.701 344.898C329.701 344.868 329.671 344.868 329.671 344.837L328.444 341.248C326.85 337.751 324.488 335.91 321.391 335.787C313.174 335.45 312.499 332.597 312.469 332.045L312.469 331.861L312.469 331.799C312.469 331.769 312.499 331.707 312.499 331.676C312.499 331.644 312.53 331.645 312.53 331.614C312.561 331.583 312.561 331.553 312.592 331.522C312.592 331.506 312.6 331.49 312.611 331.479C312.622 331.468 312.637 331.461 312.653 331.46C312.684 331.429 312.684 331.399 312.715 331.368C312.715 331.363 312.715 331.36 312.717 331.356C312.718 331.352 312.72 331.349 312.723 331.346C312.726 331.343 312.73 331.341 312.733 331.339C312.737 331.338 312.741 331.337 312.745 331.337C312.762 331.32 312.783 331.309 312.806 331.306L312.868 331.245C312.898 331.214 312.93 331.214 312.96 331.183C312.991 331.183 312.991 331.152 313.021 331.152C313.052 331.152 313.083 331.122 313.113 331.122C313.13 331.124 313.146 331.123 313.162 331.117C313.178 331.112 313.193 331.103 313.205 331.091C313.221 331.093 313.239 331.092 313.254 331.086C313.27 331.081 313.285 331.072 313.297 331.06L313.482 331.06C313.79 331.091 314.098 331.091 314.371 331.122C316.302 331.184 321.025 331.06 325.011 328.484C325.093 328.408 325.186 328.346 325.287 328.299C326.475 327.506 327.513 326.509 328.353 325.354C329.979 323.176 330.224 320.968 330.469 319.035C330.653 317.287 330.868 315.661 332.002 314.403C332.418 314.051 332.896 313.779 333.412 313.603C334.363 313.204 335.835 312.591 336.019 311.731C336.172 310.995 335.772 310.627 334.455 309.646C333.744 309.141 333.077 308.577 332.462 307.959C331.373 306.717 330.549 305.266 330.039 303.695C329.855 303.264 329.702 302.805 329.485 302.376C328.565 300.32 326.756 297.008 323.843 294.83C322.126 298.02 318.324 298.633 315.196 299.124C313.295 299.432 311.517 299.707 310.689 300.474C309.248 301.793 309.156 304.124 309.064 306.149C309.002 307.56 308.972 308.756 308.509 309.646C308.412 309.864 308.264 310.056 308.077 310.206C307.891 310.355 307.671 310.458 307.436 310.504C306.547 310.658 305.811 309.95 304.861 309.063C303.419 307.683 302.193 306.701 300.936 307.222C300.569 307.39 300.245 307.636 299.985 307.943C299.725 308.251 299.537 308.612 299.433 309.001C299.126 310.075 299.464 311.302 300.414 312.56C302.53 315.443 305.106 314.922 305.198 314.891C305.429 314.831 305.675 314.866 305.882 314.987C306.089 315.107 306.239 315.304 306.302 315.535C306.363 315.689 307.436 319.492 306.24 325.106C305.351 329.278 303.144 330.351 301.733 330.597C301.947 332.468 302.377 336.762 302.472 341.179C302.748 353.511 300.141 354.861 299.283 355.321C298.087 355.965 294.867 357.192 290.054 359.094C289.471 359.34 288.857 359.554 288.214 359.83C292.096 364.037 297.116 367.026 302.663 368.433C308.211 369.84 314.048 369.605 319.465 367.757C324.882 365.908 329.646 362.526 333.178 358.02C336.709 353.514 338.857 348.08 339.359 342.376C334.272 344.317 330.9 345.391 330.838 345.421ZM348.837 338.611C346.108 339.777 343.532 340.789 341.232 341.679C340.869 347.884 338.672 353.841 334.918 358.795C331.166 363.748 326.027 367.475 320.153 369.503C314.28 371.531 307.937 371.767 301.929 370.183C295.921 368.599 290.519 365.265 286.408 360.605C284.139 361.495 281.686 362.476 279.019 363.55C283.973 370.009 290.825 374.753 298.611 377.117C306.399 379.48 314.731 379.345 322.437 376.728C330.143 374.112 336.836 369.147 341.577 362.53C346.318 355.913 348.868 347.977 348.869 339.836C348.837 339.44 348.837 339.039 348.837 338.611ZM531.158 262.907L521.468 260.362L528.98 264.687C529.231 264.7 529.482 264.663 529.719 264.578C529.956 264.494 530.174 264.363 530.36 264.194C530.751 263.857 531.029 263.408 531.158 262.907ZM532.292 271.346C532.812 271.443 533.348 271.403 533.848 271.23C534.348 271.057 534.794 270.758 535.144 270.36L528.459 266.495C528.345 266.48 528.234 266.442 528.134 266.384C528.034 266.326 527.947 266.249 527.877 266.158L517.452 260.145L525.178 267.845C526.098 268.427 529.961 270.853 532.292 271.342L532.292 271.346ZM529.226 277.45C529.703 277.707 530.231 277.853 530.772 277.88C531.313 277.907 531.854 277.812 532.353 277.603L523.985 269.255C523.969 269.238 523.947 269.227 523.923 269.224C523.807 269.146 523.713 269.04 523.647 268.917L516.623 261.922C518.157 264.958 519.659 268.363 520.732 270.879C521.284 271.402 526.558 276.157 529.226 277.444L529.226 277.45ZM509.663 276.56C510.094 277.818 510.552 279.168 510.889 280.426C511.66 278.832 512.541 277.295 513.526 275.824C511.778 273.094 509.878 270.272 508.835 268.861C508.743 269.662 508.682 270.824 508.62 271.744L508.59 272.45C508.498 273.213 509.08 274.9 509.663 276.556L509.663 276.56ZM425.034 331.99C425.772 330.855 426.567 329.659 427.395 328.401C430.584 323.554 434.386 317.726 438.495 311.745C438.485 311.589 438.506 311.432 438.556 311.285C440.12 307.849 440.427 305.272 439.445 303.832C438.645 302.635 436.87 302.114 434.202 302.236C432.087 302.329 430.369 301.469 429.51 299.844C429.116 299.143 428.916 298.35 428.932 297.546C428.949 296.742 429.18 295.957 429.603 295.273C431.105 293.187 436.839 291.224 442.91 289.169C444.29 288.709 445.731 288.218 447.05 287.727C453.36 285.379 459.515 282.634 465.478 279.507C465.627 279.419 465.798 279.376 465.971 279.383C466.324 279.145 466.692 278.929 467.073 278.737C473.012 275.516 479.195 272.766 485.565 270.513C492.065 268.212 495.898 267.415 497.032 268.121C497.71 268.552 498.565 269.93 500.835 273.795C502.337 276.372 504.024 279.255 505.618 281.556C507.918 284.839 508.807 285.085 508.96 285.115C510.248 283.98 508.837 279.869 507.918 277.169C507.241 275.175 506.661 273.488 506.722 272.353L506.752 271.648C506.937 268.549 507.028 267.138 507.795 266.556C507.929 266.454 508.083 266.382 508.247 266.345C508.411 266.308 508.581 266.306 508.745 266.341C509.144 266.433 509.819 266.587 515.369 275.329C515.399 275.39 515.43 275.42 515.461 275.482C515.461 275.513 515.491 275.544 515.491 275.574C515.491 275.604 515.491 275.604 515.522 275.635L515.522 275.973C515.522 276.003 515.491 276.034 515.491 276.065C515.491 276.095 515.491 276.126 515.461 276.126C515.437 276.181 515.406 276.233 515.369 276.28C514.173 278.028 511.076 283.028 511.321 285.42C511.422 286.7 511.765 287.95 512.333 289.101C514.204 285.85 519.447 276.218 520.244 274.503C519.505 272.387 514.02 259.81 511.689 256.957L511.197 256.464C509.019 254.9 496.11 250.758 482.404 252.691C472.53 254.072 452.293 263.092 431.26 279.562C426.323 283.427 419.945 288.734 413.199 294.345C405.84 300.48 398.021 306.953 390.632 312.842L390.632 312.873C390.632 312.903 389.374 316.646 389.221 323.088C389.098 329.038 389.926 338.578 394.587 350.266C395.722 353.08 397.022 355.825 398.481 358.486C403.517 354.803 408.292 350.775 412.77 346.431C412.848 346.306 412.953 346.201 413.078 346.123C417.56 341.854 421.568 337.115 425.034 331.986L425.034 331.99ZM310.143 762.114L331.055 761.745L336.237 747.205L321.489 749.137C321.433 749.171 321.369 749.193 321.304 749.199C321.212 749.23 313.515 751.009 311.522 756.652C311.153 758.275 310.693 760.146 310.141 762.11L310.143 762.114ZM202.057 749.844L220.087 759.292L224.9 753.157C224.927 753.049 224.969 752.946 225.024 752.849C225.262 752.54 225.431 752.181 225.515 751.8C225.601 751.418 225.601 751.022 225.516 750.64C225.118 748.769 222.849 747.051 221.867 746.438L206.506 741.959C205.734 743.336 203.864 746.68 202.055 749.84L202.057 749.844ZM278.19 540.79C271.475 565.33 263.352 594.377 256.604 616.771C256.665 616.961 256.665 617.165 256.604 617.355L256.604 617.385C256.263 618.445 256.096 619.554 256.111 620.667C256.142 622.907 257.062 624.471 258.809 625.33C259.699 625.761 261.999 625.145 264.206 624.563C268.192 623.49 273.159 622.17 275.582 625.391C276.016 625.955 276.317 626.608 276.466 627.303C276.615 627.998 276.606 628.718 276.44 629.41C275.306 634.808 266.598 640.453 261.508 643.305C253.376 648.054 246.401 654.55 241.086 662.324C241.018 662.437 240.924 662.533 240.81 662.6C227.963 695.054 210.362 733.705 207.357 740.3L222.412 744.687C222.429 744.685 222.446 744.686 222.462 744.691C222.478 744.696 222.492 744.705 222.504 744.717L224.16 745.209L235.168 748.43C237.192 745.67 246.912 732.265 258.839 714.074C258.856 713.968 258.887 713.864 258.932 713.766C263.04 706.129 261.599 702.233 260.127 701.128C258.594 699.994 254.608 701.404 251.082 702.631C246.452 704.257 242.067 705.791 239.921 703.46C239.392 702.952 238.995 702.325 238.759 701.63C238.525 700.937 238.46 700.196 238.572 699.472C239.372 694.656 248.108 689.84 260.189 683.184L261.323 682.568C273.435 675.911 287.755 664.684 289.655 663.181C291.434 659.899 293.182 656.617 294.838 653.334C301.461 640.359 309.157 622.629 316.7 604.193L350.613 515.389C350.613 515.359 350.643 515.328 350.675 515.297C350.675 515.267 350.706 515.236 350.706 515.206L350.797 515.113C350.828 515.082 350.828 515.052 350.859 515.052C350.894 515.013 350.936 514.983 350.982 514.959C351.013 514.959 351.013 514.928 351.044 514.928C351.113 514.893 351.184 514.862 351.258 514.837L369.043 509.929C369.1 509.903 369.164 509.893 369.227 509.898L369.443 509.898C369.474 509.898 369.474 509.898 369.504 509.929C369.535 509.929 369.596 509.96 369.628 509.96C369.651 509.963 369.672 509.973 369.689 509.99C369.719 510.021 369.751 510.021 369.781 510.051C369.785 510.051 369.789 510.052 369.793 510.053C369.796 510.055 369.8 510.057 369.803 510.06C369.805 510.063 369.808 510.067 369.809 510.07C369.811 510.074 369.812 510.078 369.812 510.082L369.842 510.113L369.934 510.205L369.996 510.266C370.026 510.296 370.057 510.328 370.057 510.358C370.057 510.388 370.088 510.389 370.088 510.42C370.119 510.45 370.119 510.481 370.15 510.543C370.153 510.566 370.163 510.588 370.18 510.604C370.18 510.635 370.211 510.697 370.211 510.728L370.211 510.758C370.241 511.189 370.765 519.562 365.213 524.776C360.399 529.316 355.4 534.777 354.665 540.976C354.418 542.97 354.726 545.792 355.096 549.074C355.955 556.897 356.997 566.651 351.631 573.369C349.699 575.762 347.583 578.123 345.499 580.393C339.519 586.958 333.877 593.154 333.417 600.271C333.326 601.712 333.326 603.522 333.326 605.608C333.356 617.786 333.387 638.185 315.296 650.853C314.161 681.158 311.616 721.989 306.066 749.381L337.036 745.332C339.397 738.676 362.977 671.161 374.84 616.221C380.513 589.994 384.898 560.393 387.535 530.669C389.619 507.386 390.57 484.35 390.202 466.988C387.32 469.595 380.237 475.303 368.002 481.466C357.27 486.865 340.958 493.337 318.513 497.693C317.134 503.321 315.15 508.782 312.595 513.982C309.13 521.004 304.837 526.774 299.839 531.16C296.542 534.046 292.805 536.386 288.77 538.092C288.696 538.142 288.612 538.173 288.524 538.185L288.494 538.185C285.165 539.429 281.71 540.302 278.19 540.79ZM288.8 501.588C286.96 508.49 284.292 518.367 281.195 529.778C280.949 531.005 280.673 534.257 282.299 535.791C283.25 536.68 284.752 536.956 286.807 536.558L287.787 536.311C291.688 534.699 295.293 532.449 298.458 529.655C303.272 525.453 307.442 519.87 310.785 513.09C313.145 508.239 315.014 503.163 316.365 497.938C307.25 499.657 298.047 500.875 288.8 501.588ZM291.375 489.962C324.583 491.404 349.665 484.349 364.874 478.152C379.651 472.109 388.238 465.729 390.017 464.348C389.741 455.361 389.217 438.398 388.791 425.115C388.612 424.958 388.501 424.737 388.483 424.499C387.99 415.481 381.062 411.585 375.512 408.485C374.5 407.902 373.55 407.38 372.66 406.828C372.291 406.614 371.894 406.368 371.496 406.123C367.234 403.515 361.438 399.957 360.457 395.264C360.271 394.213 360.309 393.133 360.568 392.097C360.827 391.062 361.301 390.092 361.96 389.252C366.62 382.656 374.47 386.583 378.241 388.454C378.763 388.742 379.306 388.988 379.867 389.19C381.767 389.528 382.963 388.914 384.374 388.208C385.843 387.316 387.53 386.848 389.249 386.859C390.721 386.92 392.193 387.503 393.94 388.178C395.483 388.809 397.059 389.352 398.663 389.804C401.177 390.481 403.477 388.883 404.489 387.994L414.454 377.166C410.713 375.693 400.472 370.049 392.837 351C385.662 333.024 387.103 319.956 388.207 314.773C380.449 320.846 373.245 326.122 367.632 329.374C362.12 332.508 356.438 335.334 350.614 337.84C350.645 338.518 350.675 339.16 350.675 339.834C350.674 348.404 347.975 356.755 342.962 363.705C337.949 370.654 330.876 375.848 322.747 378.551C314.617 381.253 305.844 381.327 297.671 378.761C289.497 376.195 282.338 371.12 277.21 364.256C274.818 365.207 272.304 366.25 269.699 367.354C269.638 367.413 269.564 367.454 269.484 367.477L269.392 367.508C269.039 367.679 268.724 367.92 268.466 368.215C268.208 368.51 268.011 368.853 267.889 369.226C267.581 370.33 268.012 371.741 269.146 373.367C270.189 374.512 271.306 375.587 272.489 376.588C277.119 380.76 283.466 386.465 282.791 390.698C282.675 391.656 282.311 392.567 281.736 393.342C281.16 394.117 280.394 394.728 279.51 395.116C278.664 395.464 277.757 395.642 276.843 395.637C274.574 395.637 271.998 394.716 269.516 392.968C267.829 391.772 266.235 390.453 264.855 389.287C261.758 386.68 259.336 384.656 257.312 385.238C254.473 385.947 251.519 386.062 248.634 385.576C244.74 384.96 241.677 383.336 239.711 380.851C236.798 382.293 233.855 383.765 230.942 385.269C231.126 388.213 232.628 408.059 239.254 420.361C246.552 433.919 254.954 440.238 257.008 441.619C257.049 441.58 257.104 441.558 257.161 441.557L257.653 441.372C258.88 440.879 262.13 439.224 262.468 435.881C262.504 435.314 262.452 434.745 262.314 434.194C262.038 432.599 261.731 430.605 263.633 428.458C267.19 424.439 274.334 427.814 280.16 431.218C287.795 435.667 294.817 440.544 294.51 445.973C294.357 448.488 293.191 449.715 292.211 450.299C291.281 450.807 290.234 451.061 289.175 451.035C287.56 451.003 285.971 450.626 284.514 449.93C283.288 449.348 279.638 447.66 278.719 448.519L280.773 455.237C283.38 454.437 285.71 453.826 286.568 453.887C288.623 453.979 304.782 460.513 306.959 463.09C307.096 463.238 307.202 463.412 307.271 463.601C307.339 463.791 307.369 463.992 307.358 464.194C307.337 464.374 307.277 464.547 307.181 464.701C307.085 464.855 306.956 464.986 306.803 465.084C306.235 465.404 305.582 465.543 304.933 465.482C302.743 465.39 300.566 465.092 298.432 464.593C297.206 464.347 296.01 464.1 294.968 463.857C296.01 464.807 297.145 465.881 298.248 466.924C306.191 474.5 306.252 475.82 305.546 476.771C305.358 477.023 305.119 477.233 304.844 477.386C304.569 477.54 304.265 477.633 303.951 477.66C303.39 477.685 302.831 477.569 302.327 477.323C302.256 477.566 302.163 477.802 302.051 478.029C301.284 479.685 298.432 478.734 289.847 474.869C294.906 479.133 296.562 481.004 295.795 482.383C295.699 482.555 295.566 482.704 295.408 482.821C295.249 482.938 295.067 483.02 294.875 483.061C294.744 483.087 294.611 483.098 294.477 483.092C293.158 483.092 290.858 481.987 288.559 480.699L291.375 489.962ZM248.784 436.895L239.095 440.392C247.742 444.624 264.913 452.447 275.154 457.048C276.32 456.649 277.669 456.22 278.987 455.79L273.376 437.508L257.278 443.612C257.147 443.656 257.01 443.673 256.873 443.663C256.736 443.652 256.602 443.614 256.481 443.551C253.672 441.63 251.09 439.396 248.784 436.894L248.784 436.895ZM175.5 439.778C175.838 443.735 178.567 447.416 182.921 450.729C184.454 451.373 189.636 453.244 199.356 453.612C199.972 453.643 200.552 453.643 201.165 453.674C209.383 453.982 217.141 454.228 219.532 458.275C220.575 460.024 220.514 462.232 219.379 465.023C222.905 465.79 226.432 466.435 229.927 466.956C252.556 470.392 272.027 472.845 272.211 472.876C272.227 472.874 272.244 472.876 272.26 472.881C272.276 472.887 272.291 472.895 272.303 472.907L283.955 475.759C284.062 475.787 284.166 475.828 284.262 475.883C287.789 478.275 292.082 480.698 293.829 481.22C292.756 479.748 289.168 476.741 287.513 475.361C284.477 472.845 284.109 472.509 284.416 471.711C284.464 471.594 284.535 471.488 284.624 471.398C284.714 471.309 284.82 471.238 284.937 471.189C285.491 470.974 285.796 471.097 289.996 472.968C292.694 474.196 298.888 476.986 300.483 477.017C300.547 476.883 300.58 476.736 300.58 476.588C300.58 476.44 300.547 476.293 300.483 476.159C300.391 476.066 300.298 476.005 300.237 475.944L287.175 467.232C286.978 467.091 286.845 466.879 286.802 466.64C286.76 466.403 286.813 466.157 286.948 465.957C287.084 465.757 287.293 465.618 287.53 465.57C287.767 465.521 288.014 465.567 288.217 465.699L301.341 474.441C301.516 474.546 301.671 474.681 301.801 474.839C302.416 475.332 303.273 475.883 303.794 475.821C303.81 475.823 303.828 475.822 303.843 475.816C303.859 475.811 303.874 475.802 303.886 475.79C303.058 473.889 295.791 466.864 288.863 460.852C288.686 460.692 288.578 460.468 288.564 460.23C288.549 459.991 288.628 459.756 288.785 459.575C288.941 459.395 289.162 459.283 289.4 459.263C289.639 459.244 289.875 459.319 290.059 459.471C290.089 459.502 290.887 460.177 292.113 461.281C292.176 461.276 292.239 461.287 292.298 461.312C297.633 462.661 302.631 463.551 304.809 463.612C303.643 462.815 301.129 461.434 296.312 459.349C291.191 457.109 287.143 455.699 286.469 455.668C285.427 455.606 280.244 457.232 275.707 458.766C275.554 458.855 275.387 458.917 275.214 458.951C274.11 459.32 273.037 459.69 272.117 460.024C272.018 460.06 271.914 460.08 271.809 460.086C270.936 460.364 270.027 460.509 269.111 460.517L268.96 460.517C267.731 460.499 266.524 460.194 265.434 459.628C264.115 458.892 263.471 457.726 262.796 456.499C261.659 454.105 259.701 452.201 257.277 451.131C257.11 451.05 256.972 450.921 256.879 450.761C249.306 447.295 241.21 443.522 236.58 441.16C236.423 441.12 236.276 441.046 236.149 440.945C235.055 440.41 233.99 439.816 232.961 439.166C228.116 435.608 227.227 429.81 227.166 429.564C227.146 429.446 227.151 429.324 227.18 429.207C227.208 429.089 227.26 428.979 227.331 428.881C227.402 428.784 227.492 428.702 227.595 428.639C227.698 428.576 227.812 428.535 227.932 428.517C228.05 428.499 228.172 428.504 228.289 428.533C228.406 428.562 228.516 428.614 228.613 428.685C228.71 428.758 228.792 428.847 228.854 428.951C228.916 429.054 228.957 429.169 228.975 429.289C228.975 429.35 229.803 434.595 234.034 437.693C234.939 438.275 235.881 438.798 236.855 439.258L241.883 437.448C237.867 431.282 232.869 420.638 230.416 403.828C229.556 398.008 229.104 392.134 229.066 386.251C226.644 387.509 224.253 388.828 221.863 390.147C189.82 407.967 174.243 424.656 175.5 439.778L175.5 439.778Z" fill="#111D30"/>
</g>
<g clip-path="url(#clip8_348_15629)">
<path d="M198.062 384.651L274.084 323.569L306.069 368.75L229.794 429.451L198.062 384.651Z" fill="#FFE2D1"/>
<path d="M259.308 335.437L198.062 384.652L214.975 408.551C242.581 392.249 254.761 354.462 259.308 335.437Z" fill="white"/>
<path d="M230.259 430.051C230.096 430.177 229.89 430.231 229.687 430.203C229.48 430.173 229.295 430.06 229.174 429.891L197.442 385.091C197.21 384.763 197.274 384.312 197.587 384.06L273.609 322.978C273.771 322.837 273.983 322.788 274.19 322.817C274.397 322.846 274.583 322.959 274.704 323.129L306.689 368.311C306.922 368.639 306.857 369.092 306.541 369.343L230.266 430.045C230.264 430.046 230.261 430.049 230.259 430.051ZM199.095 384.794L229.95 428.358L305.035 368.604L273.93 324.666L199.095 384.794Z" fill="#111D30"/>
<path d="M253.259 384.501C253.131 384.601 252.973 384.659 252.804 384.661L198.071 385.41C197.652 385.415 197.308 385.08 197.303 384.661C197.297 384.243 197.633 383.898 198.053 383.893L252.255 383.15L273.368 323.318C273.508 322.921 273.941 322.715 274.336 322.853C274.732 322.992 274.94 323.425 274.8 323.82L253.511 384.153C253.461 384.294 253.372 384.414 253.259 384.501Z" fill="#111D30"/>
<path d="M230.259 430.051C230.12 430.158 229.944 430.218 229.755 430.209C229.337 430.188 229.015 429.832 229.036 429.413L231.363 384.146C231.385 383.727 231.742 383.406 232.16 383.426C232.579 383.447 232.901 383.803 232.88 384.221L230.552 429.488C230.54 429.719 230.428 429.92 230.259 430.051Z" fill="#111D30"/>
<path d="M306.534 369.35C306.37 369.477 306.156 369.537 305.935 369.498L260.832 361.491C260.42 361.417 260.145 361.024 260.219 360.611C260.292 360.199 260.686 359.924 261.101 359.997L306.204 368.003C306.616 368.076 306.891 368.47 306.817 368.883C306.782 369.075 306.677 369.239 306.534 369.35Z" fill="#111D30"/>
<path d="M285.169 339.173C285.16 339.179 285.153 339.185 285.144 339.191C284.825 339.417 284.385 339.342 284.159 339.024C281.63 335.451 279.151 333.808 276.791 334.139C270.804 334.98 266.181 348.086 264.66 352.393C264.531 352.76 264.127 352.955 263.76 352.825C263.392 352.696 263.199 352.293 263.329 351.926C266.089 344.102 270.472 333.601 276.596 332.741C279.521 332.331 282.454 334.17 285.313 338.207C285.532 338.517 285.466 338.943 285.169 339.173Z" fill="#111D30"/>
<path d="M211.365 403.379C211.357 403.386 211.349 403.392 211.34 403.398C211.022 403.624 210.581 403.549 210.356 403.23C206.278 397.473 205.082 393.134 206.698 389.965C208.847 385.748 215.884 383.701 228.844 383.523C229.233 383.519 229.554 383.83 229.559 384.22C229.563 384.609 229.251 384.929 228.861 384.935C216.655 385.103 209.817 386.954 207.956 390.605C206.601 393.262 207.764 397.125 211.51 402.414C211.729 402.723 211.662 403.149 211.365 403.379Z" fill="#111D30"/>
<path d="M227.923 384.246C223.708 384.342 216.853 384.706 212.667 386.306C212.615 386.324 211.981 386.552 211.937 386.586C210.121 387.313 208.352 388.429 207.402 390.136C207.401 390.146 207.39 390.155 207.389 390.165C207.317 390.286 207.021 390.918 207.001 391.072C206.823 391.453 206.644 392.61 206.718 393.487C206.712 393.491 206.717 393.497 206.717 393.497C206.735 393.786 206.768 394.082 206.825 394.386C206.825 394.386 206.829 394.391 206.823 394.396C207.363 397.321 209.06 400.119 210.748 402.563L198.063 384.648L227.923 384.246Z" fill="#111D30"/>
<path d="M284.736 338.612C275.15 325.078 268.044 340.964 264.39 351.06L274.085 323.565L284.736 338.612Z" fill="#111D30"/>
</g>
<g clip-path="url(#clip9_348_15629)">
<path d="M319.099 332.256C336.821 332.256 351.187 317.89 351.187 300.167C351.187 282.445 336.821 268.079 319.099 268.079C301.377 268.079 287.01 282.445 287.01 300.167C287.01 317.89 301.377 332.256 319.099 332.256Z" fill="white"/>
</g>
<g clip-path="url(#clip10_348_15629)">
<path d="M247.416 149.827C247.416 149.827 51.3045 189.421 -60.2752 184.215C-62.3414 144.683 -61.3083 140.518 -61.3083 140.518L259.018 75.7104L247.416 149.827Z" fill="#111D30"/>
<path d="M92.1541 175.216C92.1541 175.216 124.822 171.412 146.911 157.022C169 142.632 188.908 140.941 185.509 149.404C182.11 157.867 204.602 148.559 213.931 143.9C223.26 139.24 233.395 147.24 229.593 152.785C208.807 156.177 120.152 172.68 92.1541 175.216Z" fill="#FFE2D1"/>
<path d="M-62.6004 147.621C-62.6004 141.549 -62.3421 140.405 -62.3215 140.271L-62.1562 139.642L-61.526 139.508L260.257 74.4116L248.314 150.693L247.612 150.837C245.649 151.229 50.0949 190.4 -60.3275 185.246L-61.2677 185.246L-61.2677 184.318C-62.3422 164.66 -62.6004 153.692 -62.6004 147.621ZM-60.3895 141.384C-60.5651 143.497 -60.9164 152.125 -59.2944 183.236C47.6877 187.957 233.519 151.538 246.516 148.951L257.778 77.0196L-60.3895 141.384Z" fill="#111D30"/>
<path d="M264.09 354.765C267.51 349.384 278.069 330.881 278.069 330.881C278.069 330.881 281.426 339.127 283.069 342.756C284.712 346.384 289.454 347.034 288.162 341.488C286.367 334.789 284.987 327.986 284.03 321.119C283.244 311.701 283.494 302.227 284.774 292.864L264.669 292.864C264.669 303.976 265.103 311.419 264.493 313.336C261.755 321.954 248.717 327.603 245.091 329.716C241.464 331.829 243.81 335.313 246.527 333.726C249.244 332.138 259.121 328.664 259.121 328.664C259.121 328.664 250.215 336.385 247.642 340.313C245.07 344.24 248.293 344.838 249.636 343.817C250.98 342.797 262.323 333.066 262.323 333.066C262.323 333.066 255.618 343.931 252.839 348.219C250.06 352.507 253.129 354.528 255.753 351.549C258.377 348.57 267.582 336.241 267.582 336.241C267.582 336.241 261.311 348.374 260.144 352.198C258.976 356.022 260.681 360.146 264.09 354.765Z" fill="#FFE2D1"/>
<path d="M242.189 332.272C242.239 331.537 242.486 330.829 242.905 330.222C243.322 329.615 243.895 329.13 244.565 328.819C245.092 328.51 245.825 328.128 246.693 327.675C251.425 325.18 261.281 320.005 263.492 313.027C263.854 311.903 263.792 307.873 263.719 302.77C263.719 299.925 263.626 296.699 263.626 293.019L263.626 292.864C263.626 292.591 263.735 292.329 263.929 292.135C264.122 291.941 264.386 291.833 264.659 291.833L284.764 291.833C284.913 291.832 285.06 291.863 285.195 291.923C285.331 291.984 285.451 292.072 285.55 292.184C285.644 292.296 285.715 292.426 285.757 292.565C285.8 292.705 285.813 292.853 285.798 292.998C284.521 302.286 284.271 311.685 285.054 321.026C285.803 326.727 286.907 332.377 288.36 337.942C288.649 339.089 288.918 340.192 289.166 341.251C290.095 345.25 288.132 346.25 287.502 346.456C285.632 347.085 283.225 345.621 282.13 343.178C281.035 340.735 279.03 335.901 277.915 333.231C275.156 338.045 267.718 350.982 264.969 355.311C262.903 358.496 261.364 358.641 260.393 358.197C258.605 357.383 258.44 354.342 259.184 351.899C259.948 349.737 260.838 347.619 261.849 345.56C259.711 348.343 257.613 351.013 256.549 352.229C254.783 354.239 252.892 354.291 251.797 353.476C250.702 352.662 250.071 350.611 251.993 347.652C253.419 345.457 255.898 341.467 257.954 338.179C254.731 340.942 251.022 344.096 250.268 344.663C249.718 345.102 249.034 345.341 248.331 345.341C247.626 345.341 246.943 345.102 246.393 344.663C245.743 344.065 244.937 342.601 246.786 339.808C248.284 337.529 251.755 334.087 254.524 331.489C251.965 332.39 249.463 333.446 247.034 334.653C246.685 334.895 246.291 335.063 245.876 335.148C245.461 335.234 245.032 335.235 244.616 335.151C244.2 335.067 243.805 334.901 243.456 334.661C243.106 334.422 242.808 334.113 242.581 333.757C242.319 333.306 242.183 332.794 242.189 332.272ZM265.837 308.203C265.932 310.025 265.807 311.853 265.465 313.645C262.996 321.428 253.016 326.675 247.654 329.499C246.817 329.932 246.114 330.303 245.588 330.602C244.327 331.345 244.059 332.18 244.358 332.664C244.658 333.148 245.195 333.272 245.991 332.819C248.759 331.2 258.388 327.84 258.771 327.664C258.997 327.584 259.244 327.584 259.469 327.666C259.695 327.747 259.885 327.904 260.007 328.11C260.13 328.316 260.177 328.558 260.139 328.795C260.101 329.031 259.983 329.248 259.804 329.407C259.711 329.489 250.97 337.086 248.511 340.838C247.654 342.148 247.623 342.9 247.799 343.065C247.989 343.164 248.204 343.206 248.417 343.188C248.631 343.17 248.836 343.092 249.007 342.962C250.319 341.931 261.55 332.314 261.674 332.221C261.861 332.065 262.097 331.98 262.341 331.981C262.586 331.982 262.821 332.069 263.007 332.227C263.192 332.386 263.316 332.604 263.356 332.844C263.396 333.085 263.348 333.331 263.223 333.54C263.151 333.654 256.477 344.467 253.729 348.714C252.696 350.343 252.696 351.497 253.047 351.806C253.398 352.116 254.08 351.806 255 350.848C257.572 347.93 266.684 335.726 266.777 335.602C266.931 335.392 267.16 335.247 267.417 335.198C267.673 335.149 267.939 335.199 268.16 335.337C268.382 335.476 268.542 335.693 268.609 335.945C268.676 336.197 268.646 336.465 268.523 336.695C268.461 336.818 262.325 348.786 261.157 352.476C260.548 354.476 260.93 356.105 261.25 356.301C261.25 356.301 261.942 356.198 263.223 354.188C266.581 348.889 277.068 330.53 277.171 330.345C277.268 330.177 277.409 330.038 277.582 329.948C277.754 329.856 277.948 329.815 278.142 329.829C278.335 329.842 278.521 329.909 278.678 330.022C278.835 330.134 278.957 330.29 279.03 330.468C279.03 330.551 282.388 338.715 284.01 342.312C284.754 343.972 286.18 344.704 286.831 344.488C287.285 344.333 287.554 343.457 287.151 341.704L286.355 338.406C284.872 332.758 283.747 327.021 282.987 321.232C282.224 312.124 282.421 302.962 283.576 293.895L265.693 293.895C265.693 297.193 265.693 300.131 265.775 302.739C265.817 304.863 265.837 306.677 265.837 308.203Z" fill="#111D30"/>
<path d="M257.426 293.884L255.608 310.058L286.334 312.305L287.532 293.245L257.426 293.884Z" fill="white"/>
<path d="M254.575 310.11L254.575 309.996L256.383 293.823C256.411 293.569 256.532 293.335 256.723 293.166C256.914 292.996 257.161 292.903 257.416 292.905L287.522 292.266C287.666 292.262 287.81 292.289 287.943 292.343C288.077 292.399 288.198 292.481 288.297 292.586C288.394 292.689 288.469 292.81 288.517 292.943C288.564 293.076 288.585 293.217 288.576 293.359L287.377 312.429C287.369 312.565 287.333 312.697 287.273 312.82C287.213 312.941 287.128 313.051 287.026 313.14C286.923 313.229 286.803 313.296 286.674 313.339C286.544 313.381 286.408 313.398 286.272 313.388L255.536 311.14C255.396 311.13 255.26 311.092 255.136 311.029C255.012 310.965 254.901 310.877 254.813 310.769C254.659 310.584 254.575 310.35 254.575 310.11ZM258.346 294.946L256.755 309.079L285.373 311.14L286.406 294.235L258.346 294.946Z" fill="#111D30"/>
<path d="M251.828 297.74L287.12 300.667C287.12 300.667 288.794 219.315 397.057 150.682C416.914 137.807 425.179 126.747 429.642 108.419C436.089 81.9987 431.894 51.28 426.915 36.7557C421.749 21.6129 409.94 0.37794 386.622 -10.1674C346.329 -28.3615 281.851 -41.9065 177.152 -2.57021C185.531 17.7473 190.004 27.1588 190.004 27.1588L236.186 19.7265C236.186 19.7265 231.909 85.8746 250.526 91.4513C234.213 97.8528 241.61 134.962 246.579 149.827C280.942 140.941 325.76 135.571 325.76 135.571C325.76 135.571 255.299 180.226 251.828 297.74Z" fill="#FFE2D1"/>
<path d="M345.544 190.885C345.544 190.885 329.427 201.883 315.583 206.347C301.739 210.81 297.482 221.016 306.533 222.716C315.583 224.417 296.067 238.519 286.738 251.208C277.408 263.898 291.253 276.659 291.253 276.659C289.889 279.659 309.705 218.706 345.544 190.885Z" fill="white"/>
<path d="M368.943 130.746C368.943 130.746 357 149.373 336.637 150.219C316.273 151.064 325.778 162.434 315.426 164.042C306.376 165.454 298.596 166.104 288.42 174.206C298.669 161.248 314.486 144.044 325.468 135.406L368.943 130.746Z" fill="#111D30"/>
<path d="M253.211 282.02C253.211 282.02 254.771 249.291 274.845 236.447C294.919 223.603 275.124 226.005 271.746 226.438C268.367 226.87 267.923 217.408 279.525 208.914C291.128 200.42 311.625 185.071 299.32 185.926C287.016 186.782 278.812 196.08 272.169 204.543C265.526 213.006 251.651 260.434 253.211 282.02Z" fill="#111D30"/>
<path d="M176.047 -2.57004C176.047 -2.7126 176.078 -2.85351 176.14 -2.98237C176.193 -3.10895 176.273 -3.22348 176.372 -3.31914C176.471 -3.4147 176.589 -3.48943 176.718 -3.53901C260.103 -34.8657 328.88 -37.3397 386.984 -11.1053C412.285 0.326569 423.443 23.5407 427.855 36.426C432.638 50.3834 437.318 81.1327 430.613 108.656C426.016 127.489 417.379 138.714 397.553 151.548C341.887 186.833 315.098 225.51 302.421 251.734C288.711 280.144 288.153 300.482 288.153 300.688C288.15 300.828 288.118 300.966 288.059 301.094C288 301.222 287.917 301.336 287.812 301.43C287.707 301.524 287.585 301.594 287.452 301.638C287.318 301.683 287.177 301.7 287.037 301.688L251.735 298.771C251.475 298.75 251.233 298.632 251.057 298.441C250.88 298.25 250.783 297.999 250.784 297.74C252.592 236.746 272.656 195.688 289.186 171.979C302.514 152.899 315.759 141.652 321.782 137.086C309.994 138.622 274.712 143.559 246.776 150.796C246.52 150.862 246.251 150.828 246.02 150.701C245.79 150.574 245.617 150.365 245.536 150.115C241.279 137.395 233.138 100.636 248.036 91.4718C232.415 82.4212 234.523 30.1071 235.019 20.9121L190.108 28.1279C189.887 28.1627 189.661 28.1252 189.464 28.0212C189.266 27.9171 189.108 27.7521 189.013 27.5506C189.013 27.4579 184.436 17.8815 176.078 -2.22987C176.049 -2.34068 176.037 -2.45572 176.047 -2.57004ZM431.832 79.0195C431.832 61.5472 428.826 45.621 425.902 37.0857C421.604 24.5715 410.725 1.89342 386.126 -9.22917C328.787 -35.1234 260.847 -32.7525 178.464 -2.01339C185.283 14.3664 189.457 23.4995 190.614 25.9838L236.072 18.6752C236.225 18.6513 236.382 18.6619 236.53 18.7066C236.679 18.7512 236.815 18.8285 236.93 18.9329C237.042 19.0372 237.131 19.1653 237.188 19.308C237.246 19.4506 237.27 19.6043 237.26 19.7576C237.26 20.4173 233.242 85.1529 250.867 90.4307C251.072 90.4925 251.251 90.6152 251.382 90.7832C251.514 90.9513 251.59 91.1564 251.6 91.3687C251.616 91.5873 251.561 91.8048 251.443 91.9903C251.327 92.1759 251.153 92.3192 250.95 92.3996C236.248 98.1722 242.003 132.107 247.303 148.579C281.21 139.91 325.233 134.591 325.677 134.54C325.91 134.509 326.148 134.559 326.35 134.682C326.551 134.805 326.705 134.992 326.784 135.214C326.864 135.435 326.865 135.678 326.788 135.9C326.71 136.123 326.559 136.312 326.359 136.436C326.183 136.55 308.651 147.848 290.922 173.268C274.609 196.616 254.855 236.921 252.882 296.709L286.087 299.544C286.407 294.915 288.422 276 300.499 250.961C313.29 224.458 340.306 185.401 396.437 149.816C415.716 137.313 424.136 126.417 428.578 108.171C430.81 98.6165 431.903 88.8308 431.832 79.0195Z" fill="#111D30"/>
</g>
<g clip-path="url(#clip11_348_15629)">
<path d="M118.621 23.562C118.621 23.562 123.358 32.5724 127.643 40.0061C215.268 -37.5966 245.154 47.3271 235.568 86.6353L269.738 108.598L233.425 124.367L233.312 124.367C233.312 124.367 237.485 197.577 113.772 221.117C114.336 229.789 114.9 237.223 114.9 237.223C166.099 231.591 222.148 240.489 281.241 154.439C310.337 158.944 365.483 167.73 378.114 171.559C393.79 130.223 393.79 69.8533 393.79 69.8533L284.512 62.5323C239.966 -91.9974 118.621 23.562 118.621 23.562Z" fill="white"/>
<path d="M253.724 166.603C258.235 169.757 262.634 171.334 263.423 170.095C264.212 168.856 261.168 165.477 256.657 162.436C252.146 159.395 247.747 157.705 246.958 158.944C246.169 160.183 249.213 163.45 253.724 166.603Z" fill="#FFE2D1"/>
<path d="M235.229 154.552C233.876 153.425 232.185 153.088 231.621 153.876C231.057 154.664 231.733 156.129 233.087 157.142C234.44 158.156 236.132 158.606 236.696 157.818C237.259 157.03 236.583 155.678 235.229 154.552Z" fill="#FFE2D1"/>
<path d="M262.07 145.766C261.28 146.78 263.761 149.934 267.596 152.749C271.43 155.565 275.039 157.029 275.828 156.016C276.618 155.002 274.136 151.848 270.302 149.033C266.468 146.217 262.859 144.753 262.07 145.766Z" fill="#FFE2D1"/>
<path d="M253.499 180.682C250.341 180.119 247.747 180.682 247.522 181.809C247.296 182.935 249.665 184.286 252.822 184.85C254.288 185.187 255.867 185.187 257.333 184.85L258.686 183.273C258.348 182.146 256.205 181.133 253.499 180.682Z" fill="#FFE2D1"/>
<path d="M185.722 205.799C180.873 204.785 176.7 205.574 176.249 207.376C175.798 209.178 179.519 211.543 184.256 212.557C188.992 213.571 193.278 212.782 193.729 210.98C194.18 209.178 190.571 206.813 185.722 205.799Z" fill="#FFE2D1"/>
<path d="M187.526 226.298C184.482 225.847 181.324 225.96 178.279 226.861C172.753 228.1 168.693 230.465 168.693 232.38C174.896 231.479 181.098 230.127 187.075 228.55L187.188 228.213C187.301 227.537 187.413 226.974 187.526 226.298Z" fill="#FFE2D1"/>
<path d="M133.056 226.861C131.929 227.649 133.395 231.478 136.327 235.533C138.357 235.421 140.274 235.308 142.304 235.083C141.853 234.294 141.289 233.618 140.725 232.83C137.68 228.663 134.297 225.96 133.056 226.861Z" fill="#FFE2D1"/>
<path d="M245.154 194.085C243.8 192.959 242.109 192.621 241.545 193.41C240.981 194.198 241.658 195.662 243.011 196.676C243.349 197.014 243.8 197.239 244.251 197.464C244.928 196.789 245.717 196.225 246.394 195.55C246.056 194.874 245.717 194.423 245.154 194.085Z" fill="#FFE2D1"/>
<path d="M222.148 170.658C225.305 172.235 228.237 172.798 228.801 171.784C229.365 170.771 227.223 168.631 224.065 166.941C222.486 166.04 220.794 165.589 219.103 165.364C218.652 166.04 218.201 166.603 217.75 167.166C218.877 168.631 220.456 169.869 222.148 170.658Z" fill="#FFE2D1"/>
<path d="M221.02 194.085C220.682 198.928 221.922 203.096 223.839 203.208C225.756 203.321 227.674 199.491 228.012 194.648C228.35 189.805 227.11 185.638 225.193 185.525C223.275 185.413 221.358 189.242 221.02 194.085Z" fill="#FFE2D1"/>
<path d="M198.465 200.843C198.24 201.969 200.608 203.321 203.766 203.884C206.923 204.447 209.517 203.884 209.743 202.758C209.968 201.631 207.6 200.28 204.442 199.717C201.284 199.154 198.578 199.717 198.465 200.843Z" fill="#FFE2D1"/>
<path d="M206.585 179.668L205.795 180.344C206.021 180.344 206.134 180.232 206.359 180.119C206.472 180.006 206.585 179.894 206.585 179.668Z" fill="#FFE2D1"/>
<path d="M160.348 222.693C161.476 221.792 159.784 217.512 156.401 213.12C155.611 212.106 154.935 211.205 154.145 210.417C152.679 210.98 151.1 211.543 149.522 211.994C150.311 213.458 151.213 214.809 152.228 216.161C155.499 220.666 159.22 223.482 160.348 222.693Z" fill="#FFE2D1"/>
<path d="M115.012 237.223C110.501 238.124 106.216 246.459 98.7724 246.796C90.7655 247.134 90.5399 234.294 90.5399 234.294C86.2545 234.97 81.9691 236.209 78.022 238.124C72.7216 240.94 71.8194 236.096 76.4431 233.506C84.3373 229.001 99.9002 223.932 99.9002 223.932L113.884 224.721L115.012 237.223Z" fill="#FFE2D1"/>
<path d="M116.14 237.223C116.14 237.786 115.802 238.237 115.238 238.349C113.659 238.687 111.967 240.264 110.05 241.841C107.118 244.431 103.509 247.698 98.7729 247.923C96.8557 248.036 94.9386 247.36 93.4725 246.008C90.5404 243.192 89.6382 238.011 89.4126 235.646C85.6911 236.322 81.9696 237.448 78.4736 239.138C75.2031 240.827 73.286 240.039 72.6093 238.687C71.7071 236.998 72.7221 234.295 75.767 232.493C83.6612 227.987 98.7729 223.031 99.4495 222.806L99.9006 222.806L113.772 223.595C114.336 223.595 114.787 224.045 114.787 224.608L116.14 237.223ZM74.6393 237.336C74.6393 237.448 74.6393 237.561 74.752 237.674C74.8648 237.899 75.767 238.124 77.5714 237.223C81.6312 235.196 85.9166 233.844 90.4276 233.168C90.7659 233.168 91.1043 233.281 91.3298 233.394C91.5553 233.619 91.6681 233.957 91.7809 234.182C91.7809 234.295 91.8937 241.278 95.1641 244.319C96.1791 245.22 97.4196 245.783 98.7729 245.67C102.833 245.558 105.878 242.742 108.697 240.264C110.163 238.687 111.967 237.448 113.885 236.435L112.87 225.622L100.126 224.946C98.3218 225.509 84.225 230.24 77.0075 234.295C75.3159 235.421 74.6393 236.66 74.6393 237.336Z" fill="#111D30"/>
<path d="M275.377 153.651C275.377 153.651 289.925 155.791 313.044 159.508C336.162 163.225 378.227 171.559 378.227 171.559L384.091 152.75C360.747 163.563 331.651 150.384 312.592 151.623C295.225 152.862 269.062 151.511 275.377 153.651Z" fill="#FFE2D1"/>
<path d="M114.561 231.028C114.561 231.028 104.299 234.745 98.2091 230.803C97.1942 236.096 97.1942 242.516 95.0515 243.305C91.3299 244.656 90.766 241.052 90.8788 238.124C90.9916 235.195 91.1044 226.523 96.4047 224.27C102.156 221.792 113.659 221.229 113.659 221.229L114.561 231.028Z" fill="#FFE2D1"/>
<path d="M115.689 231.028C115.689 231.478 115.351 231.929 114.9 232.042C114.449 232.154 105.427 235.42 99.1113 232.492C98.9986 233.506 98.8858 234.519 98.6602 235.533C98.0964 239.926 97.6453 243.417 95.5026 244.206C94.2621 244.881 92.6832 244.769 91.5555 243.98C90.2022 242.967 89.6383 241.052 89.7511 238.011L89.7511 237.56C89.8639 233.956 90.2022 225.622 95.9537 223.144C101.705 220.666 113.095 220.103 113.659 219.99C114.223 219.99 114.787 220.441 114.787 221.004L115.689 230.803L115.689 231.028ZM92.0066 238.799C92.0066 240.489 92.3449 241.84 92.9088 242.178C93.4726 242.516 94.1493 242.516 94.7131 242.178C95.6153 241.84 96.0664 237.786 96.4048 235.308L97.0814 230.577C97.1942 230.239 97.4197 229.902 97.758 229.789C98.0964 229.676 98.5475 229.676 98.773 229.902C103.284 232.83 110.727 231.028 113.208 230.239L112.531 222.355C109.599 222.581 101.254 223.256 96.7431 225.171C92.2321 227.086 92.0066 234.745 92.0066 237.56L92.0066 238.011L92.0066 238.799Z" fill="#111D30"/>
<path d="M107.457 238.912C107.57 241.503 106.668 243.981 104.863 245.783C104.412 246.121 103.623 246.121 103.284 245.558C102.946 245.107 102.946 244.431 103.397 244.093C103.623 243.981 107.119 240.489 103.848 233.168C103.623 232.605 103.848 231.929 104.412 231.704C104.976 231.479 105.653 231.704 105.878 232.267C106.893 234.407 107.457 236.66 107.457 238.912Z" fill="#111D30"/>
<path d="M253.161 188.792C253.161 188.792 261.844 177.528 262.07 172.347C262.295 167.166 261.28 165.477 263.987 162.548C265.002 161.422 265.566 159.958 265.566 158.381C265.453 154.439 268.723 151.173 274.137 152.186L282.82 153.651C282.82 153.763 264.438 180.119 253.161 188.792Z" fill="#111D30"/>
<path d="M156.513 233.618C156.513 233.618 215.494 229.001 241.996 198.478C234.215 203.659 220.118 208.502 213.464 208.502C206.81 208.502 208.615 215.935 197.676 218.864C186.737 221.792 178.053 230.239 156.513 233.618Z" fill="#111D30"/>
<path d="M394.917 69.7406C394.917 70.3037 394.692 130.787 379.242 171.897C379.016 172.46 378.452 172.798 377.889 172.573C365.596 168.856 312.818 160.408 281.918 155.678C259.025 188.791 234.553 210.755 207.149 222.693C182.677 233.281 159.107 234.97 136.214 236.547C128.996 237.11 122.117 237.561 115.125 238.349C114.787 238.349 114.561 238.236 114.223 238.124C113.997 237.899 113.884 237.673 113.884 237.335C113.884 237.223 113.321 229.789 112.757 221.229C112.757 220.666 113.095 220.103 113.659 220.103C177.038 207.939 205.908 182.597 218.99 163.45C233.087 142.725 232.297 124.704 232.297 124.479C232.297 124.141 232.41 123.916 232.636 123.578C232.861 123.353 233.087 123.24 233.312 123.24L267.483 108.373L235.117 87.5363C234.666 87.311 234.553 86.7479 234.666 86.2973C239.628 66.0238 233.763 28.8555 210.306 14.7767C195.984 6.21673 170.271 3.73886 128.432 40.7944C127.981 41.245 127.304 41.1323 126.853 40.6818L126.741 40.5692C122.455 33.2482 117.944 24.463 117.831 24.3503C117.606 23.8998 117.719 23.3366 118.057 22.9987C118.621 22.4356 174.444 -30.1631 224.065 -16.76C251.807 -9.32634 272.445 17.0293 285.301 61.4059L393.677 68.7269C394.466 68.6143 394.917 69.1774 394.917 69.7406ZM377.55 170.207C391.422 132.476 392.549 78.9763 392.662 70.8669L284.399 63.6585C283.948 63.6585 283.497 63.3206 283.384 62.8701C270.753 18.8314 250.567 -7.18636 223.501 -14.5074C177.827 -26.7842 126.402 18.4935 120.2 24.2377C121.327 26.3777 124.598 32.685 127.981 38.4292C170.159 1.48623 196.661 4.18937 211.434 13.0872C235.455 27.504 241.658 65.1227 236.921 86.2973L270.415 107.697C270.753 107.922 270.979 108.373 270.866 108.711C270.866 109.161 270.528 109.499 270.189 109.612L234.44 125.155L234.44 125.38C234.44 129.66 233.538 145.879 220.794 164.576C207.6 183.948 178.504 209.741 114.899 222.018C115.35 228.212 115.689 233.619 115.914 235.984C122.568 235.308 129.334 234.858 135.875 234.294C181.887 231.028 229.478 227.762 280.226 153.763C280.452 153.425 280.903 153.2 281.354 153.313C311.577 158.043 363.341 166.265 377.55 170.207Z" fill="#111D30"/>
<path d="M200.044 186.426C200.044 186.426 218.539 182.259 221.245 171.334C223.163 163.337 224.741 159.282 233.312 155.791C239.177 153.425 243.462 140.022 243.011 137.882C240.643 137.207 231.959 136.418 231.959 136.418C231.959 136.418 222.937 167.73 200.044 186.426Z" fill="#111D30"/>
</g>
<defs>
<clipPath id="clip0_348_15629">
<rect width="466.707" height="390.115" fill="white" transform="translate(452.831 537.42) rotate(-157.824)"/>
</clipPath>
<clipPath id="clip1_348_15629">
<rect width="352.24" height="235.247" fill="white" transform="translate(139.717 101.849)"/>
</clipPath>
<clipPath id="clip2_348_15629">
<rect width="352.24" height="104.367" fill="white" transform="translate(139.717 239.041)"/>
</clipPath>
<clipPath id="clip3_348_15629">
<rect width="129.617" height="111.101" fill="white" transform="matrix(-1 3.24144e-08 3.24144e-08 1 129.617 211.687)"/>
</clipPath>
<clipPath id="clip4_348_15629">
<rect width="16.4126" height="65.6504" fill="white" transform="translate(31.5627 266.816) rotate(-90)"/>
</clipPath>
<clipPath id="clip5_348_15629">
<rect width="137.613" height="117.413" fill="white" transform="translate(437.569 307.758) rotate(-17.4029)"/>
</clipPath>
<clipPath id="clip6_348_15629">
<rect width="47.1335" height="62.2837" fill="white" transform="matrix(0.954225 -0.299088 0.29909 0.954225 488.351 309.799)"/>
</clipPath>
<clipPath id="clip7_348_15629">
<rect width="205.368" height="91.3213" fill="white" transform="matrix(-1 3.24144e-08 3.24144e-08 1 537.407 250.404)"/>
</clipPath>
<clipPath id="clip8_348_15629">
<rect width="102.684" height="58.917" fill="white" transform="translate(193.453 384.819) rotate(-37.7744)"/>
</clipPath>
<clipPath id="clip9_348_15629">
<rect width="64.3879" height="64.3879" fill="white" transform="translate(287.01 268.079)"/>
</clipPath>
<clipPath id="clip10_348_15629">
<rect width="201.58" height="182.222" fill="white" transform="translate(414.944 156.978) rotate(90)"/>
</clipPath>
<clipPath id="clip11_348_15629">
<rect width="117.834" height="214.205" fill="white" transform="translate(72.3838 274.391) rotate(-90)"/>
</clipPath>
</defs>
</svg>
