<svg width="72" height="72" viewBox="0 0 72 72" fill="none" xmlns="http://www.w3.org/2000/svg">
<path d="M59.4679 13.4758C59.0736 13.4806 58.6756 13.5068 58.2748 13.556C53.0998 14.1747 48.9373 18.3939 48.431 23.5689C47.6998 30.6564 53.6065 36.5627 60.694 35.9439C65.869 35.4377 70.0879 31.387 70.7629 26.2683C71.1004 23.962 70.65 21.7692 69.75 19.8567C69.5812 19.5192 69.0754 19.406 68.7942 19.7435L60.9192 28.6314C60.6379 28.9689 60.019 29.25 59.569 29.25H59.5129C59.0067 29.25 58.5 28.9683 58.2188 28.5183C57.4313 27.5058 55.3496 24.8627 54.3933 23.5689C53.8871 22.9502 53.8871 21.9937 54.3933 21.375C55.1246 20.5312 56.3629 20.6435 56.9817 21.431L59.681 24.9192L66.8254 16.875C67.0504 16.65 66.9933 16.256 66.7683 16.0872C64.7996 14.463 62.228 13.442 59.4679 13.4758ZM10.6875 23.0625C6.6375 23.0625 3.375 26.325 3.375 30.375V61.3125C3.375 65.3625 6.6375 68.625 10.6875 68.625H55.6875C59.7375 68.625 63 65.3625 63 61.3125V43.3125C63 42.3562 62.2688 41.625 61.3125 41.625C60.3562 41.625 59.625 42.3562 59.625 43.3125V61.3125C59.625 63.5062 57.8813 65.25 55.6875 65.25H10.6875C8.49375 65.25 6.75 63.5062 6.75 61.3125V30.375C6.75 28.1812 8.49375 26.4375 10.6875 26.4375H41.0625C42.0188 26.4375 42.75 25.7062 42.75 24.75C42.75 23.7937 42.0188 23.0625 41.0625 23.0625H10.6875ZM20.8125 29.25C16.7625 29.25 13.5 32.5125 13.5 36.5625C13.5 40.6125 16.7625 43.875 20.8125 43.875C24.8625 43.875 28.125 40.6125 28.125 36.5625C28.125 32.5125 24.8625 29.25 20.8125 29.25ZM20.8125 32.625C23.0063 32.625 24.75 34.3687 24.75 36.5625C24.75 38.7562 23.0063 40.5 20.8125 40.5C18.6187 40.5 16.875 38.7562 16.875 36.5625C16.875 34.3687 18.6187 32.625 20.8125 32.625ZM16.3125 48.375C15.3562 48.375 14.625 49.1062 14.625 50.0625C14.625 51.0187 15.3562 51.75 16.3125 51.75H29.25C30.2063 51.75 30.9375 51.0187 30.9375 50.0625C30.9375 49.1062 30.2063 48.375 29.25 48.375H16.3125ZM40.5 48.375C39.5437 48.375 38.8125 49.1062 38.8125 50.0625C38.8125 51.0187 39.5437 51.75 40.5 51.75H43.3125C44.2688 51.75 45 51.0187 45 50.0625C45 49.1062 44.2688 48.375 43.3125 48.375H40.5ZM16.3125 56.8125C15.3562 56.8125 14.625 57.5437 14.625 58.5C14.625 59.4562 15.3562 60.1875 16.3125 60.1875H44.4375C45.3938 60.1875 46.125 59.4562 46.125 58.5C46.125 57.5437 45.3938 56.8125 44.4375 56.8125H16.3125Z" fill="white"/>
</svg>
