<svg width="256" height="156" viewBox="0 0 256 156" fill="none" xmlns="http://www.w3.org/2000/svg">
<rect x="0.800049" width="254.8" height="156" rx="10.4" fill="#F8F8F8"/>
<path d="M126.025 69.3334C127.281 64.7834 131.675 61.5334 136.737 62.0708C141.555 62.5821 145.386 66.6468 145.629 71.4828C145.689 72.7568 145.516 73.9788 145.143 75.1141C144.918 75.8074 144.242 76.2668 143.505 76.2668H117.694C113.319 76.2668 110.038 72.2636 110.896 67.9736L116.171 41.6001H126.571L130.037 47.6668L122.61 52.9794L120.504 50.2668M122.619 52.9794L126.571 67.6001" stroke="black" stroke-width="3.46667" stroke-miterlimit="2" stroke-linecap="round" stroke-linejoin="round"/>
<path d="M33.0556 100.831L37.1272 107.726V111.767H38.9212V107.726L42.9928 100.831H40.9804L38.032 105.839L35.1616 100.831H33.0556ZM50.4558 103.78H48.771V107.742C48.771 108.569 48.5838 109.224 48.225 109.692C47.8506 110.16 47.3514 110.394 46.7118 110.394C46.0878 110.394 45.6354 110.191 45.3234 109.786C45.0114 109.38 44.8554 108.787 44.8554 108.007V103.78H43.1706V108.179C43.1706 109.474 43.4514 110.41 44.0442 110.987C44.6214 111.58 45.3858 111.86 46.3218 111.86C47.3514 111.86 48.1782 111.502 48.7866 110.753L48.9738 111.767H50.4558V103.78ZM44.6058 101.034C44.4186 101.221 44.325 101.44 44.325 101.705C44.325 101.986 44.4186 102.204 44.6058 102.391C44.793 102.578 45.027 102.656 45.3078 102.656C45.5886 102.656 45.8226 102.578 46.0098 102.391C46.197 102.204 46.2906 101.986 46.2906 101.705C46.2906 101.44 46.197 101.221 46.0098 101.034C45.8226 100.847 45.5886 100.753 45.3078 100.753C45.027 100.753 44.793 100.847 44.6058 101.034ZM47.6478 101.034C47.4606 101.221 47.367 101.44 47.367 101.705C47.367 101.986 47.4606 102.204 47.6478 102.391C47.835 102.578 48.0534 102.656 48.3342 102.656C48.615 102.656 48.849 102.578 49.0362 102.391C49.2234 102.204 49.317 101.986 49.317 101.705C49.317 101.44 49.2234 101.221 49.0362 101.034C48.849 100.847 48.615 100.753 48.3342 100.753C48.0534 100.753 47.835 100.847 47.6478 101.034ZM52.1161 100.847V111.767H53.8009V109.723L55.2205 108.226L57.5917 111.767H59.5885L56.4217 106.993L59.4013 103.78H57.4513L53.8009 107.68V100.847H52.1161ZM61.5319 109.13H59.9095C59.9251 109.988 60.2683 110.659 60.9235 111.143C61.5787 111.626 62.4523 111.86 63.5287 111.86C64.1527 111.86 64.7299 111.767 65.2447 111.564C65.7439 111.361 66.1495 111.065 66.4459 110.69C66.7267 110.316 66.8827 109.864 66.8827 109.364C66.8827 108.803 66.7423 108.366 66.4615 108.038C66.1807 107.711 65.8063 107.477 65.3383 107.321C64.8703 107.165 64.2931 107.056 63.6067 106.978C63.0919 106.915 62.7175 106.868 62.4991 106.822C62.2651 106.775 62.0779 106.697 61.9219 106.572C61.7659 106.447 61.7035 106.276 61.7035 106.026C61.7035 105.714 61.8439 105.449 62.1559 105.262C62.4523 105.074 62.8423 104.981 63.3415 104.981C63.8251 104.981 64.2307 105.106 64.5583 105.34C64.8703 105.574 65.0575 105.87 65.1043 106.229H66.7423C66.6799 105.418 66.3367 104.794 65.7127 104.341C65.0887 103.904 64.2619 103.67 63.2635 103.67C62.6395 103.67 62.0935 103.78 61.6099 103.982C61.1263 104.201 60.7519 104.497 60.4711 104.872C60.1903 105.246 60.0655 105.683 60.0655 106.166C60.0655 106.697 60.1903 107.102 60.4711 107.414C60.7519 107.726 61.1107 107.945 61.5631 108.085C62.0155 108.226 62.5927 108.335 63.2947 108.413C63.7939 108.475 64.1683 108.538 64.4179 108.6C64.6675 108.662 64.8547 108.756 65.0107 108.881C65.1511 109.021 65.2291 109.224 65.2291 109.489C65.2291 109.817 65.0575 110.082 64.7455 110.269C64.4335 110.456 64.0123 110.55 63.5131 110.55C62.9359 110.55 62.4679 110.425 62.1091 110.16C61.7503 109.895 61.5631 109.552 61.5319 109.13ZM68.4365 105.636C68.1089 106.26 67.9529 106.978 67.9529 107.789C67.9529 108.6 68.1089 109.318 68.4521 109.926C68.7953 110.55 69.2633 111.018 69.8873 111.361C70.5113 111.704 71.2289 111.86 72.0713 111.86C73.0229 111.86 73.8185 111.611 74.4581 111.08C75.0977 110.566 75.4877 109.895 75.6437 109.084H73.9589C73.8341 109.536 73.6001 109.879 73.2569 110.129C72.8981 110.378 72.4613 110.488 71.9465 110.488C71.2913 110.488 70.7609 110.285 70.3709 109.879C69.9653 109.474 69.7469 108.928 69.7157 108.226V108.132H75.7373C75.7685 107.914 75.7841 107.711 75.7841 107.492C75.7685 106.728 75.5969 106.057 75.2537 105.48C74.9105 104.918 74.4581 104.466 73.8653 104.154C73.2725 103.842 72.6017 103.686 71.8373 103.686C71.0729 103.686 70.4021 103.858 69.8093 104.201C69.2165 104.544 68.7641 105.012 68.4365 105.636ZM74.0681 106.9H69.7781C69.8405 106.338 70.0589 105.901 70.4645 105.558C70.8701 105.215 71.3381 105.043 71.8997 105.043C72.4925 105.043 72.9761 105.215 73.3661 105.542C73.7561 105.87 73.9901 106.322 74.0681 106.9ZM77.1462 100.847V111.767H78.831V109.723L80.2506 108.226L82.6218 111.767H84.6186L81.4518 106.993L84.4314 103.78H82.4814L78.831 107.68V100.847H77.1462ZM89.5165 100.847V111.767H91.2013V109.723L92.6209 108.226L94.9921 111.767H96.9889L93.8221 106.993L96.8017 103.78H94.8517L91.2013 107.68V100.847H89.5165ZM105.296 110.3H104.968C104.609 110.3 104.438 110.113 104.438 109.739V106.588C104.438 105.652 104.141 104.934 103.564 104.435C102.971 103.936 102.144 103.686 101.084 103.686C100.07 103.686 99.2585 103.92 98.6345 104.357C98.0105 104.794 97.6517 105.418 97.5737 106.213H99.2273C99.2897 105.87 99.4769 105.589 99.7889 105.371C100.101 105.152 100.506 105.043 101.006 105.043C101.552 105.043 101.988 105.184 102.3 105.433C102.612 105.683 102.768 106.042 102.768 106.478V106.962H100.756C99.6329 106.962 98.7905 107.196 98.2133 107.633C97.6205 108.07 97.3397 108.709 97.3397 109.52C97.3397 110.254 97.6049 110.831 98.1509 111.236C98.6813 111.658 99.3989 111.86 100.304 111.86C101.458 111.86 102.332 111.408 102.94 110.488C102.94 110.909 103.049 111.221 103.283 111.439C103.502 111.658 103.876 111.767 104.406 111.767H105.296V110.3ZM102.768 108.21V108.491C102.753 109.115 102.55 109.614 102.16 109.988C101.77 110.363 101.224 110.55 100.538 110.55C100.07 110.55 99.7109 110.456 99.4457 110.238C99.1805 110.035 99.0557 109.754 99.0557 109.411C99.0557 109.021 99.1961 108.725 99.4769 108.522C99.7577 108.319 100.148 108.21 100.678 108.21H102.768ZM106.213 100.847V111.767H107.898V100.847H106.213ZM111.125 100.878C110.923 100.691 110.673 100.582 110.392 100.582C110.096 100.582 109.846 100.691 109.659 100.878C109.456 101.065 109.363 101.315 109.363 101.596C109.363 101.892 109.456 102.142 109.659 102.329C109.846 102.516 110.096 102.61 110.392 102.61C110.673 102.61 110.923 102.516 111.125 102.329C111.313 102.142 111.422 101.892 111.422 101.596C111.422 101.315 111.313 101.065 111.125 100.878ZM109.55 103.78V111.767H111.235V103.78H109.55ZM113.401 105.262V109.598C113.401 110.347 113.572 110.893 113.916 111.236C114.259 111.595 114.82 111.767 115.585 111.767H117.207V110.285H115.928C115.616 110.285 115.413 110.222 115.288 110.098C115.164 109.973 115.101 109.739 115.101 109.427V105.262H117.02V103.78H115.101V101.549H113.401V103.78H112.012V105.262H113.401ZM118.131 105.636C117.803 106.26 117.647 106.978 117.647 107.789C117.647 108.6 117.803 109.318 118.147 109.926C118.49 110.55 118.958 111.018 119.582 111.361C120.206 111.704 120.923 111.86 121.766 111.86C122.717 111.86 123.513 111.611 124.153 111.08C124.792 110.566 125.182 109.895 125.338 109.084H123.653C123.529 109.536 123.295 109.879 122.951 110.129C122.593 110.378 122.156 110.488 121.641 110.488C120.986 110.488 120.455 110.285 120.065 109.879C119.66 109.474 119.441 108.928 119.41 108.226V108.132H125.432C125.463 107.914 125.479 107.711 125.479 107.492C125.463 106.728 125.291 106.057 124.948 105.48C124.605 104.918 124.153 104.466 123.56 104.154C122.967 103.842 122.296 103.686 121.532 103.686C120.767 103.686 120.097 103.858 119.504 104.201C118.911 104.544 118.459 105.012 118.131 105.636ZM123.763 106.9H119.473C119.535 106.338 119.753 105.901 120.159 105.558C120.565 105.215 121.033 105.043 121.594 105.043C122.187 105.043 122.671 105.215 123.061 105.542C123.451 105.87 123.685 106.322 123.763 106.9ZM136.245 102.329C136.433 102.516 136.682 102.61 136.994 102.61C137.275 102.61 137.525 102.516 137.712 102.329C137.899 102.142 138.008 101.892 138.008 101.596C138.008 101.315 137.899 101.065 137.712 100.878C137.525 100.691 137.275 100.582 136.994 100.582C136.698 100.582 136.448 100.691 136.261 100.878C136.058 101.065 135.965 101.315 135.965 101.596C135.965 101.892 136.058 102.142 136.245 102.329ZM137.837 111.767V103.78H133.047V103.109C133.047 102.844 133.094 102.641 133.219 102.516C133.344 102.391 133.531 102.329 133.812 102.329H134.997V100.847H133.578C132.813 100.847 132.252 101.034 131.893 101.393C131.519 101.752 131.347 102.282 131.347 102.984V103.78H129.959V105.262H131.347V111.767H133.047V105.262H136.136V111.767H137.837ZM139.47 100.847V111.767H141.155V100.847H139.47ZM154.163 104.544C153.602 103.982 152.9 103.686 152.026 103.686C151.371 103.686 150.825 103.826 150.372 104.076C149.904 104.326 149.546 104.684 149.265 105.137C149.031 104.653 148.703 104.294 148.282 104.045C147.845 103.811 147.362 103.686 146.8 103.686C145.802 103.702 145.022 104.076 144.46 104.825L144.273 103.78H142.806V111.767H144.491V107.492C144.491 106.775 144.647 106.213 144.99 105.776C145.334 105.355 145.786 105.137 146.363 105.137C146.909 105.137 147.33 105.324 147.611 105.683C147.892 106.042 148.048 106.572 148.048 107.274V111.767H149.748V107.446C149.748 106.728 149.904 106.166 150.248 105.761C150.591 105.355 151.043 105.137 151.636 105.137C152.182 105.137 152.603 105.324 152.884 105.683C153.165 106.057 153.305 106.588 153.305 107.274V111.767H154.99V107.258C154.99 106.01 154.709 105.106 154.163 104.544ZM160.696 105.636C160.368 106.26 160.212 106.978 160.212 107.789C160.212 108.6 160.368 109.318 160.711 109.926C161.055 110.55 161.523 111.018 162.147 111.361C162.771 111.704 163.488 111.86 164.331 111.86C165.282 111.86 166.078 111.611 166.717 111.08C167.357 110.566 167.747 109.895 167.903 109.084H166.218C166.093 109.536 165.859 109.879 165.516 110.129C165.157 110.378 164.721 110.488 164.206 110.488C163.551 110.488 163.02 110.285 162.63 109.879C162.225 109.474 162.006 108.928 161.975 108.226V108.132H167.997C168.028 107.914 168.043 107.711 168.043 107.492C168.028 106.728 167.856 106.057 167.513 105.48C167.17 104.918 166.717 104.466 166.125 104.154C165.532 103.842 164.861 103.686 164.097 103.686C163.332 103.686 162.661 103.858 162.069 104.201C161.476 104.544 161.023 105.012 160.696 105.636ZM166.327 106.9H162.037C162.1 106.338 162.318 105.901 162.724 105.558C163.129 105.215 163.597 105.043 164.159 105.043C164.752 105.043 165.235 105.215 165.625 105.542C166.015 105.87 166.249 106.322 166.327 106.9ZM170.701 109.13H169.079C169.095 109.988 169.438 110.659 170.093 111.143C170.748 111.626 171.622 111.86 172.698 111.86C173.322 111.86 173.899 111.767 174.414 111.564C174.913 111.361 175.319 111.065 175.615 110.69C175.896 110.316 176.052 109.864 176.052 109.364C176.052 108.803 175.912 108.366 175.631 108.038C175.35 107.711 174.976 107.477 174.508 107.321C174.04 107.165 173.463 107.056 172.776 106.978C172.261 106.915 171.887 106.868 171.669 106.822C171.435 106.775 171.247 106.697 171.091 106.572C170.935 106.447 170.873 106.276 170.873 106.026C170.873 105.714 171.013 105.449 171.325 105.262C171.622 105.074 172.012 104.981 172.511 104.981C172.995 104.981 173.4 105.106 173.728 105.34C174.04 105.574 174.227 105.87 174.274 106.229H175.912C175.849 105.418 175.506 104.794 174.882 104.341C174.258 103.904 173.431 103.67 172.433 103.67C171.809 103.67 171.263 103.78 170.779 103.982C170.296 104.201 169.921 104.497 169.641 104.872C169.36 105.246 169.235 105.683 169.235 106.166C169.235 106.697 169.36 107.102 169.641 107.414C169.921 107.726 170.28 107.945 170.733 108.085C171.185 108.226 171.762 108.335 172.464 108.413C172.963 108.475 173.338 108.538 173.587 108.6C173.837 108.662 174.024 108.756 174.18 108.881C174.321 109.021 174.399 109.224 174.399 109.489C174.399 109.817 174.227 110.082 173.915 110.269C173.603 110.456 173.182 110.55 172.683 110.55C172.105 110.55 171.637 110.425 171.279 110.16C170.92 109.895 170.733 109.552 170.701 109.13ZM183.94 104.56C183.347 103.982 182.567 103.686 181.631 103.686C180.523 103.686 179.665 104.076 179.072 104.825L178.885 103.78H177.419V111.767H179.104V107.742C179.104 106.931 179.291 106.307 179.665 105.839C180.04 105.371 180.57 105.137 181.241 105.137C181.865 105.137 182.333 105.34 182.66 105.73C182.972 106.135 183.144 106.712 183.144 107.461V111.767H184.844V107.368C184.844 106.088 184.532 105.152 183.94 104.56ZM186.564 105.636C186.236 106.26 186.08 106.978 186.08 107.789C186.08 108.6 186.236 109.318 186.579 109.926C186.923 110.55 187.391 111.018 188.015 111.361C188.639 111.704 189.356 111.86 190.199 111.86C191.15 111.86 191.946 111.611 192.585 111.08C193.225 110.566 193.615 109.895 193.771 109.084H192.086C191.961 109.536 191.727 109.879 191.384 110.129C191.025 110.378 190.589 110.488 190.074 110.488C189.419 110.488 188.888 110.285 188.498 109.879C188.093 109.474 187.874 108.928 187.843 108.226V108.132H193.865C193.896 107.914 193.911 107.711 193.911 107.492C193.896 106.728 193.724 106.057 193.381 105.48C193.038 104.918 192.585 104.466 191.993 104.154C191.4 103.842 190.729 103.686 189.965 103.686C189.2 103.686 188.529 103.858 187.937 104.201C187.344 104.544 186.891 105.012 186.564 105.636ZM192.195 106.9H187.905C187.968 106.338 188.186 105.901 188.592 105.558C188.997 105.215 189.465 105.043 190.027 105.043C190.62 105.043 191.103 105.215 191.493 105.542C191.883 105.87 192.117 106.322 192.195 106.9ZM195.274 100.847V111.767H196.958V109.723L198.378 108.226L200.749 111.767H202.746L199.579 106.993L202.559 103.78H200.609L196.958 107.68V100.847H195.274ZM206.848 103.78L209.797 111.767H211.856L214.804 103.78H213.026L210.857 109.957L208.658 103.78H206.848ZM215.54 105.636C215.212 106.26 215.056 106.978 215.056 107.789C215.056 108.6 215.212 109.318 215.555 109.926C215.898 110.55 216.366 111.018 216.99 111.361C217.614 111.704 218.332 111.86 219.174 111.86C220.126 111.86 220.922 111.611 221.561 111.08C222.201 110.566 222.591 109.895 222.747 109.084H221.062C220.937 109.536 220.703 109.879 220.36 110.129C220.001 110.378 219.564 110.488 219.05 110.488C218.394 110.488 217.864 110.285 217.474 109.879C217.068 109.474 216.85 108.928 216.819 108.226V108.132H222.84C222.872 107.914 222.887 107.711 222.887 107.492C222.872 106.728 222.7 106.057 222.357 105.48C222.014 104.918 221.561 104.466 220.968 104.154C220.376 103.842 219.705 103.686 218.94 103.686C218.176 103.686 217.505 103.858 216.912 104.201C216.32 104.544 215.867 105.012 215.54 105.636ZM221.171 106.9H216.881C216.944 106.338 217.162 105.901 217.568 105.558C217.973 105.215 218.441 105.043 219.003 105.043C219.596 105.043 220.079 105.215 220.469 105.542C220.859 105.87 221.093 106.322 221.171 106.9ZM67.6845 119.847H65.9997V123.887C65.7189 123.513 65.3757 123.232 64.9389 123.014C64.5021 122.795 63.9873 122.686 63.4101 122.686C62.6925 122.686 62.0373 122.858 61.4757 123.201C60.8985 123.544 60.4461 124.012 60.1185 124.636C59.7909 125.26 59.6349 125.962 59.6349 126.773C59.6349 127.616 59.7909 128.333 60.1185 128.957C60.4305 129.581 60.8829 130.049 61.4601 130.377C62.0217 130.704 62.6769 130.86 63.4101 130.86C64.5021 130.86 65.3757 130.439 66.0153 129.566L66.2181 130.767H67.6845V119.847ZM65.3757 128.708C64.9389 129.207 64.3773 129.441 63.6909 129.441C62.9889 129.441 62.4273 129.207 62.0061 128.708C61.5693 128.208 61.3665 127.569 61.3665 126.773C61.3665 125.993 61.5693 125.369 62.0061 124.87C62.4273 124.371 62.9889 124.121 63.6909 124.121C64.3773 124.121 64.9389 124.371 65.3757 124.87C65.7969 125.369 66.0153 126.009 66.0153 126.804C66.0153 127.584 65.7969 128.224 65.3757 128.708ZM69.5182 124.636C69.1906 125.26 69.0346 125.978 69.0346 126.789C69.0346 127.6 69.1906 128.318 69.5338 128.926C69.877 129.55 70.345 130.018 70.969 130.361C71.593 130.704 72.3106 130.86 73.153 130.86C74.1046 130.86 74.9002 130.611 75.5398 130.08C76.1794 129.566 76.5694 128.895 76.7254 128.084H75.0406C74.9158 128.536 74.6818 128.879 74.3386 129.129C73.9798 129.378 73.543 129.488 73.0282 129.488C72.373 129.488 71.8426 129.285 71.4526 128.879C71.047 128.474 70.8286 127.928 70.7974 127.226V127.132H76.819C76.8502 126.914 76.8658 126.711 76.8658 126.492C76.8502 125.728 76.6786 125.057 76.3354 124.48C75.9922 123.918 75.5398 123.466 74.947 123.154C74.3542 122.842 73.6834 122.686 72.919 122.686C72.1546 122.686 71.4838 122.858 70.891 123.201C70.2982 123.544 69.8458 124.012 69.5182 124.636ZM75.1498 125.9H70.8598C70.9222 125.338 71.1406 124.901 71.5462 124.558C71.9518 124.215 72.4198 124.043 72.9814 124.043C73.5742 124.043 74.0578 124.215 74.4478 124.542C74.8378 124.87 75.0718 125.322 75.1498 125.9ZM78.2278 119.847V130.767H79.9126V119.847H78.2278ZM83.1398 119.878C82.937 119.691 82.6874 119.582 82.4066 119.582C82.1102 119.582 81.8606 119.691 81.6734 119.878C81.4706 120.065 81.377 120.315 81.377 120.596C81.377 120.892 81.4706 121.142 81.6734 121.329C81.8606 121.516 82.1102 121.61 82.4066 121.61C82.6874 121.61 82.937 121.516 83.1398 121.329C83.327 121.142 83.4362 120.892 83.4362 120.596C83.4362 120.315 83.327 120.065 83.1398 119.878ZM81.5642 122.78V130.767H83.249V122.78H81.5642ZM91.4213 123.56C90.8285 122.982 90.0485 122.686 89.1125 122.686C88.0049 122.686 87.1469 123.076 86.5541 123.825L86.3669 122.78H84.9005V130.767H86.5853V126.742C86.5853 125.931 86.7725 125.307 87.1469 124.839C87.5213 124.371 88.0517 124.137 88.7225 124.137C89.3465 124.137 89.8145 124.34 90.1421 124.73C90.4541 125.135 90.6257 125.712 90.6257 126.461V130.767H92.3261V126.368C92.3261 125.088 92.0141 124.152 91.4213 123.56ZM105.215 123.544C104.653 122.982 103.951 122.686 103.078 122.686C102.423 122.686 101.877 122.826 101.424 123.076C100.956 123.326 100.597 123.684 100.317 124.137C100.083 123.653 99.7551 123.294 99.3339 123.045C98.8971 122.811 98.4135 122.686 97.8519 122.686C96.8535 122.702 96.0735 123.076 95.5119 123.825L95.3247 122.78H93.8583V130.767H95.5431V126.492C95.5431 125.775 95.6991 125.213 96.0423 124.776C96.3855 124.355 96.8379 124.137 97.4151 124.137C97.9611 124.137 98.3823 124.324 98.6631 124.683C98.9439 125.042 99.0999 125.572 99.0999 126.274V130.767H100.8V126.446C100.8 125.728 100.956 125.166 101.299 124.761C101.643 124.355 102.095 124.137 102.688 124.137C103.234 124.137 103.655 124.324 103.936 124.683C104.217 125.057 104.357 125.588 104.357 126.274V130.767H106.042V126.258C106.042 125.01 105.761 124.106 105.215 123.544ZM107.756 124.636C107.429 125.26 107.273 125.978 107.273 126.789C107.273 127.6 107.429 128.318 107.772 128.926C108.115 129.55 108.583 130.018 109.207 130.361C109.831 130.704 110.549 130.86 111.391 130.86C112.343 130.86 113.138 130.611 113.778 130.08C114.418 129.566 114.808 128.895 114.964 128.084H113.279C113.154 128.536 112.92 128.879 112.577 129.129C112.218 129.378 111.781 129.488 111.266 129.488C110.611 129.488 110.081 129.285 109.691 128.879C109.285 128.474 109.067 127.928 109.036 127.226V127.132H115.057C115.088 126.914 115.104 126.711 115.104 126.492C115.088 125.728 114.917 125.057 114.574 124.48C114.23 123.918 113.778 123.466 113.185 123.154C112.592 122.842 111.922 122.686 111.157 122.686C110.393 122.686 109.722 122.858 109.129 123.201C108.536 123.544 108.084 124.012 107.756 124.636ZM113.388 125.9H109.098C109.16 125.338 109.379 124.901 109.784 124.558C110.19 124.215 110.658 124.043 111.22 124.043C111.812 124.043 112.296 124.215 112.686 124.542C113.076 124.87 113.31 125.322 113.388 125.9ZM117.16 122.78H115.366L118.486 130.829L118.158 131.594C118.018 131.937 117.893 132.171 117.768 132.264C117.643 132.358 117.409 132.405 117.097 132.405H115.912V133.887H117.721C118.096 133.887 118.408 133.824 118.642 133.7C118.86 133.575 119.063 133.372 119.219 133.122C119.375 132.873 119.547 132.498 119.734 132.015L123.353 122.78H121.559L119.391 128.942L117.16 122.78ZM124.088 124.636C123.76 125.26 123.604 125.978 123.604 126.789C123.604 127.6 123.76 128.318 124.103 128.926C124.446 129.55 124.914 130.018 125.538 130.361C126.162 130.704 126.88 130.86 127.722 130.86C128.674 130.86 129.47 130.611 130.109 130.08C130.749 129.566 131.139 128.895 131.295 128.084H129.61C129.485 128.536 129.251 128.879 128.908 129.129C128.549 129.378 128.112 129.488 127.598 129.488C126.942 129.488 126.412 129.285 126.022 128.879C125.616 128.474 125.398 127.928 125.367 127.226V127.132H131.388C131.42 126.914 131.435 126.711 131.435 126.492C131.42 125.728 131.248 125.057 130.905 124.48C130.562 123.918 130.109 123.466 129.516 123.154C128.924 122.842 128.253 122.686 127.488 122.686C126.724 122.686 126.053 122.858 125.46 123.201C124.868 123.544 124.415 124.012 124.088 124.636ZM129.719 125.9H125.429C125.492 125.338 125.71 124.901 126.116 124.558C126.521 124.215 126.989 124.043 127.551 124.043C128.144 124.043 128.627 124.215 129.017 124.542C129.407 124.87 129.641 125.322 129.719 125.9ZM144.542 119.847H142.857V123.887C142.576 123.513 142.233 123.232 141.796 123.014C141.36 122.795 140.845 122.686 140.268 122.686C139.55 122.686 138.895 122.858 138.333 123.201C137.756 123.544 137.304 124.012 136.976 124.636C136.648 125.26 136.492 125.962 136.492 126.773C136.492 127.616 136.648 128.333 136.976 128.957C137.288 129.581 137.74 130.049 138.318 130.377C138.879 130.704 139.534 130.86 140.268 130.86C141.36 130.86 142.233 130.439 142.873 129.566L143.076 130.767H144.542V119.847ZM142.233 128.708C141.796 129.207 141.235 129.441 140.548 129.441C139.846 129.441 139.285 129.207 138.864 128.708C138.427 128.208 138.224 127.569 138.224 126.773C138.224 125.993 138.427 125.369 138.864 124.87C139.285 124.371 139.846 124.121 140.548 124.121C141.235 124.121 141.796 124.371 142.233 124.87C142.654 125.369 142.873 126.009 142.873 126.804C142.873 127.584 142.654 128.224 142.233 128.708ZM153.832 129.3H153.505C153.146 129.3 152.974 129.113 152.974 128.739V125.588C152.974 124.652 152.678 123.934 152.101 123.435C151.508 122.936 150.681 122.686 149.62 122.686C148.606 122.686 147.795 122.92 147.171 123.357C146.547 123.794 146.188 124.418 146.11 125.213H147.764C147.826 124.87 148.014 124.589 148.326 124.371C148.638 124.152 149.043 124.043 149.542 124.043C150.088 124.043 150.525 124.184 150.837 124.433C151.149 124.683 151.305 125.042 151.305 125.478V125.962H149.293C148.17 125.962 147.327 126.196 146.75 126.633C146.157 127.07 145.876 127.709 145.876 128.52C145.876 129.254 146.142 129.831 146.688 130.236C147.218 130.658 147.936 130.86 148.84 130.86C149.995 130.86 150.868 130.408 151.477 129.488C151.477 129.909 151.586 130.221 151.82 130.439C152.038 130.658 152.413 130.767 152.943 130.767H153.832V129.3ZM151.305 127.21V127.491C151.29 128.115 151.087 128.614 150.697 128.988C150.307 129.363 149.761 129.55 149.074 129.55C148.606 129.55 148.248 129.456 147.982 129.238C147.717 129.035 147.592 128.754 147.592 128.411C147.592 128.021 147.733 127.725 148.014 127.522C148.294 127.319 148.684 127.21 149.215 127.21H151.305ZM155.505 122.78H153.711L156.831 130.829L156.503 131.594C156.363 131.937 156.238 132.171 156.113 132.264C155.988 132.358 155.754 132.405 155.442 132.405H154.257V133.887H156.066C156.441 133.887 156.753 133.824 156.987 133.7C157.205 133.575 157.408 133.372 157.564 133.122C157.72 132.873 157.892 132.498 158.079 132.015L161.698 122.78H159.904L157.736 128.942L155.505 122.78ZM169.859 129.3H169.531C169.173 129.3 169.001 129.113 169.001 128.739V125.588C169.001 124.652 168.705 123.934 168.127 123.435C167.535 122.936 166.708 122.686 165.647 122.686C164.633 122.686 163.822 122.92 163.198 123.357C162.574 123.794 162.215 124.418 162.137 125.213H163.791C163.853 124.87 164.04 124.589 164.352 124.371C164.664 124.152 165.07 124.043 165.569 124.043C166.115 124.043 166.552 124.184 166.864 124.433C167.176 124.683 167.332 125.042 167.332 125.478V125.962H165.319C164.196 125.962 163.354 126.196 162.777 126.633C162.184 127.07 161.903 127.709 161.903 128.52C161.903 129.254 162.168 129.831 162.714 130.236C163.245 130.658 163.962 130.86 164.867 130.86C166.021 130.86 166.895 130.408 167.503 129.488C167.503 129.909 167.613 130.221 167.847 130.439C168.065 130.658 168.439 130.767 168.97 130.767H169.859V129.3ZM167.332 127.21V127.491C167.316 128.115 167.113 128.614 166.723 128.988C166.333 129.363 165.787 129.55 165.101 129.55C164.633 129.55 164.274 129.456 164.009 129.238C163.744 129.035 163.619 128.754 163.619 128.411C163.619 128.021 163.759 127.725 164.04 127.522C164.321 127.319 164.711 127.21 165.241 127.21H167.332ZM177.297 123.56C176.705 122.982 175.925 122.686 174.989 122.686C173.881 122.686 173.023 123.076 172.43 123.825L172.243 122.78H170.777V130.767H172.461V126.742C172.461 125.931 172.649 125.307 173.023 124.839C173.397 124.371 173.928 124.137 174.599 124.137C175.223 124.137 175.691 124.34 176.018 124.73C176.33 125.135 176.502 125.712 176.502 126.461V130.767H178.202V126.368C178.202 125.088 177.89 124.152 177.297 123.56ZM179.734 122.78V130.767H181.419V122.78H179.734ZM183.071 119.847V130.767H184.756V128.723L186.175 127.226L188.546 130.767H190.543L187.376 125.993L190.356 122.78H188.406L184.756 126.68V119.847H183.071ZM191.45 119.847V130.767H193.134V119.847H191.45ZM194.786 122.78V130.767H196.471V122.78H194.786Z" fill="black"/>
</svg>
