<svg width="255" height="156" viewBox="0 0 255 156" fill="none" xmlns="http://www.w3.org/2000/svg">
<rect width="254.8" height="156" rx="10.4" fill="#F8F8F8"/>
<path d="M127.4 76.2668C125.031 76.2668 122.792 75.8115 120.684 74.9009C118.575 73.9915 116.733 72.7493 115.159 71.1742C113.584 69.6004 112.342 67.759 111.433 65.6501C110.522 63.5412 110.067 61.3023 110.067 58.9334C110.067 56.5357 110.536 54.2823 111.474 52.1734C112.414 50.0645 113.686 48.2301 115.289 46.6701C116.892 45.1101 118.762 43.8748 120.9 42.9642C123.038 42.0548 125.32 41.6001 127.747 41.6001C130.058 41.6001 132.239 41.9976 134.29 42.7926C136.341 43.5865 138.139 44.6843 139.684 46.086C141.23 47.4865 142.458 49.1476 143.368 51.0693C144.278 52.9898 144.734 55.0623 144.734 57.2868C144.734 60.609 143.722 63.1581 141.7 64.9342C139.678 66.7115 137.222 67.6001 134.334 67.6001H131.127C130.867 67.6001 130.687 67.6723 130.586 67.8168C130.484 67.9612 130.434 68.1201 130.434 68.2934C130.434 68.6401 130.65 69.1381 131.084 69.7876C131.517 70.4381 131.734 71.1823 131.734 72.0201C131.734 73.4645 131.336 74.5334 130.541 75.2268C129.747 75.9201 128.7 76.2668 127.4 76.2668ZM117.867 60.6668C118.618 60.6668 119.239 60.4212 119.73 59.9301C120.221 59.439 120.467 58.8179 120.467 58.0668C120.467 57.3157 120.221 56.6945 119.73 56.2034C119.239 55.7123 118.618 55.4668 117.867 55.4668C117.116 55.4668 116.495 55.7123 116.004 56.2034C115.512 56.6945 115.267 57.3157 115.267 58.0668C115.267 58.8179 115.512 59.439 116.004 59.9301C116.495 60.4212 117.116 60.6668 117.867 60.6668ZM123.067 53.7334C123.818 53.7334 124.439 53.4879 124.93 52.9968C125.421 52.5057 125.667 51.8845 125.667 51.1334C125.667 50.3823 125.421 49.7612 124.93 49.2701C124.439 48.779 123.818 48.5334 123.067 48.5334C122.316 48.5334 121.695 48.779 121.204 49.2701C120.712 49.7612 120.467 50.3823 120.467 51.1334C120.467 51.8845 120.712 52.5057 121.204 52.9968C121.695 53.4879 122.316 53.7334 123.067 53.7334ZM131.734 53.7334C132.485 53.7334 133.106 53.4879 133.597 52.9968C134.088 52.5057 134.334 51.8845 134.334 51.1334C134.334 50.3823 134.088 49.7612 133.597 49.2701C133.106 48.779 132.485 48.5334 131.734 48.5334C130.982 48.5334 130.361 48.779 129.87 49.2701C129.379 49.7612 129.134 50.3823 129.134 51.1334C129.134 51.8845 129.379 52.5057 129.87 52.9968C130.361 53.4879 130.982 53.7334 131.734 53.7334ZM136.934 60.6668C137.685 60.6668 138.306 60.4212 138.797 59.9301C139.288 59.439 139.534 58.8179 139.534 58.0668C139.534 57.3157 139.288 56.6945 138.797 56.2034C138.306 55.7123 137.685 55.4668 136.934 55.4668C136.182 55.4668 135.561 55.7123 135.07 56.2034C134.579 56.6945 134.334 57.3157 134.334 58.0668C134.334 58.8179 134.579 59.439 135.07 59.9301C135.561 60.4212 136.182 60.6668 136.934 60.6668ZM127.4 72.8001C127.66 72.8001 127.87 72.7279 128.029 72.5834C128.188 72.439 128.267 72.2512 128.267 72.0201C128.267 71.6157 128.05 71.139 127.617 70.5901C127.184 70.0412 126.967 69.2179 126.967 68.1201C126.967 66.9068 127.386 65.939 128.224 65.2168C129.061 64.4945 130.087 64.1334 131.3 64.1334H134.334C136.24 64.1334 137.872 63.577 139.23 62.4642C140.588 61.3526 141.267 59.6268 141.267 57.2868C141.267 53.7912 139.931 50.8804 137.259 48.5542C134.587 46.2293 131.416 45.0668 127.747 45.0668C123.818 45.0668 120.467 46.4101 117.694 49.0968C114.92 51.7834 113.534 55.0623 113.534 58.9334C113.534 62.7757 114.884 66.0476 117.586 68.7493C120.287 71.4498 123.558 72.8001 127.4 72.8001Z" fill="black"/>
<path d="M47.9304 100.847V111.767H49.7244V100.847H47.9304ZM48.0864 97.8516C47.8992 98.0388 47.8056 98.2728 47.8056 98.5536C47.8056 98.85 47.8992 99.084 48.0864 99.2712C48.2736 99.4584 48.5232 99.552 48.8196 99.552C49.1004 99.552 49.35 99.4584 49.5372 99.2712C49.7244 99.084 49.8336 98.85 49.8336 98.5536C49.8336 98.2728 49.7244 98.0388 49.5372 97.8516C49.35 97.6644 49.1004 97.5708 48.8196 97.5708C48.5232 97.5708 48.2736 97.6644 48.0864 97.8516ZM52.8938 109.13H51.2714C51.287 109.988 51.6302 110.659 52.2854 111.143C52.9406 111.626 53.8142 111.86 54.8906 111.86C55.5146 111.86 56.0918 111.767 56.6066 111.564C57.1058 111.361 57.5114 111.065 57.8078 110.69C58.0886 110.316 58.2446 109.864 58.2446 109.364C58.2446 108.803 58.1042 108.366 57.8234 108.038C57.5426 107.711 57.1682 107.477 56.7002 107.321C56.2322 107.165 55.655 107.056 54.9686 106.978C54.4538 106.915 54.0794 106.868 53.861 106.822C53.627 106.775 53.4398 106.697 53.2838 106.572C53.1278 106.447 53.0654 106.276 53.0654 106.026C53.0654 105.714 53.2058 105.449 53.5178 105.262C53.8142 105.074 54.2042 104.981 54.7034 104.981C55.187 104.981 55.5926 105.106 55.9202 105.34C56.2322 105.574 56.4194 105.87 56.4662 106.229H58.1042C58.0418 105.418 57.6986 104.794 57.0746 104.341C56.4506 103.904 55.6238 103.67 54.6254 103.67C54.0014 103.67 53.4554 103.78 52.9718 103.982C52.4882 104.201 52.1138 104.497 51.833 104.872C51.5522 105.246 51.4274 105.683 51.4274 106.166C51.4274 106.697 51.5522 107.102 51.833 107.414C52.1138 107.726 52.4726 107.945 52.925 108.085C53.3774 108.226 53.9546 108.335 54.6566 108.413C55.1558 108.475 55.5302 108.538 55.7798 108.6C56.0294 108.662 56.2166 108.756 56.3726 108.881C56.513 109.021 56.591 109.224 56.591 109.489C56.591 109.817 56.4194 110.082 56.1074 110.269C55.7954 110.456 55.3742 110.55 54.875 110.55C54.2978 110.55 53.8298 110.425 53.471 110.16C53.1122 109.895 52.925 109.552 52.8938 109.13ZM60.126 105.262V109.598C60.126 110.347 60.2976 110.893 60.6408 111.236C60.984 111.595 61.5456 111.767 62.31 111.767H63.9324V110.285H62.6532C62.3412 110.285 62.1384 110.222 62.0136 110.098C61.8888 109.973 61.8264 109.739 61.8264 109.427V105.262H63.7452V103.78H61.8264V101.549H60.126V103.78H58.7376V105.262H60.126ZM64.8562 105.636C64.5286 106.26 64.3726 106.978 64.3726 107.789C64.3726 108.6 64.5286 109.318 64.8718 109.926C65.215 110.55 65.683 111.018 66.307 111.361C66.931 111.704 67.6486 111.86 68.491 111.86C69.4426 111.86 70.2382 111.611 70.8778 111.08C71.5174 110.566 71.9074 109.895 72.0634 109.084H70.3786C70.2538 109.536 70.0198 109.879 69.6766 110.129C69.3178 110.378 68.881 110.488 68.3662 110.488C67.711 110.488 67.1806 110.285 66.7906 109.879C66.385 109.474 66.1666 108.928 66.1354 108.226V108.132H72.157C72.1882 107.914 72.2038 107.711 72.2038 107.492C72.1882 106.728 72.0166 106.057 71.6734 105.48C71.3302 104.918 70.8778 104.466 70.285 104.154C69.6922 103.842 69.0214 103.686 68.257 103.686C67.4926 103.686 66.8218 103.858 66.229 104.201C65.6362 104.544 65.1838 105.012 64.8562 105.636ZM70.4878 106.9H66.1978C66.2602 106.338 66.4786 105.901 66.8842 105.558C67.2898 105.215 67.7578 105.043 68.3194 105.043C68.9122 105.043 69.3958 105.215 69.7858 105.542C70.1758 105.87 70.4098 106.322 70.4878 106.9ZM80.0867 104.56C79.4939 103.982 78.7139 103.686 77.7779 103.686C76.6703 103.686 75.8123 104.076 75.2195 104.825L75.0323 103.78H73.5659V111.767H75.2507V107.742C75.2507 106.931 75.4379 106.307 75.8123 105.839C76.1867 105.371 76.7171 105.137 77.3879 105.137C78.0119 105.137 78.4799 105.34 78.8075 105.73C79.1195 106.135 79.2911 106.712 79.2911 107.461V111.767H80.9915V107.368C80.9915 106.088 80.6795 105.152 80.0867 104.56ZM84.0993 100.878C83.8965 100.691 83.6469 100.582 83.3661 100.582C83.0697 100.582 82.8201 100.691 82.6329 100.878C82.4301 101.065 82.3365 101.315 82.3365 101.596C82.3365 101.892 82.4301 102.142 82.6329 102.329C82.8201 102.516 83.0697 102.61 83.3661 102.61C83.6469 102.61 83.8965 102.516 84.0993 102.329C84.2865 102.142 84.3957 101.892 84.3957 101.596C84.3957 101.315 84.2865 101.065 84.0993 100.878ZM82.5237 103.78V111.767H84.2085V103.78H82.5237ZM85.86 100.847V111.767H87.5448V100.847H85.86ZM89.3835 105.636C89.0559 106.26 88.8999 106.978 88.8999 107.789C88.8999 108.6 89.0559 109.318 89.3991 109.926C89.7423 110.55 90.2103 111.018 90.8343 111.361C91.4583 111.704 92.1759 111.86 93.0183 111.86C93.9699 111.86 94.7655 111.611 95.4051 111.08C96.0447 110.566 96.4347 109.895 96.5907 109.084H94.9059C94.7811 109.536 94.5471 109.879 94.2039 110.129C93.8451 110.378 93.4083 110.488 92.8935 110.488C92.2383 110.488 91.7079 110.285 91.3179 109.879C90.9123 109.474 90.6939 108.928 90.6627 108.226V108.132H96.6843C96.7155 107.914 96.7311 107.711 96.7311 107.492C96.7155 106.728 96.5439 106.057 96.2007 105.48C95.8575 104.918 95.4051 104.466 94.8123 104.154C94.2195 103.842 93.5487 103.686 92.7843 103.686C92.0199 103.686 91.3491 103.858 90.7563 104.201C90.1635 104.544 89.7111 105.012 89.3835 105.636ZM95.0151 106.9H90.7251C90.7875 106.338 91.0059 105.901 91.4115 105.558C91.8171 105.215 92.2851 105.043 92.8467 105.043C93.4395 105.043 93.9231 105.215 94.3131 105.542C94.7031 105.87 94.9371 106.322 95.0151 106.9ZM104.614 104.56C104.021 103.982 103.241 103.686 102.305 103.686C101.198 103.686 100.34 104.076 99.7468 104.825L99.5596 103.78H98.0932V111.767H99.778V107.742C99.778 106.931 99.9652 106.307 100.34 105.839C100.714 105.371 101.244 105.137 101.915 105.137C102.539 105.137 103.007 105.34 103.335 105.73C103.647 106.135 103.818 106.712 103.818 107.461V111.767H105.519V107.368C105.519 106.088 105.207 105.152 104.614 104.56ZM115.457 103.78H115.083C114.459 103.78 113.975 103.889 113.616 104.107C113.242 104.326 112.946 104.606 112.727 104.981L112.54 103.78H111.042V111.767H112.727V107.758C112.727 107.071 112.883 106.494 113.195 106.042C113.507 105.589 114.006 105.355 114.708 105.355H115.457V103.78ZM116.333 105.636C116.006 106.26 115.85 106.978 115.85 107.789C115.85 108.6 116.006 109.318 116.349 109.926C116.692 110.55 117.16 111.018 117.784 111.361C118.408 111.704 119.126 111.86 119.968 111.86C120.92 111.86 121.715 111.611 122.355 111.08C122.994 110.566 123.384 109.895 123.54 109.084H121.856C121.731 109.536 121.497 109.879 121.154 110.129C120.795 110.378 120.358 110.488 119.843 110.488C119.188 110.488 118.658 110.285 118.268 109.879C117.862 109.474 117.644 108.928 117.612 108.226V108.132H123.634C123.665 107.914 123.681 107.711 123.681 107.492C123.665 106.728 123.494 106.057 123.15 105.48C122.807 104.918 122.355 104.466 121.762 104.154C121.169 103.842 120.498 103.686 119.734 103.686C118.97 103.686 118.299 103.858 117.706 104.201C117.113 104.544 116.661 105.012 116.333 105.636ZM121.965 106.9H117.675C117.737 106.338 117.956 105.901 118.361 105.558C118.767 105.215 119.235 105.043 119.796 105.043C120.389 105.043 120.873 105.215 121.263 105.542C121.653 105.87 121.887 106.322 121.965 106.9ZM131.564 104.56C130.971 103.982 130.191 103.686 129.255 103.686C128.147 103.686 127.289 104.076 126.696 104.825L126.509 103.78H125.043V111.767H126.728V107.742C126.728 106.931 126.915 106.307 127.289 105.839C127.664 105.371 128.194 105.137 128.865 105.137C129.489 105.137 129.957 105.34 130.284 105.73C130.596 106.135 130.768 106.712 130.768 107.461V111.767H132.468V107.368C132.468 106.088 132.156 105.152 131.564 104.56ZM134.001 100.847V111.767H135.685V109.723L137.105 108.226L139.476 111.767H141.473L138.306 106.993L141.286 103.78H139.336L135.685 107.68V100.847H134.001ZM145.575 103.78L148.524 111.767H150.583L153.531 103.78H151.753L149.585 109.957L147.385 103.78H145.575ZM154.267 105.636C153.939 106.26 153.783 106.978 153.783 107.789C153.783 108.6 153.939 109.318 154.282 109.926C154.626 110.55 155.094 111.018 155.718 111.361C156.342 111.704 157.059 111.86 157.902 111.86C158.853 111.86 159.649 111.611 160.288 111.08C160.928 110.566 161.318 109.895 161.474 109.084H159.789C159.664 109.536 159.43 109.879 159.087 110.129C158.728 110.378 158.292 110.488 157.777 110.488C157.122 110.488 156.591 110.285 156.201 109.879C155.796 109.474 155.577 108.928 155.546 108.226V108.132H161.568C161.599 107.914 161.614 107.711 161.614 107.492C161.599 106.728 161.427 106.057 161.084 105.48C160.741 104.918 160.288 104.466 159.696 104.154C159.103 103.842 158.432 103.686 157.668 103.686C156.903 103.686 156.232 103.858 155.64 104.201C155.047 104.544 154.594 105.012 154.267 105.636ZM159.898 106.9H155.608C155.671 106.338 155.889 105.901 156.295 105.558C156.7 105.215 157.168 105.043 157.73 105.043C158.323 105.043 158.806 105.215 159.196 105.542C159.586 105.87 159.82 106.322 159.898 106.9ZM173.192 104.185C172.615 103.858 171.96 103.686 171.242 103.686C170.15 103.686 169.277 104.123 168.653 104.965V100.847H166.968V111.767H168.434L168.637 110.612C168.902 111.002 169.261 111.314 169.698 111.533C170.135 111.751 170.649 111.86 171.242 111.86C171.96 111.86 172.615 111.689 173.192 111.346C173.754 111.002 174.206 110.534 174.534 109.91C174.846 109.286 175.017 108.584 175.017 107.773C175.017 106.931 174.846 106.213 174.534 105.589C174.206 104.981 173.754 104.513 173.192 104.185ZM172.646 109.708C172.209 110.207 171.648 110.441 170.961 110.441C170.259 110.441 169.698 110.191 169.277 109.692C168.84 109.193 168.637 108.553 168.637 107.758C168.637 106.978 168.84 106.354 169.277 105.854C169.698 105.371 170.259 105.121 170.961 105.121C171.648 105.121 172.209 105.371 172.646 105.87C173.083 106.369 173.301 106.993 173.301 107.773C173.301 108.569 173.083 109.208 172.646 109.708ZM184.011 110.3H183.684C183.325 110.3 183.153 110.113 183.153 109.739V106.588C183.153 105.652 182.857 104.934 182.28 104.435C181.687 103.936 180.86 103.686 179.799 103.686C178.785 103.686 177.974 103.92 177.35 104.357C176.726 104.794 176.367 105.418 176.289 106.213H177.943C178.005 105.87 178.193 105.589 178.505 105.371C178.817 105.152 179.222 105.043 179.721 105.043C180.267 105.043 180.704 105.184 181.016 105.433C181.328 105.683 181.484 106.042 181.484 106.478V106.962H179.472C178.349 106.962 177.506 107.196 176.929 107.633C176.336 108.07 176.055 108.709 176.055 109.52C176.055 110.254 176.321 110.831 176.867 111.236C177.397 111.658 178.115 111.86 179.019 111.86C180.174 111.86 181.047 111.408 181.656 110.488C181.656 110.909 181.765 111.221 181.999 111.439C182.217 111.658 182.592 111.767 183.122 111.767H184.011V110.3ZM181.484 108.21V108.491C181.469 109.115 181.266 109.614 180.876 109.988C180.486 110.363 179.94 110.55 179.253 110.55C178.785 110.55 178.427 110.456 178.161 110.238C177.896 110.035 177.771 109.754 177.771 109.411C177.771 109.021 177.912 108.725 178.193 108.522C178.473 108.319 178.863 108.21 179.394 108.21H181.484ZM186.271 109.13H184.648C184.664 109.988 185.007 110.659 185.662 111.143C186.318 111.626 187.191 111.86 188.268 111.86C188.892 111.86 189.469 111.767 189.984 111.564C190.483 111.361 190.888 111.065 191.185 110.69C191.466 110.316 191.622 109.864 191.622 109.364C191.622 108.803 191.481 108.366 191.2 108.038C190.92 107.711 190.545 107.477 190.077 107.321C189.609 107.165 189.032 107.056 188.346 106.978C187.831 106.915 187.456 106.868 187.238 106.822C187.004 106.775 186.817 106.697 186.661 106.572C186.505 106.447 186.442 106.276 186.442 106.026C186.442 105.714 186.583 105.449 186.895 105.262C187.191 105.074 187.581 104.981 188.08 104.981C188.564 104.981 188.97 105.106 189.297 105.34C189.609 105.574 189.796 105.87 189.843 106.229H191.481C191.419 105.418 191.076 104.794 190.452 104.341C189.828 103.904 189.001 103.67 188.002 103.67C187.378 103.67 186.832 103.78 186.349 103.982C185.865 104.201 185.491 104.497 185.21 104.872C184.929 105.246 184.804 105.683 184.804 106.166C184.804 106.697 184.929 107.102 185.21 107.414C185.491 107.726 185.85 107.945 186.302 108.085C186.754 108.226 187.332 108.335 188.034 108.413C188.533 108.475 188.907 108.538 189.157 108.6C189.406 108.662 189.594 108.756 189.75 108.881C189.89 109.021 189.968 109.224 189.968 109.489C189.968 109.817 189.796 110.082 189.484 110.269C189.172 110.456 188.751 110.55 188.252 110.55C187.675 110.55 187.207 110.425 186.848 110.16C186.489 109.895 186.302 109.552 186.271 109.13ZM192.988 100.847V111.767H194.673V109.723L196.093 108.226L198.464 111.767H200.461L197.294 106.993L200.273 103.78H198.323L194.673 107.68V100.847H192.988ZM201.367 103.78V111.767H203.052V103.78H201.367ZM88.7098 128.13H87.0874C87.103 128.988 87.4462 129.659 88.1014 130.143C88.7566 130.626 89.6302 130.86 90.7066 130.86C91.3306 130.86 91.9078 130.767 92.4226 130.564C92.9218 130.361 93.3274 130.065 93.6238 129.69C93.9046 129.316 94.0606 128.864 94.0606 128.364C94.0606 127.803 93.9202 127.366 93.6394 127.038C93.3586 126.711 92.9842 126.477 92.5162 126.321C92.0482 126.165 91.471 126.056 90.7846 125.978C90.2698 125.915 89.8954 125.868 89.677 125.822C89.443 125.775 89.2558 125.697 89.0998 125.572C88.9438 125.447 88.8814 125.276 88.8814 125.026C88.8814 124.714 89.0218 124.449 89.3338 124.262C89.6302 124.074 90.0202 123.981 90.5194 123.981C91.003 123.981 91.4086 124.106 91.7362 124.34C92.0482 124.574 92.2354 124.87 92.2822 125.229H93.9202C93.8578 124.418 93.5146 123.794 92.8906 123.341C92.2666 122.904 91.4398 122.67 90.4414 122.67C89.8174 122.67 89.2714 122.78 88.7878 122.982C88.3042 123.201 87.9298 123.497 87.649 123.872C87.3682 124.246 87.2434 124.683 87.2434 125.166C87.2434 125.697 87.3682 126.102 87.649 126.414C87.9298 126.726 88.2886 126.945 88.741 127.085C89.1934 127.226 89.7706 127.335 90.4726 127.413C90.9718 127.475 91.3462 127.538 91.5958 127.6C91.8454 127.662 92.0326 127.756 92.1886 127.881C92.329 128.021 92.407 128.224 92.407 128.489C92.407 128.817 92.2354 129.082 91.9234 129.269C91.6114 129.456 91.1902 129.55 90.691 129.55C90.1138 129.55 89.6458 129.425 89.287 129.16C88.9282 128.895 88.741 128.552 88.7098 128.13ZM95.6144 124.636C95.2868 125.26 95.1308 125.978 95.1308 126.789C95.1308 127.6 95.2868 128.318 95.63 128.926C95.9732 129.55 96.4412 130.018 97.0652 130.361C97.6892 130.704 98.4068 130.86 99.2492 130.86C100.201 130.86 100.996 130.611 101.636 130.08C102.276 129.566 102.666 128.895 102.822 128.084H101.137C101.012 128.536 100.778 128.879 100.435 129.129C100.076 129.378 99.6392 129.488 99.1244 129.488C98.4692 129.488 97.9388 129.285 97.5488 128.879C97.1432 128.474 96.9248 127.928 96.8936 127.226V127.132H102.915C102.946 126.914 102.962 126.711 102.962 126.492C102.946 125.728 102.775 125.057 102.432 124.48C102.088 123.918 101.636 123.466 101.043 123.154C100.45 122.842 99.7796 122.686 99.0152 122.686C98.2508 122.686 97.58 122.858 96.9872 123.201C96.3944 123.544 95.942 124.012 95.6144 124.636ZM101.246 125.9H96.956C97.0184 125.338 97.2368 124.901 97.6424 124.558C98.048 124.215 98.516 124.043 99.0776 124.043C99.6704 124.043 100.154 124.215 100.544 124.542C100.934 124.87 101.168 125.322 101.246 125.9ZM109.3 129.02C108.957 129.3 108.52 129.425 108.006 129.425C107.319 129.425 106.773 129.191 106.368 128.692C105.962 128.193 105.759 127.553 105.759 126.758C105.759 125.978 105.962 125.354 106.368 124.854C106.773 124.371 107.319 124.121 108.006 124.121C108.505 124.121 108.926 124.262 109.269 124.527C109.612 124.808 109.831 125.166 109.956 125.619H111.687C111.531 124.714 111.126 124.012 110.502 123.482C109.862 122.951 109.051 122.686 108.052 122.686C107.241 122.686 106.539 122.858 105.931 123.201C105.322 123.544 104.854 124.012 104.527 124.62C104.184 125.244 104.028 125.946 104.028 126.758C104.028 127.928 104.34 128.879 104.995 129.612C105.634 130.346 106.492 130.751 107.584 130.845L107.272 132.124H108.115C108.271 132.124 108.411 132.171 108.52 132.233C108.614 132.311 108.676 132.405 108.676 132.53C108.676 132.842 108.474 132.982 108.099 132.982H106.804V133.887H108.411C108.879 133.887 109.254 133.762 109.534 133.512C109.815 133.263 109.956 132.935 109.956 132.514C109.956 132.171 109.815 131.89 109.566 131.672C109.316 131.453 108.973 131.344 108.552 131.344H108.333L108.458 130.845C109.347 130.767 110.065 130.47 110.626 129.956C111.188 129.441 111.531 128.754 111.687 127.896H109.971C109.862 128.364 109.644 128.739 109.3 129.02ZM113.088 124.636C112.761 125.26 112.605 125.978 112.605 126.789C112.605 127.6 112.761 128.318 113.104 128.926C113.447 129.55 113.915 130.018 114.539 130.361C115.163 130.704 115.881 130.86 116.723 130.86C117.675 130.86 118.47 130.611 119.11 130.08C119.749 129.566 120.139 128.895 120.295 128.084H118.611C118.486 128.536 118.252 128.879 117.909 129.129C117.55 129.378 117.113 129.488 116.598 129.488C115.943 129.488 115.413 129.285 115.023 128.879C114.617 128.474 114.399 127.928 114.367 127.226V127.132H120.389C120.42 126.914 120.436 126.711 120.436 126.492C120.42 125.728 120.249 125.057 119.905 124.48C119.562 123.918 119.11 123.466 118.517 123.154C117.924 122.842 117.253 122.686 116.489 122.686C115.725 122.686 115.054 122.858 114.461 123.201C113.868 123.544 113.416 124.012 113.088 124.636ZM118.72 125.9H114.43C114.492 125.338 114.711 124.901 115.116 124.558C115.522 124.215 115.99 124.043 116.551 124.043C117.144 124.043 117.628 124.215 118.018 124.542C118.408 124.87 118.642 125.322 118.72 125.9ZM128.319 123.56C127.726 122.982 126.946 122.686 126.01 122.686C124.902 122.686 124.044 123.076 123.452 123.825L123.264 122.78H121.798V130.767H123.483V126.742C123.483 125.931 123.67 125.307 124.044 124.839C124.419 124.371 124.949 124.137 125.62 124.137C126.244 124.137 126.712 124.34 127.04 124.73C127.352 125.135 127.523 125.712 127.523 126.461V130.767H129.224V126.368C129.224 125.088 128.912 124.152 128.319 123.56ZM130.943 124.636C130.615 125.26 130.459 125.978 130.459 126.789C130.459 127.6 130.615 128.318 130.959 128.926C131.302 129.55 131.77 130.018 132.394 130.361C133.018 130.704 133.735 130.86 134.578 130.86C135.529 130.86 136.325 130.611 136.965 130.08C137.604 129.566 137.994 128.895 138.15 128.084H136.465C136.341 128.536 136.107 128.879 135.763 129.129C135.405 129.378 134.968 129.488 134.453 129.488C133.798 129.488 133.267 129.285 132.877 128.879C132.472 128.474 132.253 127.928 132.222 127.226V127.132H138.244C138.275 126.914 138.291 126.711 138.291 126.492C138.275 125.728 138.103 125.057 137.76 124.48C137.417 123.918 136.965 123.466 136.372 123.154C135.779 122.842 135.108 122.686 134.344 122.686C133.579 122.686 132.909 122.858 132.316 123.201C131.723 123.544 131.271 124.012 130.943 124.636ZM136.575 125.9H132.285C132.347 125.338 132.565 124.901 132.971 124.558C133.377 124.215 133.845 124.043 134.406 124.043C134.999 124.043 135.483 124.215 135.873 124.542C136.263 124.87 136.497 125.322 136.575 125.9ZM139.653 119.847V130.767H141.337V128.723L142.757 127.226L145.128 130.767H147.125L143.958 125.993L146.938 122.78H144.988L141.337 126.68V119.847H139.653ZM148.031 119.847V130.767H149.716V119.847H148.031ZM151.555 124.636C151.227 125.26 151.071 125.978 151.071 126.789C151.071 127.6 151.227 128.318 151.571 128.926C151.914 129.55 152.382 130.018 153.006 130.361C153.63 130.704 154.347 130.86 155.19 130.86C156.141 130.86 156.937 130.611 157.577 130.08C158.216 129.566 158.606 128.895 158.762 128.084H157.077C156.953 128.536 156.719 128.879 156.375 129.129C156.017 129.378 155.58 129.488 155.065 129.488C154.41 129.488 153.879 129.285 153.489 128.879C153.084 128.474 152.865 127.928 152.834 127.226V127.132H158.856C158.887 126.914 158.903 126.711 158.903 126.492C158.887 125.728 158.715 125.057 158.372 124.48C158.029 123.918 157.577 123.466 156.984 123.154C156.391 122.842 155.72 122.686 154.956 122.686C154.191 122.686 153.521 122.858 152.928 123.201C152.335 123.544 151.883 124.012 151.555 124.636ZM157.187 125.9H152.897C152.959 125.338 153.177 124.901 153.583 124.558C153.989 124.215 154.457 124.043 155.018 124.043C155.611 124.043 156.095 124.215 156.485 124.542C156.875 124.87 157.109 125.322 157.187 125.9ZM164.679 122.78H164.305C163.681 122.78 163.197 122.889 162.839 123.107C162.464 123.326 162.168 123.606 161.949 123.981L161.762 122.78H160.265V130.767H161.949V126.758C161.949 126.071 162.105 125.494 162.417 125.042C162.729 124.589 163.229 124.355 163.931 124.355H164.679V122.78ZM167.325 119.878C167.122 119.691 166.872 119.582 166.591 119.582C166.295 119.582 166.045 119.691 165.858 119.878C165.655 120.065 165.562 120.315 165.562 120.596C165.562 120.892 165.655 121.142 165.858 121.329C166.045 121.516 166.295 121.61 166.591 121.61C166.872 121.61 167.122 121.516 167.325 121.329C167.512 121.142 167.621 120.892 167.621 120.596C167.621 120.315 167.512 120.065 167.325 119.878ZM165.749 122.78V130.767H167.434V122.78H165.749Z" fill="black"/>
</svg>
