<svg width="345" height="171" viewBox="0 0 345 171" fill="none" xmlns="http://www.w3.org/2000/svg">
<path d="M137.042 64.3116C144.886 64.6725 152.464 64.3351 160.186 64.3788C171.259 64.4408 182.322 64.4656 193.624 65.1785C200.566 65.6164 207.36 65.5487 214.372 66.1182C230.727 67.4463 247.015 68.4918 263.477 70.349C276.69 71.8399 289.888 73.2254 303.126 74.9374C314.861 76.4548 326.574 78.6004 338.294 80.6241C339.937 80.9077 341.591 81.3021 342.93 82.1514C342.623 83.0488 340.909 81.8654 340.609 82.6462C341.624 83.3067 344.341 82.9218 343.877 84.1204C343.499 85.1007 341.923 85.8755 339.472 85.703C336.067 85.462 332.817 84.3213 329.457 83.8801C314.56 81.9233 299.65 79.6937 284.782 78.2785C275.636 77.4087 266.423 76.2948 257.417 75.9624C252.425 75.778 247.313 74.6201 242.437 74.7827C241.239 74.8227 239.876 74.3731 238.951 75.1284C238.608 75.4085 236.865 75.8929 236.184 74.4289C236.042 74.1205 235.205 74.2151 234.661 74.1853C228.778 73.8818 222.683 73.1233 217.061 73.3533C211.586 73.5771 205.938 73.0211 200.444 73.0498C196.562 73.0701 192.328 71.8428 188.355 72.0402C186.714 72.1217 184.945 71.9442 183.457 72.3275L181.533 72.2001C177.109 71.7253 172.792 71.5412 168.735 72.0776C164.119 71.5625 159.598 71.5652 155.383 72.0855C150.538 71.8599 145.688 71.5206 141.352 72.5339C139.55 72.9544 137.191 72.7296 135.128 72.8703C128.096 73.352 121.091 73.8844 114.052 74.3519C112.749 74.4382 111.469 74.8279 109.936 74.1543C106.082 73.8625 102.631 74.2924 99.3177 74.9676C96.0358 75.7402 92.2064 75.6036 88.6423 75.883C84.0471 76.2431 79.59 76.5814 75.5844 77.8441C72.2887 78.883 67.9682 78.7329 64.2492 79.3907C56.1198 80.8279 47.6075 81.977 40.5366 84.4389C32.8471 87.1162 23.6861 88.2053 16.4928 91.3255C14.6583 92.1214 13.3074 93.2716 11.0117 93.7469C8.67431 94.2309 4.38905 93.4101 2.24795 91.5497C0.495938 90.0286 0.19629 88.4343 1.91515 87.1835C4.8588 85.0399 8.38568 83.3022 12.1281 81.7409C28.2303 75.0227 46.6757 70.77 66.1269 67.6217C85.129 64.5848 104.879 62.6093 125.187 61.7142C135.527 61.2382 146.092 61.3147 156.606 61.2504C167.425 61.1842 178.263 61.2154 189.273 61.7343C199.075 62.1963 208.942 62.9036 218.797 63.5827C230.341 64.3776 241.895 65.2712 253.487 66.4764C281.29 69.3676 309.13 72.5773 337.041 78.3701C338.923 78.7609 341.087 78.4993 342.815 79.9861C341.071 80.6229 339.077 80.2294 337.118 79.837C322.782 76.9645 308.455 74.8091 294.083 72.8379C272.898 69.9313 251.914 68.3054 230.873 66.2962C220.697 65.3246 210.638 65.079 200.499 64.3793C187.197 63.4615 174.115 63.2565 161.061 63.095C153.253 62.9979 145.461 63.0669 137.988 63.771C137.445 63.8223 136.993 63.9194 137.083 64.36C135.456 63.5999 134.058 64.0097 132.632 64.0555C121.528 64.4117 110.613 65.1313 99.7691 65.9945C92.9631 66.5363 86.3573 67.3993 79.6154 68.0425C72.521 68.7195 65.7718 70.0208 59.1141 71.3463C57.2289 71.7216 54.2901 71.3581 53.6605 73.0399C50.1402 72.3775 48.249 73.7163 45.96 74.565C48.6644 74.226 51.3977 73.9185 53.6055 72.9799C54.3429 72.9688 55.0625 72.918 55.757 72.8282C75.2492 69.1498 95.6136 66.8087 116.661 65.5141C123.445 65.0944 130.247 64.7107 137.042 64.3116ZM22.0521 80.9622C20.2543 81.2972 18.3717 81.5834 17.4554 82.6734C19.1682 82.2621 21.1398 82.0929 22.0521 80.9622Z" fill="#DEF5C0"/>
</svg>
