<svg width="255" height="156" viewBox="0 0 255 156" fill="none" xmlns="http://www.w3.org/2000/svg">
<rect x="0.199951" width="254.8" height="156" rx="10.4" fill="#F8F8F8"/>
<path d="M122.625 41.6001H119.159V45.2401C117.928 45.5001 116.957 46.0028 116.247 46.6441L111.705 42.1028L109.261 44.5641L114.375 49.6601C113.959 50.9428 113.959 52.0001 113.959 52.0001H110.492V55.4668H114.028C114.132 56.5588 114.323 57.8241 114.652 59.1934L109.937 60.7534L111.029 64.0468L115.692 62.4868C116.108 63.3708 116.559 64.2721 117.113 65.1388L112.988 67.8948L114.912 70.7721L119.28 67.8601C120.251 68.8308 121.395 69.6974 122.729 70.4428L121.065 73.7534L124.168 75.3134L125.901 71.8468L125.624 71.6908C127.271 72.2454 129.143 72.6268 131.292 72.7481V76.2668H134.759V72.6788C136.076 72.5228 137.896 72.1761 139.56 71.3961L142.195 74.0308L144.639 71.5694L142.333 69.2468C142.992 68.3628 143.425 67.2534 143.425 65.8668C143.425 65.0001 143.339 64.2721 143.217 63.5788L145.939 62.2268L144.379 59.1068L142.004 60.3028C141.051 58.8641 139.803 58.0668 138.728 57.6854L139.872 54.2881L136.579 53.1788L135.261 57.1308C132.956 56.9054 131.587 56.0214 130.772 55.0681L133.805 53.5601L132.245 50.4401L129.559 51.8094C129.438 50.5571 129.01 49.3541 128.311 48.3081L130.997 44.2868L128.12 42.3628L125.676 46.0374C124.844 45.6388 123.839 45.3268 122.625 45.1708M133.025 69.3334C127.929 69.3334 124.029 67.9121 121.429 65.1041C116.871 60.1814 117.425 52.3468 117.425 52.2948V52.0521C117.425 50.4401 118.101 48.5334 120.892 48.5334C125.451 48.5334 126.04 51.0121 126.092 52.0001C126.092 55.4668 128.865 60.6668 136.492 60.6668C137.064 60.6668 139.959 60.9268 139.959 65.8668C139.959 69.1428 133.077 69.3334 133.025 69.3334ZM121.759 52.0001C121.069 52.0001 120.408 52.274 119.92 52.7616C119.432 53.2492 119.159 53.9105 119.159 54.6001C119.159 55.2897 119.432 55.951 119.92 56.4386C120.408 56.9262 121.069 57.2001 121.759 57.2001C122.448 57.2001 123.109 56.9262 123.597 56.4386C124.085 55.951 124.359 55.2897 124.359 54.6001C124.359 53.9105 124.085 53.2492 123.597 52.7616C123.109 52.274 122.448 52.0001 121.759 52.0001ZM126.092 58.9334C125.632 58.9334 125.191 59.1161 124.866 59.4411C124.541 59.7662 124.359 60.2071 124.359 60.6668C124.359 61.1265 124.541 61.5674 124.866 61.8924C125.191 62.2175 125.632 62.4001 126.092 62.4001C126.552 62.4001 126.992 62.2175 127.318 61.8924C127.643 61.5674 127.825 61.1265 127.825 60.6668C127.825 60.2071 127.643 59.7662 127.318 59.4411C126.992 59.1161 126.552 58.9334 126.092 58.9334ZM133.892 62.4001C133.202 62.4001 132.541 62.674 132.053 63.1616C131.566 63.6492 131.292 64.3105 131.292 65.0001C131.292 65.6897 131.566 66.351 132.053 66.8386C132.541 67.3262 133.202 67.6001 133.892 67.6001C134.581 67.6001 135.243 67.3262 135.73 66.8386C136.218 66.351 136.492 65.6897 136.492 65.0001C136.492 64.3105 136.218 63.6492 135.73 63.1616C135.243 62.674 134.581 62.4001 133.892 62.4001Z" fill="black"/>
<path d="M27.833 111.767H29.6894L30.7034 109.068H35.1806L36.2102 111.767H38.129L34.0574 100.847H31.9202L27.833 111.767ZM31.2026 107.539L32.9342 102.781L34.6814 107.539H31.2026ZM45.5979 104.56C45.0051 103.982 44.2251 103.686 43.2891 103.686C42.1815 103.686 41.3235 104.076 40.7307 104.825L40.5435 103.78H39.0771V111.767H40.7619V107.742C40.7619 106.931 40.9491 106.307 41.3235 105.839C41.6979 105.371 42.2283 105.137 42.8991 105.137C43.5231 105.137 43.9911 105.34 44.3187 105.73C44.6307 106.135 44.8023 106.712 44.8023 107.461V111.767H46.5027V107.368C46.5027 106.088 46.1907 105.152 45.5979 104.56ZM48.5498 105.262V109.598C48.5498 110.347 48.7214 110.893 49.0646 111.236C49.4078 111.595 49.9694 111.767 50.7338 111.767H52.3562V110.285H51.077C50.765 110.285 50.5622 110.222 50.4374 110.098C50.3126 109.973 50.2502 109.739 50.2502 109.427V105.262H52.169V103.78H50.2502V101.549H48.5498V103.78H47.1614V105.262H48.5498ZM54.8359 100.878C54.6331 100.691 54.3835 100.582 54.1027 100.582C53.8063 100.582 53.5567 100.691 53.3695 100.878C53.1667 101.065 53.0731 101.315 53.0731 101.596C53.0731 101.892 53.1667 102.142 53.3695 102.329C53.5567 102.516 53.8063 102.61 54.1027 102.61C54.3835 102.61 54.6331 102.516 54.8359 102.329C55.0231 102.142 55.1323 101.892 55.1323 101.596C55.1323 101.315 55.0231 101.065 54.8359 100.878ZM53.2603 103.78V111.767H54.9451V103.78H53.2603ZM62.8211 104.185C62.2439 103.858 61.5887 103.686 60.8711 103.686C59.7791 103.686 58.9055 104.123 58.2815 104.965V100.847H56.5967V111.767H58.0631L58.2659 110.612C58.5311 111.002 58.8899 111.314 59.3267 111.533C59.7635 111.751 60.2783 111.86 60.8711 111.86C61.5887 111.86 62.2439 111.689 62.8211 111.346C63.3827 111.002 63.8351 110.534 64.1627 109.91C64.4747 109.286 64.6463 108.584 64.6463 107.773C64.6463 106.931 64.4747 106.213 64.1627 105.589C63.8351 104.981 63.3827 104.513 62.8211 104.185ZM62.2751 109.708C61.8383 110.207 61.2767 110.441 60.5903 110.441C59.8883 110.441 59.3267 110.191 58.9055 109.692C58.4687 109.193 58.2659 108.553 58.2659 107.758C58.2659 106.978 58.4687 106.354 58.9055 105.854C59.3267 105.371 59.8883 105.121 60.5903 105.121C61.2767 105.121 61.8383 105.371 62.2751 105.87C62.7119 106.369 62.9303 106.993 62.9303 107.773C62.9303 108.569 62.7119 109.208 62.2751 109.708ZM73.6403 110.3H73.3127C72.9539 110.3 72.7823 110.113 72.7823 109.739V106.588C72.7823 105.652 72.4859 104.934 71.9087 104.435C71.3159 103.936 70.4891 103.686 69.4283 103.686C68.4143 103.686 67.6031 103.92 66.9791 104.357C66.3551 104.794 65.9963 105.418 65.9183 106.213H67.5719C67.6343 105.87 67.8215 105.589 68.1335 105.371C68.4455 105.152 68.8511 105.043 69.3503 105.043C69.8963 105.043 70.3331 105.184 70.6451 105.433C70.9571 105.683 71.1131 106.042 71.1131 106.478V106.962H69.1007C67.9775 106.962 67.1351 107.196 66.5579 107.633C65.9651 108.07 65.6843 108.709 65.6843 109.52C65.6843 110.254 65.9495 110.831 66.4955 111.236C67.0259 111.658 67.7435 111.86 68.6483 111.86C69.8027 111.86 70.6763 111.408 71.2847 110.488C71.2847 110.909 71.3939 111.221 71.6279 111.439C71.8463 111.658 72.2207 111.767 72.7511 111.767H73.6403V110.3ZM71.1131 108.21V108.491C71.0975 109.115 70.8947 109.614 70.5047 109.988C70.1147 110.363 69.5687 110.55 68.8823 110.55C68.4143 110.55 68.0555 110.456 67.7903 110.238C67.5251 110.035 67.4003 109.754 67.4003 109.411C67.4003 109.021 67.5407 108.725 67.8215 108.522C68.1023 108.319 68.4923 108.21 69.0227 108.21H71.1131ZM74.558 100.847V111.767H76.2428V109.723L77.6624 108.226L80.0336 111.767H82.0304L78.8636 106.993L81.8432 103.78H79.8932L76.2428 107.68V100.847H74.558ZM82.815 101.549V109.598C82.815 110.347 82.9866 110.893 83.3298 111.236C83.673 111.595 84.219 111.767 84.9834 111.767H86.6058V110.285H85.3266C85.0146 110.285 84.8118 110.222 84.687 110.098C84.5622 109.973 84.4998 109.739 84.4998 109.427V105.262H86.4342V103.78H84.4998V101.549H82.815ZM87.5421 105.636C87.2145 106.26 87.0585 106.978 87.0585 107.789C87.0585 108.6 87.2145 109.318 87.5577 109.926C87.9009 110.55 88.3689 111.018 88.9929 111.361C89.6169 111.704 90.3345 111.86 91.1769 111.86C92.1285 111.86 92.9241 111.611 93.5637 111.08C94.2033 110.566 94.5933 109.895 94.7493 109.084H93.0645C92.9397 109.536 92.7057 109.879 92.3625 110.129C92.0037 110.378 91.5669 110.488 91.0521 110.488C90.3969 110.488 89.8665 110.285 89.4765 109.879C89.0709 109.474 88.8525 108.928 88.8213 108.226V108.132H94.8429C94.8741 107.914 94.8897 107.711 94.8897 107.492C94.8741 106.728 94.7025 106.057 94.3593 105.48C94.0161 104.918 93.5637 104.466 92.9709 104.154C92.3781 103.842 91.7073 103.686 90.9429 103.686C90.1785 103.686 89.5077 103.858 88.9149 104.201C88.3221 104.544 87.8697 105.012 87.5421 105.636ZM93.1737 106.9H88.8837C88.9461 106.338 89.1645 105.901 89.5701 105.558C89.9757 105.215 90.4437 105.043 91.0053 105.043C91.5981 105.043 92.0817 105.215 92.4717 105.542C92.8617 105.87 93.0957 106.322 93.1737 106.9ZM100.667 103.78H100.292C99.6681 103.78 99.1845 103.889 98.8257 104.107C98.4513 104.326 98.1549 104.606 97.9365 104.981L97.7493 103.78H96.2517V111.767H97.9365V107.758C97.9365 107.071 98.0925 106.494 98.4045 106.042C98.7165 105.589 99.2157 105.355 99.9178 105.355H100.667V103.78ZM103.312 100.878C103.109 100.691 102.859 100.582 102.579 100.582C102.282 100.582 102.033 100.691 101.845 100.878C101.643 101.065 101.549 101.315 101.549 101.596C101.549 101.892 101.643 102.142 101.845 102.329C102.033 102.516 102.282 102.61 102.579 102.61C102.859 102.61 103.109 102.516 103.312 102.329C103.499 102.142 103.608 101.892 103.608 101.596C103.608 101.315 103.499 101.065 103.312 100.878ZM101.736 103.78V111.767H103.421V103.78H101.736ZM106.071 103.78H104.277L107.397 111.829L107.069 112.594C106.929 112.937 106.804 113.171 106.679 113.264C106.554 113.358 106.32 113.405 106.008 113.405H104.823V114.887H106.632C107.007 114.887 107.319 114.824 107.553 114.7C107.771 114.575 107.974 114.372 108.13 114.122C108.286 113.873 108.458 113.498 108.645 113.015L112.264 103.78H110.47L108.302 109.942L106.071 103.78ZM112.999 105.636C112.671 106.26 112.515 106.978 112.515 107.789C112.515 108.6 112.671 109.318 113.014 109.926C113.358 110.55 113.826 111.018 114.45 111.361C115.074 111.704 115.791 111.86 116.634 111.86C117.585 111.86 118.381 111.611 119.02 111.08C119.66 110.566 120.05 109.895 120.206 109.084H118.521C118.396 109.536 118.162 109.879 117.819 110.129C117.46 110.378 117.024 110.488 116.509 110.488C115.854 110.488 115.323 110.285 114.933 109.879C114.528 109.474 114.309 108.928 114.278 108.226V108.132H120.3C120.331 107.914 120.346 107.711 120.346 107.492C120.331 106.728 120.159 106.057 119.816 105.48C119.473 104.918 119.02 104.466 118.428 104.154C117.835 103.842 117.164 103.686 116.4 103.686C115.635 103.686 114.964 103.858 114.372 104.201C113.779 104.544 113.326 105.012 112.999 105.636ZM118.63 106.9H114.34C114.403 106.338 114.621 105.901 115.027 105.558C115.432 105.215 115.9 105.043 116.462 105.043C117.055 105.043 117.538 105.215 117.928 105.542C118.318 105.87 118.552 106.322 118.63 106.9ZM121.708 100.847V111.767H123.393V100.847H121.708ZM129.036 100.847V111.767H130.721V109.723L132.141 108.226L134.512 111.767H136.509L133.342 106.993L136.321 103.78H134.371L130.721 107.68V100.847H129.036ZM144.815 110.3H144.488C144.129 110.3 143.957 110.113 143.957 109.739V106.588C143.957 105.652 143.661 104.934 143.084 104.435C142.491 103.936 141.664 103.686 140.603 103.686C139.589 103.686 138.778 103.92 138.154 104.357C137.53 104.794 137.171 105.418 137.093 106.213H138.747C138.809 105.87 138.996 105.589 139.308 105.371C139.62 105.152 140.026 105.043 140.525 105.043C141.071 105.043 141.508 105.184 141.82 105.433C142.132 105.683 142.288 106.042 142.288 106.478V106.962H140.276C139.152 106.962 138.31 107.196 137.733 107.633C137.14 108.07 136.859 108.709 136.859 109.52C136.859 110.254 137.124 110.831 137.67 111.236C138.201 111.658 138.918 111.86 139.823 111.86C140.978 111.86 141.851 111.408 142.46 110.488C142.46 110.909 142.569 111.221 142.803 111.439C143.021 111.658 143.396 111.767 143.926 111.767H144.815V110.3ZM142.288 108.21V108.491C142.272 109.115 142.07 109.614 141.68 109.988C141.29 110.363 140.744 110.55 140.057 110.55C139.589 110.55 139.23 110.456 138.965 110.238C138.7 110.035 138.575 109.754 138.575 109.411C138.575 109.021 138.716 108.725 138.996 108.522C139.277 108.319 139.667 108.21 140.198 108.21H142.288ZM146.248 105.262V109.598C146.248 110.347 146.419 110.893 146.763 111.236C147.106 111.595 147.667 111.767 148.432 111.767H150.054V110.285H148.775C148.463 110.285 148.26 110.222 148.135 110.098C148.011 109.973 147.948 109.739 147.948 109.427V105.262H149.867V103.78H147.948V101.549H146.248V103.78H144.859V105.262H146.248ZM150.958 100.847V111.767H152.643V109.723L154.063 108.226L156.434 111.767H158.431L155.264 106.993L158.244 103.78H156.294L152.643 107.68V100.847H150.958ZM159.337 103.78V111.767H161.022V103.78H159.337ZM166.665 100.847V111.767H168.35V109.723L169.769 108.226L172.141 111.767H174.137L170.971 106.993L173.95 103.78H172L168.35 107.68V100.847H166.665ZM182.082 103.78H180.398V107.742C180.398 108.569 180.21 109.224 179.852 109.692C179.477 110.16 178.978 110.394 178.338 110.394C177.714 110.394 177.262 110.191 176.95 109.786C176.638 109.38 176.482 108.787 176.482 108.007V103.78H174.797V108.179C174.797 109.474 175.078 110.41 175.671 110.987C176.248 111.58 177.012 111.86 177.948 111.86C178.978 111.86 179.805 111.502 180.413 110.753L180.6 111.767H182.082V103.78ZM183.743 100.847V111.767H185.428V100.847H183.743ZM187.079 100.847V111.767H188.764V100.847H187.079ZM198.059 110.3H197.732C197.373 110.3 197.201 110.113 197.201 109.739V106.588C197.201 105.652 196.905 104.934 196.328 104.435C195.735 103.936 194.908 103.686 193.847 103.686C192.833 103.686 192.022 103.92 191.398 104.357C190.774 104.794 190.415 105.418 190.337 106.213H191.991C192.053 105.87 192.241 105.589 192.553 105.371C192.865 105.152 193.27 105.043 193.769 105.043C194.315 105.043 194.752 105.184 195.064 105.433C195.376 105.683 195.532 106.042 195.532 106.478V106.962H193.52C192.397 106.962 191.554 107.196 190.977 107.633C190.384 108.07 190.103 108.709 190.103 109.52C190.103 110.254 190.369 110.831 190.915 111.236C191.445 111.658 192.163 111.86 193.067 111.86C194.222 111.86 195.095 111.408 195.704 110.488C195.704 110.909 195.813 111.221 196.047 111.439C196.265 111.658 196.64 111.767 197.17 111.767H198.059V110.3ZM195.532 108.21V108.491C195.517 109.115 195.314 109.614 194.924 109.988C194.534 110.363 193.988 110.55 193.301 110.55C192.833 110.55 192.475 110.456 192.209 110.238C191.944 110.035 191.819 109.754 191.819 109.411C191.819 109.021 191.96 108.725 192.241 108.522C192.521 108.319 192.911 108.21 193.442 108.21H195.532ZM205.498 104.56C204.905 103.982 204.125 103.686 203.189 103.686C202.082 103.686 201.224 104.076 200.631 104.825L200.444 103.78H198.977V111.767H200.662V107.742C200.662 106.931 200.849 106.307 201.224 105.839C201.598 105.371 202.128 105.137 202.799 105.137C203.423 105.137 203.891 105.34 204.219 105.73C204.531 106.135 204.702 106.712 204.702 107.461V111.767H206.403V107.368C206.403 106.088 206.091 105.152 205.498 104.56ZM207.935 103.78V111.767H209.62V103.78H207.935ZM222.628 104.544C222.066 103.982 221.364 103.686 220.491 103.686C219.836 103.686 219.29 103.826 218.837 104.076C218.369 104.326 218.01 104.684 217.73 105.137C217.496 104.653 217.168 104.294 216.747 104.045C216.31 103.811 215.826 103.686 215.265 103.686C214.266 103.702 213.486 104.076 212.925 104.825L212.738 103.78H211.271V111.767H212.956V107.492C212.956 106.775 213.112 106.213 213.455 105.776C213.798 105.355 214.251 105.137 214.828 105.137C215.374 105.137 215.795 105.324 216.076 105.683C216.357 106.042 216.513 106.572 216.513 107.274V111.767H218.213V107.446C218.213 106.728 218.369 106.166 218.712 105.761C219.056 105.355 219.508 105.137 220.101 105.137C220.647 105.137 221.068 105.324 221.349 105.683C221.63 106.057 221.77 106.588 221.77 107.274V111.767H223.455V107.258C223.455 106.01 223.174 105.106 222.628 104.544ZM224.982 103.78V111.767H226.667V103.78H224.982Z" fill="black"/>
</svg>
