<svg width="139" height="32" viewBox="0 0 139 32" fill="none" xmlns="http://www.w3.org/2000/svg">
<path d="M16.32 0.807983C16 0.807983 15.84 0.999985 15.84 1.28798V2.27998C15.84 2.56798 16 2.75998 16.32 2.75998H16.48C18.112 2.82398 18.656 4.10398 18.656 5.79998V15.72C18.656 19.592 17.344 22.408 13.632 22.408C8.64 22.408 7.968 19.304 7.968 15.72V5.79998C7.968 4.10398 8.48 2.82398 10.112 2.75998H10.304C10.624 2.75998 10.784 2.56798 10.784 2.27998V1.28798C10.784 0.999985 10.624 0.807983 10.304 0.807983H0.48C0.16 0.807983 0 0.999985 0 1.28798V2.27998C0 2.56798 0.16 2.75998 0.48 2.75998H0.672C2.304 2.82398 2.848 4.10398 2.848 5.79998V16.36C2.848 21.896 6.368 25.224 12.704 25.224C19.072 25.224 21.888 21.896 21.888 16.04V5.79998C21.888 4.10398 22.4 2.82398 24.032 2.75998H24.256C24.544 2.75998 24.736 2.56798 24.736 2.27998V1.28798C24.736 0.999985 24.544 0.807983 24.256 0.807983H16.32Z" fill="#111D30"/>
<path d="M30.106 8.45598C30.106 8.39198 30.074 8.35999 30.042 8.35999H29.978C29.882 8.35999 29.754 8.39198 29.69 8.42398C28.282 9.06398 26.97 9.67198 23.834 9.67198C23.514 9.67198 23.354 9.79998 23.354 10.088V11.176C23.354 11.4 23.418 11.56 23.738 11.592C25.498 11.784 25.626 13.544 25.626 15.272V26.248C25.658 27.976 24.858 29.288 23.29 29.288C22.97 29.288 22.81 29.448 22.81 29.768V30.728C22.81 31.048 22.97 31.208 23.29 31.208H32.442C32.762 31.208 32.922 31.048 32.922 30.728V29.768C32.922 29.448 32.762 29.288 32.442 29.288C30.874 29.288 30.074 27.976 30.074 26.248V23.72C31.226 24.68 32.634 25.192 34.234 25.192C38.106 25.192 41.722 22.728 41.722 16.808C41.722 10.632 37.498 8.35999 34.618 8.35999C31.322 8.35999 30.074 10.472 29.722 11.304L30.106 8.45598ZM30.074 13.288C30.074 13.288 30.81 11.208 33.178 11.208C35.802 11.208 37.594 13.736 37.594 17.864C37.594 20.488 36.762 23.112 33.658 23.112C31.546 23.112 30.33 21.128 30.074 19.144V13.288Z" fill="#111D30"/>
<path d="M48.7085 8.45598C48.7085 8.39198 48.6765 8.35999 48.6445 8.35999H48.5805C48.4845 8.35999 48.3565 8.39198 48.2925 8.42398C46.8845 9.06398 45.5725 9.67198 42.4365 9.67198C42.1165 9.67198 41.9565 9.79998 41.9565 10.088V11.176C41.9565 11.4 42.0205 11.56 42.3405 11.592C44.1005 11.784 44.2285 13.544 44.2285 15.272V26.248C44.2605 27.976 43.4605 29.288 41.8925 29.288C41.5725 29.288 41.4125 29.448 41.4125 29.768V30.728C41.4125 31.048 41.5725 31.208 41.8925 31.208H51.0445C51.3645 31.208 51.5245 31.048 51.5245 30.728V29.768C51.5245 29.448 51.3645 29.288 51.0445 29.288C49.4765 29.288 48.6765 27.976 48.6765 26.248V23.72C49.8285 24.68 51.2365 25.192 52.8365 25.192C56.7085 25.192 60.3245 22.728 60.3245 16.808C60.3245 10.632 56.1005 8.35999 53.2205 8.35999C49.9245 8.35999 48.6765 10.472 48.3245 11.304L48.7085 8.45598ZM48.6765 13.288C48.6765 13.288 49.4125 11.208 51.7805 11.208C54.4045 11.208 56.1965 13.736 56.1965 17.864C56.1965 20.488 55.3645 23.112 52.2605 23.112C50.1485 23.112 48.9325 21.128 48.6765 19.144V13.288Z" fill="#111D30"/>
<path d="M75.2 15.048C75.392 14.952 75.456 14.824 75.456 14.632C75.456 12.232 73.12 8.45598 68.864 8.45598C65.12 8.45598 61.28 10.728 61.28 16.68C61.28 21.32 64.544 25.192 69.856 25.192C73.088 25.192 75.072 23.72 76.256 21.48C76.352 21.288 76.48 21.096 76.48 20.904C76.48 20.808 76.416 20.712 76.32 20.68C75.296 20.072 75.264 20.04 75.072 20.04C74.976 20.04 74.848 20.072 74.784 20.168C73.664 21.8 72.064 22.536 70.72 22.536C68.224 22.536 66.624 20.872 65.92 19.112L75.2 15.048ZM65.536 17.096C65.248 16.36 65.216 15.304 65.216 14.664C65.216 12.584 66.336 10.984 68.096 10.984C69.568 10.984 70.656 12.488 70.656 14.504L65.536 17.096Z" fill="#111D30"/>
<path d="M83.8005 7.87998C83.8005 7.81598 83.8005 7.81598 83.7685 7.81598H83.6725C83.6405 7.81598 83.5765 7.84798 83.5445 7.91199C82.6805 8.51999 80.2485 9.76798 77.2085 10.248C76.8885 10.28 76.7605 10.408 76.7605 10.664V11.752C76.7285 11.976 76.8245 12.136 77.1125 12.168C78.9045 12.36 79.0005 14.12 79.0005 15.848V19.848C79.0005 21.608 78.2645 22.888 76.6965 22.888H76.6325C76.3125 22.888 76.1525 23.08 76.1525 23.368V24.328C76.1525 24.648 76.3125 24.808 76.6325 24.808H85.9125C86.2325 24.808 86.3925 24.648 86.3925 24.328V23.368C86.3925 23.08 86.2325 22.888 85.9125 22.888H85.8805C84.3125 22.888 83.5125 21.608 83.5125 19.848V13.96C83.9925 12.808 85.2725 11.208 86.7125 11.208C87.6085 11.208 88.2485 11.688 88.2485 12.84C88.2485 13.288 88.1845 13.832 87.9285 14.472C87.8965 14.568 87.8965 14.664 87.8965 14.728C87.8965 14.92 87.9925 15.048 88.1845 15.048C88.2485 15.048 88.3445 15.016 88.4725 14.984L91.4485 13.736C92.2165 13.416 92.2805 12.68 92.2805 11.72C92.2805 9.51198 90.6805 8.42398 88.6645 8.42398C86.3925 8.42398 84.2165 9.70398 83.0325 12.168L83.8005 7.87998Z" fill="#111D30"/>
<path d="M105.484 19.912C105.356 19.848 105.26 19.816 105.164 19.816C105.036 19.816 104.909 19.912 104.812 20.072C103.853 21.48 102.477 22.216 101.229 22.344C101.036 22.376 100.844 22.376 100.652 22.376C97.4205 22.376 96.2685 19.432 96.2685 16.232C96.2685 15.848 96.3005 15.432 96.3325 15.048C96.5245 12.84 97.4845 10.984 99.5325 10.984C101.421 10.984 102.252 12.072 102.124 13.896L102.092 14.216C102.092 14.376 102.188 14.44 102.348 14.44C102.444 14.44 102.508 14.44 102.636 14.408L106.316 13.416C106.54 13.352 106.668 13.224 106.668 13V12.872C106.22 10.856 104.748 8.74398 100.844 8.48798L100.269 8.45598C96.6525 8.45598 92.6205 10.76 92.1725 16.072C91.8205 20.616 94.9885 25.128 99.7885 25.128C100.076 25.128 100.364 25.096 100.652 25.064C103.692 24.776 105.484 23.272 106.508 21.16C106.604 20.904 106.54 20.68 106.316 20.52L105.484 19.912Z" fill="#111D30"/>
<path d="M124.998 9.31998C124.998 8.99998 124.838 8.83998 124.518 8.83998H118.086C117.798 8.83998 117.606 8.99998 117.606 9.31998V10.28C117.606 10.568 117.798 10.76 118.086 10.76H118.15C119.718 10.76 120.518 12.072 120.518 13.8V19.688C119.942 21.032 118.214 22.408 116.614 22.408C114.15 22.408 114.31 20.36 114.31 18.6V9.31998C114.31 8.99998 114.15 8.83998 113.83 8.83998H107.334C107.014 8.83998 106.854 8.99998 106.854 9.31998V10.28C106.854 10.6 107.014 10.76 107.334 10.76H107.462C109.03 10.76 109.798 12.072 109.798 13.8V19.08C109.83 22.12 110.662 25.224 115.238 25.224C118.182 25.224 120.134 22.92 121.03 21.096L120.55 25.128C120.518 25.192 120.55 25.224 120.582 25.224H120.646C120.742 25.224 120.87 25.192 120.934 25.16C122.374 24.552 123.654 23.944 126.79 23.944C127.11 23.944 127.27 23.784 127.27 23.528V22.44C127.27 22.216 127.206 22.056 126.886 22.024C125.126 21.832 124.998 20.072 124.998 18.344V9.31998Z" fill="#111D30"/>
<path d="M138.202 21.704C138.107 21.544 137.979 21.448 137.818 21.448C137.755 21.448 137.659 21.48 137.531 21.544L137.499 21.576C136.859 21.992 135.962 22.472 135.227 22.472C134.491 22.472 133.915 21.96 133.915 20.296V11.144H138.171C138.491 11.144 138.65 10.984 138.65 10.664V9.28798C138.65 8.99998 138.491 8.80799 138.171 8.80799H133.882V3.43198C133.882 3.39998 133.85 3.39998 133.818 3.39998H133.755C133.723 3.39998 133.658 3.43198 133.626 3.46398C132.314 4.58398 130.618 5.60798 129.691 6.08798C129.467 6.21598 129.402 6.43999 129.402 6.69598V8.80799H127.098C126.778 8.80799 126.618 8.99998 126.618 9.28798V10.248C126.618 10.568 126.778 10.728 127.098 10.728C129.402 10.728 129.402 12.68 129.402 14.376V20.296C129.402 24.072 131.131 25.224 133.115 25.224C134.715 25.224 136.475 24.488 137.594 23.784L138.555 23.176C138.715 23.08 138.811 22.952 138.811 22.792C138.811 22.696 138.778 22.6 138.714 22.504L138.202 21.704Z" fill="#111D30"/>
</svg>
