<svg width="190" height="33" viewBox="0 0 190 33" fill="none" xmlns="http://www.w3.org/2000/svg">
<path d="M9.472 0.0799561H0V32.08H9.472V30.096H2.24V2.06396H9.472V0.0799561Z" fill="#111D30"/>
<path d="M22.9327 7.75996C19.1567 7.75996 16.6927 9.71196 16.2127 12.816H18.5807C18.9967 10.992 20.2127 9.64796 22.9327 9.64796C25.5247 9.64796 26.7087 10.544 26.7087 13.072V14.704C17.5887 16.784 15.9567 19.6 15.9887 24.08H18.2287C18.2287 20.976 19.2527 18.768 26.7087 16.752V24.08H28.9487V12.912C28.9487 9.16796 26.1327 7.75996 22.9327 7.75996Z" fill="#111D30"/>
<path d="M35.7535 24.08H37.9935V0.0799561H35.7535V24.08Z" fill="#111D30"/>
<path d="M50.6435 18.864L50.6755 10.128H58.8675V8.04796H50.6755V1.67996H48.4355V8.04796H42.7395V10.128H48.4355L48.4035 18.864C48.4035 23.216 49.8115 25.072 59.1235 24.08V21.968C51.5075 22.832 50.6435 21.84 50.6435 18.864Z" fill="#111D30"/>
<path d="M62.0882 16.08C62.0882 20.784 65.5122 24.4 70.2482 24.4C75.3362 24.4 78.2162 20.88 78.2162 16.08C78.2162 11.248 74.9522 7.75996 70.2482 7.75996C65.5442 7.75996 62.0882 11.376 62.0882 16.08ZM64.3602 15.12C64.7442 12.016 67.0482 9.83996 70.2482 9.83996C73.5442 9.83996 75.7203 11.92 76.0723 15.12H64.3602ZM64.3602 17.072H76.1042C75.8802 20.336 73.6402 22.32 70.2482 22.32C67.0162 22.32 64.7442 20.176 64.3602 17.072Z" fill="#111D30"/>
<path d="M97.437 10.32V8.07996C91.997 6.95996 88.541 9.42396 87.293 13.296L87.421 8.07996H85.181L85.213 24.08H87.453L87.421 16.432C87.421 13.424 90.973 8.94396 97.437 10.32Z" fill="#111D30"/>
<path d="M108.21 18.864L108.242 10.128H116.434V8.04796H108.242V1.67996H106.002V8.04796H100.306V10.128H106.002L105.97 18.864C105.97 23.216 107.378 25.072 116.69 24.08V21.968C109.074 22.832 108.21 21.84 108.21 18.864Z" fill="#111D30"/>
<path d="M118.919 8.07996L126.375 23.984L122.662 31.44H125.19L136.199 8.07996H133.542L127.59 21.456L121.639 8.07996H118.919Z" fill="#111D30"/>
<path d="M147.547 7.75996C144.795 7.75996 143.259 8.81596 141.883 10.512V8.07996H139.643V31.44H141.883V21.648C143.099 23.248 144.827 24.4 147.547 24.4C152.251 24.4 155.419 20.816 155.419 16.08C155.419 11.376 152.251 7.75996 147.547 7.75996ZM147.547 9.87196C151.099 9.87196 153.147 12.528 153.147 16.08C153.147 19.536 151.131 22.288 147.547 22.288C144.091 22.288 141.883 19.824 141.883 16.08C141.883 12.496 143.963 9.87196 147.547 9.87196Z" fill="#111D30"/>
<path d="M158.032 16.08C158.032 20.784 161.456 24.4 166.192 24.4C171.28 24.4 174.16 20.88 174.16 16.08C174.16 11.248 170.896 7.75996 166.192 7.75996C161.488 7.75996 158.032 11.376 158.032 16.08ZM160.304 15.12C160.688 12.016 162.992 9.83996 166.192 9.83996C169.488 9.83996 171.664 11.92 172.016 15.12H160.304ZM160.304 17.072H172.048C171.824 20.336 169.584 22.32 166.192 22.32C162.96 22.32 160.688 20.176 160.304 17.072Z" fill="#111D30"/>
<path d="M179.749 0.0799561V2.06396H186.981V30.096H179.749V32.08H189.221V0.0799561H179.749Z" fill="#111D30"/>
</svg>
