<svg width="145" height="21" viewBox="0 0 145 21" fill="none" xmlns="http://www.w3.org/2000/svg">
<path d="M0 20.3143H20.4306C23.875 20.3143 25.75 18.4393 25.75 14.9809V13.7309C25.75 10.2865 23.875 8.41149 20.4306 8.41149H17.2361V6.20315C17.2361 2.74482 15.3472 0.869819 11.9028 0.869819H0V5.24482H10.7917C12.1528 5.24482 12.375 5.45315 12.375 6.82815V8.41149H0.180556V12.7726H19.3056C20.6806 12.7726 20.8889 12.9948 20.8889 14.3559C20.8889 15.7309 20.6806 15.9393 19.3056 15.9393H0V20.3143Z" fill="#111D30"/>
<path d="M38.6313 8.41149V12.7726H47.548V8.41149H38.6313ZM38.4507 20.3143H62.673V15.9393H38.4507V20.3143ZM38.4507 5.24482H62.3119V0.869819H38.4507V5.24482Z" fill="#111D30"/>
<path d="M102.41 20.592H104.841V0.869819H99.9796V13.5087L80.1879 0.592041H77.7574V20.3143H82.6185V7.48093L102.41 20.592Z" fill="#111D30"/>
<path d="M139.535 0.869819H119.327V5.24482H138.41C139.785 5.24482 139.994 5.45315 139.994 6.82815V14.3559C139.994 15.7309 139.785 15.9393 138.41 15.9393H119.327V20.3143H139.535C142.98 20.3143 144.855 18.4393 144.855 14.9809V6.20315C144.855 2.74482 142.98 0.869819 139.535 0.869819Z" fill="#111D30"/>
</svg>
