<svg width="256" height="156" viewBox="0 0 256 156" fill="none" xmlns="http://www.w3.org/2000/svg">
<rect x="0.399902" width="254.8" height="156" rx="10.4" fill="#F8F8F8"/>
<path d="M122.011 62.5214C118.995 62.5214 116.533 60.0774 116.533 57.0788C116.533 55.8481 116.984 54.6694 117.729 53.7334C117.001 52.7974 116.533 51.6188 116.533 50.3881C116.533 47.3894 119.012 44.9454 122.011 44.9454L122.756 44.9974C123.165 43.9948 123.863 43.1364 124.761 42.5315C125.659 41.9266 126.717 41.6024 127.8 41.6001C130.071 41.6001 132.029 43.0041 132.844 44.9974L133.589 44.9454C136.588 44.9454 139.067 47.3894 139.067 50.3881C139.067 51.6188 138.616 52.7974 137.871 53.7334C138.599 54.6694 139.067 55.8481 139.067 57.0788C139.067 60.0774 136.588 62.5214 133.589 62.5214L132.844 62.4694C132.435 63.4721 131.737 64.3304 130.839 64.9354C129.941 65.5403 128.883 65.8645 127.8 65.8668C126.717 65.8645 125.659 65.5403 124.761 64.9354C123.863 64.3304 123.165 63.4721 122.756 62.4694L122.011 62.5214ZM127.8 62.4001C128.875 62.4001 129.741 61.5334 129.776 60.4934L129.585 58.6041C129.031 58.8121 128.424 58.9334 127.8 58.9334C127.176 58.9334 126.587 58.8121 126.067 58.6041L125.824 60.4934C125.859 61.5334 126.725 62.4001 127.8 62.4001ZM133.589 59.0548C134.681 59.0548 135.6 58.1708 135.6 57.0614C135.6 56.3334 135.132 55.6054 134.439 55.2761L132.913 54.5481C132.705 55.8308 132.029 56.9401 131.076 57.7201L132.48 58.7081C132.792 58.9334 133.173 59.0548 133.589 59.0548ZM132.463 48.7588L131.041 49.7294C132.012 50.5094 132.688 51.6188 132.896 52.8668L134.421 52.1734C135.132 51.8268 135.6 51.1334 135.6 50.3881C135.6 49.2961 134.681 48.4121 133.589 48.4121C133.191 48.4121 132.809 48.5334 132.463 48.7588ZM127.8 45.0668C126.725 45.0668 125.859 45.9334 125.824 46.9734L126.067 48.8628C126.587 48.6548 127.176 48.5334 127.8 48.5334C128.424 48.5334 129.031 48.6548 129.585 48.8628L129.776 46.9734C129.741 45.9334 128.875 45.0668 127.8 45.0668ZM122.011 48.4121C120.919 48.4121 120 49.2961 120 50.3881C120 51.1334 120.468 51.8268 121.161 52.1734L122.687 52.8668C122.895 51.6188 123.571 50.5094 124.524 49.7294L123.12 48.7588C122.808 48.5334 122.427 48.4121 122.011 48.4121ZM121.161 55.2934C120.468 55.6401 120 56.3334 120 57.0614C120 58.1534 120.919 59.0374 122.011 59.0374C122.409 59.0374 122.791 58.9334 123.137 58.6908L124.541 57.7374C123.571 56.9574 122.895 55.8481 122.687 54.6001L121.161 55.2934ZM127.8 78.0001C123.663 78.0001 119.695 76.3565 116.769 73.431C113.844 70.5054 112.2 66.5375 112.2 62.4001C116.337 62.4001 120.305 64.0437 123.231 66.9692C126.156 69.8948 127.8 73.8627 127.8 78.0001C127.8 73.8627 129.444 69.8948 132.369 66.9692C135.295 64.0437 139.263 62.4001 143.4 62.4001C143.4 66.5375 141.756 70.5054 138.831 73.431C135.905 76.3565 131.937 78.0001 127.8 78.0001ZM132.029 73.7708C133.66 73.1591 135.142 72.2054 136.373 70.9736C137.605 69.7418 138.559 68.2605 139.171 66.6294C135.877 67.8428 133.26 70.4774 132.029 73.7708ZM116.429 66.6294C117.041 68.2605 117.995 69.7418 119.226 70.9736C120.458 72.2054 121.94 73.1591 123.571 73.7708C122.357 70.4774 119.723 67.8601 116.429 66.6294Z" fill="black"/>
<path d="M51.004 102.58V113.5H54.4828C55.5904 113.5 56.5576 113.282 57.4 112.814C58.2268 112.361 58.8664 111.722 59.3188 110.895C59.7556 110.068 59.9896 109.116 59.9896 108.04C59.9896 106.964 59.7556 106.012 59.3188 105.185C58.8664 104.374 58.2268 103.734 57.4 103.266C56.5576 102.814 55.5904 102.58 54.4828 102.58H51.004ZM54.4828 111.94H52.798V104.14H54.4828C55.6528 104.14 56.5576 104.499 57.1972 105.201C57.8212 105.903 58.1488 106.854 58.1488 108.04C58.1488 109.241 57.8212 110.193 57.1972 110.895C56.5576 111.597 55.6528 111.94 54.4828 111.94ZM63.0278 113.094C63.6518 113.438 64.3538 113.594 65.165 113.594C65.9606 113.594 66.6626 113.438 67.2866 113.094C67.9106 112.751 68.3786 112.283 68.7218 111.659C69.065 111.035 69.2366 110.318 69.2366 109.506C69.2366 108.711 69.065 108.009 68.7218 107.385C68.3786 106.761 67.9106 106.277 67.2866 105.934C66.6626 105.591 65.9606 105.419 65.165 105.419C64.3538 105.419 63.6518 105.591 63.0278 105.934C62.4038 106.277 61.9358 106.761 61.5926 107.385C61.2494 108.009 61.0934 108.711 61.0934 109.506C61.0934 110.318 61.2494 111.035 61.5926 111.659C61.9358 112.283 62.4038 112.751 63.0278 113.094ZM66.8654 111.425C66.4286 111.924 65.867 112.158 65.165 112.158C64.4474 112.158 63.8858 111.924 63.4646 111.425C63.0278 110.926 62.825 110.286 62.825 109.506C62.825 108.726 63.0278 108.102 63.4646 107.603C63.8858 107.104 64.4474 106.854 65.165 106.854C65.867 106.854 66.4286 107.104 66.8654 107.603C67.3022 108.102 67.5206 108.726 67.5206 109.506C67.5206 110.286 67.3022 110.926 66.8654 111.425ZM78.3446 105.513H76.8782L76.691 106.761C76.4102 106.355 76.067 106.028 75.6302 105.778C75.1934 105.544 74.663 105.419 74.0702 105.419C73.3526 105.419 72.6974 105.591 72.1358 105.934C71.5586 106.277 71.1062 106.745 70.7786 107.354C70.451 107.978 70.295 108.68 70.295 109.475C70.295 110.318 70.451 111.035 70.7786 111.644C71.0906 112.252 71.543 112.72 72.1202 113.048C72.6818 113.375 73.337 113.531 74.0702 113.531C75.2246 113.531 76.0826 113.094 76.6754 112.221V113.11C76.6754 114.608 75.911 115.341 74.3822 115.341C73.7894 115.341 73.3058 115.232 72.9314 114.982C72.557 114.732 72.3074 114.389 72.2138 113.937H70.4978C70.5602 114.826 70.9346 115.512 71.621 115.996C72.2918 116.48 73.1654 116.714 74.2574 116.714C75.6458 116.714 76.6754 116.417 77.3462 115.793C78.0014 115.169 78.3446 114.296 78.3446 113.172V105.513ZM76.0358 111.394C75.599 111.878 75.0374 112.112 74.351 112.112C73.649 112.112 73.0874 111.878 72.6662 111.378C72.2294 110.895 72.0266 110.255 72.0266 109.475C72.0266 108.695 72.2294 108.071 72.6662 107.572C73.0874 107.088 73.649 106.839 74.351 106.839C75.0374 106.839 75.599 107.088 76.0358 107.588C76.457 108.087 76.6754 108.726 76.6754 109.506C76.6754 110.286 76.457 110.91 76.0358 111.394ZM73.3214 102.455H72.0578C72.0734 103.142 72.2918 103.672 72.6974 104.062C73.103 104.468 73.6334 104.655 74.3042 104.655C74.9594 104.655 75.5054 104.468 75.9422 104.062C76.3634 103.656 76.5818 103.126 76.613 102.455H75.3494C75.3494 102.767 75.2402 103.017 75.053 103.204C74.8658 103.391 74.6162 103.485 74.3198 103.485C74.0234 103.485 73.7894 103.391 73.6022 103.204C73.415 103.017 73.3214 102.767 73.3214 102.455ZM84.4058 105.513H84.0314C83.4074 105.513 82.9238 105.622 82.565 105.84C82.1906 106.059 81.8942 106.34 81.6758 106.714L81.4886 105.513H79.991V113.5H81.6758V109.491C81.6758 108.804 81.8318 108.227 82.1438 107.775C82.4558 107.322 82.955 107.088 83.657 107.088H84.4058V105.513ZM92.6357 105.513H90.9509V109.475C90.9509 110.302 90.7637 110.957 90.4049 111.425C90.0305 111.893 89.5313 112.127 88.8917 112.127C88.2677 112.127 87.8153 111.924 87.5033 111.519C87.1913 111.113 87.0353 110.52 87.0353 109.74V105.513H85.3505V109.912C85.3505 111.207 85.6313 112.143 86.2241 112.72C86.8013 113.313 87.5657 113.594 88.5017 113.594C89.5313 113.594 90.3581 113.235 90.9665 112.486L91.1537 113.5H92.6357V105.513ZM98.4746 107.369C98.147 107.993 97.991 108.711 97.991 109.522C97.991 110.333 98.147 111.051 98.4902 111.659C98.8334 112.283 99.3014 112.751 99.9254 113.094C100.549 113.438 101.267 113.594 102.109 113.594C103.061 113.594 103.857 113.344 104.496 112.814C105.136 112.299 105.526 111.628 105.682 110.817H103.997C103.872 111.269 103.638 111.612 103.295 111.862C102.936 112.112 102.499 112.221 101.985 112.221C101.329 112.221 100.799 112.018 100.409 111.612C100.003 111.207 99.785 110.661 99.7538 109.959V109.865H105.775C105.807 109.647 105.822 109.444 105.822 109.226C105.807 108.461 105.635 107.79 105.292 107.213C104.949 106.652 104.496 106.199 103.903 105.887C103.311 105.575 102.64 105.419 101.875 105.419C101.111 105.419 100.44 105.591 99.8474 105.934C99.2546 106.277 98.8022 106.745 98.4746 107.369ZM104.106 108.633H99.8162C99.8786 108.071 100.097 107.634 100.503 107.291C100.908 106.948 101.376 106.776 101.938 106.776C102.531 106.776 103.014 106.948 103.404 107.276C103.794 107.603 104.028 108.056 104.106 108.633ZM108.48 110.864H106.858C106.873 111.722 107.217 112.392 107.872 112.876C108.527 113.36 109.401 113.594 110.477 113.594C111.101 113.594 111.678 113.5 112.193 113.297C112.692 113.094 113.098 112.798 113.394 112.424C113.675 112.049 113.831 111.597 113.831 111.098C113.831 110.536 113.691 110.099 113.41 109.772C113.129 109.444 112.755 109.21 112.287 109.054C111.819 108.898 111.241 108.789 110.555 108.711C110.04 108.648 109.666 108.602 109.447 108.555C109.213 108.508 109.026 108.43 108.87 108.305C108.714 108.18 108.652 108.009 108.652 107.759C108.652 107.447 108.792 107.182 109.104 106.995C109.401 106.808 109.791 106.714 110.29 106.714C110.773 106.714 111.179 106.839 111.507 107.073C111.819 107.307 112.006 107.603 112.053 107.962H113.691C113.628 107.151 113.285 106.527 112.661 106.074C112.037 105.638 111.21 105.404 110.212 105.404C109.588 105.404 109.042 105.513 108.558 105.716C108.075 105.934 107.7 106.23 107.419 106.605C107.139 106.979 107.014 107.416 107.014 107.9C107.014 108.43 107.139 108.836 107.419 109.148C107.7 109.46 108.059 109.678 108.511 109.818C108.964 109.959 109.541 110.068 110.243 110.146C110.742 110.208 111.117 110.271 111.366 110.333C111.616 110.396 111.803 110.489 111.959 110.614C112.099 110.754 112.177 110.957 112.177 111.222C112.177 111.55 112.006 111.815 111.694 112.002C111.382 112.19 110.961 112.283 110.461 112.283C109.884 112.283 109.416 112.158 109.057 111.893C108.699 111.628 108.511 111.285 108.48 110.864ZM122.842 112.034H122.514C122.155 112.034 121.984 111.846 121.984 111.472V108.321C121.984 107.385 121.687 106.667 121.11 106.168C120.517 105.669 119.69 105.419 118.63 105.419C117.616 105.419 116.804 105.653 116.18 106.09C115.556 106.527 115.198 107.151 115.12 107.946H116.773C116.836 107.603 117.023 107.322 117.335 107.104C117.647 106.886 118.052 106.776 118.552 106.776C119.098 106.776 119.534 106.917 119.846 107.166C120.158 107.416 120.314 107.775 120.314 108.212V108.695H118.302C117.179 108.695 116.336 108.929 115.759 109.366C115.166 109.803 114.886 110.442 114.886 111.254C114.886 111.987 115.151 112.564 115.697 112.97C116.227 113.391 116.945 113.594 117.85 113.594C119.004 113.594 119.878 113.141 120.486 112.221C120.486 112.642 120.595 112.954 120.829 113.172C121.048 113.391 121.422 113.5 121.952 113.5H122.842V112.034ZM120.314 109.943V110.224C120.299 110.848 120.096 111.347 119.706 111.722C119.316 112.096 118.77 112.283 118.084 112.283C117.616 112.283 117.257 112.19 116.992 111.971C116.726 111.768 116.602 111.488 116.602 111.144C116.602 110.754 116.742 110.458 117.023 110.255C117.304 110.052 117.694 109.943 118.224 109.943H120.314ZM130.28 106.293C129.687 105.716 128.907 105.419 127.971 105.419C126.864 105.419 126.006 105.809 125.413 106.558L125.226 105.513H123.759V113.5H125.444V109.475C125.444 108.664 125.631 108.04 126.006 107.572C126.38 107.104 126.911 106.87 127.581 106.87C128.205 106.87 128.673 107.073 129.001 107.463C129.313 107.868 129.485 108.446 129.485 109.194V113.5H131.185V109.101C131.185 107.822 130.873 106.886 130.28 106.293ZM134.059 110.864H132.436C132.452 111.722 132.795 112.392 133.45 112.876C134.106 113.36 134.979 113.594 136.056 113.594C136.68 113.594 137.257 113.5 137.772 113.297C138.271 113.094 138.676 112.798 138.973 112.424C139.254 112.049 139.41 111.597 139.41 111.098C139.41 110.536 139.269 110.099 138.988 109.772C138.708 109.444 138.333 109.21 137.865 109.054C137.397 108.898 136.82 108.789 136.134 108.711C135.619 108.648 135.244 108.602 135.026 108.555C134.792 108.508 134.605 108.43 134.449 108.305C134.293 108.18 134.23 108.009 134.23 107.759C134.23 107.447 134.371 107.182 134.683 106.995C134.979 106.808 135.369 106.714 135.868 106.714C136.352 106.714 136.758 106.839 137.085 107.073C137.397 107.307 137.584 107.603 137.631 107.962H139.269C139.207 107.151 138.864 106.527 138.24 106.074C137.616 105.638 136.789 105.404 135.79 105.404C135.166 105.404 134.62 105.513 134.137 105.716C133.653 105.934 133.279 106.23 132.998 106.605C132.717 106.979 132.592 107.416 132.592 107.9C132.592 108.43 132.717 108.836 132.998 109.148C133.279 109.46 133.638 109.678 134.09 109.818C134.542 109.959 135.12 110.068 135.822 110.146C136.321 110.208 136.695 110.271 136.945 110.333C137.194 110.396 137.382 110.489 137.538 110.614C137.678 110.754 137.756 110.957 137.756 111.222C137.756 111.55 137.584 111.815 137.272 112.002C136.96 112.19 136.539 112.283 136.04 112.283C135.463 112.283 134.995 112.158 134.636 111.893C134.277 111.628 134.09 111.285 134.059 110.864ZM144.768 102.58V113.5H146.452V111.456L147.872 109.959L150.243 113.5H152.24L149.073 108.726L152.053 105.513H150.103L146.452 109.413V102.58H144.768ZM160.185 105.513H158.5V109.475C158.5 110.302 158.313 110.957 157.954 111.425C157.58 111.893 157.081 112.127 156.441 112.127C155.817 112.127 155.365 111.924 155.053 111.519C154.741 111.113 154.585 110.52 154.585 109.74V105.513H152.9V109.912C152.9 111.207 153.181 112.143 153.773 112.72C154.351 113.313 155.115 113.594 156.051 113.594C157.081 113.594 157.907 113.235 158.516 112.486L158.703 113.5H160.185V105.513ZM161.845 102.58V113.5H163.53V102.58H161.845ZM165.182 102.58V113.5H166.866V102.58H165.182ZM176.162 112.034H175.834C175.476 112.034 175.304 111.846 175.304 111.472V108.321C175.304 107.385 175.008 106.667 174.43 106.168C173.838 105.669 173.011 105.419 171.95 105.419C170.936 105.419 170.125 105.653 169.501 106.09C168.877 106.527 168.518 107.151 168.44 107.946H170.094C170.156 107.603 170.343 107.322 170.655 107.104C170.967 106.886 171.373 106.776 171.872 106.776C172.418 106.776 172.855 106.917 173.167 107.166C173.479 107.416 173.635 107.775 173.635 108.212V108.695H171.622C170.499 108.695 169.657 108.929 169.08 109.366C168.487 109.803 168.206 110.442 168.206 111.254C168.206 111.987 168.471 112.564 169.017 112.97C169.548 113.391 170.265 113.594 171.17 113.594C172.324 113.594 173.198 113.141 173.806 112.221C173.806 112.642 173.916 112.954 174.15 113.172C174.368 113.391 174.742 113.5 175.273 113.5H176.162V112.034ZM173.635 109.943V110.224C173.619 110.848 173.416 111.347 173.026 111.722C172.636 112.096 172.09 112.283 171.404 112.283C170.936 112.283 170.577 112.19 170.312 111.971C170.047 111.768 169.922 111.488 169.922 111.144C169.922 110.754 170.062 110.458 170.343 110.255C170.624 110.052 171.014 109.943 171.544 109.943H173.635ZM183.6 106.293C183.008 105.716 182.228 105.419 181.292 105.419C180.184 105.419 179.326 105.809 178.733 106.558L178.546 105.513H177.08V113.5H178.764V109.475C178.764 108.664 178.952 108.04 179.326 107.572C179.7 107.104 180.231 106.87 180.902 106.87C181.526 106.87 181.994 107.073 182.321 107.463C182.633 107.868 182.805 108.446 182.805 109.194V113.5H184.505V109.101C184.505 107.822 184.193 106.886 183.6 106.293ZM186.037 105.513V113.5H187.722V105.513H186.037ZM200.731 106.277C200.169 105.716 199.467 105.419 198.593 105.419C197.938 105.419 197.392 105.56 196.94 105.809C196.472 106.059 196.113 106.418 195.832 106.87C195.598 106.386 195.271 106.028 194.849 105.778C194.413 105.544 193.929 105.419 193.367 105.419C192.369 105.435 191.589 105.809 191.027 106.558L190.84 105.513H189.374V113.5H191.059V109.226C191.059 108.508 191.215 107.946 191.558 107.51C191.901 107.088 192.353 106.87 192.931 106.87C193.477 106.87 193.898 107.057 194.179 107.416C194.459 107.775 194.615 108.305 194.615 109.007V113.5H196.316V109.179C196.316 108.461 196.472 107.9 196.815 107.494C197.158 107.088 197.611 106.87 198.203 106.87C198.749 106.87 199.171 107.057 199.451 107.416C199.732 107.79 199.873 108.321 199.873 109.007V113.5H201.557V108.992C201.557 107.744 201.277 106.839 200.731 106.277ZM203.085 105.513V113.5H204.77V105.513H203.085Z" fill="black"/>
</svg>
