<svg width="130" height="162" viewBox="0 0 130 162" fill="none" xmlns="http://www.w3.org/2000/svg">
<path d="M87.309 79.4154C93.1919 70.0177 94.2156 59.8503 92.3832 49.1494C90.2971 36.9676 85.6281 25.7572 79.8296 14.9512C78.0733 11.6794 76.2324 8.45033 74.5567 5.1379C74.1068 4.24864 73.8159 3.05328 74.0294 2.13216C74.1765 1.49679 75.3169 1.09135 76.0136 0.582978C76.2942 1.0254 76.5973 1.45549 76.851 1.91297C77.5342 3.14403 78.0984 4.45396 78.8855 5.61241C81.4424 9.38625 84.1412 13.0653 86.6593 16.8636C88.3647 19.4233 89.9387 22.0682 91.3753 24.788C92.2771 26.5058 92.6954 28.4687 93.4925 30.2494C94.756 33.0716 96.434 35.7376 97.4324 38.642C98.9861 43.1646 100.546 47.76 101.339 52.4535C103.093 62.8303 101.251 72.5741 95.3276 81.5072C92.5717 85.6637 90.0072 89.8815 85.9858 92.9932C85.5468 93.3331 85.3541 94.3325 85.4479 94.9669C86.3906 101.355 85.3068 107.444 82.4703 113.147C80.3477 117.414 78.2371 121.824 75.2881 125.502C72.8128 128.589 69.3082 130.975 65.9354 133.175C62.9367 135.131 59.5739 136.611 56.2262 137.93C51.4567 139.811 46.4163 140.199 41.3535 139.459C40.6262 139.352 39.7664 138.316 39.4795 137.525C39.1603 136.645 39.8905 136.068 40.7658 135.435C43.504 133.455 46.6255 133.811 49.6223 133.603C55.2997 133.208 59.9975 130.644 63.8964 126.856C70.5485 120.394 74.0659 112.174 75.676 103.157C76.5464 98.2851 76.3573 98.2291 71.7689 99.4956C65.7293 101.162 59.9491 100.677 54.6429 97.2184C48.4841 93.2042 47.065 85.3416 51.2054 79.25C52.5048 77.3383 54.5126 76.6842 56.5236 76.1055C61.0951 74.7892 65.6186 75.1901 69.999 76.9489C74.5301 78.7671 78.7482 81.0534 81.533 85.3178C82.2056 86.3473 82.8881 86.1245 83.5145 85.1475C84.7489 83.2188 86.04 81.3241 87.309 79.4154ZM66.9425 82.8148C64.9677 82.1206 63.0054 81.3885 61.0139 80.7461C59.7835 80.3491 59.0891 80.8841 58.6878 82.1384C57.4304 86.0678 59.0149 90.4281 62.5245 92.8676C66.3497 95.5266 70.1737 94.6303 73.9957 93.0084C74.2945 92.8816 74.4815 91.8808 74.3334 91.4069C73.1114 87.5087 70.3145 84.9704 66.9421 82.8145L66.9425 82.8148ZM94.3288 67.9233L94.7727 67.9368L95.8748 58.9615C95.6599 58.936 95.4449 58.9106 95.2297 58.8852L94.3288 67.9233ZM77.9083 103.591L78.4724 103.655L78.6067 97.9534C78.3881 97.9486 78.1694 97.9437 77.9507 97.9388C77.9367 99.823 77.9226 101.707 77.9083 103.591Z" fill="#111D30"/>
<path d="M34.2766 149.691C30.8675 147.312 27.2748 144.62 23.4786 142.256C22.1517 141.43 20.6313 141.114 20.7337 139.169C20.755 138.769 20.7656 138.173 21.01 138.009C25.1515 135.233 27.6982 130.934 31.1407 127.501C33.4466 125.201 36.0992 123.351 39.4673 122.998C40.1392 122.927 40.8658 123.379 41.567 123.59C41.3365 124.273 41.283 125.109 40.8468 125.615C37.6748 129.292 34.46 132.935 31.1806 136.516C30.1516 137.64 30.5142 138.161 31.5562 138.965C33.96 140.822 36.2159 142.869 38.598 144.756C39.6157 145.562 40.7968 146.162 41.912 146.844C42.0053 146.901 42.1993 146.815 42.2717 146.88C43.0182 147.546 44.4787 148.499 44.3467 148.855C43.9118 149.952 43.1384 150.883 42.1387 151.51C39.178 153.284 36.9841 150.943 34.2766 149.691Z" fill="#111D30"/>
</svg>
