<svg width="604" height="552" viewBox="0 0 604 552" fill="none" xmlns="http://www.w3.org/2000/svg">
<path d="M405.065 461.801H221.923V325.232L231.908 319.205L221.923 312.654V164.608L232.433 161.41L221.923 157.27V45.4885H405.065V143.75L400.283 149.515L405.065 153.55V381.831L392.19 386.023L405.065 389.953V461.801Z" fill="white"/>
<path d="M426.191 450.481C424.241 450.487 422.373 451.262 420.994 452.637C419.616 454.012 418.839 455.875 418.833 457.819V461.801H208.523V457.819C208.518 455.875 207.741 454.012 206.362 452.637C204.984 451.262 203.116 450.487 201.166 450.481C199.216 450.487 197.348 451.262 195.97 452.637C194.591 454.012 193.815 455.875 193.809 457.819V497.647C193.815 499.591 194.592 501.454 195.97 502.829C197.349 504.204 199.217 504.978 201.166 504.984C203.116 504.978 204.984 504.204 206.362 502.829C207.741 501.454 208.518 499.591 208.523 497.647V493.245H418.829V497.647C418.854 499.577 419.64 501.419 421.017 502.774C422.394 504.13 424.252 504.89 426.187 504.89C428.121 504.89 429.979 504.13 431.356 502.774C432.733 501.419 433.519 499.577 433.544 497.647V457.819C433.539 455.876 432.762 454.013 431.385 452.639C430.007 451.264 428.14 450.488 426.191 450.481Z" fill="#B2F1EF"/>
<path d="M426.191 1.57227C424.241 1.5778 422.373 2.35251 420.994 3.72716C419.616 5.10182 418.839 6.9647 418.833 8.90891V48.738C418.858 50.6675 419.644 52.5095 421.021 53.865C422.398 55.2206 424.255 55.9807 426.19 55.9807C428.125 55.9807 429.982 55.2206 431.359 53.865C432.736 52.5095 433.523 50.6675 433.548 48.738V8.90891C433.542 6.96482 432.765 5.10193 431.387 3.72724C430.008 2.35255 428.14 1.57781 426.191 1.57227Z" fill="#B2F1EF"/>
<path d="M209.369 8.90894C209.344 6.97947 208.558 5.13751 207.181 3.78193C205.804 2.42635 203.946 1.66626 202.011 1.66626C200.076 1.66626 198.219 2.42635 196.842 3.78193C195.465 5.13751 194.679 6.97947 194.654 8.90894V48.738C194.679 50.6675 195.465 52.5095 196.842 53.8651C198.219 55.2206 200.076 55.9807 202.011 55.9807C203.946 55.9807 205.804 55.2206 207.181 53.8651C208.558 52.5095 209.344 50.6675 209.369 48.738V44.7029H418.15V14.0446H209.369V8.90894Z" fill="#B2F1EF"/>
<path d="M435.125 470.397V457.452C435.097 455.108 434.143 452.868 432.471 451.22C430.798 449.572 428.542 448.647 426.19 448.647C423.839 448.647 421.582 449.572 419.91 451.22C418.237 452.868 417.284 455.108 417.256 457.452V460.229H406.642V389.95C406.635 389.608 406.519 389.276 406.311 389.003C406.103 388.73 405.814 388.53 405.485 388.431L396.078 385.81L405.433 383.347C405.77 383.263 406.068 383.066 406.278 382.79C406.488 382.514 406.597 382.175 406.588 381.828V153.55C406.589 153.306 406.532 153.065 406.423 152.846C406.313 152.628 406.154 152.438 405.958 152.292L401.596 148.886L406.063 144.903C406.382 144.601 406.57 144.188 406.588 143.75V46.274H417.204V48.7381C417.204 51.1009 418.145 53.3669 419.821 55.0377C421.496 56.7084 423.768 57.647 426.138 57.647C428.507 57.647 430.779 56.7084 432.455 55.0377C434.13 53.3669 435.071 51.1009 435.071 48.7381V36.8413C441.378 36.7364 464.133 35.8977 464.133 29.3478C464.133 22.798 441.378 21.9581 435.071 21.8531V8.90896C435.071 6.54616 434.13 4.28013 432.455 2.60938C430.779 0.93862 428.507 0 426.138 0C423.768 0 421.496 0.93862 419.821 2.60938C418.145 4.28013 417.204 6.54616 417.204 8.90896V11.6868H384.727C381.909 11.5358 379.084 11.5358 376.266 11.6868H249.723C246.905 11.5364 244.08 11.5364 241.262 11.6868H210.1V8.90896C210.1 6.54616 209.159 4.28013 207.483 2.60938C205.808 0.938621 203.535 1.87742e-07 201.166 1.87742e-07C198.797 1.87742e-07 196.524 0.938621 194.849 2.60938C193.174 4.28013 192.232 6.54616 192.232 8.90896V21.8531C185.926 21.9581 163.171 22.7967 163.171 29.3478C163.171 35.8989 185.926 36.7364 192.232 36.8413V48.7381C192.232 51.1009 193.174 53.3669 194.849 55.0377C196.524 56.7084 198.797 57.647 201.166 57.647C203.535 57.647 205.808 56.7084 207.483 55.0377C209.159 53.3669 210.1 51.1009 210.1 48.7381V46.274H220.61V157.27C220.616 157.613 220.732 157.945 220.94 158.218C221.147 158.491 221.436 158.691 221.766 158.79L229.806 161.096L221.819 163.087C221.476 163.17 221.171 163.364 220.952 163.64C220.732 163.915 220.612 164.256 220.61 164.608V312.654C220.606 312.917 220.671 313.178 220.801 313.408C220.93 313.638 221.118 313.83 221.346 313.964L229.017 318.943L221.346 323.922C221.122 324.06 220.938 324.253 220.809 324.483C220.68 324.712 220.612 324.97 220.61 325.232V460.231H210.1V457.455C210.1 455.092 209.159 452.826 207.483 451.155C205.808 449.485 203.535 448.546 201.166 448.546C198.797 448.546 196.524 449.485 194.849 451.155C193.174 452.826 192.232 455.092 192.232 457.455V470.399C185.926 470.502 163.171 471.339 163.171 477.89C163.171 484.441 185.926 485.28 192.232 485.385V497.28C192.232 499.643 193.174 501.909 194.849 503.58C196.524 505.251 198.797 506.189 201.166 506.189C203.535 506.189 205.808 505.251 207.483 503.58C209.159 501.909 210.1 499.643 210.1 497.28V494.922H251.715C251.894 494.913 252.071 494.877 252.24 494.817H373.897C374.065 494.882 374.242 494.918 374.422 494.922H417.309V497.28C417.309 499.643 418.25 501.909 419.926 503.58C421.601 505.251 423.874 506.189 426.243 506.189C428.612 506.189 430.885 505.251 432.56 503.58C434.235 501.909 435.177 499.643 435.177 497.28V485.385C441.483 485.28 464.238 484.441 464.238 477.89C464.238 471.339 441.43 470.502 435.125 470.397ZM420.409 8.90896C420.432 7.39462 421.05 5.9498 422.132 4.88675C423.214 3.8237 424.672 3.22778 426.19 3.22778C427.709 3.22778 429.167 3.8237 430.248 4.88675C431.33 5.9498 431.949 7.39462 431.971 8.90896V48.7381C431.949 50.2524 431.33 51.6972 430.248 52.7603C429.167 53.8233 427.709 54.4193 426.19 54.4193C424.672 54.4193 423.214 53.8233 422.132 52.7603C421.05 51.6972 420.432 50.2524 420.409 48.7381V8.90896ZM206.946 48.7381C206.924 50.2524 206.305 51.6972 205.224 52.7603C204.142 53.8233 202.684 54.4193 201.165 54.4193C199.647 54.4193 198.189 53.8233 197.107 52.7603C196.026 51.6972 195.407 50.2524 195.385 48.7381V8.90896C195.407 7.39462 196.026 5.9498 197.107 4.88675C198.189 3.8237 199.647 3.22778 201.165 3.22778C202.684 3.22778 204.142 3.8237 205.224 4.88675C206.305 5.9498 206.924 7.39462 206.946 8.90896V48.7381ZM206.946 497.28C206.924 498.795 206.305 500.239 205.224 501.303C204.142 502.366 202.684 502.962 201.165 502.962C199.647 502.962 198.189 502.366 197.107 501.303C196.026 500.239 195.407 498.795 195.385 497.28V457.452C195.373 456.688 195.515 455.93 195.8 455.22C196.086 454.511 196.51 453.865 197.047 453.321C197.585 452.777 198.226 452.345 198.933 452.049C199.64 451.754 200.399 451.602 201.165 451.602C201.932 451.602 202.691 451.754 203.398 452.049C204.104 452.345 204.746 452.777 205.283 453.321C205.821 453.865 206.245 454.511 206.531 455.22C206.816 455.93 206.958 456.688 206.946 457.452V497.28ZM215.88 27.6174C215.887 26.4045 216.153 25.207 216.661 24.1047C217.168 23.0024 217.905 22.0205 218.823 21.2244C223.185 17.1893 231.383 15.6169 238.215 15.0401L249.723 14.8314H376.326L387.886 15.0401C394.718 15.6169 402.864 17.1893 407.225 21.1725C408.143 21.9685 408.88 22.9503 409.387 24.0527C409.895 25.155 410.161 26.3526 410.168 27.5655C410.378 39.566 385.311 42.8156 374.906 43.0775H251.142C240.737 42.8675 215.723 39.6191 215.88 27.6174ZM223.762 326.123L232.749 320.305C232.973 320.166 233.157 319.974 233.286 319.744C233.415 319.515 233.483 319.257 233.485 318.995C233.489 318.731 233.423 318.471 233.294 318.241C233.165 318.011 232.977 317.82 232.749 317.686L223.762 311.868V165.917L236.217 162.829C236.555 162.738 236.855 162.542 237.073 162.268C237.29 161.995 237.414 161.659 237.426 161.31C237.435 160.963 237.325 160.624 237.115 160.348C236.905 160.072 236.607 159.875 236.27 159.79L223.761 156.173V61.1573L403.487 53.8206V143.068L398.127 147.837C397.958 147.989 397.824 148.176 397.734 148.383C397.643 148.591 397.598 148.816 397.601 149.043C397.613 149.277 397.675 149.506 397.784 149.714C397.893 149.923 398.046 150.105 398.232 150.248L403.487 154.335V380.677L389.666 384.293C389.329 384.378 389.031 384.575 388.82 384.851C388.61 385.127 388.5 385.466 388.509 385.813C388.508 386.157 388.621 386.493 388.83 386.768C389.039 387.042 389.333 387.241 389.666 387.333L403.487 391.211V455.198L223.762 447.239V326.123ZM376.897 491.673H249.197C237.899 491.096 215.723 487.586 215.88 476.266C215.887 475.053 216.153 473.855 216.661 472.753C217.168 471.65 217.905 470.668 218.823 469.872C223.185 465.836 231.383 464.264 238.215 463.689L249.723 463.479C249.881 463.479 250.038 463.427 250.143 463.427H375.846C375.982 463.469 376.124 463.487 376.266 463.479L387.828 463.689C394.66 464.264 402.805 465.836 407.167 469.82C408.084 470.616 408.821 471.598 409.329 472.7C409.836 473.802 410.102 475 410.11 476.213C410.372 487.586 388.196 491.096 376.897 491.673ZM431.971 497.28C431.949 498.795 431.33 500.239 430.248 501.303C429.167 502.366 427.709 502.962 426.19 502.962C424.672 502.962 423.214 502.366 422.132 501.303C421.05 500.239 420.432 498.795 420.409 497.28V457.452C420.398 456.688 420.539 455.93 420.825 455.22C421.11 454.511 421.534 453.865 422.072 453.321C422.61 452.777 423.251 452.345 423.958 452.049C424.665 451.754 425.424 451.602 426.19 451.602C426.957 451.602 427.715 451.754 428.422 452.049C429.129 452.345 429.77 452.777 430.308 453.321C430.846 453.865 431.27 454.511 431.556 455.22C431.841 455.93 431.982 456.688 431.971 457.452V497.28Z" fill="#111D30"/>
<path d="M384.044 397.394H336.748C336.33 397.394 335.929 397.229 335.633 396.934C335.337 396.639 335.171 396.239 335.171 395.822C335.171 395.405 335.337 395.005 335.633 394.71C335.929 394.415 336.33 394.25 336.748 394.25H384.044C384.462 394.25 384.863 394.415 385.159 394.71C385.455 395.005 385.621 395.405 385.621 395.822C385.621 396.239 385.455 396.639 385.159 396.934C384.863 397.229 384.462 397.394 384.044 397.394Z" fill="#111D30"/>
<path d="M259.761 228.805H237.426C237.008 228.805 236.607 228.639 236.311 228.344C236.015 228.049 235.849 227.649 235.849 227.232C235.849 226.815 236.015 226.415 236.311 226.12C236.607 225.826 237.008 225.66 237.426 225.66H259.761C260.179 225.66 260.58 225.826 260.876 226.12C261.171 226.415 261.337 226.815 261.337 227.232C261.337 227.649 261.171 228.049 260.876 228.344C260.58 228.639 260.179 228.805 259.761 228.805Z" fill="#111D30"/>
<path d="M392.19 111.258H369.855C369.437 111.258 369.036 111.092 368.741 110.797C368.445 110.502 368.279 110.102 368.279 109.685C368.279 109.268 368.445 108.868 368.741 108.574C369.036 108.279 369.437 108.113 369.855 108.113H392.19C392.608 108.113 393.009 108.279 393.305 108.574C393.601 108.868 393.767 109.268 393.767 109.685C393.767 110.102 393.601 110.502 393.305 110.797C393.009 111.092 392.608 111.258 392.19 111.258Z" fill="#111D30"/>
<path d="M308.846 334.091C295.971 334.091 282.69 329.933 273.857 320.056C273.574 319.738 273.43 319.322 273.457 318.899C273.484 318.476 273.68 318.081 274.002 317.801C274.324 317.521 274.746 317.378 275.174 317.404C275.603 317.43 276.003 317.623 276.288 317.94C288.99 332.142 311.773 333.554 327.713 327.603C341.08 322.613 349.061 313.092 349.061 302.132C349.061 283.329 331.876 274.728 315.256 266.409C299.482 258.514 284.583 251.056 284.583 235.488C284.583 224.294 290.941 215.841 302.027 212.294C315.91 207.854 332.828 212.608 340.542 223.117C340.795 223.461 340.898 223.889 340.83 224.308C340.762 224.727 340.528 225.102 340.18 225.351C339.832 225.599 339.398 225.701 338.974 225.634C338.549 225.567 338.169 225.337 337.917 224.993C330.978 215.539 315.651 211.297 303.027 215.338C297.349 217.154 287.824 222.187 287.824 235.488C287.824 249.092 301.862 256.118 316.723 263.556C333.4 271.903 352.303 281.364 352.303 302.132C352.303 314.476 343.539 325.117 328.859 330.595C322.453 332.928 315.675 334.112 308.846 334.091Z" fill="#111D30"/>
<path d="M310.112 334.132C310.1 334.132 310.088 334.132 310.075 334.131C309.862 334.126 309.652 334.08 309.458 333.995C309.263 333.911 309.087 333.789 308.94 333.637C308.793 333.485 308.677 333.306 308.6 333.111C308.523 332.915 308.486 332.706 308.491 332.496L311.257 212.21C311.267 211.786 311.447 211.383 311.757 211.09C312.068 210.797 312.484 210.638 312.914 210.647C313.344 210.657 313.752 210.834 314.049 211.141C314.346 211.448 314.507 211.858 314.498 212.282L311.732 332.568C311.723 332.986 311.548 333.383 311.245 333.675C310.942 333.968 310.536 334.131 310.112 334.132Z" fill="#111D30"/>
<path d="M97.3432 324.801L251.479 202.437L275.433 166.524L235.022 181.707L80.8867 304.072C79.0898 305.498 77.9445 307.594 77.7026 309.899C77.4607 312.203 78.1422 314.527 79.597 316.36L85.0825 323.27C86.5374 325.102 88.6465 326.293 90.9458 326.58C93.2451 326.868 95.5463 326.227 97.3432 324.801Z" fill="#B2F1EF"/>
<path d="M111.741 313.371L117.669 308.665L123.597 303.959L107.141 283.229L101.212 287.936L95.284 292.642L89.3557 297.348L105.812 318.078L111.741 313.371Z" fill="white"/>
<path d="M98.3717 326.097L252.507 203.732C252.524 203.719 252.537 203.702 252.552 203.688C252.587 203.661 252.616 203.628 252.647 203.596C252.701 203.541 252.751 203.483 252.798 203.422C252.811 203.402 252.829 203.388 252.843 203.369L276.796 167.456C276.989 167.168 277.084 166.825 277.067 166.476C277.051 166.126 276.924 165.789 276.705 165.514C276.486 165.238 276.186 165.038 275.85 164.942C275.513 164.847 275.158 164.862 274.834 164.984L234.424 180.168C234.41 180.178 234.396 180.19 234.377 180.195C234.241 180.248 234.112 180.321 233.996 180.41L79.8607 302.774C77.7296 304.47 76.3716 306.959 76.0845 309.694C75.7974 312.43 76.6047 315.189 78.3292 317.367L83.8147 324.276C85.5439 326.449 88.0473 327.861 90.7762 328.203C93.5051 328.544 96.2366 327.787 98.3717 326.097V326.097ZM243.694 195.24L118.353 294.745L114.925 290.426L240.266 190.921L243.694 195.24ZM120.41 297.336L245.751 197.831L249.18 202.15L123.839 301.655L120.41 297.336ZM237.696 182.467L260.553 173.878C260.974 174.984 261.565 176.019 262.306 176.945C263.041 177.878 263.893 178.713 264.839 179.43L251.345 199.66L237.696 182.467ZM238.209 188.33L112.868 287.835L109.439 283.517L234.78 184.012L238.209 188.33ZM121.298 303.672L117.911 306.361L103.511 288.223L106.899 285.534L121.298 303.672ZM115.37 308.378L111.982 311.067L97.5828 292.929L100.97 290.24L115.37 308.378ZM109.442 313.084L106.054 315.774L91.6545 297.636L95.0421 294.946L109.442 313.084ZM80.8674 315.352C79.6875 313.862 79.1353 311.974 79.3317 310.102C79.5282 308.231 80.4572 306.528 81.9152 305.367L89.1138 299.653L103.513 317.791L96.3147 323.506C94.8538 324.662 92.9846 325.181 91.1171 324.948C89.2496 324.715 87.5363 323.748 86.3529 322.261L80.8674 315.352Z" fill="#111D30"/>
<path d="M384.334 379.53C384.334 379.53 367.089 383.769 360.554 389.111C354.02 394.454 356.932 395.715 363.848 396.916C370.764 398.117 402.175 393.099 402.175 393.099L401.988 389.181L384.334 379.53Z" fill="white"/>
<path d="M594.278 443.835C594.278 443.835 558.161 386.072 527.963 365.931C497.765 345.791 489.153 332.529 393.44 343.653C393.44 343.653 389.897 354.804 411.556 358.133C433.302 361.585 442.762 361.177 442.762 361.177C423.529 367.553 404.506 373.965 385.273 380.341C415.891 397.424 446.473 414.717 477.091 431.8C477.091 431.8 496.154 442.666 502.181 443.389L528.608 489.754C528.608 489.754 551.894 489.911 573.637 475.875C595.416 461.629 594.278 443.835 594.278 443.835Z" fill="white"/>
<path d="M464.3 424.613C464.3 424.613 460.791 411.805 456.355 404.99C451.919 398.174 449.144 394.238 447.684 395.82C446.224 397.401 441.314 408.963 451.436 424.106C461.471 439.127 468.439 437.53 471.98 435.77C475.522 434.01 477.987 430.984 477.987 430.984L464.3 424.613Z" fill="white"/>
<path d="M445.874 412.562C445.874 412.562 437.039 392.46 432.104 387.285C427.169 382.11 424.675 384.052 422.947 386.559C421.219 389.066 421.028 403.93 428.549 415.383C436.07 426.836 441.578 423.69 443.927 422.587C446.363 421.606 445.874 412.562 445.874 412.562Z" fill="white"/>
<path d="M425.609 409.907C425.609 409.907 417.931 389.358 414.795 384.388C411.66 379.417 405.403 370.019 402.295 372.394C399.187 374.769 401.221 391.746 403.937 399.774C406.652 407.802 410.734 415.42 425.609 409.907Z" fill="white"/>
<path d="M446.019 339.181C446.019 339.181 402.027 340.178 393.44 343.653C393.44 343.653 390.344 355.962 412.936 358.265C435.528 360.569 442.885 361.09 442.885 361.09L446.019 339.181Z" fill="white"/>
<path d="M595.145 445.065C595.882 444.546 596.027 443.707 595.506 442.969C592.819 439.156 590.044 435.22 587.393 431.197C567.734 402.523 543.256 366.752 503.849 348.683C462.666 329.657 393.817 342.099 393.152 342.199C392.487 342.3 392.082 342.769 391.887 343.275C391.134 346.383 391.625 349.167 393.605 351.454C403.569 363.763 448.876 362.023 450.835 361.931C451.71 361.867 452.36 361.224 452.295 360.349C452.23 359.474 451.587 358.823 450.713 358.887C438 359.378 403.44 358.883 395.976 349.599C394.813 348.209 394.314 346.719 394.604 345.042C403.161 343.614 464.949 333.94 502.627 351.385C541.318 369.222 565.449 404.502 584.848 432.806C587.71 436.866 590.361 440.888 593.049 444.701C593.482 445.316 594.53 445.498 595.145 445.065Z" fill="#111D30"/>
<path d="M426.476 411.137C426.967 410.79 427.199 410.075 427.098 409.409C427.011 409.286 427.047 409.077 426.874 408.831C426.563 408.129 425.321 405.323 421.03 394.538C416.378 382.72 409.262 370.797 403.878 370.726C402.917 370.667 401.132 371.004 400.155 373.534C397.957 378.765 401.096 401.224 407.1 408.96C412.721 416.413 423.18 412.723 425.862 411.57C425.984 411.483 426.194 411.519 426.317 411.433C426.23 411.31 426.353 411.223 426.476 411.137ZM403.335 373.87C403.458 373.783 403.581 373.697 403.668 373.82C406.132 373.924 412.505 381.399 418.226 395.778C421.086 402.968 422.654 407.018 423.586 409.123C420.485 410.204 413.026 412.148 409.139 407.155C403.691 399.948 400.877 378.733 402.648 374.722C402.967 374.13 403.212 373.956 403.335 373.87Z" fill="#111D30"/>
<path d="M445.387 424.136C446.001 423.702 446.529 423.146 446.97 422.467C449.298 418.985 448.771 413.281 445.463 408.064C444.198 406.009 442.659 403.044 441.157 399.868C436.649 390.341 431.311 379.375 424.509 382.512C416.06 386.442 423.47 407.916 424.243 410.317C424.243 410.317 424.243 410.317 424.33 410.44C428.642 420.472 432.103 423.556 440.783 425.171C442.459 425.462 444.035 425.088 445.387 424.136ZM425.296 385.455C425.419 385.369 425.542 385.282 425.665 385.196C429.785 383.212 434.899 393.6 438.649 401.268C440.151 404.443 441.777 407.532 443.128 409.71C446.09 414.434 446.118 418.649 444.672 420.773C443.826 421.921 442.67 422.368 441.203 422.114C434.286 420.913 431.186 418.863 427.134 409.2C424.707 402.625 421.241 388.314 425.296 385.455Z" fill="#111D30"/>
<path d="M474.495 436.207C476.83 434.561 478.117 432.734 478.24 432.647C478.681 431.968 478.616 431.093 477.85 430.528C477.171 430.086 476.296 430.15 475.732 430.916C475.732 430.916 472.262 435.387 467.557 435.758C464.724 435.914 461.812 434.652 458.943 431.887C449.088 422.08 446.185 410.133 446.895 402.268C447.177 398.755 448.059 397.396 448.305 397.223C449.18 397.159 453.334 401.227 458.665 413.487C463.014 423.31 463.497 427.388 463.497 427.388C463.562 428.263 464.328 428.828 465.203 428.764C466.077 428.7 466.641 427.934 466.576 427.059C466.613 426.85 466.042 422.649 461.47 412.247C459.382 407.459 453.993 396.16 449.527 394.521C448.429 394.006 447.518 394.28 447.026 394.626C445.378 395.42 444.612 397.985 444.163 399.958C442.969 406.876 444.281 421.785 456.833 434.111C460.344 437.528 464.059 439.144 467.766 438.925C470.636 438.559 472.775 437.419 474.495 436.207Z" fill="#111D30"/>
<path d="M527.735 486.688C528.349 486.255 528.617 485.33 528.183 484.715L502.962 441.365C502.529 440.75 501.604 440.482 500.903 440.792C500.079 441.189 500.021 442.15 500.331 442.852L525.552 486.201C525.986 486.816 526.911 487.085 527.735 486.688Z" fill="#111D30"/>
<path d="M403.165 394.243C403.656 393.896 403.974 393.304 403.75 392.725C403.563 391.937 402.797 391.372 402.009 391.559C382.054 395.867 359.49 397.778 357.836 393.605C357.836 393.605 357.749 393.482 358.067 392.889C360.135 389.038 374.468 383.539 383.083 381.148C383.871 380.961 384.348 380.073 384.16 379.284C383.973 378.496 383.084 378.018 382.296 378.205C379.896 378.976 358.864 385.147 355.401 391.455C354.641 392.726 354.88 393.847 354.981 394.512C358.462 403.105 392.381 396.688 402.586 394.466C402.796 394.503 402.919 394.416 403.165 394.243Z" fill="#111D30"/>
<path d="M400.054 375.999C400.545 375.652 400.777 374.937 400.553 374.358C400.365 373.57 399.476 373.092 398.688 373.279C393.557 374.871 388.338 376.34 383.207 377.931C382.419 378.118 381.942 379.007 382.129 379.795C382.317 380.584 383.206 381.062 383.994 380.875C389.212 379.406 394.344 377.814 399.475 376.222C399.808 376.172 399.931 376.086 400.054 375.999Z" fill="#111D30"/>
<path d="M446.325 361.796C446.817 361.449 447.048 360.734 446.947 360.068C446.759 359.28 445.871 358.802 445.083 358.989C432.42 362.943 419.424 366.948 406.552 370.866C405.764 371.053 405.287 371.942 405.475 372.73C405.662 373.518 406.551 373.997 407.339 373.809C420.212 369.891 433.207 365.887 445.87 361.932C446.079 361.969 446.202 361.882 446.325 361.796Z" fill="#111D30"/>
<path d="M501.574 442.528C501.943 442.268 502.225 441.885 502.297 441.466C502.442 440.627 501.799 439.976 500.961 439.831C496.4 439.363 492.072 438.179 487.974 436.28C484.679 434.736 481.543 432.896 478.602 430.551C478.045 430.022 477.048 430.173 476.52 430.729C475.992 431.285 476.144 432.283 476.7 432.811C479.728 435.28 483.038 437.366 486.752 438.983C491.146 441.041 495.807 442.174 500.664 442.802C500.873 442.838 501.206 442.788 501.574 442.528Z" fill="#111D30"/>
<path d="M521.117 406.843C521.24 406.757 521.363 406.67 521.522 406.374C521.963 405.695 521.812 404.697 521.132 404.255C514.636 399.997 507.395 397.552 500.074 396.82C479.122 395.018 464.549 408.788 460.573 413.063C460.046 413.619 459.988 414.58 460.631 415.232C461.274 415.883 462.148 415.819 462.799 415.177C466.616 411.197 480.415 398.157 499.986 399.828C506.888 400.486 513.501 402.822 519.614 406.798C519.961 407.29 520.626 407.19 521.117 406.843Z" fill="#111D30"/>
<path d="M90.9934 112.589C90.9934 112.589 134.623 171.903 146.264 183.909C157.905 195.915 180.27 201.401 192.437 203.471C204.603 205.541 214.663 206.862 219.717 213.315C224.88 219.657 232.519 237.556 232.519 237.556C232.519 237.556 225.812 247.342 209.087 226.676L185.757 223.298C185.757 223.298 192.232 236.797 198.36 241.031C204.487 245.265 234.519 270.637 242.46 278.381C250.401 286.126 266.446 305.476 260.748 308.409C255.051 311.342 229.484 289.672 229.484 289.672L196.81 264.772C196.81 264.772 209.376 279.858 202.615 285.672C195.853 291.486 175.903 285.09 167.352 281.104C167.352 281.104 178.678 294.327 177.073 297.987C175.58 301.755 169.668 305.132 149.473 296.974C149.473 296.974 156.259 309.035 152.106 311.951C147.953 314.866 122.677 306.324 122.677 306.324L133.404 300.024C133.404 300.024 111.253 277.984 102.616 259.765C93.9796 241.545 98.2472 230.904 98.2472 230.904L30.3761 182.125C30.3761 182.125 25.8473 165.736 50.7259 137.318C75.4927 108.791 90.9934 112.589 90.9934 112.589Z" fill="white"/>
<path d="M185.535 255.299C184.882 255.969 185.006 256.96 185.565 257.506C191.263 262.628 206.269 278.568 201.279 284.804C195.962 291.374 175.546 283.218 167.992 279.552C167.215 279.229 166.336 279.46 165.907 280.347C165.586 281.123 165.819 282.004 166.708 282.435C169.706 283.836 196.032 296.449 203.845 286.871C211.767 277.182 190.42 257.451 187.85 255.163C187.182 254.729 186.079 254.741 185.535 255.299Z" fill="#111D30"/>
<path d="M166.472 273.279C165.492 274.284 165.069 275.612 164.985 277.489C164.828 282.125 168.083 286.171 171 289.669C173.246 292.513 175.601 295.245 175.187 297.236C175.09 298.23 174.22 299.123 172.908 300.02C167.987 303.275 154.784 298.018 150.117 295.643C149.34 295.32 148.46 295.551 148.031 296.438C147.711 297.214 147.943 298.095 148.832 298.526C150.721 299.498 167.383 307.475 174.71 302.648C176.898 301.299 178.089 299.631 178.394 297.751C178.899 294.325 176.317 291.154 173.512 287.765C170.819 284.485 168.122 280.985 168.186 277.563C168.279 276.349 168.6 275.573 169.147 275.235C170.132 274.673 172.233 274.98 175.12 276.272C175.897 276.594 176.885 276.252 177.205 275.476C177.526 274.7 177.181 273.71 176.404 273.388C172.517 271.556 169.533 271.259 167.566 272.605C167.127 272.831 166.798 272.945 166.472 273.279Z" fill="#111D30"/>
<path d="M121.447 305.124C121.338 305.235 121.229 305.347 121.123 305.679C120.803 306.455 121.148 307.444 121.924 307.767C126.032 309.596 146.787 318.3 153.01 313.485C157.704 309.791 154.307 303.429 151.813 298.602C150.791 296.517 149.322 293.996 149.53 293.111C149.636 292.779 149.742 292.447 150.071 292.333C151.383 291.435 154.366 291.732 155.693 291.938C156.579 292.149 157.344 291.589 157.552 290.703C157.761 289.818 157.199 289.052 156.313 288.842C155.76 288.737 151.002 287.798 148.27 289.705C147.175 290.379 146.637 291.378 146.435 292.705C146.021 294.695 147.49 297.217 149.077 300.288C151.795 305.334 153.615 309.285 151.103 311.19C147.391 314.1 131.984 309.088 123.212 305.104C122.653 304.559 121.882 304.678 121.447 305.124Z" fill="#111D30"/>
<path d="M29.1458 180.926L29.037 181.037C28.6047 181.704 28.7287 182.696 29.3967 183.13L96.0436 231.15C94.8649 233.701 93.8465 239.892 98.4477 253.522C104.775 272.32 133.441 302.672 134.562 303.983C135.233 304.638 136.116 304.628 136.769 303.958C137.313 303.4 137.41 302.406 136.738 301.752C136.403 301.425 107.29 270.636 101.301 252.387C95.6629 235.568 99.1419 231.777 99.1419 231.777C99.4683 231.442 99.6829 230.999 99.6769 230.557C99.6708 230.116 99.4441 229.677 98.9997 229.461L31.1287 180.683C30.5725 180.358 29.6898 180.368 29.1458 180.926Z" fill="#111D30"/>
<path d="M89.8749 111.498C89.3308 112.056 89.2311 112.829 89.6815 113.486C90.0201 114.034 124.351 163.191 145.176 185.025C159.84 200.197 180.515 203.164 195.441 205.313C202.297 206.339 208.046 207.157 211.601 208.882C221.156 213.63 228.804 232.191 230.524 236.917C224.074 241.293 219.038 236.163 213.092 229.058C212.082 227.856 211.073 226.653 210.175 225.56L210.063 225.451C206.937 222.838 190.705 222.028 185.848 221.862C185.295 221.758 184.748 222.095 184.533 222.539C184.318 222.983 184.216 223.535 184.334 224.086C184.56 224.525 189.566 235.503 197.383 242.256C198.39 243.237 200.621 244.978 203.523 247.373C217.809 259.129 261.222 294.721 260.712 305.761C260.83 306.312 260.507 306.867 259.959 307.204C255.915 310.008 243.08 299.45 231.805 289.977C229.574 288.237 227.34 286.276 224.998 284.426C206.698 269.626 195.005 261.923 194.894 261.814C194.226 261.38 193.234 261.502 192.693 262.28C192.261 262.947 192.385 263.939 193.165 264.482C193.277 264.591 204.857 272.185 223.045 286.876C225.388 288.725 227.51 290.577 229.853 292.427C244.362 304.401 255.858 313.871 261.761 309.832C263.182 308.823 263.934 307.38 264.022 305.724C264.42 294.575 234.712 268.648 205.584 244.811C202.682 242.417 200.451 240.676 199.557 239.804C194.418 235.227 190.464 228.541 188.538 224.921C197.262 225.375 206.548 226.594 208.107 227.68C209.002 228.553 209.9 229.646 210.91 230.848C216.07 236.969 223.702 246.373 233.526 238.538C233.961 238.092 234.173 237.427 234.055 236.877C233.71 235.888 225.327 212.038 213.218 206.106C209.219 204.164 203.137 203.24 196.061 202.216C181.467 200.174 161.453 197.199 147.573 182.791C126.863 161.287 92.7526 112.127 92.417 111.8C91.9666 111.143 90.9691 110.823 90.2044 111.384C90.0925 111.275 89.9837 111.386 89.8749 111.498Z" fill="#111D30"/>
<path d="M113.521 161.989C113.412 162.1 113.194 162.324 113.197 162.544L111.182 168.415C110.861 169.191 111.315 170.069 112.091 170.391C112.868 170.713 113.745 170.262 114.065 169.486L116.081 163.615C116.401 162.839 115.948 161.961 115.171 161.639C114.506 161.426 113.956 161.543 113.521 161.989Z" fill="#111D30"/>
<path d="M106.653 152.025C106.544 152.137 106.435 152.248 106.329 152.58L102.485 161.893C102.165 162.669 102.509 163.658 103.286 163.98C104.063 164.302 105.051 163.96 105.372 163.184L109.216 153.872C109.536 153.096 109.192 152.107 108.415 151.785C107.859 151.46 107.088 151.579 106.653 152.025Z" fill="#111D30"/>
<path d="M96.5867 142.208C96.4779 142.319 96.3691 142.431 96.2603 142.542L91.2007 151.758C90.7685 152.425 91.1131 153.414 91.7811 153.848C92.4492 154.282 93.4376 153.939 93.8698 153.272L98.9294 144.057C99.3616 143.39 99.017 142.401 98.3489 141.967C97.9016 141.531 97.0219 141.761 96.5867 142.208Z" fill="#111D30"/>
</svg>
