<svg width="604" height="441" viewBox="0 0 604 441" fill="none" xmlns="http://www.w3.org/2000/svg">
<path d="M317.059 440.248C475.532 440.248 604 424.4 604 404.85C604 385.299 475.532 369.451 317.059 369.451C158.586 369.451 30.1184 385.299 30.1184 404.85C30.1184 424.4 158.586 440.248 317.059 440.248Z" fill="#DEF5C0"/>
<path d="M82.8412 115.563L81.4155 107.831L100.906 104.362L101.577 109.426L82.8412 115.563Z" fill="#111D30"/>
<path d="M82.8412 116.26C82.7153 116.263 82.5913 116.229 82.4848 116.162C82.3993 116.111 82.3258 116.043 82.2692 115.961C82.2125 115.879 82.1741 115.786 82.1563 115.689L80.7587 107.956C80.7419 107.866 80.7431 107.774 80.7623 107.684C80.7815 107.594 80.8183 107.509 80.8705 107.434C80.9229 107.358 80.9901 107.292 81.0681 107.242C81.1461 107.192 81.2333 107.158 81.3247 107.141L100.815 103.658C100.909 103.642 101.005 103.644 101.098 103.666C101.19 103.687 101.277 103.727 101.354 103.784C101.43 103.84 101.494 103.91 101.542 103.992C101.59 104.073 101.621 104.164 101.633 104.257L102.332 109.322C102.353 109.483 102.317 109.646 102.23 109.783C102.144 109.921 102.012 110.024 101.857 110.074L83.1208 116.211C83.033 116.25 82.937 116.267 82.8412 116.26ZM82.2262 108.388L83.3863 114.658L100.815 108.946L100.319 105.177L82.2262 108.388Z" fill="#111D30"/>
<path d="M160.28 302.839H148.644V378.171H160.28V302.839Z" fill="#DEF5C0"/>
<path d="M160.28 378.874H148.644C148.459 378.874 148.281 378.801 148.15 378.67C148.019 378.539 147.946 378.362 147.946 378.177V302.839C147.946 302.654 148.019 302.477 148.15 302.347C148.281 302.216 148.459 302.143 148.644 302.143H160.28C160.466 302.143 160.643 302.216 160.774 302.347C160.905 302.477 160.979 302.654 160.979 302.839V378.177C160.979 378.362 160.905 378.539 160.774 378.67C160.643 378.801 160.466 378.874 160.28 378.874ZM149.343 377.481H159.581V303.536H149.343V377.481Z" fill="#111D30"/>
<path d="M161.203 374.437H147.701L75.2797 401.521C63.3225 404.558 108.426 414.109 153.802 414.624C200.436 415.153 247.349 406.536 232.911 401.521L161.203 374.437Z" fill="#DEF5C0"/>
<path d="M255.959 274.265C255.959 274.265 207.159 317.245 122.34 304.964C48.4021 294.257 49.4714 194.001 99.1313 165.636C162.391 129.502 324.201 221.838 255.959 274.265Z" fill="#DEF5C0"/>
<path d="M64.839 221.343C64.839 221.343 59.1294 254.425 78.2218 279.677C97.3143 304.929 129.077 305.821 140.496 306.712C119.531 303.689 110.599 298.91 106.148 292.843C101.696 286.775 99.9 285.368 95.6161 286.97C91.3322 288.573 84.7421 285.194 80.9893 270.433C77.2365 255.672 76.3489 253.889 72.2467 253.714C68.1445 253.54 63.7767 244.108 64.839 221.343Z" fill="#111D30"/>
<path d="M152.209 307.841C142.182 307.833 132.17 307.102 122.249 305.654C106.176 303.327 92.8976 296.772 82.7364 286.149C73.7213 276.758 67.5365 264.31 64.832 250.148C61.8071 233.799 63.3248 216.937 69.2207 201.385C75.3356 185.363 85.8323 172.441 98.7819 165.043C119.251 153.354 151.594 154.03 187.535 166.91C221.08 178.92 250.508 199.254 264.408 219.971C271.019 229.842 273.905 239.399 273.004 248.378C272.011 258.235 266.435 267.131 256.441 274.815C255.875 275.302 243.492 285.898 221.254 294.877C205.363 301.272 181.881 307.841 152.209 307.841ZM135.017 158.112C121.11 158.112 108.978 160.815 99.4807 166.241C73.7493 180.933 59.7584 216.119 66.2087 249.904C71.9742 280.102 92.4783 299.934 122.48 304.274C166.109 310.593 199.954 301.955 220.667 293.602C243.121 284.546 255.414 273.853 255.533 273.742C279.084 255.63 272.71 234.941 263.22 220.758C249.502 200.278 220.325 180.153 187.046 168.234C168.303 161.484 150.552 158.112 135.017 158.112Z" fill="#111D30"/>
<path d="M145.493 375.189C145.493 375.189 101.955 395.112 103.562 400.622C105.169 406.132 109.803 410.758 121.403 412.896C99.4528 411.503 72.4844 405.603 73.2251 402.224C78.4036 400.441 145.493 375.189 145.493 375.189Z" fill="white"/>
<path d="M157.883 415.341C156.485 415.341 155.151 415.341 153.795 415.341C135.305 415.096 116.856 413.544 98.5862 410.695C89.0609 409.17 73.0224 406.125 72.6381 402.921C72.4704 401.563 74.3782 401.047 75.0631 400.873L147.442 373.81C147.522 373.777 147.608 373.76 147.694 373.761H161.196C161.282 373.764 161.367 373.78 161.447 373.81L233.149 400.887C233.98 401.173 236.552 402.071 236.238 403.861C235.539 407.686 219.235 410.556 209.563 411.921C192.433 414.219 175.167 415.362 157.883 415.341ZM74.0218 402.803C75.3496 405.756 111.431 413.475 153.781 413.948C197.06 414.436 234.148 407.414 234.847 403.618C234.882 403.388 234.47 402.823 232.66 402.224L161.077 375.133H147.799L75.5313 402.169C75.506 402.175 75.4797 402.175 75.4544 402.169C74.9436 402.253 74.4613 402.461 74.0497 402.775L74.0218 402.803Z" fill="#111D30"/>
<path d="M148.435 307.966C148.435 307.966 156.506 309.297 159.966 321.571C160.196 315.434 160.665 307.43 160.665 307.43L148.435 307.966Z" fill="#111D30"/>
<path d="M102.821 49.3995C98.8727 43.7151 74.2594 30.2358 79.0814 71.8163C79.0796 71.8488 79.0796 71.8813 79.0814 71.9138H78.9975C77.7539 71.9138 76.5611 72.4063 75.6817 73.2829C74.8023 74.1595 74.3083 75.3484 74.3083 76.5881C74.3083 77.8278 74.8023 79.0167 75.6817 79.8933C76.5611 80.7698 77.7539 81.2623 78.9975 81.2623C79.6959 81.2602 80.3852 81.1057 81.0172 80.8095C84.2389 89.6355 88.8303 119.98 88.8303 119.98L110.781 122.111L102.842 95.8284C104.457 95.7137 106.056 95.4383 107.615 95.0064C129.412 88.5349 106.777 55.0977 102.821 49.3995Z" fill="#DEF5C0"/>
<path d="M110.788 122.794H110.718L88.7674 120.655C88.6134 120.64 88.4687 120.575 88.3561 120.469C88.2436 120.363 88.1695 120.223 88.1454 120.07C88.1035 119.771 83.7497 91.1402 80.5979 81.7012C80.0822 81.8624 79.545 81.9446 79.0045 81.945C77.6312 81.9522 76.3069 81.4365 75.3023 80.5031C74.2977 79.5697 73.6885 78.2892 73.5993 76.9231C73.5101 75.5571 73.9475 74.2086 74.8223 73.1533C75.697 72.0979 76.943 71.4154 78.3057 71.2451C76.0484 50.8415 81.164 44.4257 85.8812 42.6842C92.7368 40.1137 101.256 45.9722 103.394 49.0442C108.796 56.8253 120.921 76.2119 116.826 87.8174C115.428 91.6836 112.43 94.3376 107.811 95.71C106.483 96.0864 105.124 96.3428 103.751 96.4762L111.438 121.93C111.47 122.037 111.477 122.15 111.457 122.259C111.436 122.369 111.39 122.472 111.322 122.56C111.253 122.648 111.165 122.718 111.063 122.765C110.962 122.812 110.851 122.834 110.739 122.829L110.788 122.794ZM89.4453 119.311L109.817 121.275L102.171 96.0304C102.142 95.9322 102.135 95.8289 102.151 95.7277C102.167 95.6266 102.205 95.5301 102.262 95.4452C102.32 95.359 102.396 95.2867 102.486 95.2337C102.575 95.1806 102.676 95.1482 102.779 95.1387C104.349 95.0235 105.903 94.7552 107.42 94.3376C111.613 93.1046 114.303 90.7431 115.512 87.3228C119.51 75.996 106.406 55.7316 102.248 49.7965C100.361 47.0798 92.4643 41.6671 86.3843 43.952C82.0864 45.5681 77.4461 51.6983 79.7733 71.7327V71.8581C79.7804 71.9546 79.7673 72.0515 79.7349 72.1426C79.7024 72.2338 79.6512 72.3172 79.5846 72.3875C79.4451 72.5253 79.2568 72.6029 79.0605 72.6035H78.9836C78.3865 72.6082 77.7981 72.7464 77.2618 73.0079C76.7255 73.2695 76.2548 73.6476 75.8846 74.1145C75.5144 74.5815 75.254 75.1253 75.1226 75.7059C74.9912 76.2864 74.9923 76.889 75.1256 77.4691C75.2589 78.0493 75.5211 78.5922 75.8929 79.0579C76.2647 79.5236 76.7366 79.9002 77.2738 80.1599C77.8111 80.4196 78.3999 80.5559 78.997 80.5586C79.5941 80.5613 80.1841 80.4304 80.7237 80.1756C80.8128 80.1362 80.9092 80.1159 81.0067 80.1159C81.1042 80.1159 81.2006 80.1362 81.2898 80.1756C81.3799 80.2102 81.4612 80.2645 81.5277 80.3344C81.5942 80.4043 81.6442 80.488 81.6741 80.5796C84.6931 88.8066 88.7954 115.09 89.4453 119.325V119.311Z" fill="#111D30"/>
<path d="M108.111 48.7307C108.111 48.7307 108.908 47.435 109.446 38.3233C110.103 27.1776 84.5534 42.0641 76.7962 42.3288C69.2137 42.5587 65.8733 60.2735 75.9296 71.454C76.1354 71.6802 76.395 71.8511 76.6844 71.9509C76.9739 72.0507 77.2839 72.0763 77.5859 72.0252C78.4736 71.9038 79.3769 71.9708 80.2368 72.2217C81.0967 72.4726 81.8937 72.9018 82.5756 73.4811C85.9441 76.17 85.4269 73.2373 84.8049 71.8998C84.0432 70.2767 83.6239 63.2619 85.357 57.8005C88.8373 46.8638 104.359 59.6674 108.111 48.7307Z" fill="#111D30"/>
<path d="M84.6512 75.2993C83.8196 75.2993 82.8622 74.6027 82.1354 74.0524C81.5308 73.5332 80.8228 73.1474 80.0579 72.9205C79.2931 72.6936 78.4887 72.6306 77.6977 72.7358C77.28 72.8077 76.8509 72.7732 76.4502 72.6356C76.0495 72.498 75.6901 72.2617 75.4055 71.9486C68.5219 64.2859 67.7182 53.391 70.4227 47.024C71.8204 43.7012 74.1546 41.7507 76.7682 41.6601C79.2142 41.5765 83.6938 39.9047 88.4389 38.1771C96.6574 35.112 105.155 31.9494 108.629 34.5059C109.74 35.2583 110.25 36.5818 110.145 38.3791C109.67 46.4806 108.978 48.5426 108.747 49.0163C106.651 54.9653 101.298 54.4359 96.5525 53.9761C91.8074 53.5164 87.5864 53.0984 86.0209 58.0234C84.3018 63.457 84.777 70.2001 85.4409 71.6073C85.4898 71.7118 86.594 74.1081 85.4409 75.0137C85.2186 75.1968 84.9396 75.2977 84.6512 75.2993ZM78.4525 71.259C80.1181 71.277 81.726 71.8703 83.0019 72.9378C83.4466 73.3637 83.9748 73.6934 84.5534 73.9061C84.5608 73.3262 84.429 72.753 84.169 72.2342C83.3094 70.3882 82.946 63.1296 84.6931 57.6055C86.601 51.6007 91.9611 52.1232 96.6923 52.5899C101.549 53.0566 105.777 53.4676 107.448 48.5217C107.46 48.4828 107.476 48.4454 107.496 48.4102C107.545 48.3057 108.258 46.6548 108.747 38.3025C108.824 36.9859 108.503 36.0872 107.804 35.5926C104.939 33.5028 96.0633 36.7978 88.9351 39.4519C84.0851 41.263 79.5007 42.9349 76.8311 43.0603C74.7346 43.1299 72.9386 44.7321 71.7226 47.5743C69.1718 53.5512 69.9615 63.7983 76.4607 71.0221C76.589 71.1613 76.7503 71.2661 76.9298 71.327C77.1093 71.3878 77.3013 71.4028 77.488 71.3704C77.8062 71.3091 78.1286 71.2718 78.4525 71.259Z" fill="#111D30"/>
<path d="M318.96 220.047C318.96 220.047 357.005 246.992 367.18 247.842C377.355 248.692 372.491 247.417 372.491 247.417L359.213 264.951L305.402 236.111L318.96 220.047Z" fill="#111D30"/>
<path d="M359.213 265.647C359.099 265.647 358.986 265.618 358.885 265.564L305.074 236.724C304.983 236.675 304.904 236.606 304.843 236.523C304.782 236.44 304.74 236.344 304.721 236.243C304.701 236.141 304.705 236.037 304.731 235.937C304.757 235.837 304.805 235.745 304.871 235.665L318.429 219.595C318.542 219.46 318.702 219.373 318.877 219.351C319.052 219.329 319.229 219.374 319.372 219.476C319.75 219.748 357.375 246.324 367.243 247.153C369.34 247.327 370.702 247.403 371.611 247.431L371.939 246.999C372.022 246.889 372.136 246.805 372.267 246.759C372.397 246.713 372.539 246.707 372.673 246.742C373.554 246.978 374.483 247.285 374.343 248.065C374.266 248.525 374.21 248.831 372.296 248.838L359.779 265.369C359.714 265.456 359.628 265.527 359.53 265.575C359.431 265.624 359.323 265.649 359.213 265.647ZM306.485 235.909L359.018 264.08L370.569 248.755C369.661 248.713 368.529 248.629 367.117 248.511C357.403 247.696 323.887 224.339 319.072 220.96L306.485 235.909Z" fill="#111D30"/>
<path d="M359.388 266.379L375.902 280.631L387.083 269.228L385.609 263.808C385.609 263.808 405.959 253.498 411.857 232.684C406.266 229.835 403.303 232.969 396.518 236.961C389.732 240.953 374.923 248.427 366.223 247.494C364.79 254.062 362.492 260.412 359.388 266.379Z" fill="#DEF5C0"/>
<path d="M375.881 281.328C375.712 281.33 375.548 281.27 375.42 281.161L358.906 266.901C358.785 266.797 358.703 266.654 358.675 266.496C358.647 266.339 358.674 266.177 358.752 266.037C361.83 260.137 364.114 253.857 365.545 247.361C365.582 247.193 365.68 247.044 365.821 246.944C365.962 246.843 366.135 246.799 366.307 246.818C373.875 247.64 387.125 241.705 396.168 236.369C397.307 235.672 398.314 235.073 399.285 234.46C404.03 231.486 407.168 229.521 412.179 232.071C412.323 232.144 412.437 232.264 412.502 232.411C412.567 232.559 412.579 232.724 412.535 232.879C407.14 251.91 389.634 262.387 386.433 264.171L387.761 269.047C387.798 269.168 387.802 269.297 387.771 269.419C387.74 269.542 387.676 269.654 387.586 269.743L376.405 281.147C376.335 281.211 376.252 281.26 376.162 281.291C376.071 281.323 375.976 281.335 375.881 281.328ZM360.241 266.212L375.839 279.677L386.322 269.026L384.924 263.996C384.88 263.841 384.892 263.676 384.957 263.529C385.022 263.382 385.136 263.261 385.28 263.188C385.483 263.091 405.065 252.948 411.012 233.053C407.014 231.242 404.471 232.837 400.012 235.63C399.075 236.223 398.02 236.884 396.867 237.56C394.861 238.744 377.244 248.894 366.768 248.239C365.332 254.472 363.14 260.507 360.241 266.212Z" fill="#111D30"/>
<path d="M278.72 332.083C278.72 332.083 280.006 377.627 285.548 385.986C291.09 394.346 289.147 389.783 289.147 389.783L266.679 390.389L257.762 338.088L278.72 332.083Z" fill="#111D30"/>
<path d="M289.357 391.712C289.07 391.712 288.658 391.455 287.896 390.48L266.7 391.051C266.534 391.053 266.372 390.996 266.244 390.89C266.116 390.784 266.03 390.636 266.001 390.473L257.077 338.171C257.048 338.002 257.083 337.828 257.174 337.683C257.266 337.538 257.408 337.431 257.573 337.384L278.539 331.414C278.641 331.384 278.749 331.378 278.855 331.396C278.96 331.414 279.06 331.456 279.147 331.519C279.233 331.581 279.304 331.663 279.353 331.757C279.403 331.851 279.43 331.956 279.433 332.062C279.433 332.515 280.775 377.53 286.142 385.568C287.274 387.268 288.05 388.355 288.581 389.051H289.14C289.277 389.052 289.411 389.092 289.526 389.167C289.64 389.243 289.73 389.35 289.783 389.476C290.133 390.291 290.447 391.197 289.783 391.566C289.656 391.651 289.509 391.701 289.357 391.712ZM258.552 338.54L267.266 389.63L286.869 389.1C286.352 388.404 285.723 387.47 284.961 386.314C279.748 378.498 278.266 339.585 278.049 332.968L258.552 338.54Z" fill="#111D30"/>
<path d="M265.603 391.343L264.073 412.694L280.265 414.269L283.759 409.817C283.759 409.817 305.311 420.343 325.941 412.095C324.837 406.063 320.469 405.735 313.048 402.998C305.626 400.26 288.371 390.863 286.009 384.691C279.491 387.694 272.642 389.927 265.603 391.343Z" fill="#DEF5C0"/>
<path d="M308.91 415.941C300.341 415.845 291.875 414.065 283.997 410.702L280.81 414.722C280.737 414.812 280.643 414.883 280.535 414.928C280.428 414.973 280.311 414.991 280.195 414.979L264.01 413.405C263.828 413.389 263.66 413.303 263.541 413.165C263.422 413.027 263.362 412.848 263.374 412.667L264.911 391.309C264.923 391.155 264.985 391.009 265.089 390.894C265.193 390.779 265.332 390.702 265.484 390.675C272.473 389.266 279.273 387.055 285.751 384.085C285.839 384.046 285.934 384.027 286.03 384.027C286.127 384.027 286.222 384.046 286.31 384.085C286.399 384.121 286.48 384.174 286.547 384.243C286.614 384.311 286.667 384.392 286.701 384.482C288.875 390.215 305.416 399.459 313.341 402.378C314.578 402.837 315.71 403.221 316.835 403.59C322.182 405.394 325.718 406.585 326.703 412.005C326.733 412.163 326.706 412.326 326.628 412.467C326.551 412.608 326.426 412.718 326.277 412.778C320.744 414.929 314.849 416.003 308.91 415.941ZM283.787 409.142C283.894 409.143 283.999 409.17 284.095 409.218C284.304 409.316 305.235 419.319 325.166 411.677C324.194 407.546 321.343 406.585 316.339 404.892C315.284 404.537 314.089 404.133 312.845 403.673C306.01 401.152 289.084 392.186 285.695 385.638C279.469 388.42 272.96 390.522 266.281 391.908L264.834 412.054L279.964 413.523L283.256 409.344C283.323 409.271 283.406 409.214 283.497 409.175C283.589 409.137 283.688 409.118 283.787 409.121V409.142Z" fill="#111D30"/>
<path d="M125.275 124.424C125.392 124.181 125.56 123.966 125.769 123.795C125.978 123.624 126.223 123.501 126.485 123.435C126.747 123.369 127.02 123.36 127.286 123.411C127.551 123.461 127.803 123.57 128.022 123.728C141.3 133.369 160.741 151.808 195.907 157.562C235.287 163.998 278.063 145.901 278.063 145.901L284.695 157.868C284.695 157.868 213.651 195.186 169.743 185.106C125.834 175.026 95.8118 153.319 95.8118 153.319C111.298 139.457 118.594 137.994 125.275 124.424Z" fill="white"/>
<path d="M167.345 171.187C167.345 171.187 161.279 158.739 160.029 154.288C158.778 149.836 164.312 151.62 169.114 157.311C173.915 163.002 182.671 169.049 186.061 169.94C189.45 170.832 182.671 160.188 188.199 161.226C193.727 162.264 199.618 166.026 204.615 165.67C209.612 165.315 207.83 162.828 217.11 162.647C226.391 162.466 236.203 160.334 241.374 156.426C232.827 157.499 186.074 168.164 144.752 135.66C144.144 135.103 143.564 134.574 143.005 134.079C142.684 133.798 142.276 133.637 141.849 133.623C141.422 133.609 141.004 133.743 140.666 134.002C140.327 134.26 140.089 134.628 139.991 135.043C139.894 135.457 139.944 135.892 140.132 136.273L153.963 161.762L167.345 171.187Z" fill="#DEF5C0"/>
<path d="M186.2 187.53C180.609 187.579 175.03 187.002 169.568 185.809C126.03 175.813 95.7 154.107 95.3994 153.891C95.315 153.829 95.2455 153.75 95.1959 153.658C95.1463 153.567 95.118 153.465 95.1129 153.361C95.107 153.257 95.1247 153.153 95.1646 153.056C95.2045 152.96 95.2657 152.874 95.3435 152.804C100.424 148.262 104.561 145.092 108.209 142.299C115.442 136.726 120.215 133.097 124.632 124.118C124.796 123.785 125.031 123.493 125.321 123.26C125.61 123.028 125.947 122.862 126.308 122.773C126.669 122.684 127.045 122.675 127.41 122.746C127.774 122.817 128.119 122.966 128.42 123.184C130.3 124.577 132.312 126.103 134.444 127.74C147.722 137.973 165.969 151.982 196.012 156.893C234.735 163.218 277.351 145.462 277.777 145.281C277.937 145.213 278.116 145.206 278.28 145.263C278.444 145.32 278.581 145.435 278.664 145.587L285.31 157.548C285.356 157.629 285.384 157.718 285.394 157.811C285.404 157.903 285.395 157.996 285.369 158.085C285.342 158.174 285.298 158.257 285.239 158.328C285.179 158.4 285.106 158.459 285.024 158.502C284.381 158.837 229.186 187.53 186.2 187.53ZM96.9299 153.257C101.738 156.559 130.307 175.367 169.882 184.451C210.842 193.848 276.568 161.24 283.724 157.597L277.742 146.799C272.452 148.924 232.422 164.256 195.781 158.265C165.396 153.299 147.016 139.164 133.584 128.841C131.488 127.211 129.454 125.664 127.588 124.313C127.454 124.213 127.298 124.144 127.134 124.111C126.97 124.078 126.8 124.082 126.637 124.122C126.474 124.161 126.322 124.237 126.192 124.342C126.061 124.447 125.956 124.58 125.883 124.731C121.32 134.003 116.442 137.743 109.048 143.4C105.589 146.061 101.675 149.056 96.9299 153.257Z" fill="#111D30"/>
<path d="M190.54 202.932L123.605 257.393C123.605 257.393 68.3961 180.382 69.4444 130.032C69.4521 129.727 69.5336 129.428 69.682 129.161C72.98 123.005 78.1056 118.015 84.3577 114.873C87.3138 113.431 94.1415 109.739 99.5716 111.753C99.917 111.889 100.209 112.134 100.403 112.449C102.5 115.549 104.505 118.719 106.071 121.24C106.113 121.31 106.155 121.387 106.204 121.456C107.238 118.74 108.468 116.455 109.076 114.734C109.238 114.284 109.569 113.915 110 113.706C110.431 113.496 110.927 113.463 111.382 113.613C128.28 118.956 142.921 129.635 153.879 160.543C173.062 171.849 190.54 202.932 190.54 202.932Z" fill="white"/>
<path d="M123.605 258.089H123.514C123.419 258.077 123.328 258.045 123.247 257.996C123.165 257.946 123.094 257.881 123.039 257.804C122.48 257.023 67.6972 180.02 68.7455 130.018C68.7587 129.601 68.8713 129.192 69.074 128.827C72.4473 122.553 77.6728 117.463 84.0432 114.247L84.6302 113.961C87.81 112.387 94.4141 109.085 99.8091 111.098C100.287 111.282 100.695 111.611 100.976 112.038C102.639 114.491 104.422 117.242 106.064 119.889C106.448 118.956 106.847 118.092 107.21 117.291C107.699 116.211 108.125 115.285 108.412 114.504C108.624 113.875 109.078 113.354 109.673 113.057C110.269 112.759 110.959 112.709 111.592 112.916C126.114 117.507 142.557 126.695 154.452 160.042C173.495 171.431 190.966 202.284 191.155 202.591C191.234 202.736 191.259 202.905 191.224 203.068C191.19 203.23 191.098 203.374 190.966 203.475L124.052 257.929C123.926 258.033 123.768 258.09 123.605 258.089ZM96.1192 111.864C92.024 111.864 87.6423 114.038 85.2732 115.208L84.6792 115.501C78.5565 118.588 73.5334 123.476 70.29 129.502C70.1999 129.67 70.1497 129.856 70.1432 130.046C69.1508 177.248 118.594 249.026 123.745 256.376L189.639 202.737C187.284 198.676 170.993 171.389 153.522 161.087C153.379 161.004 153.27 160.873 153.215 160.717C141.523 127.761 125.401 118.719 111.172 114.219C110.894 114.137 110.595 114.164 110.336 114.293C110.077 114.422 109.876 114.645 109.775 114.915C109.474 115.772 109.034 116.727 108.531 117.834C108.028 118.942 107.427 120.265 106.895 121.645C106.849 121.767 106.768 121.874 106.663 121.953C106.558 122.032 106.432 122.079 106.301 122.091C106.172 122.101 106.041 122.076 105.925 122.017C105.809 121.958 105.712 121.867 105.645 121.756L105.54 121.589C103.73 118.635 101.724 115.522 99.8651 112.784C99.7442 112.599 99.5717 112.454 99.3689 112.366C98.3244 112.007 97.2238 111.837 96.1192 111.864Z" fill="#111D30"/>
<path d="M123.137 254.502C123.137 254.502 143.704 285.292 183.517 260.917C223.33 236.543 239.921 217.937 245.896 221.148C251.871 224.359 302.083 260.917 328.639 266.692C333.992 260.646 352.351 240.145 352.351 240.145C352.351 240.145 279.832 193.89 263.213 181.797C233.435 160.132 149.679 217.937 123.137 254.502Z" fill="#DEF5C0"/>
<path d="M158.358 270.057C158.358 270.057 230.912 267.786 239.536 276.124C248.16 284.463 263.15 372.535 263.15 372.535L301.279 360.212C301.279 360.212 285.045 249.667 277.763 236.452C265.687 214.544 195.614 214.892 161.615 216.536C153.858 223.21 145.402 231.444 145.402 231.444L158.358 270.057Z" fill="#DEF5C0"/>
<path d="M243.534 177.589C221.59 183.726 211.149 189.153 181.888 207.912C171.539 214.621 152.362 224.373 152.362 224.373C152.362 224.373 202.05 178.92 243.534 177.589Z" fill="white"/>
<path d="M105.456 104.362L108.538 114.762L120.712 118.9L112.549 106.096L105.456 104.362Z" fill="white"/>
<path d="M120.712 119.597C120.637 119.607 120.562 119.607 120.488 119.597L108.307 115.424C108.202 115.388 108.108 115.327 108.031 115.247C107.955 115.167 107.898 115.07 107.867 114.964L104.785 104.557C104.751 104.439 104.748 104.315 104.777 104.196C104.807 104.077 104.867 103.968 104.952 103.88C105.037 103.792 105.144 103.727 105.262 103.693C105.38 103.659 105.504 103.657 105.624 103.686L112.696 105.421C112.869 105.464 113.019 105.571 113.115 105.72L121.278 118.524C121.362 118.642 121.407 118.783 121.407 118.928C121.407 119.073 121.362 119.214 121.278 119.332C121.21 119.417 121.124 119.485 121.026 119.531C120.928 119.577 120.82 119.599 120.712 119.597ZM109.104 114.219L119.055 117.604L112.109 106.702L106.469 105.309L109.104 114.219Z" fill="#111D30"/>
<path d="M157.031 272.774C150.782 272.789 144.614 271.358 139.014 268.594C132.511 265.403 126.868 260.707 122.557 254.899C122.475 254.782 122.432 254.644 122.432 254.502C122.432 254.36 122.475 254.221 122.557 254.105C133.081 239.601 152.285 221.991 173.922 207C197.787 190.463 220.514 179.832 237.908 177.102C248.817 175.374 257.475 176.774 263.618 181.281C280.034 193.214 351.994 239.142 352.721 239.601C352.806 239.656 352.879 239.729 352.933 239.814C352.987 239.899 353.022 239.996 353.035 240.096C353.049 240.195 353.042 240.297 353.013 240.393C352.984 240.489 352.934 240.578 352.868 240.653C352.686 240.855 334.446 261.224 329.156 267.201C329.071 267.298 328.96 267.369 328.837 267.407C328.714 267.445 328.582 267.449 328.457 267.417C315.347 264.568 292.215 251.395 279.587 243.732C279.429 243.637 279.315 243.483 279.27 243.304C279.226 243.125 279.254 242.936 279.349 242.778C279.397 242.699 279.459 242.63 279.534 242.575C279.608 242.52 279.692 242.481 279.782 242.459C279.872 242.437 279.965 242.433 280.056 242.447C280.147 242.461 280.235 242.493 280.314 242.541C292.732 250.03 315.375 262.952 328.352 265.94C333.412 260.228 348.213 243.697 351.253 240.305C343.818 235.519 278.392 193.723 262.808 182.361C256.972 178.119 248.677 176.788 238.145 178.467C220.947 181.184 198.43 191.703 174.739 208.135C153.417 222.904 134.5 240.179 123.996 254.502C128.186 259.912 133.55 264.308 139.685 267.361C153.48 274.132 168.729 272.509 185.005 262.548C204.727 250.468 220.793 237.47 232.527 228.003C245.462 217.554 252.591 211.779 256.008 213.618C256.169 213.706 256.289 213.855 256.342 214.031C256.394 214.207 256.375 214.396 256.287 214.558C256.2 214.72 256.052 214.842 255.875 214.895C255.698 214.949 255.507 214.93 255.344 214.844C252.744 213.451 244.211 220.347 233.407 229.083C221.646 238.591 205.544 251.604 185.739 263.732C174.774 270.44 165.109 272.774 157.031 272.774Z" fill="#111D30"/>
<path d="M263.15 373.231C262.987 373.235 262.827 373.181 262.699 373.079C262.572 372.977 262.484 372.834 262.451 372.674C262.277 371.817 245.05 286.991 239.816 276.473C237.02 270.9 235.329 270.551 219.549 272.453C209.192 273.7 195.677 272.746 182.601 271.819C173.642 271.185 165.179 270.586 158.386 270.753C158.201 270.753 158.023 270.68 157.892 270.549C157.761 270.419 157.687 270.242 157.687 270.057C157.687 269.872 157.761 269.695 157.892 269.564C158.023 269.434 158.201 269.36 158.386 269.36C165.256 269.193 173.761 269.792 182.734 270.433C195.74 271.352 209.192 272.3 219.416 271.074C235.14 269.179 237.901 269.353 241.136 275.86C246.238 286.128 261.878 362.552 263.73 371.636L300.552 359.717C299.266 351.037 284.067 249.249 277.197 236.787C273.241 229.612 261.983 224.304 243.722 220.995C243.632 220.979 243.545 220.945 243.468 220.896C243.391 220.847 243.324 220.783 243.271 220.708C243.219 220.633 243.181 220.548 243.162 220.459C243.142 220.369 243.14 220.277 243.156 220.187C243.172 220.096 243.206 220.009 243.256 219.931C243.306 219.854 243.371 219.787 243.447 219.734C243.523 219.682 243.609 219.645 243.699 219.626C243.789 219.606 243.883 219.605 243.974 219.622C262.661 223.008 274.255 228.56 278.42 236.118C285.681 249.291 301.356 355.579 302.02 360.114C302.043 360.276 302.008 360.441 301.921 360.58C301.834 360.719 301.701 360.823 301.545 360.874L263.367 373.203C263.296 373.223 263.223 373.232 263.15 373.231Z" fill="#111D30"/>
<path d="M151.468 225.258C151.226 231.545 153.111 237.73 156.821 242.82C163.062 251.534 184.383 262.025 203.923 249.354C200.75 256.111 184.677 271.144 184.677 271.144C184.677 271.144 155.591 265.808 143.277 233.792C145.848 230.799 148.582 227.95 151.468 225.258Z" fill="#111D30"/>
<path d="M234.169 234.823C231.087 242.422 230.011 252.892 235.504 250.252C238.753 248.692 240.144 247.466 242.555 247.313C246.923 247.097 240.459 255.839 244.428 253.986C254.212 249.451 254.596 245.362 257.273 240.911C259.949 236.46 264.052 243.934 258.705 251.053C253.359 258.173 258.65 260.722 256.784 262.701C252.772 266.971 248.083 277.511 248.083 277.511L219.43 262.61C206.082 246.923 210.793 238.194 234.169 234.823Z" fill="#111D30"/>
<path d="M169.4 202.563C169.254 202.563 169.112 202.519 168.993 202.435C168.874 202.352 168.784 202.233 168.736 202.096C168.645 201.838 159.497 176.057 140.943 165.113C140.836 165.051 140.746 164.962 140.685 164.855C132.187 149.53 123.78 135.828 106.895 122.822C106.455 122.489 106.135 122.021 105.986 121.49C105.837 120.96 105.867 120.395 106.071 119.882L111.494 106.096C111.562 105.924 111.697 105.785 111.868 105.711C112.039 105.637 112.233 105.634 112.406 105.703C112.579 105.771 112.718 105.905 112.792 106.076C112.866 106.246 112.869 106.439 112.801 106.612L107.371 120.391C107.282 120.622 107.271 120.876 107.339 121.115C107.407 121.354 107.55 121.564 107.748 121.714C124.786 134.831 133.27 148.631 141.817 164.005C160.686 175.262 169.966 201.371 170.057 201.622C170.088 201.709 170.102 201.8 170.097 201.892C170.092 201.984 170.069 202.073 170.03 202.156C169.99 202.239 169.935 202.313 169.866 202.375C169.798 202.436 169.718 202.483 169.631 202.514C169.556 202.54 169.479 202.557 169.4 202.563Z" fill="#111D30"/>
<path d="M216.775 269.005C202.476 271.004 161.678 272.377 149.357 238.354C137.037 204.332 105.763 208.602 93.4497 197.254C93.4497 197.254 71.7156 237.574 112.395 264.609C153.075 291.645 216.775 269.005 216.775 269.005Z" fill="#DEF5C0"/>
<path d="M166.458 261.363C201.072 254.07 226.23 234.502 242.464 221.343C230.151 235.749 235.776 238.682 229.354 241.886C222.932 245.09 218.732 250.601 217.131 255.665C215.531 260.729 235.238 268.699 232.031 271.095C224.001 272.432 210.464 275.156 203.036 274.167C186.976 272.028 172.342 265.626 166.458 261.363Z" fill="#111D30"/>
<path d="M209.088 272.474C200.394 272.512 191.739 271.328 183.377 268.956C166.011 263.808 154.026 253.324 148.7 238.633C140.552 216.153 123.738 210.539 110.222 206.025C103.234 203.677 97.1396 201.657 92.9745 197.819C89.2986 194.44 87.4466 190.672 87.4816 186.631C87.5375 179.4 93.5615 173.946 93.8131 173.716C93.9512 173.592 94.1329 173.528 94.3184 173.538C94.5038 173.548 94.6778 173.631 94.802 173.768C94.9261 173.906 94.9904 174.087 94.9806 174.272C94.9707 174.457 94.8876 174.63 94.7495 174.754C94.6867 174.81 88.9212 180.041 88.8793 186.652C88.8793 190.281 90.5495 193.695 93.9179 196.795C97.8664 200.431 103.8 202.409 110.69 204.701C124.492 209.313 141.67 215.046 150.042 238.138C161.922 270.921 203.993 272.586 219.228 270.461C225.576 269.524 231.78 267.79 237.691 265.299C237.86 265.235 238.047 265.239 238.213 265.31C238.38 265.381 238.512 265.513 238.582 265.679C238.653 265.844 238.656 266.031 238.592 266.199C238.527 266.367 238.4 266.504 238.236 266.581C232.213 269.118 225.892 270.885 219.423 271.84C215.997 272.286 212.543 272.497 209.088 272.474Z" fill="#111D30"/>
<path d="M149.036 256.919C149.036 256.919 153.781 264.282 160.071 267.925C166.36 271.569 163.774 273.192 158.834 271.987C153.893 270.781 148.148 266.762 144.479 260.841C140.81 254.92 145.996 253.213 149.036 256.919Z" fill="white"/>
<path d="M171.399 272.537C169.896 271.729 166.388 273.491 169.197 275.734C172.007 277.977 174.453 278.242 177.716 278.521C180.98 278.799 180.91 276.967 178.932 276.111C176.955 275.254 173.286 273.54 171.399 272.537Z" fill="white"/>
<path d="M70.1292 129.572C70.1292 129.572 53.2451 148.29 57.4871 194.336C61.7291 240.382 159.833 209.215 159.833 209.215L154.172 197.902C154.172 197.902 103.709 207.822 94.47 192.943C85.2312 178.063 110.543 165.134 116.204 146.709C89.0819 134.595 86.587 104.181 70.1292 129.572Z" fill="white"/>
<path d="M66.4253 134.95C68.0509 131.643 70.839 129.048 74.2594 127.656C80.1507 125.17 83.4422 131.711 76.0484 140.467C70.3389 147.224 65.6287 143.797 63.8466 149.133C62.0645 154.469 61.5264 161.581 67.0543 157.311C72.5822 153.041 69.9126 155.354 72.9456 153.222C75.9785 151.09 82.0305 151.975 69.9126 164.605C53.2381 181.957 61.17 193.242 63.8466 188.08C66.5232 182.918 74.5529 177.945 71.3382 184.346C68.1235 190.748 63.8466 207.293 70.9818 213.513C60.4712 209.25 57.2146 199.456 56.7184 184.528C56.1873 168.338 61.2469 145.977 66.4253 134.95Z" fill="#DEF5C0"/>
<path d="M99.1802 220.277C87.1321 220.277 75.7759 218.431 67.8021 213.165C61.2609 208.846 57.564 202.535 56.7883 194.419C52.5952 148.582 68.1026 130.004 68.7665 129.231C68.8879 129.09 69.0603 129.004 69.2457 128.99C69.4312 128.976 69.6145 129.037 69.7553 129.158C69.8962 129.279 69.9831 129.45 69.9968 129.635C70.0106 129.82 69.9501 130.003 69.8287 130.143C69.668 130.331 53.9929 149.14 58.186 194.273C58.8848 201.936 62.379 207.926 68.5498 212.002C92.7718 228.024 151.377 211.047 158.841 208.79L153.767 198.675C148.246 199.818 106.106 208.038 97.1605 193.604C89.62 181.469 96.7272 167.063 103.765 155.876C103.81 155.791 103.872 155.717 103.947 155.658C104.022 155.598 104.109 155.555 104.201 155.53C104.294 155.505 104.391 155.5 104.486 155.514C104.581 155.529 104.672 155.562 104.753 155.613C104.834 155.664 104.904 155.731 104.958 155.81C105.013 155.889 105.05 155.978 105.068 156.072C105.086 156.166 105.084 156.262 105.063 156.356C105.042 156.449 105.002 156.537 104.946 156.614C94.8194 172.727 92.7788 183.914 98.3486 192.873C107.224 207.167 153.557 197.303 154.012 197.199C154.164 197.165 154.323 197.183 154.463 197.25C154.604 197.317 154.718 197.429 154.787 197.568L160.476 208.902C160.518 208.993 160.54 209.093 160.54 209.194C160.54 209.295 160.518 209.395 160.476 209.487C160.437 209.578 160.379 209.661 160.305 209.728C160.232 209.795 160.144 209.846 160.05 209.877C158.198 210.441 126.889 220.277 99.1802 220.277Z" fill="#111D30"/>
<path d="M153.18 197.993L156.213 210.267L159.56 209.473C162.537 208.776 167.457 209.731 169.952 213.465C172.447 217.198 174.641 222.876 175.354 224.478C176.067 226.08 177.982 225.565 177.626 223.781C177.269 221.998 175.843 214.725 175.843 214.725C175.843 214.725 181.371 223.976 182.448 227.174C183.524 230.371 186.123 228.135 186.123 227.425C187.242 230.406 190.519 229.891 190.317 227.759C191.519 229.09 194.195 228.895 192.12 223.224C188.227 212.58 178.772 202.507 173.495 200.32C169.819 198.766 162.733 195.618 153.18 197.993Z" fill="#DEF5C0"/>
<path d="M188.674 230.19C188.152 230.177 187.641 230.04 187.184 229.789C186.727 229.538 186.337 229.181 186.047 228.748C185.621 229.132 185.099 229.394 184.537 229.507C183.957 229.598 182.517 229.577 181.784 227.383C181.169 225.551 178.988 221.587 177.325 218.654C177.716 220.64 178.143 222.785 178.31 223.649C178.463 224.124 178.426 224.64 178.206 225.088C177.985 225.536 177.6 225.882 177.129 226.052C176.637 226.181 176.113 226.12 175.664 225.879C175.216 225.639 174.875 225.237 174.711 224.757L174.208 223.579C173.23 221.239 171.413 216.885 169.372 213.827C166.989 210.253 162.293 209.508 159.721 210.121L156.381 210.915C156.201 210.959 156.011 210.93 155.852 210.835C155.694 210.74 155.58 210.586 155.535 210.406L152.53 198.16C152.486 197.981 152.514 197.791 152.61 197.633C152.706 197.475 152.86 197.362 153.04 197.317C162.53 194.956 169.659 197.93 173.481 199.525L173.817 199.665C179.652 202.082 189.024 212.566 192.832 222.973C194.272 226.895 193.531 228.351 192.644 228.88C192.369 229.029 192.064 229.111 191.752 229.12C191.439 229.128 191.13 229.063 190.848 228.929C190.696 229.235 190.476 229.501 190.204 229.709C189.933 229.917 189.618 230.06 189.282 230.127C189.083 230.172 188.879 230.193 188.674 230.19ZM186.123 226.707C186.266 226.707 186.406 226.75 186.523 226.831C186.641 226.912 186.73 227.027 186.78 227.16C187.277 228.483 188.241 228.922 188.947 228.762C189.057 228.745 189.163 228.707 189.257 228.649C189.352 228.59 189.435 228.514 189.5 228.424C189.565 228.334 189.611 228.232 189.636 228.124C189.661 228.015 189.665 227.903 189.646 227.794C189.634 227.649 189.668 227.503 189.743 227.378C189.819 227.253 189.931 227.155 190.066 227.098C190.2 227.04 190.349 227.026 190.492 227.057C190.634 227.088 190.764 227.163 190.862 227.271C191.218 227.668 191.686 227.801 191.896 227.675C192.217 227.48 192.553 226.345 191.491 223.44C187.563 212.698 178.066 202.939 173.251 200.94L172.915 200.8C169.33 199.309 162.74 196.558 154.046 198.501L156.723 209.431L159.393 208.79C162.852 207.975 167.933 209.194 170.532 213.081C172.629 216.223 174.495 220.66 175.494 223.036C175.697 223.524 175.864 223.921 175.983 224.192C176.186 224.652 176.5 224.784 176.682 224.729C176.864 224.673 177.004 224.339 176.92 223.921C176.563 222.144 175.138 214.865 175.138 214.865C175.107 214.704 175.135 214.538 175.215 214.395C175.295 214.253 175.423 214.143 175.576 214.085C175.729 214.027 175.898 214.024 176.053 214.077C176.208 214.131 176.339 214.237 176.423 214.377C176.647 214.76 182.014 223.726 183.083 226.965C183.272 227.508 183.601 228.156 184.139 228.163C184.395 228.132 184.642 228.044 184.86 227.907C185.079 227.77 185.264 227.586 185.404 227.369C185.418 227.217 185.482 227.075 185.585 226.963C185.689 226.851 185.826 226.776 185.977 226.749L186.123 226.707Z" fill="#111D30"/>
<path d="M281.816 249.89C281.816 249.89 280.747 276.563 275.925 288.837C271.103 301.112 280.209 299.245 283.151 294.41C286.093 289.576 283.151 322.971 280.209 331.498C277.267 340.024 284.227 338.701 288.504 325.096C292.781 311.491 293.054 306.685 293.054 306.685L281.816 249.89Z" fill="#111D30"/>
<path d="M315.507 261.767C315.507 261.767 305.095 253.533 300.832 245.355C296.569 237.177 296.017 248.023 292.089 245C288.162 241.977 282.096 236.285 278.532 227.926C274.968 219.567 268.895 220.263 267.644 221.517C266.393 222.771 261.04 210.316 253.548 213.339C246.056 216.362 242.681 220.633 242.681 220.633C242.681 220.633 259.984 223.12 264.981 226.143C269.978 229.166 275.331 229.521 278.007 237.17C280.684 244.819 279.79 242.506 279.79 242.506C279.79 242.506 303.914 259.629 315.507 261.767Z" fill="#111D30"/>
<path d="M92.7438 91.8228C92.7438 91.8228 96.9928 96.3228 103.373 95.8283L104.072 100.705C103.024 100.377 96.1891 98.0783 92.7438 91.8228Z" fill="#111D30"/>
<path d="M104.107 101.415C104.042 101.422 103.976 101.422 103.911 101.415C102.556 100.997 95.672 98.6287 92.1288 92.1851C92.0139 92.0364 91.963 91.8483 91.9872 91.6621C92.0115 91.4759 92.1089 91.307 92.2581 91.1925C92.4073 91.0779 92.5961 91.0271 92.7828 91.0513C92.9696 91.0755 93.1391 91.1726 93.254 91.3213C93.254 91.3631 97.3562 95.5776 103.317 95.1109C103.502 95.105 103.682 95.166 103.825 95.2826C103.967 95.3992 104.063 95.5634 104.093 95.7448L104.792 100.621C104.81 100.738 104.797 100.858 104.756 100.969C104.714 101.08 104.645 101.178 104.554 101.255C104.429 101.359 104.27 101.415 104.107 101.415ZM96.0004 94.9924C98.0763 97.027 100.544 98.6218 103.254 99.6806L102.793 96.5668C100.431 96.63 98.0923 96.0879 96.0004 94.9924Z" fill="#111D30"/>
<path d="M94.1695 67.6367C93.9923 67.6371 93.8216 67.5704 93.6918 67.4502C93.5621 67.3299 93.483 67.165 93.4706 66.9888C93.464 66.8973 93.4755 66.8053 93.5046 66.7183C93.5337 66.6312 93.5798 66.5508 93.6402 66.4815C93.7006 66.4122 93.7741 66.3555 93.8566 66.3147C93.939 66.2738 94.0287 66.2496 94.1206 66.2434C94.1206 66.2434 97.6707 65.9718 99.2641 64.7039C99.3355 64.6461 99.4178 64.6029 99.5061 64.5768C99.5944 64.5507 99.687 64.5423 99.7785 64.552C99.8701 64.5617 99.9588 64.5894 100.04 64.6334C100.12 64.6774 100.192 64.7369 100.249 64.8084C100.359 64.9549 100.407 65.1385 100.382 65.3197C100.357 65.5008 100.262 65.665 100.117 65.7767C98.2088 67.3162 94.3791 67.6367 94.2184 67.6367H94.1695Z" fill="#111D30"/>
<path d="M104.03 84.3551C103.394 84.3551 102.989 84.3551 102.933 84.3133C102.748 84.2948 102.577 84.2037 102.459 84.06C102.341 83.9163 102.285 83.7318 102.304 83.547C102.323 83.3623 102.414 83.1924 102.558 83.0749C102.702 82.9573 102.887 82.9016 103.073 82.9201C103.129 82.9201 108.768 83.4565 112.158 80.0152C112.219 79.9416 112.296 79.8814 112.382 79.8385C112.468 79.7956 112.562 79.7708 112.658 79.7658C112.754 79.7608 112.85 79.7757 112.94 79.8094C113.03 79.8432 113.112 79.8951 113.181 79.962C113.25 80.0288 113.305 80.1092 113.341 80.198C113.378 80.2868 113.395 80.3821 113.393 80.4781C113.391 80.574 113.369 80.6684 113.328 80.7553C113.287 80.8423 113.229 80.92 113.157 80.9835C110.222 83.9929 106.008 84.3551 104.03 84.3551Z" fill="#111D30"/>
<path d="M105.141 63.5267C104.964 63.5271 104.793 63.4604 104.664 63.3402C104.534 63.2199 104.455 63.055 104.442 62.8788C104.429 62.6951 104.489 62.5135 104.61 62.3738C104.73 62.2341 104.901 62.1477 105.085 62.1335C105.987 62.0708 108.58 61.6946 109.789 60.7402C109.934 60.6315 110.116 60.5834 110.296 60.6061C110.476 60.6287 110.64 60.7204 110.754 60.8616C110.867 61.0028 110.921 61.1826 110.904 61.3628C110.887 61.5429 110.8 61.7094 110.662 61.8269C108.866 63.255 105.337 63.5197 105.183 63.5336L105.141 63.5267Z" fill="#111D30"/>
<path d="M106.902 77.013C106.717 77.0417 106.528 76.9957 106.377 76.8853C106.225 76.7749 106.124 76.6091 106.095 76.4244C106.067 76.2396 106.113 76.0511 106.223 75.9002C106.334 75.7493 106.5 75.6484 106.686 75.6198C107.238 75.4767 107.728 75.1589 108.083 74.7142C108.083 74.7142 108.083 74.6446 108.021 74.5192L107.979 74.4495C107.434 73.4533 103.611 66.9819 103.562 66.9401C103.504 66.8612 103.464 66.7713 103.444 66.6759C103.423 66.5806 103.423 66.4821 103.443 66.3867C103.463 66.2913 103.503 66.2012 103.561 66.1222C103.618 66.0432 103.691 65.9771 103.776 65.9281C103.86 65.8791 103.954 65.8484 104.052 65.8378C104.149 65.8273 104.247 65.8372 104.34 65.8669C104.433 65.8966 104.519 65.9455 104.592 66.0104C104.665 66.0752 104.724 66.1546 104.764 66.2435C104.925 66.5082 108.58 72.6801 109.195 73.8365C109.339 74.0348 109.434 74.265 109.47 74.5075C109.507 74.7501 109.484 74.9978 109.404 75.2297C109.027 76.3443 107.434 76.9155 107.119 77.013C107.047 77.0264 106.974 77.0264 106.902 77.013Z" fill="#111D30"/>
<path d="M122.025 200.891C122.025 200.891 110.068 202.284 104.359 192.176C102.458 188.798 96.0424 186.603 101.682 179.191C104.54 175.458 106.148 174.385 105.435 171.717C104.037 166.541 104.477 165.761 109.894 163.183C121.487 157.666 109.195 143.616 104.184 154.824C101.472 160.899 92.7648 175.458 94.9033 186.304C96.909 196.446 106.679 201.775 122.025 200.891Z" fill="#111D30"/>
<path d="M81.4156 108.096L78.739 117.521L94.2604 130.506L99.9699 111.697L81.4156 108.096Z" fill="white"/>
<path d="M94.2603 131.202C94.1001 131.195 93.9472 131.134 93.8271 131.028L78.2847 118.057C78.1863 117.973 78.1133 117.863 78.0738 117.74C78.0343 117.617 78.0299 117.486 78.0611 117.36L80.7377 107.935C80.7853 107.766 80.8954 107.621 81.0457 107.529C81.196 107.438 81.3756 107.406 81.5484 107.441L100.117 111.014C100.213 111.032 100.304 111.07 100.385 111.125C100.466 111.18 100.534 111.252 100.585 111.335C100.636 111.419 100.668 111.512 100.68 111.609C100.692 111.707 100.684 111.805 100.655 111.899L94.9452 130.707C94.9113 130.819 94.8501 130.919 94.7671 131.001C94.6841 131.082 94.582 131.142 94.47 131.174C94.4022 131.195 94.3313 131.205 94.2603 131.202ZM79.5287 117.27L93.8969 129.293L99.0754 112.219L81.9467 108.904L79.5287 117.27Z" fill="#111D30"/>
<path d="M262.249 180.968C262.249 180.968 268.14 185.767 270.991 197.331C273.842 208.895 282.235 216.899 282.41 209.25C282.585 201.601 287.763 201.065 294.367 211.737C300.971 222.409 311.384 218.369 316.73 221.747C322.077 225.126 336.717 230.803 336.717 230.803L262.249 180.968Z" fill="#111D30"/>
<path d="M159.497 374.834L212.491 410.584L229.619 406.759L161.992 374.479L159.497 374.834Z" fill="#111D30"/>
<path d="M158.226 374.743L203.923 411.468L191.078 412.98L156.087 374.743H158.226Z" fill="#111D30"/>
<path d="M80.549 77.0061C80.444 77.0056 80.3405 76.9815 80.2461 76.9357C80.1518 76.8899 80.069 76.8235 80.0039 76.7414C79.889 76.5964 79.7455 76.4764 79.5823 76.3888C79.4191 76.3013 79.2395 76.248 79.0548 76.2323C78.8701 76.2167 78.6842 76.2389 78.5085 76.2977C78.3327 76.3565 78.171 76.4506 78.0331 76.5742C77.9602 76.63 77.8769 76.6709 77.7881 76.6946C77.6992 76.7184 77.6066 76.7244 77.5154 76.7124C77.4242 76.7005 77.3363 76.6707 77.2567 76.6249C77.177 76.5791 77.1072 76.518 77.0513 76.4453C76.9953 76.3726 76.9542 76.2896 76.9304 76.201C76.9066 76.1125 76.9005 76.0201 76.9125 75.9292C76.9246 75.8384 76.9544 75.7507 77.0004 75.6713C77.0464 75.592 77.1076 75.5224 77.1805 75.4666C77.4623 75.2308 77.7889 75.054 78.1407 74.9468C78.4926 74.8395 78.8625 74.804 79.2284 74.8424C79.5943 74.8807 79.9486 74.9922 80.2704 75.17C80.5922 75.3479 80.8747 75.5885 81.1011 75.8776C81.1827 75.9805 81.2335 76.1043 81.2476 76.2347C81.2617 76.3651 81.2386 76.4969 81.1809 76.6148C81.1232 76.7327 81.0333 76.832 80.9215 76.9012C80.8097 76.9704 80.6806 77.0068 80.549 77.0061Z" fill="#111D30"/>
<path d="M369.444 248.448C368.504 248.464 367.566 248.368 366.649 248.162C366.523 248.131 366.408 248.064 366.318 247.971C366.227 247.878 366.165 247.762 366.137 247.635C366.11 247.508 366.118 247.376 366.162 247.254C366.205 247.132 366.282 247.024 366.383 246.943C367.51 245.989 368.523 244.909 369.402 243.725C370.75 242.026 372.199 240.409 373.742 238.884C374.408 238.183 375.256 237.681 376.192 237.435C377.128 237.189 378.114 237.208 379.039 237.49C379.715 237.68 380.325 238.052 380.804 238.564C381.282 239.076 381.609 239.71 381.751 240.395C381.905 241.35 381.751 243.244 379.109 245.202C376.325 247.298 372.934 248.438 369.444 248.448ZM368.424 247.006C371.946 247.232 375.433 246.197 378.257 244.087C379.787 242.959 380.528 241.733 380.353 240.604C380.259 240.172 380.047 239.773 379.742 239.451C379.436 239.13 379.048 238.897 378.62 238.779C377.936 238.582 377.21 238.578 376.523 238.769C375.837 238.96 375.218 239.337 374.735 239.859C373.226 241.344 371.812 242.922 370.5 244.582C369.853 245.427 369.16 246.237 368.424 247.006Z" fill="#111D30"/>
<path d="M366.635 247.362C366.523 247.362 366.412 247.336 366.313 247.285C366.213 247.234 366.127 247.16 366.062 247.069C365.866 246.79 364.937 245.105 365.922 238.919C366.363 236.195 367.718 235.373 368.494 235.122C369.143 234.949 369.827 234.959 370.471 235.149C371.115 235.34 371.693 235.704 372.142 236.202C372.705 236.74 373.105 237.425 373.299 238.178C373.493 238.931 373.472 239.723 373.239 240.465C371.925 244.464 367.173 247.16 366.95 247.271C366.852 247.323 366.745 247.354 366.635 247.362ZM369.43 236.376C369.267 236.374 369.104 236.398 368.948 236.446C368.145 236.71 367.551 237.665 367.334 239.135C366.754 242.778 366.88 244.707 367.047 245.592C368.368 244.714 371.08 242.646 371.939 240.019C372.092 239.521 372.102 238.99 371.967 238.486C371.833 237.982 371.559 237.527 371.178 237.17C370.716 236.678 370.078 236.388 369.402 236.362L369.43 236.376Z" fill="#111D30"/>
<path d="M299.001 394.757C297.833 394.732 296.677 394.511 295.584 394.102C287.659 391.316 285.534 385.938 285.45 385.743C285.403 385.62 285.392 385.487 285.417 385.358C285.443 385.229 285.505 385.11 285.595 385.014C285.686 384.919 285.802 384.851 285.929 384.818C286.057 384.786 286.191 384.79 286.317 384.83C287.936 385.303 289.594 385.63 291.272 385.805C293.124 386.063 295.465 386.391 298.505 387.094C300.825 387.63 302.488 388.982 302.942 390.696C303.099 391.236 303.102 391.809 302.95 392.35C302.798 392.891 302.498 393.38 302.083 393.761C301.219 394.469 300.118 394.825 299.001 394.757ZM287.512 386.572C288.63 388.237 291.139 391.058 296.045 392.785C298.309 393.586 300.238 393.559 301.139 392.709C301.368 392.501 301.532 392.233 301.612 391.935C301.693 391.638 301.686 391.324 301.594 391.03C301.342 390.089 300.322 388.94 298.19 388.425C295.178 387.728 292.998 387.428 291.076 387.157C289.755 386.976 288.616 386.815 287.512 386.572Z" fill="#111D30"/>
<path d="M294.962 387.616C290.692 387.616 285.842 385.652 285.611 385.527C285.465 385.466 285.345 385.357 285.269 385.219C285.193 385.081 285.167 384.922 285.193 384.767C285.22 384.612 285.299 384.47 285.416 384.365C285.534 384.26 285.684 384.198 285.842 384.189C285.884 384.189 288.281 384.008 293.899 381.013C296.646 379.55 298.218 380.246 298.91 380.797C299.428 381.25 299.803 381.843 299.989 382.505C300.175 383.167 300.165 383.868 299.958 384.524C299.759 385.287 299.337 385.974 298.746 386.498C298.156 387.023 297.422 387.361 296.639 387.47C296.084 387.562 295.524 387.61 294.962 387.616ZM288.343 385.032C290.496 385.729 293.829 386.509 296.429 386.119C296.945 386.054 297.428 385.834 297.816 385.49C298.204 385.145 298.478 384.692 298.603 384.189C298.734 383.797 298.751 383.375 298.652 382.973C298.553 382.571 298.342 382.206 298.043 381.918C297.303 381.333 296.073 381.465 294.549 382.267C292.563 383.363 290.487 384.288 288.343 385.032Z" fill="#111D30"/>
<path d="M221.59 271.499C221.59 271.499 233.1 269.632 241.933 264.296C250.767 258.96 254.778 265.362 251.836 269.632C248.894 273.902 243.268 290.44 248.887 287.235C254.505 284.031 258.258 288.573 256.113 296.291C253.967 304.01 253.436 318.701 256.385 317.628C259.334 316.555 258.789 346.189 258.789 346.189C258.789 346.189 244.498 284.191 241.262 276.828C236.175 265.229 221.59 271.499 221.59 271.499Z" fill="#111D30"/>
<path d="M258.23 271.743C261.043 267.277 263.578 262.642 265.82 257.866C268.091 252.99 270.013 255.414 269.824 258.674C269.391 265.898 263.898 275.95 263.276 277.121C261.103 281.189 255.512 278.138 258.23 271.743Z" fill="#111D30"/>
<path d="M386.971 242.019C386.971 242.019 389.382 246.958 384.295 249.758C379.207 252.558 369.437 254.697 365.028 253.359" fill="#DEF5C0"/>
<path d="M368.473 254.467C367.254 254.492 366.037 254.344 364.86 254.028C364.682 253.974 364.533 253.853 364.445 253.689C364.357 253.526 364.338 253.335 364.392 253.157C364.446 252.98 364.568 252.831 364.732 252.744C364.895 252.656 365.087 252.637 365.265 252.691C369.542 253.986 379.137 251.827 383.994 249.152C385.218 248.561 386.157 247.51 386.604 246.23C387.05 244.95 386.969 243.545 386.377 242.325C386.334 242.242 386.309 242.152 386.301 242.059C386.294 241.966 386.305 241.873 386.335 241.785C386.364 241.696 386.411 241.615 386.473 241.545C386.535 241.475 386.61 241.418 386.694 241.377C386.778 241.337 386.869 241.313 386.963 241.309C387.056 241.304 387.149 241.318 387.237 241.35C387.325 241.382 387.405 241.431 387.474 241.494C387.542 241.558 387.597 241.634 387.635 241.719C387.635 241.775 390.27 247.292 384.665 250.371C379.631 252.893 374.105 254.291 368.473 254.467Z" fill="#111D30"/>
<path d="M280.607 387.547C283.389 392.889 288.049 397.022 293.697 399.152C297.98 401.019 301.195 397.689 301.195 397.689" fill="#DEF5C0"/>
<path d="M296.331 400.413C295.334 400.409 294.349 400.198 293.438 399.793C287.612 397.614 282.808 393.35 279.964 387.832C279.889 387.663 279.885 387.472 279.951 387.299C280.018 387.127 280.151 386.988 280.321 386.913C280.49 386.838 280.683 386.833 280.856 386.9C281.029 386.967 281.168 387.099 281.243 387.268C283.971 392.438 288.495 396.44 293.969 398.525C297.764 400.176 300.594 397.348 300.713 397.223C300.842 397.09 301.018 397.013 301.204 397.01C301.389 397.007 301.568 397.077 301.702 397.205C301.835 397.334 301.912 397.51 301.915 397.695C301.919 397.879 301.848 398.058 301.719 398.191C300.257 399.565 298.34 400.356 296.331 400.413Z" fill="#111D30"/>
<path d="M264.681 406.892L283.815 409.295L280.265 414.269L264.073 412.694L264.681 406.892Z" fill="#111D30"/>
<path d="M371.932 277.35L385.147 263.342L387.09 269.137L376.279 281.251L371.932 277.35Z" fill="#111D30"/>
<path d="M186.396 228.553C186.228 228.555 186.066 228.497 185.937 228.39C185.809 228.282 185.724 228.133 185.697 227.968C184.932 224.1 183.651 220.351 181.888 216.822C181.804 216.659 181.788 216.47 181.843 216.295C181.898 216.121 182.02 215.975 182.182 215.889C182.346 215.803 182.538 215.785 182.714 215.84C182.891 215.895 183.039 216.018 183.125 216.181C184.967 219.832 186.295 223.719 187.074 227.731C187.104 227.913 187.061 228.1 186.953 228.25C186.846 228.4 186.683 228.501 186.501 228.532L186.396 228.553Z" fill="#111D30"/>
<path d="M139.154 306.573C139.154 306.573 167.171 307.103 191.078 297.677C215.342 288.113 234.791 288.782 220.164 294.473C205.537 300.164 169.847 310.802 139.154 306.573Z" fill="#111D30"/>
<path d="M70.9958 214.231C70.9958 214.231 77.2365 224.68 97.0487 225.077C122.738 225.613 129.894 219.204 142.543 225.077C137.903 219.922 133.27 215.652 133.27 215.652C133.27 215.652 85.8043 224.541 70.9958 214.231Z" fill="#111D30"/>
<path d="M173.237 253.714C173.237 253.714 188.94 259.05 200.715 247.306C208.838 239.402 214.372 229.235 216.593 218.139C217.844 212.447 221.765 207.292 221.59 217.783C221.415 228.274 224.623 232.544 229.277 224.749C233.931 216.954 234.449 214.077 234.987 211.765C235.525 209.452 239.983 211.765 238.02 219.232C236.056 226.7 221.946 245.912 210.716 251.604C199.485 257.295 190.365 261.893 173.237 253.714Z" fill="#111D30"/>
<path d="M250.899 222.409C250.899 222.409 239.788 219.922 232.031 239.824C232.031 235.199 237.377 223.593 244.337 219.462C246.789 219.703 249.094 220.738 250.899 222.409Z" fill="#111D30"/>
<path d="M83.6658 284.463C83.539 284.464 83.414 284.432 83.3044 284.368C83.1949 284.304 83.1048 284.212 83.0439 284.101C71.5898 262.687 90.7801 222.897 91.5977 221.218C91.636 221.133 91.691 221.056 91.7594 220.993C91.8279 220.93 91.9083 220.88 91.9961 220.849C92.0839 220.817 92.1772 220.803 92.2705 220.808C92.3638 220.812 92.4552 220.836 92.5393 220.876C92.6234 220.917 92.6985 220.973 92.7601 221.043C92.8218 221.113 92.8688 221.195 92.8983 221.283C92.9277 221.372 92.9392 221.465 92.9319 221.558C92.9245 221.651 92.8986 221.741 92.8557 221.824C92.66 222.228 73.1622 262.659 84.2808 283.439C84.3248 283.52 84.3523 283.608 84.3617 283.7C84.3712 283.791 84.3623 283.884 84.3356 283.972C84.309 284.06 84.2651 284.142 84.2065 284.213C84.148 284.284 84.0758 284.343 83.9943 284.386C83.8927 284.438 83.78 284.464 83.6658 284.463Z" fill="#111D30"/>
<path d="M116.134 303.32C116.035 303.319 115.938 303.298 115.848 303.257C93.6873 293.087 107.587 255.721 118.755 225.676L120.153 221.991C120.184 221.905 120.233 221.826 120.296 221.758C120.358 221.691 120.434 221.637 120.518 221.599C120.601 221.56 120.692 221.539 120.784 221.536C120.876 221.533 120.968 221.548 121.054 221.58C121.227 221.644 121.367 221.774 121.445 221.941C121.522 222.108 121.53 222.299 121.466 222.472L120.069 226.164C109.104 255.658 95.4554 292.341 116.435 301.989C116.58 302.055 116.699 302.169 116.77 302.312C116.842 302.455 116.862 302.617 116.827 302.773C116.793 302.929 116.706 303.068 116.581 303.167C116.456 303.267 116.301 303.321 116.141 303.32H116.134Z" fill="#111D30"/>
<path d="M140.58 307.409C140.481 307.409 140.383 307.387 140.293 307.346C120.858 298.43 132.732 267.493 143.214 240.193C144.507 236.829 145.73 233.645 146.883 230.524C146.948 230.351 147.08 230.21 147.249 230.133C147.418 230.056 147.611 230.049 147.785 230.113C147.959 230.178 148.1 230.309 148.178 230.478C148.255 230.646 148.262 230.838 148.197 231.012C147.037 234.133 145.814 237.323 144.521 240.695C134.262 267.417 122.626 297.705 140.873 306.079C140.957 306.117 141.032 306.171 141.095 306.238C141.157 306.306 141.206 306.385 141.238 306.471C141.269 306.557 141.284 306.648 141.28 306.74C141.276 306.832 141.254 306.922 141.216 307.005C141.16 307.126 141.07 307.228 140.957 307.3C140.844 307.371 140.713 307.409 140.58 307.409Z" fill="#111D30"/>
<path d="M167.527 306.524C167.425 306.525 167.324 306.501 167.234 306.455C154.123 300.443 162.908 276.758 169.33 259.461L169.875 258.006C169.901 257.913 169.946 257.826 170.007 257.752C170.068 257.677 170.144 257.616 170.23 257.572C170.316 257.528 170.41 257.503 170.507 257.497C170.603 257.491 170.7 257.505 170.791 257.539C170.881 257.572 170.964 257.624 171.033 257.691C171.103 257.757 171.158 257.838 171.195 257.927C171.232 258.016 171.249 258.112 171.247 258.208C171.245 258.304 171.223 258.399 171.182 258.486L170.644 259.942C164.417 276.73 155.891 299.718 167.849 305.222C168.016 305.299 168.146 305.439 168.21 305.611C168.274 305.783 168.267 305.974 168.191 306.141C168.13 306.263 168.035 306.364 167.917 306.432C167.799 306.5 167.663 306.532 167.527 306.524Z" fill="#111D30"/>
<path d="M197.473 299.405C197.372 299.404 197.272 299.383 197.179 299.342C189.003 295.595 193.971 282.227 197.969 271.478L198.451 270.182C198.525 270.024 198.656 269.899 198.818 269.832C198.981 269.766 199.162 269.762 199.326 269.823C199.491 269.883 199.627 270.003 199.707 270.159C199.787 270.315 199.805 270.495 199.758 270.663L199.276 271.966C195.488 282.164 190.764 294.856 197.766 298.068C197.85 298.106 197.925 298.16 197.988 298.228C198.05 298.295 198.099 298.374 198.13 298.46C198.162 298.546 198.177 298.637 198.173 298.729C198.169 298.821 198.147 298.911 198.109 298.994C198.053 299.116 197.964 299.22 197.851 299.293C197.739 299.366 197.607 299.405 197.473 299.405Z" fill="#111D30"/>
<path d="M163.509 306.608C163.453 306.615 163.397 306.615 163.341 306.608C124.681 297.043 103.164 273.401 91.9262 255.247C79.7453 235.582 76.6704 217.916 76.6424 217.742C76.6273 217.65 76.6304 217.557 76.6515 217.466C76.6726 217.376 76.7114 217.291 76.7656 217.215C76.875 217.063 77.0406 216.961 77.226 216.93C77.4113 216.9 77.6012 216.944 77.7539 217.053C77.9066 217.162 78.0096 217.327 78.0401 217.512C78.0401 217.686 81.115 235.122 93.1631 254.557C104.247 272.439 125.499 295.79 163.711 305.236C163.803 305.247 163.892 305.275 163.973 305.321C164.053 305.366 164.124 305.426 164.181 305.499C164.238 305.571 164.28 305.654 164.305 305.743C164.33 305.832 164.337 305.924 164.326 306.016C164.315 306.107 164.286 306.196 164.241 306.276C164.196 306.356 164.135 306.427 164.062 306.484C163.99 306.541 163.907 306.583 163.818 306.608C163.729 306.633 163.636 306.64 163.544 306.629L163.509 306.608Z" fill="#111D30"/>
<path d="M198.13 297.071C184.852 297.071 172.559 294.675 161.454 289.903C148.63 284.393 137.344 275.72 127.91 264.129C118.067 251.851 110.825 237.71 106.623 222.562C106.58 222.378 106.613 222.183 106.714 222.023C106.815 221.862 106.976 221.748 107.161 221.705C107.346 221.663 107.541 221.696 107.702 221.796C107.863 221.897 107.978 222.057 108.021 222.242C112.172 237.202 119.329 251.165 129.056 263.286C143.655 281.203 170.623 301.119 216.167 294.278C216.352 294.25 216.541 294.297 216.692 294.408C216.842 294.519 216.943 294.685 216.97 294.87C216.998 295.055 216.951 295.243 216.84 295.393C216.728 295.544 216.562 295.644 216.376 295.671C210.338 296.592 204.238 297.06 198.13 297.071Z" fill="#111D30"/>
<path d="M316.689 153.131C316.343 153.199 315.985 153.183 315.647 153.083C316.346 152.316 316.954 151.557 317.513 150.909C319.253 148.903 319.791 146.639 317.513 145.838C315.997 145.301 314.718 146.639 312.391 149.063C311.475 150.017 309.316 150.024 307.576 149.85C302.201 147.308 296.492 144.264 296.492 144.264C297.816 143.76 299.111 143.183 300.371 142.536C304.053 140.565 306.038 134.351 301.069 136.085C296.101 137.82 293.417 138.872 288.225 141.066C283.459 143.093 279.992 145.336 274.688 147.336L278.462 160.982C278.462 160.982 279.734 160.446 281.257 159.847C285.918 158.028 295.891 162.542 307.219 163.984C313.439 164.772 317.751 161.853 319.889 158.112C322.028 154.371 319.638 152.156 316.689 153.131Z" fill="#DEF5C0"/>
<path d="M309.19 164.806C308.505 164.807 307.821 164.762 307.142 164.674C302.789 164.044 298.476 163.158 294.228 162.02C288.791 160.669 284.094 159.498 281.53 160.494C279.999 161.094 278.734 161.623 278.734 161.623C278.644 161.663 278.547 161.684 278.448 161.684C278.349 161.684 278.251 161.663 278.161 161.623C278.071 161.579 277.991 161.517 277.927 161.44C277.864 161.363 277.817 161.274 277.791 161.177L274.017 147.503C273.971 147.335 273.989 147.157 274.068 147.003C274.147 146.848 274.281 146.728 274.443 146.667C277.126 145.625 279.749 144.434 282.298 143.1C284.074 142.208 285.911 141.282 287.959 140.411C293.158 138.203 295.688 137.221 300.846 135.417C303.466 134.497 304.34 135.681 304.557 136.225C305.395 138.133 303.425 141.686 300.713 143.135C299.853 143.595 298.91 144.02 298.155 144.34C300.133 145.385 304.039 147.412 307.771 149.182C309.868 149.384 311.335 149.182 311.881 148.596C314.319 146.047 315.794 144.507 317.744 145.197C318.193 145.318 318.604 145.553 318.936 145.879C319.268 146.205 319.509 146.611 319.638 147.057C319.959 148.262 319.379 149.843 318.044 151.376L317.345 152.163L317.241 152.288C317.859 152.146 318.505 152.173 319.11 152.365C319.715 152.557 320.257 152.909 320.679 153.382C321.699 154.622 321.629 156.475 320.483 158.474C319.349 160.447 317.701 162.077 315.712 163.192C313.724 164.307 311.47 164.865 309.19 164.806ZM283.969 158.725C286.764 158.725 290.349 159.617 294.57 160.669C298.765 161.797 303.024 162.674 307.324 163.295C314.725 164.235 318.163 159.742 319.295 157.771C320.134 156.301 320.26 155.019 319.631 154.288C319.002 153.556 318.044 153.452 316.912 153.828C316.454 153.949 315.973 153.949 315.515 153.828C315.394 153.803 315.282 153.747 315.19 153.665C315.098 153.583 315.03 153.479 314.991 153.362C314.953 153.246 314.946 153.121 314.972 153.001C314.998 152.881 315.055 152.77 315.137 152.678C315.556 152.212 315.948 151.752 316.311 151.285C316.549 151 316.772 150.728 317.01 150.477C318.002 149.335 318.506 148.164 318.31 147.426C318.233 147.202 318.1 147.002 317.924 146.843C317.748 146.685 317.535 146.574 317.304 146.52C316.241 146.144 315.207 147.217 312.915 149.572C312.02 150.512 310.203 150.846 307.527 150.568C307.449 150.561 307.373 150.54 307.303 150.505C301.971 147.983 296.254 144.932 296.191 144.876C296.073 144.813 295.975 144.716 295.91 144.599C295.845 144.481 295.816 144.347 295.825 144.213C295.835 144.079 295.883 143.951 295.964 143.844C296.045 143.736 296.156 143.655 296.282 143.609C297.578 143.117 298.844 142.554 300.077 141.923C302.32 140.725 303.746 137.813 303.299 136.803C303.04 136.218 301.838 136.566 301.328 136.747C296.212 138.537 293.697 139.533 288.525 141.707C286.519 142.564 284.702 143.476 282.934 144.361C280.677 145.489 278.357 146.66 275.541 147.753L278.937 160.063C279.454 159.854 280.202 159.547 281.034 159.227C281.972 158.878 282.967 158.708 283.969 158.725Z" fill="#111D30"/>
<path d="M291.803 152.093H291.6C291.415 152.093 291.237 152.02 291.106 151.889C290.975 151.759 290.901 151.582 290.901 151.397C290.901 151.212 290.975 151.035 291.106 150.904C291.237 150.774 291.415 150.7 291.6 150.7H291.67C292.439 150.7 294.319 150.638 295.381 149.307C296.24 148.255 296.408 146.597 295.877 144.375C295.847 144.284 295.837 144.187 295.847 144.091C295.857 143.996 295.886 143.903 295.933 143.819C295.981 143.736 296.045 143.663 296.122 143.605C296.199 143.547 296.287 143.506 296.381 143.484C296.475 143.461 296.572 143.459 296.667 143.476C296.762 143.493 296.852 143.53 296.932 143.583C297.012 143.637 297.08 143.707 297.132 143.788C297.184 143.869 297.218 143.96 297.233 144.055C297.876 146.716 297.617 148.778 296.464 150.185C295.094 151.871 292.879 152.093 291.803 152.093Z" fill="#111D30"/>
<path d="M306.094 157.499C305.917 157.499 305.746 157.433 305.617 157.312C305.487 157.192 305.408 157.027 305.395 156.851L304.955 151.16C304.941 150.976 305.002 150.795 305.122 150.655C305.243 150.515 305.414 150.429 305.598 150.414C305.782 150.401 305.964 150.461 306.105 150.581C306.245 150.701 306.331 150.872 306.346 151.055L306.793 156.747C306.807 156.93 306.746 157.112 306.626 157.252C306.505 157.391 306.334 157.478 306.15 157.492L306.094 157.499Z" fill="#111D30"/>
<path d="M311.377 155.019C309.504 154.895 307.655 154.527 305.878 153.925C305.79 153.897 305.71 153.851 305.64 153.791C305.571 153.731 305.514 153.658 305.473 153.576C305.431 153.495 305.407 153.405 305.4 153.314C305.393 153.223 305.405 153.131 305.434 153.044C305.463 152.957 305.508 152.877 305.569 152.808C305.629 152.738 305.702 152.682 305.784 152.64C305.866 152.599 305.955 152.575 306.047 152.568C306.139 152.562 306.231 152.573 306.318 152.602C307.457 152.978 310.721 153.89 312.09 153.563C313.236 153.282 314.358 152.909 315.445 152.449C315.614 152.373 315.807 152.367 315.981 152.433C316.154 152.499 316.295 152.631 316.371 152.8C316.447 152.969 316.452 153.162 316.386 153.335C316.32 153.508 316.187 153.648 316.018 153.723C314.849 154.217 313.643 154.617 312.412 154.921C312.072 154.992 311.725 155.025 311.377 155.019Z" fill="#111D30"/>
<path d="M310.685 158.314C309.092 158.211 307.52 157.897 306.01 157.381C305.834 157.323 305.688 157.199 305.604 157.034C305.521 156.869 305.506 156.678 305.563 156.503C305.591 156.415 305.637 156.334 305.697 156.264C305.757 156.194 305.831 156.137 305.913 156.095C305.996 156.054 306.086 156.029 306.178 156.022C306.27 156.016 306.363 156.028 306.451 156.057C307.771 156.496 310.252 157.109 311.252 156.865C312.209 156.635 313.144 156.322 314.047 155.932C314.131 155.895 314.221 155.874 314.313 155.872C314.405 155.87 314.496 155.886 314.582 155.919C314.668 155.952 314.746 156.001 314.812 156.064C314.879 156.128 314.932 156.203 314.969 156.287C315.045 156.455 315.051 156.646 314.985 156.819C314.92 156.991 314.788 157.13 314.62 157.206C313.632 157.63 312.611 157.97 311.566 158.223C311.277 158.287 310.981 158.317 310.685 158.314Z" fill="#111D30"/>
<path d="M484.283 195.44H472.396V370.9H484.283V195.44Z" fill="#DEF5C0"/>
<path d="M484.291 371.642H472.433C472.238 371.642 472.05 371.564 471.912 371.427C471.775 371.289 471.697 371.102 471.697 370.907V195.44C471.697 195.245 471.775 195.058 471.912 194.921C472.05 194.783 472.238 194.706 472.433 194.706H484.327C484.522 194.706 484.71 194.783 484.847 194.921C484.985 195.058 485.063 195.245 485.063 195.44V370.907C485.063 371.007 485.043 371.106 485.004 371.197C484.964 371.289 484.907 371.371 484.835 371.44C484.762 371.509 484.677 371.562 484.583 371.597C484.49 371.631 484.39 371.647 484.291 371.642ZM473.131 370.173H483.555V196.174H473.168L473.131 370.173Z" fill="#111D30"/>
<path d="M485.438 366.972H471.219L394.996 395.509C382.41 398.718 429.885 408.776 477.648 409.297C526.728 409.855 576.116 400.774 560.911 395.487L485.438 366.972Z" fill="#DEF5C0"/>
<path d="M468.894 367.758C468.894 367.758 423.066 388.755 424.758 394.563C426.45 400.37 431.335 405.252 443.538 407.499C420.44 406.03 392.083 399.812 392.833 396.251C398.277 394.379 468.894 367.758 468.894 367.758Z" fill="white"/>
<path d="M481.937 410.083C480.465 410.083 479.06 410.083 477.641 410.083C458.179 409.823 438.759 408.19 419.528 405.193C409.502 403.549 392.62 400.341 392.252 396.963C392.083 395.532 394.091 394.988 394.812 394.805L470.961 366.282C471.044 366.252 471.131 366.237 471.219 366.238H485.438C485.526 366.237 485.613 366.252 485.696 366.282L561.176 394.82C562.044 395.128 564.751 396.068 564.42 397.954C563.684 401.992 546.53 405.01 536.349 406.449C518.315 408.885 500.136 410.099 481.937 410.083ZM393.723 396.816C395.121 399.937 433.107 408.064 477.685 408.563C523.226 409.077 562.279 401.677 563.015 397.675C563.059 397.433 562.625 396.846 560.712 396.207L485.298 367.706H471.322L395.253 396.192H395.18C394.653 396.287 394.155 396.5 393.723 396.816Z" fill="#111D30"/>
<path d="M472.182 200.836C472.182 200.836 480.429 202.238 483.952 215.174C484.188 208.706 484.688 200.271 484.688 200.271L472.182 200.836Z" fill="#111D30"/>
<path d="M483.636 367.383L539.417 405.061L557.446 401.031L486.269 367.009L483.636 367.383Z" fill="#111D30"/>
<path d="M482.297 367.288L530.406 406.001L516.885 407.594L480.046 367.288H482.297Z" fill="#111D30"/>
<path d="M595.19 189.691V180.235H529.722C514.23 179.501 496.818 179.112 478.413 179.112C460.008 179.112 442.567 179.501 427.075 180.235H361.357V190.572H361.555C363.858 196.497 415.254 201.24 478.384 201.24C542.955 201.24 595.301 196.277 595.301 190.154C595.296 189.994 595.258 189.836 595.19 189.691Z" fill="#111D30"/>
<path d="M478.384 201.974C424.619 201.974 366.035 198.222 361.099 191.248C360.961 191.196 360.841 191.104 360.756 190.983C360.671 190.863 360.624 190.72 360.621 190.572V180.235C360.621 180.04 360.699 179.853 360.837 179.716C360.974 179.578 361.162 179.501 361.357 179.501H427.075C443.097 178.767 460.369 178.377 478.384 178.377C496.399 178.377 513.693 178.759 529.721 179.501H595.19C595.385 179.501 595.572 179.578 595.71 179.716C595.848 179.853 595.926 180.04 595.926 180.235V189.552C595.997 189.744 596.034 189.948 596.036 190.154C596.036 191.46 596.036 195.418 561.124 198.721C539.02 200.792 509.632 201.974 478.384 201.974ZM362.092 190.066C362.158 190.135 362.208 190.218 362.239 190.308C364.152 195.227 411.275 200.505 478.384 200.505C509.588 200.505 538.924 199.353 560.985 197.26C593.623 194.184 594.543 190.557 594.543 190.154C594.537 190.094 594.52 190.037 594.491 189.985C594.454 189.891 594.434 189.792 594.432 189.691V180.969H529.699C513.634 180.235 496.384 179.846 478.391 179.846C460.398 179.846 443.148 180.228 427.12 180.969H362.092V190.066Z" fill="#111D30"/>
<path d="M478.325 192.114C542.896 192.114 595.242 187.154 595.242 181.035C595.242 174.917 542.896 169.957 478.325 169.957C413.754 169.957 361.408 174.917 361.408 181.035C361.408 187.154 413.754 192.114 478.325 192.114Z" fill="#DEF5C0"/>
<path d="M478.318 192.848C447.069 192.848 417.682 191.695 395.577 189.603C360.673 186.292 360.673 182.335 360.673 181.035C360.673 179.736 360.673 175.779 395.584 172.467C417.689 170.375 447.077 169.222 478.318 169.222C509.559 169.222 538.968 170.375 561.073 172.467C596.014 175.779 596.014 179.736 596.014 181.035C596.014 182.335 596.014 186.292 561.11 189.603C538.968 191.695 509.581 192.848 478.318 192.848ZM478.318 170.691C447.121 170.691 417.785 171.843 395.724 173.936C363.093 177.027 362.144 180.631 362.144 181.035C362.144 181.439 363.093 185.044 395.724 188.142C417.792 190.227 447.121 191.38 478.325 191.38C509.529 191.38 538.872 190.227 560.933 188.142C593.564 185.044 594.543 181.439 594.543 181.035C594.543 180.631 593.601 177.027 560.97 173.936C538.872 171.843 509.537 170.691 478.318 170.691Z" fill="#111D30"/>
<path d="M302.299 157.509C306.723 158.271 311.244 158.271 315.668 157.509C316.828 156.258 317.88 154.911 318.812 153.482C321.842 152.69 328.943 150.347 329.675 145.609C330.051 143.179 329.494 141.38 328.016 140.239C326.538 139.098 324.657 139.051 323.118 139.199C323.118 138.669 323.118 138.132 323.118 137.595H295.695C294.889 145.005 296.931 151.656 302.299 157.509ZM320.559 150.126C321.652 147.651 322.37 145.027 322.688 142.34C323.81 142.165 325.181 142.132 325.886 142.669C326.591 143.206 326.558 144.488 326.437 145.448C326.121 147.488 323.259 149.092 320.559 150.139V150.126Z" fill="white"/>
<path d="M314.297 153.374C313.763 153.374 313.24 153.523 312.786 153.804C312.332 154.085 311.965 154.486 311.727 154.963C311.488 155.441 311.387 155.975 311.436 156.506C311.484 157.038 311.679 157.545 312 157.972C313.234 157.882 314.463 157.728 315.681 157.509C316.199 156.951 316.682 156.374 317.146 155.797C317.039 155.12 316.692 154.504 316.17 154.059C315.648 153.615 314.984 153.372 314.297 153.374Z" fill="#DEF5C0"/>
<path d="M319.168 141.085C319.168 141.847 319.471 142.579 320.01 143.119C320.549 143.658 321.28 143.962 322.043 143.964C322.176 143.961 322.309 143.947 322.44 143.924C322.534 143.4 322.621 142.87 322.688 142.34C323.354 142.227 324.031 142.2 324.704 142.259C324.934 141.753 325.011 141.191 324.923 140.642C324.836 140.093 324.589 139.582 324.213 139.172C323.844 139.172 323.488 139.172 323.152 139.219C323.152 138.957 323.152 138.689 323.152 138.42C322.813 138.282 322.45 138.211 322.084 138.212C321.703 138.207 321.324 138.277 320.971 138.419C320.617 138.561 320.296 138.772 320.024 139.039C319.753 139.306 319.538 139.625 319.391 139.976C319.244 140.327 319.168 140.704 319.168 141.085Z" fill="#DEF5C0"/>
<path d="M301.681 144.749C301.682 144.179 301.514 143.622 301.198 143.147C300.882 142.673 300.432 142.303 299.905 142.084C299.378 141.865 298.798 141.807 298.238 141.918C297.679 142.029 297.165 142.304 296.761 142.707C296.358 143.11 296.083 143.623 295.972 144.183C295.861 144.742 295.919 145.321 296.138 145.848C296.357 146.374 296.727 146.824 297.202 147.14C297.677 147.455 298.235 147.623 298.806 147.622C299.183 147.622 299.557 147.548 299.906 147.403C300.255 147.259 300.572 147.047 300.839 146.781C301.106 146.514 301.318 146.197 301.462 145.849C301.607 145.5 301.681 145.127 301.681 144.749Z" fill="#DEF5C0"/>
<path d="M314.613 149.293C315.184 149.293 315.741 149.124 316.215 148.808C316.689 148.491 317.059 148.041 317.277 147.514C317.494 146.988 317.551 146.409 317.439 145.85C317.328 145.291 317.052 144.778 316.649 144.376C316.245 143.973 315.731 143.7 315.171 143.589C314.612 143.479 314.032 143.537 313.506 143.756C312.979 143.975 312.53 144.345 312.214 144.819C311.898 145.294 311.73 145.851 311.731 146.421C311.731 146.799 311.806 147.173 311.951 147.522C312.096 147.871 312.308 148.188 312.576 148.454C312.843 148.721 313.161 148.933 313.511 149.077C313.86 149.221 314.235 149.294 314.613 149.293Z" fill="#DEF5C0"/>
<path d="M303.461 151.233C303.461 151.802 303.63 152.359 303.947 152.833C304.264 153.306 304.714 153.675 305.24 153.893C305.767 154.111 306.347 154.168 306.906 154.057C307.465 153.946 307.978 153.672 308.381 153.269C308.784 152.866 309.059 152.353 309.17 151.795C309.281 151.236 309.224 150.657 309.006 150.131C308.788 149.605 308.419 149.155 307.945 148.839C307.471 148.522 306.913 148.354 306.343 148.354C305.579 148.354 304.846 148.657 304.305 149.197C303.765 149.737 303.461 150.469 303.461 151.233Z" fill="#DEF5C0"/>
<path d="M307.391 143.649C308.983 143.649 310.273 142.359 310.273 140.769C310.273 139.179 308.983 137.89 307.391 137.89C305.8 137.89 304.509 139.179 304.509 140.769C304.509 142.359 305.8 143.649 307.391 143.649Z" fill="#DEF5C0"/>
<path d="M309.185 158.784C307.431 158.783 305.679 158.673 303.938 158.455C302.648 158.298 301.47 157.645 300.653 156.636C298.448 154.013 296.811 150.962 295.843 147.676C294.875 144.39 294.599 140.939 295.03 137.541C295.048 137.376 295.127 137.224 295.251 137.113C295.375 137.003 295.536 136.943 295.702 136.944H323.112C323.29 136.944 323.461 137.014 323.587 137.14C323.713 137.266 323.783 137.437 323.783 137.615C323.783 137.924 323.783 138.226 323.783 138.528C325.43 138.374 327.079 138.799 328.446 139.729C330.139 141.004 330.784 143.018 330.367 145.716C329.561 150.73 322.507 153.179 319.235 154.086C318.657 154.951 318.026 155.797 317.361 156.609C316.519 157.633 315.318 158.298 314.002 158.468C312.405 158.677 310.796 158.783 309.185 158.784ZM296.307 138.286C295.968 141.415 296.27 144.581 297.194 147.59C298.118 150.599 299.645 153.389 301.681 155.79C302.285 156.517 303.147 156.982 304.086 157.086C307.31 157.506 310.574 157.517 313.8 157.119C314.798 157.005 315.713 156.509 316.353 155.737C317.042 154.898 317.683 154.022 318.275 153.112C318.367 152.972 318.508 152.872 318.671 152.83C321.56 152.079 328.365 149.85 329.037 145.508C329.379 143.34 328.902 141.756 327.639 140.81C326.376 139.863 324.516 139.776 323.212 139.904C323.118 139.913 323.022 139.903 322.932 139.873C322.841 139.842 322.758 139.794 322.688 139.729C322.619 139.665 322.564 139.587 322.527 139.5C322.49 139.413 322.472 139.32 322.473 139.226C322.473 138.917 322.473 138.608 322.473 138.299L296.307 138.286ZM320.559 150.81C320.446 150.811 320.335 150.784 320.236 150.73C320.137 150.677 320.052 150.6 319.991 150.506C319.929 150.412 319.892 150.303 319.884 150.191C319.875 150.079 319.894 149.966 319.941 149.864C321.011 147.447 321.713 144.884 322.023 142.259C322.041 142.114 322.105 141.978 322.207 141.873C322.309 141.767 322.443 141.698 322.588 141.675C323.763 141.494 325.355 141.427 326.289 142.132C327.089 142.736 327.357 143.89 327.102 145.548C326.719 147.991 323.468 149.73 320.801 150.763C320.723 150.792 320.641 150.808 320.559 150.81ZM323.286 142.937C323.008 144.966 322.508 146.958 321.795 148.877C324.166 147.763 325.59 146.508 325.758 145.36C325.926 144.212 325.819 143.481 325.463 143.212C324.785 142.892 324.023 142.795 323.286 142.937Z" fill="#111D30"/>
<path d="M309.319 138.581C316.855 138.581 322.964 137.995 322.964 137.272C322.964 136.55 316.855 135.964 309.319 135.964C301.784 135.964 295.675 136.55 295.675 137.272C295.675 137.995 301.784 138.581 309.319 138.581Z" fill="#111D30"/>
<path d="M309.319 139.259C295.01 139.259 295.01 137.762 295.01 137.306C295.01 136.85 295.01 135.292 309.319 135.292C323.629 135.292 323.635 136.783 323.635 137.306C323.635 137.83 323.635 139.259 309.319 139.259ZM297.637 137.306C301.51 137.805 305.414 138.029 309.319 137.977C313.227 138.029 317.133 137.805 321.009 137.306C317.133 136.812 313.227 136.587 309.319 136.635C305.414 136.588 301.511 136.812 297.637 137.306Z" fill="#111D30"/>
<path d="M305.372 129.009C313.414 120.828 308.81 115.702 305.473 112.817C299.663 107.8 299.399 102.255 301.499 98.8587C310.241 84.5667 360.478 84.2177 337.051 68.0258C313.624 51.8339 351.144 33.711 351.144 33.711C359.288 29.1357 366.7 28.7403 373.093 33.8817C373.093 33.8817 328.612 49.0189 341.718 61.3412C354.823 73.6635 360.12 81.6819 320.414 92.9651C293.807 100.534 308.18 109.925 311.034 112.763C317.093 118.804 312.03 124.698 305.372 129.009Z" fill="white"/>
<path d="M314.301 128.482C321.153 122.41 323.331 117.819 318.672 112.639C311.221 104.372 313.609 100.805 331.28 95.3536C348.951 89.902 393.837 82.2791 378.724 69.9646C363.612 57.65 345.964 51.1283 379.323 33.1838C388.657 28.0656 398.822 31.4234 399.973 33.1838C376.165 45.1494 360.47 48.7631 382.52 62.2176C402.05 74.1444 397.22 82.1085 356.511 93.0194C319.901 102.829 316.992 104.652 322.351 110.444C328.768 117.385 325.33 122.937 314.301 128.482Z" fill="white"/>
<path d="M410.954 182.208C426.186 182.208 438.534 180.489 438.534 178.368C438.534 176.247 426.186 174.528 410.954 174.528C395.722 174.528 383.374 176.247 383.374 178.368C383.374 180.489 395.722 182.208 410.954 182.208Z" fill="#111D30"/>
<path d="M428.781 169.986H383.187L391.188 176.692C391.971 177.634 398.466 178.368 406.365 178.368C414.263 178.368 420.766 177.634 421.561 176.692H421.619L428.781 169.986Z" fill="white"/>
<path d="M406.391 179.018C401.33 179.018 392.565 178.641 390.878 177.25C390.846 177.235 390.815 177.215 390.788 177.192L382.773 170.486C382.67 170.401 382.597 170.286 382.562 170.157C382.527 170.028 382.532 169.891 382.577 169.765C382.623 169.639 382.705 169.531 382.814 169.454C382.923 169.377 383.053 169.336 383.186 169.336H428.78C428.91 169.337 429.036 169.376 429.143 169.45C429.25 169.523 429.332 169.627 429.38 169.748C429.427 169.87 429.437 170.002 429.409 170.129C429.38 170.256 429.315 170.372 429.22 170.46L422.058 177.166C422 177.225 421.929 177.269 421.852 177.296C420.016 178.647 411.393 179.018 406.391 179.018ZM391.524 176.126C391.595 176.165 391.658 176.216 391.712 176.276C392.319 176.873 397.768 177.718 406.391 177.718C415.013 177.718 420.455 176.893 421.069 176.243C421.136 176.166 421.221 176.106 421.315 176.068L427.132 170.61H384.97L391.524 176.126Z" fill="#111D30"/>
<path d="M405.712 171.552C418.46 171.552 428.793 170.566 428.793 169.35C428.793 168.133 418.46 167.147 405.712 167.147C392.965 167.147 382.631 168.133 382.631 169.35C382.631 170.566 392.965 171.552 405.712 171.552Z" fill="#111D30"/>
<path d="M405.712 172.208C399.526 172.208 393.709 171.974 389.333 171.559C382.547 170.909 381.984 170.142 381.984 169.356C381.984 168.57 382.547 167.797 389.333 167.147C393.709 166.731 399.526 166.497 405.712 166.497C411.898 166.497 417.715 166.731 422.097 167.147C428.884 167.797 429.446 168.563 429.446 169.356C429.446 170.149 428.884 170.909 422.097 171.559C417.721 171.974 411.898 172.208 405.712 172.208ZM383.697 169.356C385.811 170.071 393.696 170.909 405.712 170.909C417.728 170.909 425.613 170.071 427.727 169.356C425.613 168.635 417.728 167.797 405.712 167.797C393.696 167.797 385.811 168.635 383.697 169.356Z" fill="#111D30"/>
<path d="M406.462 151.657C408.286 151.657 409.765 150.17 409.765 148.337C409.765 146.503 408.286 145.016 406.462 145.016C404.638 145.016 403.159 146.503 403.159 148.337C403.159 150.17 404.638 151.657 406.462 151.657Z" fill="#111D30"/>
<path d="M406.914 147.901C406.846 147.904 406.778 147.893 406.714 147.869C406.553 147.815 406.419 147.7 406.341 147.548C406.264 147.396 406.249 147.22 406.3 147.057C406.378 146.816 408.239 141.209 413.41 141.157C413.582 141.157 413.746 141.225 413.867 141.347C413.988 141.469 414.057 141.634 414.057 141.807C414.057 141.979 413.988 142.144 413.867 142.266C413.746 142.388 413.582 142.456 413.41 142.456C409.144 142.521 407.548 147.252 407.483 147.453C407.444 147.576 407.368 147.685 407.267 147.765C407.166 147.844 407.043 147.892 406.914 147.901Z" fill="#111D30"/>
<path d="M418.096 154.171H394.026V170.831H418.096V154.171Z" fill="#DEF5C0"/>
<path d="M418.096 171.474H394.026C393.855 171.474 393.69 171.406 393.569 171.284C393.448 171.162 393.38 170.997 393.38 170.824V154.152C393.38 153.98 393.448 153.814 393.569 153.693C393.69 153.571 393.855 153.502 394.026 153.502H418.096C418.268 153.502 418.432 153.571 418.553 153.693C418.675 153.814 418.743 153.98 418.743 154.152V170.824C418.743 170.997 418.675 171.162 418.553 171.284C418.432 171.406 418.268 171.474 418.096 171.474ZM394.672 170.175H417.45V154.802H394.672V170.175Z" fill="#111D30"/>
<path d="M401.007 154.171H394.026V170.831H401.007V154.171Z" fill="#111D30"/>
<path d="M401.007 171.474H394.026C393.855 171.474 393.69 171.406 393.569 171.284C393.448 171.162 393.38 170.997 393.38 170.824V154.152C393.38 153.98 393.448 153.814 393.569 153.693C393.69 153.571 393.855 153.502 394.026 153.502H401.007C401.178 153.502 401.342 153.571 401.464 153.693C401.585 153.814 401.653 153.98 401.653 154.152V170.824C401.653 170.997 401.585 171.162 401.464 171.284C401.342 171.406 401.178 171.474 401.007 171.474ZM394.672 170.175H400.36V154.802H394.672V170.175Z" fill="#111D30"/>
<path d="M393.922 158.291C396.299 158.541 398.688 158.647 401.078 158.609C404.403 158.36 407.741 158.325 411.07 158.505C413.244 158.642 415.424 158.653 417.599 158.538L417.67 160.539C417.67 160.539 409.267 160.539 407.179 160.324C405.092 160.11 399.423 160.974 397.103 160.864C394.782 160.753 393.851 160.649 393.851 160.649L393.922 158.291Z" fill="#111D30"/>
<path d="M417.612 166.426C417.612 166.426 412.538 166.172 410.456 166.12C408.375 166.068 402.7 166.458 400.451 166.218C398.277 166.08 396.097 166.067 393.922 166.179L393.851 164.229C393.851 164.229 401.911 163.989 403.993 164.158C406.074 164.327 412.124 163.814 414.418 163.918C416.713 164.022 417.65 164.126 417.65 164.126L417.612 166.426Z" fill="#111D30"/>
<path d="M418.445 150.188H393.994C392.726 150.188 391.699 151.22 391.699 152.492C391.699 153.764 392.726 154.795 393.994 154.795H418.445C419.713 154.795 420.74 153.764 420.74 152.492C420.74 151.22 419.713 150.188 418.445 150.188Z" fill="white"/>
<path d="M418.445 155.451H393.987C393.232 155.416 392.519 155.089 391.997 154.539C391.475 153.989 391.184 153.258 391.184 152.498C391.184 151.738 391.475 151.007 391.997 150.457C392.519 149.908 393.232 149.581 393.987 149.545H418.445C418.843 149.526 419.24 149.589 419.612 149.729C419.985 149.869 420.326 150.083 420.613 150.359C420.901 150.636 421.13 150.967 421.287 151.335C421.443 151.703 421.524 152.098 421.524 152.498C421.524 152.898 421.443 153.294 421.287 153.662C421.13 154.029 420.901 154.361 420.613 154.637C420.326 154.913 419.985 155.128 419.612 155.268C419.24 155.408 418.843 155.47 418.445 155.451ZM393.987 150.838C393.569 150.865 393.176 151.05 392.889 151.358C392.602 151.665 392.442 152.07 392.442 152.492C392.442 152.913 392.602 153.319 392.889 153.626C393.176 153.933 393.569 154.119 393.987 154.145H418.445C418.67 154.16 418.895 154.127 419.107 154.051C419.319 153.974 419.513 153.854 419.677 153.7C419.841 153.545 419.972 153.357 420.061 153.15C420.151 152.942 420.197 152.718 420.197 152.492C420.197 152.266 420.151 152.042 420.061 151.834C419.972 151.626 419.841 151.439 419.677 151.284C419.513 151.129 419.319 151.01 419.107 150.933C418.895 150.856 418.67 150.824 418.445 150.838H393.987Z" fill="#111D30"/>
</svg>
