<svg width="111" height="137" viewBox="0 0 111 137" fill="none" xmlns="http://www.w3.org/2000/svg">
<path d="M1 8.94784C17.3333 3.1145 62 -5.05216 110 8.94784V126.448C63.6 142.448 18 133.115 1 126.448V8.94784Z" fill="url(#paint0_linear_29_15)"/>
<path d="M1 8.94784C17.3333 3.1145 62 -5.05216 110 8.94784M1 8.94784C47.4 22.9478 93 14.7812 110 8.94784M1 8.94784V126.448M110 8.94784V126.448M1 126.448C18 133.115 63.6 142.448 110 126.448M1 126.448C45.8 110.848 92.3333 119.948 110 126.448" stroke="black" stroke-width="2"/>
<path d="M5 8.71773C20.5 3.21771 63.5 -2.78227 106 8.71773C89.5 14.2177 44.5 20.7177 5 8.71773Z" fill="url(#paint1_linear_29_15)"/>
<defs>
<linearGradient id="paint0_linear_29_15" x1="55.5" y1="1.21771" x2="55.5" y2="135.282" gradientUnits="userSpaceOnUse">
<stop stop-color="#D0E2F6"/>
<stop offset="0.89013" stop-color="#D1E2F7"/>
<stop offset="0.94327" stop-color="#95B8E0"/>
<stop offset="1" stop-color="#C9DDF4"/>
</linearGradient>
<linearGradient id="paint1_linear_29_15" x1="5" y1="9.21772" x2="106" y2="9.21772" gradientUnits="userSpaceOnUse">
<stop stop-color="#A3BCD8"/>
<stop offset="1" stop-color="#CEE1F6"/>
</linearGradient>
</defs>
</svg>
