<svg width="72" height="72" viewBox="0 0 72 72" fill="none" xmlns="http://www.w3.org/2000/svg">
<path d="M27.9173 3.18279C25.1227 3.20158 22.3176 3.62136 19.5754 4.44402C18.6754 4.72527 18.1692 5.68108 18.4504 6.52483C18.7317 7.42483 19.6875 7.93108 20.5312 7.64983C33.975 3.54358 48.0937 10.7442 52.5937 24.0755C52.8187 24.8067 53.4942 25.2005 54.1692 25.2005C54.3379 25.2005 54.5067 25.1436 54.7317 25.0873C55.6317 24.8061 56.0808 23.8505 55.7995 22.9505C53.3808 15.8067 48.262 9.90027 41.4558 6.41277C37.2019 4.23308 32.575 3.15148 27.9173 3.18279ZM28.0129 11.0248C18.2254 11.0248 9.73123 17.6061 7.31248 27.0561C6.86248 28.7998 7.25667 30.5442 8.32542 31.9505C9.39417 33.3567 11.0245 34.1434 12.7683 34.1434C15.3558 34.1434 17.5502 32.3996 18.2252 29.9246C19.3502 25.4246 23.4004 22.3309 28.0129 22.3309C33.5817 22.3309 38.0817 26.8311 38.1379 32.3998V32.4559C38.1379 33.5246 37.9689 34.594 37.6314 35.6628L37.0689 37.2943C35.6064 41.6818 33.0185 45.6746 29.5873 48.7684C28.9123 49.3871 28.8564 50.4565 29.4752 51.1315C30.0939 51.8065 31.1623 51.8623 31.8373 51.2436C35.6623 47.7561 38.5873 43.3121 40.2748 38.3621L40.8373 36.7318C41.2873 35.3818 41.5129 33.9755 41.5129 32.513V32.4559C41.5129 25.0309 35.4379 18.9559 28.0129 18.9559C21.8254 18.9559 16.4812 23.1184 14.9062 29.0809C14.6812 30.0371 13.781 30.7684 12.7123 30.7684C11.981 30.7684 11.3627 30.4311 10.9127 29.8686C10.4627 29.3061 10.3495 28.6309 10.5183 27.9559C12.5433 19.9684 19.7433 14.4559 27.9558 14.4559C32.737 14.4559 37.2942 16.3123 40.6692 19.7436C44.0442 23.1748 45.9558 27.6746 45.9558 32.4559C45.9558 34.3684 45.6748 36.2818 45.056 38.138L44.4935 39.7684C41.906 47.5309 36.6183 54.169 29.6433 58.444C28.8558 58.9503 28.5745 59.9626 29.0808 60.7501C29.4183 61.2563 29.9817 61.5378 30.5442 61.5378C30.8254 61.5378 31.1627 61.4813 31.4439 61.3126C39.0939 56.6438 44.8879 49.3313 47.7004 40.7813L48.2629 39.1498C48.9942 36.9561 49.3879 34.7061 49.3879 32.3998C49.3879 20.5873 39.8254 11.0248 28.0129 11.0248ZM8.75388 11.138C8.32498 11.138 7.9031 11.3059 7.59373 11.6434C4.38748 14.7371 1.91204 18.7313 0.393286 23.0626C0.112036 23.9063 0.562256 24.863 1.46226 25.2005C1.63101 25.2567 1.79976 25.3126 2.02476 25.3126C2.69976 25.3126 3.3752 24.8626 3.6002 24.1876C4.89395 20.3626 7.08704 16.8753 9.95579 14.0065C10.6308 13.3315 10.6308 12.2621 9.95579 11.6434C9.61829 11.3059 9.18279 11.138 8.75388 11.138ZM28.1415 26.8254C27.2345 26.7913 26.3254 26.9715 25.4817 27.3934C24.1317 28.0684 23.1192 29.1938 22.6692 30.6563L22.1627 32.2317C20.5877 36.8443 16.3127 39.9376 11.4752 39.9376C10.5189 39.9376 9.7877 40.6688 9.7877 41.6251C9.7877 42.5813 10.5189 43.3126 11.4752 43.3126C17.7752 43.3126 23.3435 39.3184 25.3685 33.2996L25.875 31.7253C26.0437 31.1628 26.4375 30.7123 27 30.4311C27.5625 30.1498 28.1248 30.094 28.7435 30.319C29.9248 30.7128 30.5435 32.0063 30.1498 33.1876L29.6433 34.763C26.9995 42.5818 19.6877 47.8126 11.4752 47.8126C10.5189 47.8126 9.7877 48.5438 9.7877 49.5001C9.7877 50.4563 10.5189 51.1876 11.4752 51.1876C21.1502 51.1876 29.7567 44.9998 32.7942 35.7748L33.2995 34.2005C33.7495 32.7942 33.6933 31.2746 33.0183 29.9246C32.3433 28.5746 31.2189 27.5621 29.7564 27.1121C29.2291 26.9434 28.6856 26.8458 28.1415 26.8254ZM59.4679 46.1009C59.0736 46.1057 58.6755 46.1319 58.2748 46.1811C53.0998 46.7998 48.9373 51.019 48.431 56.194C47.6998 63.3378 53.6064 69.244 60.6939 68.569C65.869 68.0628 70.0879 64.0121 70.7629 58.8934C71.0442 56.5871 70.65 54.394 69.75 52.5378C69.5812 52.2003 69.0754 52.0871 68.7942 52.4246L60.9192 61.3126C60.6379 61.6501 60.0189 61.9311 59.5689 61.9311H59.5129C59.0067 61.9311 58.5 61.6505 58.2187 61.2005C57.4312 60.188 55.3495 57.5438 54.3933 56.2501C53.887 55.6313 53.887 54.6748 54.3933 54.0561C55.1245 53.2123 56.3629 53.3246 56.9817 54.1121L59.681 57.6003L66.8254 49.5001C67.0504 49.2751 66.9933 48.8811 66.7683 48.7123C64.7995 47.0881 62.228 46.0671 59.4679 46.1009ZM21.4958 53.9133C21.2699 53.9018 21.0375 53.9298 20.8125 54.0001C19.0687 54.6188 17.2127 55.1251 15.4127 55.4063C14.5127 55.5188 13.8377 56.419 14.0064 57.319C14.1189 58.1628 14.8502 58.7813 15.6939 58.7813H15.9192C18.0004 58.5001 20.0248 57.9371 21.9935 57.2059C22.8935 56.8684 23.2877 55.913 23.0064 55.013C22.7955 54.338 22.1735 53.9476 21.4958 53.9133Z" fill="white"/>
</svg>
