<svg width="20" height="20" viewBox="0 0 20 20" fill="none" xmlns="http://www.w3.org/2000/svg">
<g clip-path="url(#clip0_46_690)">
<path d="M6.2918 18.1252C13.8371 18.1252 17.9652 11.8724 17.9652 6.45173C17.9652 6.27595 17.9613 6.09626 17.9535 5.92048C18.7566 5.33973 19.4496 4.62039 20 3.79626C19.2521 4.12902 18.458 4.34633 17.6449 4.4408C18.5011 3.92761 19.1421 3.12141 19.4492 2.17166C18.6438 2.64898 17.763 2.98569 16.8445 3.16736C16.2257 2.50982 15.4075 2.07445 14.5164 1.92856C13.6253 1.78267 12.711 1.93439 11.9148 2.36026C11.1186 2.78614 10.4848 3.46244 10.1115 4.28461C9.73825 5.10678 9.64619 6.02903 9.84961 6.90877C8.21874 6.82693 6.62328 6.40327 5.16665 5.66527C3.71002 4.92726 2.42474 3.89138 1.39414 2.62478C0.870333 3.52789 0.710047 4.59655 0.945859 5.61359C1.18167 6.63063 1.79589 7.51972 2.66367 8.10017C2.01219 8.07949 1.37498 7.90408 0.804688 7.58845V7.63923C0.804104 8.58697 1.13175 9.50567 1.73192 10.2392C2.3321 10.9726 3.16777 11.4757 4.09687 11.6627C3.49338 11.8278 2.85999 11.8518 2.2457 11.733C2.50788 12.548 3.01798 13.2609 3.70481 13.7721C4.39164 14.2833 5.22093 14.5673 6.07695 14.5845C4.62369 15.7261 2.82848 16.3453 0.980469 16.3424C0.652739 16.3419 0.325333 16.3218 0 16.2822C1.87738 17.4866 4.06128 18.1263 6.2918 18.1252Z" fill="white"/>
</g>
<defs>
<clipPath id="clip0_46_690">
<rect width="20" height="20" fill="white"/>
</clipPath>
</defs>
</svg>
