<svg width="72" height="72" viewBox="0 0 72 72" fill="none" xmlns="http://www.w3.org/2000/svg">
<path d="M18.8438 6.1875C14.7938 6.1875 11.5312 9.45 11.5312 13.5V58.5C11.5312 62.55 14.7938 65.8125 18.8438 65.8125H53.1562C57.2062 65.8125 60.4688 62.55 60.4688 58.5V13.5C60.4688 9.45 57.2062 6.1875 53.1562 6.1875H18.8438ZM18.8438 9.5625H53.1562C55.35 9.5625 57.0938 11.3062 57.0938 13.5V58.5C57.0938 60.6938 55.35 62.4375 53.1562 62.4375H18.8438C16.65 62.4375 14.9062 60.6938 14.9062 58.5V13.5C14.9062 11.3062 16.65 9.5625 18.8438 9.5625ZM34.3125 16.5938V22.444L29.0248 19.5183L27.3933 22.444L32.5129 25.3125L27.3933 28.181L29.0248 31.1067L34.3125 28.181V34.0312H37.6875V28.181L42.9752 31.1067L44.6067 28.181L39.4871 25.3125L44.6067 22.444L42.9752 19.5183L37.6875 22.444V16.5938H34.3125ZM21.0938 41.0625C20.1375 41.0625 19.4062 41.7937 19.4062 42.75C19.4062 43.7063 20.1375 44.4375 21.0938 44.4375H49.7812C50.7375 44.4375 51.4688 43.7063 51.4688 42.75C51.4688 41.7937 50.7375 41.0625 49.7812 41.0625H21.0938ZM21.0938 49.5C20.1375 49.5 19.4062 50.2312 19.4062 51.1875C19.4062 52.1438 20.1375 52.875 21.0938 52.875H36C36.9563 52.875 37.6875 52.1438 37.6875 51.1875C37.6875 50.2312 36.9563 49.5 36 49.5H21.0938Z" fill="white"/>
</svg>
