<svg width="150" height="27" viewBox="0 0 150 27" fill="none" xmlns="http://www.w3.org/2000/svg">
<path d="M0 23.776V0.256001H3.456C4.75733 0.256001 5.86133 0.528001 6.768 1.072C7.67467 1.616 8.36267 2.416 8.832 3.472C9.30133 4.51733 9.536 5.792 9.536 7.296C9.536 8.36267 9.40267 9.33333 9.136 10.208C8.88 11.072 8.496 11.8187 7.984 12.448C7.472 13.0667 6.83733 13.5413 6.08 13.872C5.32267 14.2027 4.448 14.368 3.456 14.368V23.776H0ZM3.456 10.848C4.02133 10.848 4.47467 10.7893 4.816 10.672C5.15733 10.544 5.41867 10.3467 5.6 10.08C5.78133 9.80267 5.89867 9.44533 5.952 9.008C6.016 8.57067 6.048 8.04267 6.048 7.424C6.048 6.592 5.98933 5.90933 5.872 5.376C5.75467 4.832 5.50933 4.432 5.136 4.176C4.77333 3.90933 4.21333 3.776 3.456 3.776V10.848Z" fill="#111D30"/>
<path d="M15.634 24.032C14.2687 24.032 13.1753 23.5787 12.354 22.672C11.5327 21.7653 11.09 20.5227 11.026 18.944V5.088C11.0793 3.52 11.522 2.28267 12.354 1.376C13.186 0.458667 14.2793 0 15.634 0C16.9993 0 18.098 0.458667 18.93 1.376C19.762 2.29333 20.1993 3.53067 20.242 5.088V18.944C20.1993 20.512 19.762 21.7547 18.93 22.672C18.098 23.5787 16.9993 24.032 15.634 24.032ZM15.634 20.672C15.9967 20.672 16.2793 20.5173 16.482 20.208C16.6847 19.8987 16.786 19.4773 16.786 18.944V5.088C16.786 4.544 16.6847 4.12267 16.482 3.824C16.2793 3.51467 15.9967 3.36 15.634 3.36C15.2713 3.36 14.9887 3.51467 14.786 3.824C14.5833 4.12267 14.482 4.544 14.482 5.088V18.944C14.482 19.4773 14.5833 19.8987 14.786 20.208C14.9887 20.5173 15.2713 20.672 15.634 20.672Z" fill="#111D30"/>
<path d="M22.5625 23.776V0.256001H26.0185C26.9998 0.256001 27.8585 0.4 28.5945 0.688C29.3305 0.965333 29.9438 1.38667 30.4345 1.952C30.9252 2.51733 31.2932 3.22667 31.5385 4.08C31.7838 4.92267 31.9065 5.90933 31.9065 7.04C31.9065 7.69067 31.8638 8.29867 31.7785 8.864C31.6932 9.41867 31.5705 9.92533 31.4105 10.384C31.2505 10.832 31.0478 11.2267 30.8025 11.568C30.5678 11.8987 30.2958 12.1707 29.9865 12.384L32.1945 23.776H28.7385L26.9465 13.856H26.0185V23.776H22.5625ZM26.0185 10.656C26.4665 10.656 26.8505 10.5867 27.1705 10.448C27.4905 10.3093 27.7518 10.1013 27.9545 9.824C28.1678 9.536 28.3225 9.17333 28.4185 8.736C28.5252 8.29867 28.5785 7.776 28.5785 7.168C28.5785 6.35733 28.4878 5.696 28.3065 5.184C28.1252 4.672 27.8478 4.29333 27.4745 4.048C27.1012 3.80267 26.6158 3.68 26.0185 3.68V10.656Z" fill="#111D30"/>
<path d="M36.173 23.776V3.808H32.909V0.256001H42.893V3.808H39.629V23.776H36.173Z" fill="#111D30"/>
<path d="M44.25 23.776V0.256001H52.154V3.808H47.706V9.984H50.906V13.76H47.706V20.224H52.154V23.776H44.25Z" fill="#111D30"/>
<path d="M54.0625 23.776V0.256001H57.5185C58.4998 0.256001 59.3585 0.4 60.0945 0.688C60.8305 0.965333 61.4438 1.38667 61.9345 1.952C62.4252 2.51733 62.7932 3.22667 63.0385 4.08C63.2838 4.92267 63.4065 5.90933 63.4065 7.04C63.4065 7.69067 63.3638 8.29867 63.2785 8.864C63.1932 9.41867 63.0705 9.92533 62.9105 10.384C62.7505 10.832 62.5478 11.2267 62.3025 11.568C62.0678 11.8987 61.7958 12.1707 61.4865 12.384L63.6945 23.776H60.2385L58.4465 13.856H57.5185V23.776H54.0625ZM57.5185 10.656C57.9665 10.656 58.3505 10.5867 58.6705 10.448C58.9905 10.3093 59.2518 10.1013 59.4545 9.824C59.6678 9.536 59.8225 9.17333 59.9185 8.736C60.0252 8.29867 60.0785 7.776 60.0785 7.168C60.0785 6.35733 59.9878 5.696 59.8065 5.184C59.6252 4.672 59.3478 4.29333 58.9745 4.048C58.6012 3.80267 58.1158 3.68 57.5185 3.68V10.656Z" fill="#111D30"/>
<path d="M64.473 26.08L72.953 0.256001H75.481L67.097 26.08H64.473Z" fill="#111D30"/>
<path d="M79.147 23.776L75.979 0.256001H79.179L80.555 12.48L80.619 13.248H80.875L80.971 12.48L82.443 0.256001H84.939L86.411 12.48L86.507 13.248H86.763L86.827 12.48L88.203 0.256001H91.403L88.235 23.776H85.547L83.947 12.64L83.755 11.264H83.627L83.435 12.64L81.835 23.776H79.147Z" fill="#111D30"/>
<path d="M92.1025 23.776L95.6545 0.256001H99.8785L103.431 23.776H100.071L99.4305 18.976H96.1025L95.4625 23.776H92.1025ZM96.5825 15.328H98.9505L97.9585 7.904L97.8625 7.296H97.6705L97.5745 7.904L96.5825 15.328Z" fill="#111D30"/>
<path d="M106.683 23.776V13.76L103.163 0.256001H106.555L108.283 7.776L108.379 8H108.443L108.539 7.776L110.267 0.256001H113.659L110.139 13.76V23.776H106.683Z" fill="#111D30"/>
<path d="M115.156 23.776V0.256001H118.228L121.588 12.512L121.876 13.6H122.068V0.256001H125.236V23.776H122.164L118.804 11.52L118.516 10.432H118.324V23.776H115.156Z" fill="#111D30"/>
<path d="M127.781 23.776V0.256001H135.685V3.808H131.237V9.984H134.437V13.76H131.237V20.224H135.685V23.776H127.781Z" fill="#111D30"/>
<path d="M143.194 10.944V0.256001H145.338L146.394 5.248H146.49L147.546 0.256001H149.69V10.944H148.058V3.936L146.842 10.944H146.042L144.794 3.936V10.944H143.194ZM139.098 10.944V1.888H137.466V0.256001H142.49V1.888H140.858V10.944H139.098Z" fill="#111D30"/>
</svg>
