<svg width="212" height="32" viewBox="0 0 212 32" fill="none" xmlns="http://www.w3.org/2000/svg">
<path d="M23.4064 18.277C14.6438 20.2062 12.5991 26.1576 10.574 31.1445L12.4142 31.7812L13.3391 29.5627C13.8065 29.7267 14.2933 29.8521 14.6438 29.8521C25.3537 29.8521 28.2746 13.4541 28.2746 13.4541C27.3009 15.3833 20.4855 15.6244 15.6174 16.589C10.7493 17.5536 8.802 21.6531 8.802 23.5822C8.802 25.5114 10.5059 27.1994 10.5059 27.1994C13.6702 18.277 23.4064 18.277 23.4064 18.277Z" fill="#25C06D"/>
<path fill-rule="evenodd" clip-rule="evenodd" d="M13.366 0C5.98398 0 0 5.98397 0 13.366C0 18.8019 3.24475 23.4797 7.90314 25.5684V25.5606C7.66482 25.1861 7.45939 24.4991 7.4545 23.6198C6.74511 23.2099 6.0822 22.7286 5.47564 22.1856C6.32895 21.4204 7.28941 20.7834 8.32674 20.2952C8.71242 19.5704 9.24795 18.8201 9.97496 18.0742C9.81226 18.1167 9.65033 18.1624 9.48924 18.2113C9.27286 16.9539 9.13717 15.5801 9.10158 14.1322H17.6305C17.6256 14.3288 17.619 14.5241 17.6104 14.7179C18.0897 14.6442 18.6029 14.5761 19.1519 14.5152C19.1564 14.388 19.1601 14.2603 19.1632 14.1322H22.3609C24.0042 13.8746 25.8621 13.4818 26.7268 12.9906C26.528 5.78215 20.6225 0 13.366 0ZM22.3307 5.64088C23.9628 7.53312 25.0059 9.94767 25.1754 12.5999H19.1632C19.1249 10.9684 18.9653 9.41089 18.7036 7.98366C20.0328 7.40473 21.2579 6.61315 22.3307 5.64088ZM17.2428 8.52077C17.4592 9.77811 17.5948 11.1519 17.6305 12.5999H9.10158C9.13718 11.1519 9.27286 9.7781 9.48924 8.52076C10.744 8.90053 12.0503 9.09378 13.366 9.09217C14.6818 9.09378 15.988 8.90053 17.2428 8.52077ZM8.02842 18.7483C7.76675 17.3211 7.60711 15.7636 7.56888 14.1322H1.55667C1.72613 16.7844 2.76921 19.1989 4.40126 21.0911C5.47418 20.1189 6.69918 19.3273 8.02842 18.7483ZM8.02843 7.98365C7.76677 9.41088 7.60711 10.9684 7.56888 12.5999H1.55667C1.72613 9.94766 2.76922 7.5331 4.40128 5.64086C5.47421 6.61313 6.69919 7.40471 8.02843 7.98365ZM8.36059 6.45267C7.31032 5.96234 6.33825 5.31995 5.47568 4.54643C6.829 3.33487 8.46284 2.43025 10.2678 1.94195C9.82179 2.57114 9.42877 3.32742 9.09096 4.17194C8.81389 4.86458 8.56888 5.62935 8.36059 6.45267ZM11.961 2.28269C12.4737 1.74055 12.9487 1.53227 13.366 1.53227C13.7833 1.53227 14.2583 1.74055 14.771 2.28269C15.2853 2.82644 15.7837 3.6544 16.2184 4.74103C16.4892 5.41796 16.7294 6.18063 16.9318 7.01313C15.7805 7.37645 14.5783 7.56147 13.367 7.5599H13.365C12.1537 7.56147 10.9515 7.37644 9.80028 7.01312C10.0026 6.18062 10.2428 5.41796 10.5137 4.74103C10.9484 3.6544 11.4467 2.82644 11.961 2.28269ZM21.2564 4.54645C20.3938 5.31997 19.4217 5.96236 18.3715 6.45269C18.1632 5.62936 17.9182 4.86458 17.6411 4.17194C17.3032 3.32742 16.9102 2.57114 16.4642 1.94195C18.2692 2.43025 19.903 3.33488 21.2564 4.54645Z" fill="#25C06D"/>
<path d="M40.6021 7.36005H36.8071L43.4071 24.3881L42.7141 26.005C42.4171 26.731 42.1531 27.226 41.8891 27.424C41.6251 27.622 41.1301 27.7211 40.4701 27.7211H37.9621V30.856H41.7901C42.5821 30.856 43.2421 30.7241 43.7371 30.4601C44.1991 30.1961 44.6281 29.7671 44.9581 29.239C45.2881 28.711 45.6511 27.919 46.0471 26.896L53.7031 7.36005H49.9081L45.3211 20.3951L40.6021 7.36005Z" fill="#F5F6F7"/>
<path d="M70.9668 21.154H70.2738C69.5148 21.154 69.1518 20.758 69.1518 19.966V13.3C69.1518 11.32 68.5248 9.80205 67.3038 8.74605C66.0498 7.69005 64.3008 7.16205 62.0568 7.16205C59.9118 7.16205 58.1958 7.65705 56.8758 8.58105C55.5558 9.50505 54.7968 10.825 54.6318 12.508H58.1298C58.2618 11.782 58.6578 11.188 59.3178 10.726C59.9778 10.264 60.8358 10.033 61.8918 10.033C63.0468 10.033 63.9708 10.33 64.6308 10.858C65.2908 11.386 65.6208 12.145 65.6208 13.069V14.092H61.3638C58.9878 14.092 57.2058 14.587 55.9848 15.511C54.7308 16.435 54.1368 17.788 54.1368 19.504C54.1368 21.055 54.6978 22.276 55.8528 23.134C56.9748 24.025 58.4928 24.4541 60.4068 24.4541C62.8488 24.4541 64.6968 23.497 65.9838 21.55C65.9838 22.441 66.2148 23.101 66.7098 23.563C67.1718 24.025 67.9638 24.2561 69.0858 24.2561H70.9668V21.154ZM65.6208 16.732V17.326C65.5878 18.646 65.1588 19.702 64.3338 20.494C63.5088 21.286 62.3538 21.682 60.9018 21.682C59.9118 21.682 59.1528 21.484 58.5918 21.022C58.0308 20.593 57.7668 19.999 57.7668 19.273C57.7668 18.448 58.0638 17.821 58.6578 17.392C59.2518 16.963 60.0768 16.732 61.1988 16.732H65.6208Z" fill="#F5F6F7"/>
<path d="M75.7461 18.679H72.3141C72.3471 20.494 73.0731 21.913 74.4591 22.936C75.8451 23.959 77.6931 24.4541 79.9701 24.4541C81.2901 24.4541 82.5111 24.256 83.6001 23.827C84.6561 23.398 85.5141 22.771 86.1411 21.979C86.7351 21.187 87.0651 20.23 87.0651 19.174C87.0651 17.986 86.7681 17.062 86.1741 16.369C85.5801 15.676 84.7881 15.181 83.7981 14.851C82.8081 14.521 81.5871 14.29 80.1351 14.125C79.0461 13.993 78.2541 13.894 77.7921 13.795C77.2971 13.696 76.9011 13.531 76.5711 13.267C76.2411 13.003 76.1091 12.64 76.1091 12.112C76.1091 11.452 76.4061 10.891 77.0661 10.495C77.6931 10.099 78.5181 9.90105 79.5741 9.90105C80.5971 9.90105 81.4551 10.165 82.1481 10.66C82.8081 11.155 83.2041 11.782 83.3031 12.541H86.7681C86.6361 10.825 85.9101 9.50505 84.5901 8.54805C83.2701 7.62405 81.5211 7.12905 79.4091 7.12905C78.0891 7.12905 76.9341 7.36005 75.9111 7.78905C74.8881 8.25105 74.0961 8.87805 73.5021 9.67005C72.9081 10.462 72.6441 11.386 72.6441 12.409C72.6441 13.531 72.9081 14.389 73.5021 15.049C74.0961 15.709 74.8551 16.171 75.8121 16.468C76.7691 16.765 77.9901 16.996 79.4751 17.161C80.5311 17.293 81.3231 17.425 81.8511 17.557C82.3791 17.689 82.7751 17.887 83.1051 18.151C83.4021 18.448 83.5671 18.877 83.5671 19.438C83.5671 20.131 83.2041 20.692 82.5441 21.088C81.8841 21.484 80.9931 21.682 79.9371 21.682C78.7161 21.682 77.7261 21.4181 76.9671 20.857C76.2081 20.2961 75.8121 19.57 75.7461 18.679Z" fill="#F5F6F7"/>
<path d="M106.126 21.154H105.433C104.674 21.154 104.311 20.758 104.311 19.966V13.3C104.311 11.32 103.684 9.80205 102.463 8.74605C101.209 7.69005 99.46 7.16205 97.216 7.16205C95.071 7.16205 93.355 7.65705 92.035 8.58105C90.715 9.50505 89.956 10.825 89.791 12.508H93.2889C93.4209 11.782 93.8169 11.188 94.4769 10.726C95.1369 10.264 95.9949 10.033 97.0509 10.033C98.2059 10.033 99.13 10.33 99.79 10.858C100.45 11.386 100.78 12.145 100.78 13.069V14.092H96.5229C94.1469 14.092 92.3649 14.587 91.1439 15.511C89.8899 16.435 89.2959 17.788 89.2959 19.504C89.2959 21.055 89.8569 22.276 91.0119 23.134C92.1339 24.025 93.6519 24.4541 95.5659 24.4541C98.0079 24.4541 99.856 23.497 101.143 21.55C101.143 22.441 101.374 23.101 101.869 23.563C102.331 24.025 103.123 24.2561 104.245 24.2561H106.126V21.154ZM100.78 16.732V17.326C100.747 18.646 100.318 19.702 99.493 20.494C98.668 21.286 97.513 21.682 96.061 21.682C95.071 21.682 94.3119 21.484 93.7509 21.022C93.1899 20.593 92.9259 19.999 92.9259 19.273C92.9259 18.448 93.2229 17.821 93.8169 17.392C94.4109 16.963 95.2359 16.732 96.3579 16.732H100.78Z" fill="#F5F6F7"/>
<path d="M109.156 10.495V19.669C109.156 21.253 109.519 22.408 110.245 23.134C110.971 23.893 112.159 24.2561 113.776 24.2561H117.208V21.121H114.502C113.842 21.121 113.413 20.9891 113.149 20.725C112.885 20.4611 112.753 19.966 112.753 19.306V10.495H116.812V7.36005H112.753V2.64105H109.156V7.36005H106.219V10.495H109.156Z" fill="#F5F6F7"/>
<path d="M132.364 8.25105C131.143 7.59105 129.757 7.22805 128.206 7.22805C125.764 7.22805 123.817 8.21805 122.431 10.132L122.068 7.42605H119.725V30.856H122.431V21.682C122.959 22.54 123.718 23.2331 124.708 23.7281C125.665 24.2231 126.82 24.4541 128.206 24.4541C129.724 24.4541 131.11 24.091 132.364 23.365C133.585 22.639 134.542 21.649 135.235 20.3291C135.928 19.042 136.291 17.557 136.291 15.841C136.291 14.059 135.928 12.541 135.235 11.221C134.542 9.93405 133.585 8.94405 132.364 8.25105ZM131.968 20.3291C130.945 21.484 129.592 22.045 127.942 22.045C126.853 22.045 125.896 21.781 125.038 21.253C124.18 20.725 123.553 19.999 123.091 19.042C122.629 18.085 122.398 16.996 122.398 15.775C122.398 14.587 122.629 13.531 123.091 12.607C123.553 11.683 124.18 10.957 125.038 10.429C125.896 9.90105 126.853 9.63705 127.942 9.63705C129.592 9.63705 130.945 10.231 131.968 11.386C132.991 12.541 133.519 14.026 133.519 15.841C133.519 17.689 132.991 19.174 131.968 20.3291Z" fill="#8F939A"/>
<path d="M139.383 1.15605V24.2561H142.089V1.15605H139.383Z" fill="#8F939A"/>
<path d="M161.537 21.781H160.712C159.953 21.781 159.59 21.385 159.59 20.56V13.3C159.59 11.353 158.996 9.86805 157.808 8.81205C156.62 7.75605 154.97 7.22805 152.825 7.22805C150.779 7.22805 149.129 7.69005 147.875 8.61405C146.621 9.53805 145.895 10.825 145.697 12.475H148.403C148.568 11.617 149.03 10.957 149.789 10.429C150.548 9.90105 151.505 9.63705 152.693 9.63705C154.013 9.63705 155.036 9.96705 155.762 10.561C156.488 11.188 156.884 12.046 156.884 13.135V14.29H151.934C149.723 14.29 148.04 14.752 146.885 15.643C145.73 16.567 145.169 17.854 145.169 19.537C145.169 21.055 145.73 22.276 146.852 23.134C147.974 24.025 149.492 24.4541 151.373 24.4541C153.815 24.4541 155.696 23.53 157.016 21.649C157.016 22.507 157.28 23.1671 157.742 23.5961C158.204 24.0581 158.963 24.2561 160.052 24.2561H161.537V21.781ZM156.884 16.567V17.392C156.884 18.844 156.389 19.999 155.465 20.857C154.508 21.715 153.221 22.144 151.571 22.144C150.449 22.144 149.558 21.913 148.898 21.385C148.238 20.89 147.908 20.23 147.908 19.372C147.908 17.524 149.162 16.567 151.67 16.567H156.884Z" fill="#8F939A"/>
<path d="M165.729 18.712H163.023C163.023 20.527 163.716 21.946 165.036 22.936C166.356 23.959 168.138 24.4541 170.349 24.4541C171.57 24.4541 172.692 24.256 173.715 23.827C174.705 23.431 175.53 22.837 176.124 22.045C176.718 21.286 177.015 20.395 177.015 19.372C177.015 18.217 176.718 17.293 176.124 16.6C175.53 15.94 174.771 15.445 173.814 15.115C172.857 14.818 171.636 14.587 170.184 14.389C169.128 14.257 168.336 14.158 167.808 14.026C167.28 13.927 166.884 13.729 166.554 13.399C166.224 13.102 166.059 12.673 166.059 12.079C166.059 11.32 166.389 10.693 167.115 10.231C167.808 9.76905 168.732 9.50505 169.887 9.50505C171.009 9.50505 171.933 9.80205 172.692 10.363C173.418 10.957 173.847 11.683 173.979 12.541H176.685C176.553 10.825 175.86 9.50505 174.606 8.58105C173.352 7.65705 171.768 7.19505 169.788 7.19505C168.567 7.19505 167.478 7.42605 166.521 7.85505C165.531 8.28405 164.772 8.87805 164.211 9.63705C163.65 10.429 163.386 11.287 163.386 12.277C163.386 13.399 163.65 14.257 164.244 14.884C164.805 15.511 165.564 15.973 166.488 16.237C167.412 16.534 168.6 16.765 170.052 16.93C171.075 17.062 171.867 17.194 172.428 17.326C172.989 17.458 173.451 17.722 173.814 18.052C174.144 18.415 174.342 18.91 174.342 19.57C174.342 20.362 173.946 20.989 173.22 21.451C172.494 21.913 171.537 22.144 170.349 22.144C168.996 22.144 167.907 21.847 167.049 21.187C166.191 20.56 165.762 19.735 165.729 18.712Z" fill="#8F939A"/>
<path d="M181.207 9.90105V19.8671C181.207 21.3851 181.537 22.507 182.197 23.2C182.857 23.926 184.012 24.2561 185.596 24.2561H188.698V21.781H185.761C185.068 21.781 184.573 21.649 184.309 21.352C184.045 21.055 183.913 20.56 183.913 19.834V9.90105H188.17V7.42605H183.913V2.70705H181.207V7.42605H178.171V9.90105H181.207Z" fill="#8F939A"/>
<path d="M193.23 1.42005C192.9 1.09005 192.471 0.925049 191.976 0.925049C191.448 0.925049 191.052 1.09005 190.722 1.42005C190.392 1.75005 190.227 2.17905 190.227 2.67405C190.227 3.20205 190.392 3.59805 190.722 3.92805C191.052 4.25805 191.448 4.42305 191.976 4.42305C192.471 4.42305 192.9 4.25805 193.23 3.92805C193.56 3.59805 193.725 3.20205 193.725 2.67405C193.725 2.17905 193.56 1.75005 193.23 1.42005ZM190.623 7.42605V24.2561H193.329V7.42605H190.623Z" fill="#8F939A"/>
<path d="M197.036 1.15605V24.2561H199.742V19.801L203.108 16.27L208.718 24.2561H211.985L205.055 14.323L211.523 7.42605H208.289L199.742 16.468V1.15605H197.036Z" fill="#8F939A"/>
<rect x="77" y="26" width="6" height="2" fill="#F5F6F7"/>
</svg>
